<svg width="156" height="38" viewBox="0 0 156 38" fill="none" xmlns="http://www.w3.org/2000/svg">
<g clip-path="url(#clip0_329_1692)">
<path d="M28.7878 20.3108C26.5648 18.0864 22.9453 18.0856 20.7205 20.3108C19.6429 21.3882 19.0498 22.8211 19.0498 24.3455C19.0498 25.8694 19.6429 27.3023 20.7205 28.3797C21.7978 29.4576 23.2303 30.0508 24.7539 30.0508C25.9771 30.0508 27.1377 29.6629 28.1066 28.955L29.7106 30.5593C29.8841 30.7329 30.1115 30.8197 30.3388 30.8197C30.5661 30.8197 30.7934 30.7329 30.967 30.5593C31.3141 30.2122 31.3141 29.6886 30.967 29.3414L29.362 27.6974C30.985 25.4675 30.7979 22.3213 28.7878 20.3108ZM27.538 27.1151C27.5354 27.1176 27.5318 27.1183 27.5292 27.1209C27.5267 27.1234 27.526 27.127 27.5234 27.1296C26.7824 27.867 25.7999 28.2734 24.7539 28.2734C23.7049 28.2734 22.7188 27.8651 21.9769 27.123C21.2351 26.381 20.8268 25.3947 20.8268 24.3455C20.8268 23.2958 21.2351 22.3095 21.9769 21.5674C22.7188 20.8254 23.7049 20.4171 24.7539 20.4171C25.8034 20.4171 26.7895 20.8254 27.5314 21.5674C28.2733 22.3095 28.6815 23.2958 28.6815 24.3455C28.6815 25.3912 28.2752 26.3739 27.538 27.1151Z" fill="url(#paint0_radial_329_1692)"/>
<path d="M27.9797 12.275C27.9797 9.51015 26.295 7.2766 24.2096 7.2766H10.6422C8.56494 7.2766 6.87207 9.51015 6.87207 12.275V13.7713H27.9797V12.275ZM11.0184 11.5268H9.90616C9.48907 11.5268 9.1456 11.0715 9.1456 10.5185C9.1456 9.97638 9.48907 9.52094 9.90616 9.52094H11.0184C11.4355 9.52094 11.7707 9.97638 11.7707 10.5185C11.7707 11.0715 11.4355 11.5268 11.0184 11.5268ZM14.3959 11.5268H13.2837C12.8666 11.5268 12.5231 11.0715 12.5231 10.5185C12.5231 9.97638 12.8666 9.52094 13.2837 9.52094H14.3959C14.813 9.52094 15.1483 9.97638 15.1483 10.5185C15.1483 11.0715 14.813 11.5268 14.3959 11.5268Z" fill="url(#paint1_radial_329_1692)"/>
<path d="M10.6422 28.3843H18.7794C16.7267 25.5618 16.9939 21.6304 19.4555 19.0482C21.9455 16.7305 25.3218 16.1679 27.9797 17.9609V12.9594H6.87207V24.4294C6.87207 26.617 8.56494 28.3843 10.6422 28.3843Z" fill="url(#paint2_radial_329_1692)"/>
</g>
<path d="M40.9877 25.216C40.1957 25.216 39.4277 25.066 38.6837 24.766C37.9517 24.466 37.3037 24.04 36.7397 23.488L37.9637 22.066C38.3837 22.462 38.8637 22.786 39.4037 23.038C39.9437 23.278 40.4837 23.398 41.0237 23.398C41.6957 23.398 42.2057 23.26 42.5537 22.984C42.9017 22.708 43.0757 22.342 43.0757 21.886C43.0757 21.394 42.9017 21.04 42.5537 20.824C42.2177 20.608 41.7857 20.386 41.2577 20.158L39.6377 19.456C39.2537 19.288 38.8757 19.072 38.5037 18.808C38.1437 18.544 37.8437 18.208 37.6037 17.8C37.3757 17.392 37.2617 16.9 37.2617 16.324C37.2617 15.7 37.4297 15.142 37.7657 14.65C38.1137 14.146 38.5817 13.75 39.1697 13.462C39.7697 13.162 40.4537 13.012 41.2217 13.012C41.9057 13.012 42.5657 13.15 43.2017 13.426C43.8377 13.69 44.3837 14.05 44.8397 14.506L43.7777 15.838C43.4057 15.526 43.0097 15.28 42.5897 15.1C42.1817 14.92 41.7257 14.83 41.2217 14.83C40.6697 14.83 40.2197 14.956 39.8717 15.208C39.5357 15.448 39.3677 15.784 39.3677 16.216C39.3677 16.516 39.4517 16.768 39.6197 16.972C39.7997 17.164 40.0337 17.332 40.3217 17.476C40.6097 17.608 40.9157 17.74 41.2397 17.872L42.8417 18.538C43.5377 18.838 44.1077 19.234 44.5517 19.726C44.9957 20.206 45.2177 20.872 45.2177 21.724C45.2177 22.36 45.0497 22.942 44.7137 23.47C44.3777 23.998 43.8917 24.424 43.2557 24.748C42.6317 25.06 41.8757 25.216 40.9877 25.216ZM47.1783 25V16.162H49.2483V25H47.1783ZM48.2223 14.614C47.8503 14.614 47.5503 14.506 47.3223 14.29C47.0943 14.074 46.9803 13.786 46.9803 13.426C46.9803 13.078 47.0943 12.796 47.3223 12.58C47.5503 12.364 47.8503 12.256 48.2223 12.256C48.5943 12.256 48.8943 12.364 49.1223 12.58C49.3503 12.796 49.4643 13.078 49.4643 13.426C49.4643 13.786 49.3503 14.074 49.1223 14.29C48.8943 14.506 48.5943 14.614 48.2223 14.614ZM55.0032 25.216C53.9832 25.216 53.2572 24.922 52.8252 24.334C52.4052 23.734 52.1952 22.96 52.1952 22.012V17.8H50.9352V16.252L52.3032 16.162L52.5552 13.75H54.2832V16.162H56.5332V17.8H54.2832V22.012C54.2832 23.044 54.6972 23.56 55.5252 23.56C55.6812 23.56 55.8432 23.542 56.0112 23.506C56.1792 23.458 56.3232 23.41 56.4432 23.362L56.8032 24.892C56.5632 24.976 56.2872 25.048 55.9752 25.108C55.6752 25.18 55.3512 25.216 55.0032 25.216ZM61.8919 25.216C61.0759 25.216 60.3379 25.036 59.6779 24.676C59.0179 24.304 58.4959 23.776 58.1119 23.092C57.7279 22.396 57.5359 21.562 57.5359 20.59C57.5359 19.63 57.7279 18.802 58.1119 18.106C58.5079 17.41 59.0179 16.876 59.6419 16.504C60.2659 16.132 60.9199 15.946 61.6039 15.946C62.4079 15.946 63.0799 16.126 63.6199 16.486C64.1599 16.834 64.5679 17.326 64.8439 17.962C65.1199 18.586 65.2579 19.312 65.2579 20.14C65.2579 20.572 65.2279 20.908 65.1679 21.148H59.5519C59.6479 21.928 59.9299 22.534 60.3979 22.966C60.8659 23.398 61.4539 23.614 62.1619 23.614C62.5459 23.614 62.8999 23.56 63.2239 23.452C63.5599 23.332 63.8899 23.17 64.2139 22.966L64.9159 24.262C64.4959 24.538 64.0279 24.766 63.5119 24.946C62.9959 25.126 62.4559 25.216 61.8919 25.216ZM59.5339 19.744H63.4579C63.4579 19.06 63.3079 18.526 63.0079 18.142C62.7079 17.746 62.2579 17.548 61.6579 17.548C61.1419 17.548 60.6799 17.74 60.2719 18.124C59.8759 18.496 59.6299 19.036 59.5339 19.744ZM71.0184 25V13.228H73.1604L76.8324 19.852L78.0384 22.354H78.1104C78.0624 21.754 78.0024 21.1 77.9304 20.392C77.8704 19.684 77.8404 19 77.8404 18.34V13.228H79.8384V25H77.6964L74.0244 18.376L72.8184 15.874H72.7464C72.7944 16.498 72.8484 17.152 72.9084 17.836C72.9804 18.52 73.0164 19.192 73.0164 19.852V25H71.0184ZM84.7929 25.216C84.0249 25.216 83.3949 24.976 82.9029 24.496C82.4229 24.016 82.1829 23.392 82.1829 22.624C82.1829 21.676 82.5969 20.944 83.4249 20.428C84.2529 19.9 85.5729 19.54 87.3849 19.348C87.3729 18.88 87.2469 18.478 87.0069 18.142C86.7789 17.794 86.3649 17.62 85.7649 17.62C85.3329 17.62 84.9069 17.704 84.4869 17.872C84.0789 18.04 83.6769 18.244 83.2809 18.484L82.5249 17.098C83.0169 16.786 83.5689 16.516 84.1809 16.288C84.8049 16.06 85.4649 15.946 86.1609 15.946C87.2649 15.946 88.0869 16.276 88.6269 16.936C89.1789 17.584 89.4549 18.526 89.4549 19.762V25H87.7449L87.6009 24.028H87.5289C87.1329 24.364 86.7069 24.646 86.2509 24.874C85.8069 25.102 85.3209 25.216 84.7929 25.216ZM85.4589 23.596C85.8189 23.596 86.1429 23.512 86.4309 23.344C86.7309 23.164 87.0489 22.924 87.3849 22.624V20.644C86.1849 20.8 85.3509 21.034 84.8829 21.346C84.4149 21.646 84.1809 22.018 84.1809 22.462C84.1809 22.858 84.3009 23.146 84.5409 23.326C84.7809 23.506 85.0869 23.596 85.4589 23.596ZM93.9122 25L90.8342 16.162H92.9402L94.3442 20.752C94.4642 21.184 94.5842 21.622 94.7042 22.066C94.8362 22.51 94.9622 22.96 95.0822 23.416H95.1542C95.2862 22.96 95.4122 22.51 95.5322 22.066C95.6642 21.622 95.7902 21.184 95.9102 20.752L97.3142 16.162H99.3122L96.3062 25H93.9122ZM100.844 25V16.162H102.914V25H100.844ZM101.888 14.614C101.516 14.614 101.216 14.506 100.988 14.29C100.76 14.074 100.646 13.786 100.646 13.426C100.646 13.078 100.76 12.796 100.988 12.58C101.216 12.364 101.516 12.256 101.888 12.256C102.26 12.256 102.56 12.364 102.788 12.58C103.016 12.796 103.13 13.078 103.13 13.426C103.13 13.786 103.016 14.074 102.788 14.29C102.56 14.506 102.26 14.614 101.888 14.614ZM108.633 28.906C107.937 28.906 107.307 28.822 106.743 28.654C106.191 28.486 105.753 28.228 105.429 27.88C105.117 27.544 104.961 27.118 104.961 26.602C104.961 25.87 105.381 25.24 106.221 24.712V24.64C105.993 24.496 105.801 24.304 105.645 24.064C105.501 23.824 105.429 23.524 105.429 23.164C105.429 22.816 105.525 22.504 105.717 22.228C105.921 21.94 106.149 21.706 106.401 21.526V21.454C106.101 21.226 105.831 20.908 105.591 20.5C105.363 20.092 105.249 19.63 105.249 19.114C105.249 18.43 105.411 17.854 105.735 17.386C106.059 16.918 106.485 16.564 107.013 16.324C107.553 16.072 108.129 15.946 108.741 15.946C108.981 15.946 109.209 15.97 109.425 16.018C109.653 16.054 109.857 16.102 110.037 16.162H113.205V17.692H111.585C111.729 17.86 111.849 18.076 111.945 18.34C112.041 18.592 112.089 18.874 112.089 19.186C112.089 19.834 111.939 20.386 111.639 20.842C111.339 21.286 110.937 21.622 110.433 21.85C109.929 22.078 109.365 22.192 108.741 22.192C108.549 22.192 108.351 22.174 108.147 22.138C107.943 22.102 107.739 22.042 107.535 21.958C107.403 22.078 107.295 22.198 107.211 22.318C107.139 22.438 107.103 22.6 107.103 22.804C107.103 23.056 107.205 23.254 107.409 23.398C107.625 23.542 108.003 23.614 108.543 23.614H110.109C111.177 23.614 111.981 23.788 112.521 24.136C113.073 24.472 113.349 25.024 113.349 25.792C113.349 26.368 113.157 26.89 112.773 27.358C112.389 27.838 111.843 28.216 111.135 28.492C110.427 28.768 109.593 28.906 108.633 28.906ZM108.741 20.896C109.161 20.896 109.521 20.74 109.821 20.428C110.121 20.116 110.271 19.678 110.271 19.114C110.271 18.562 110.121 18.136 109.821 17.836C109.533 17.524 109.173 17.368 108.741 17.368C108.309 17.368 107.943 17.518 107.643 17.818C107.343 18.118 107.193 18.55 107.193 19.114C107.193 19.678 107.343 20.116 107.643 20.428C107.943 20.74 108.309 20.896 108.741 20.896ZM108.957 27.556C109.665 27.556 110.241 27.412 110.685 27.124C111.129 26.836 111.351 26.506 111.351 26.134C111.351 25.786 111.213 25.552 110.937 25.432C110.673 25.312 110.289 25.252 109.785 25.252H108.579C108.099 25.252 107.697 25.21 107.373 25.126C106.917 25.474 106.689 25.864 106.689 26.296C106.689 26.692 106.893 26.998 107.301 27.214C107.709 27.442 108.261 27.556 108.957 27.556ZM116.732 25.216C115.964 25.216 115.334 24.976 114.842 24.496C114.362 24.016 114.122 23.392 114.122 22.624C114.122 21.676 114.536 20.944 115.364 20.428C116.192 19.9 117.512 19.54 119.324 19.348C119.312 18.88 119.186 18.478 118.946 18.142C118.718 17.794 118.304 17.62 117.704 17.62C117.272 17.62 116.846 17.704 116.426 17.872C116.018 18.04 115.616 18.244 115.22 18.484L114.464 17.098C114.956 16.786 115.508 16.516 116.12 16.288C116.744 16.06 117.404 15.946 118.1 15.946C119.204 15.946 120.026 16.276 120.566 16.936C121.118 17.584 121.394 18.526 121.394 19.762V25H119.684L119.54 24.028H119.468C119.072 24.364 118.646 24.646 118.19 24.874C117.746 25.102 117.26 25.216 116.732 25.216ZM117.398 23.596C117.758 23.596 118.082 23.512 118.37 23.344C118.67 23.164 118.988 22.924 119.324 22.624V20.644C118.124 20.8 117.29 21.034 116.822 21.346C116.354 21.646 116.12 22.018 116.12 22.462C116.12 22.858 116.24 23.146 116.48 23.326C116.72 23.506 117.026 23.596 117.398 23.596ZM126.704 25.216C125.684 25.216 124.958 24.922 124.526 24.334C124.106 23.734 123.896 22.96 123.896 22.012V17.8H122.636V16.252L124.004 16.162L124.256 13.75H125.984V16.162H128.234V17.8H125.984V22.012C125.984 23.044 126.398 23.56 127.226 23.56C127.382 23.56 127.544 23.542 127.712 23.506C127.88 23.458 128.024 23.41 128.144 23.362L128.504 24.892C128.264 24.976 127.988 25.048 127.676 25.108C127.376 25.18 127.052 25.216 126.704 25.216ZM133.431 25.216C132.699 25.216 132.015 25.036 131.379 24.676C130.743 24.304 130.227 23.776 129.831 23.092C129.435 22.396 129.237 21.562 129.237 20.59C129.237 19.606 129.435 18.772 129.831 18.088C130.227 17.392 130.743 16.864 131.379 16.504C132.015 16.132 132.699 15.946 133.431 15.946C134.175 15.946 134.865 16.132 135.501 16.504C136.137 16.864 136.653 17.392 137.049 18.088C137.445 18.772 137.643 19.606 137.643 20.59C137.643 21.562 137.445 22.396 137.049 23.092C136.653 23.776 136.137 24.304 135.501 24.676C134.865 25.036 134.175 25.216 133.431 25.216ZM133.431 23.524C134.079 23.524 134.589 23.254 134.961 22.714C135.333 22.174 135.519 21.466 135.519 20.59C135.519 19.702 135.333 18.988 134.961 18.448C134.589 17.908 134.079 17.638 133.431 17.638C132.783 17.638 132.273 17.908 131.901 18.448C131.541 18.988 131.361 19.702 131.361 20.59C131.361 21.466 131.541 22.174 131.901 22.714C132.273 23.254 132.783 23.524 133.431 23.524ZM139.692 25V16.162H141.402L141.546 17.728H141.618C141.93 17.152 142.308 16.714 142.752 16.414C143.196 16.102 143.652 15.946 144.12 15.946C144.54 15.946 144.876 16.006 145.128 16.126L144.768 17.926C144.612 17.878 144.468 17.842 144.336 17.818C144.204 17.794 144.042 17.782 143.85 17.782C143.502 17.782 143.136 17.92 142.752 18.196C142.368 18.46 142.038 18.928 141.762 19.6V25H139.692Z" fill="#1C3769"/>
<defs>
<radialGradient id="paint0_radial_329_1692" cx="0" cy="0" r="1" gradientUnits="userSpaceOnUse" gradientTransform="translate(25.1708 24.7741) rotate(51.0107) scale(7.57403 7.57403)">
<stop stop-color="#256CF1"/>
<stop offset="1" stop-color="#11357C"/>
</radialGradient>
<radialGradient id="paint1_radial_329_1692" cx="0" cy="0" r="1" gradientTransform="matrix(8.26001 3.13974 10.2042 -2.54154 17.4817 10.5469)" gradientUnits="userSpaceOnUse">
<stop stop-color="#256CF1"/>
<stop offset="1" stop-color="#11357C"/>
</radialGradient>
<radialGradient id="paint2_radial_329_1692" cx="0" cy="0" r="1" gradientTransform="matrix(8.26001 7.45689 10.2042 -6.03617 17.4817 20.7265)" gradientUnits="userSpaceOnUse">
<stop stop-color="#256CF1"/>
<stop offset="1" stop-color="#11357C"/>
</radialGradient>
<clipPath id="clip0_329_1692">
<rect width="25.8723" height="25.8723" fill="white" transform="translate(6.06348 6.06383)"/>
</clipPath>
</defs>
</svg>
