<svg width="217" height="124" viewBox="0 0 217 124" fill="none" xmlns="http://www.w3.org/2000/svg">
<g filter="url(#filter0_d_329_1738)">
<g clip-path="url(#clip0_329_1738)">
<path d="M14 8.79263C14 5.00553 17.07 1.93549 20.8571 1.93549H184.74C188.527 1.93549 191.597 5.00553 191.597 8.79263V115.078C191.597 118.865 188.527 121.935 184.74 121.935H20.8572C17.0701 121.935 14 118.865 14 115.078V8.79263Z" fill="white"/>
<path d="M13.8896 9.6571C13.8896 5.86641 16.9626 2.79346 20.7533 2.79346H183.765C187.556 2.79346 190.629 5.86642 190.629 9.65711V21.6685H13.8896V9.6571Z" fill="#E6EBF3"/>
<circle cx="23.7031" cy="12.4972" r="3.10639" fill="#F76C82"/>
<circle cx="34.8857" cy="12.4972" r="3.10639" fill="#FBD277"/>
<circle cx="46.0693" cy="12.4972" r="3.10639" fill="#B4DF80"/>
<rect x="20.8633" y="29.3901" width="163.012" height="24.0228" rx="12.0114" fill="#F1F3F4"/>
<path d="M36.8161 43.8188C38.9896 43.8188 40.7578 42.0506 40.7578 39.8771C40.7578 37.7037 38.9896 35.9354 36.8161 35.9354C34.6426 35.9354 32.8744 37.7037 32.8744 39.8771C32.8744 42.0506 34.6426 43.8188 36.8161 43.8188ZM36.8161 36.7238C38.5552 36.7238 39.9695 38.1381 39.9695 39.8771C39.9695 41.6162 38.5552 43.0305 36.8161 43.0305C35.077 43.0305 33.6627 41.6162 33.6627 39.8771C33.6627 38.1381 35.0778 36.7238 36.8161 36.7238Z" fill="#1C3769" stroke="#1C3769" stroke-width="0.857956"/>
<path d="M43.6333 47.0889C43.7112 47.0889 43.7873 47.0658 43.8521 47.0226C43.9169 46.9793 43.9674 46.9178 43.9972 46.8459C44.0271 46.7739 44.035 46.6947 44.0199 46.6183C44.0047 46.5419 43.9673 46.4717 43.9123 46.4165L39.604 42.1082C39.5297 42.0364 39.4301 41.9967 39.3268 41.9976C39.2234 41.9985 39.1246 42.0399 39.0515 42.113C38.9784 42.1861 38.937 42.285 38.9361 42.3883C38.9352 42.4917 38.9749 42.5912 39.0467 42.6656L43.3542 46.9731C43.3908 47.0098 43.4343 47.0389 43.4822 47.0588C43.5301 47.0787 43.5814 47.0889 43.6333 47.0889Z" fill="#1C3769" stroke="#1C3769" stroke-width="0.857956"/>
<path d="M55.2777 43.1044C55.2777 42.9579 55.2549 42.8277 55.2093 42.7138C55.167 42.5999 55.0905 42.4957 54.9799 42.4013C54.8692 42.3069 54.7129 42.2158 54.5111 42.1279C54.3125 42.0367 54.0586 41.9439 53.7494 41.8495C53.4108 41.7454 53.0983 41.6298 52.8119 41.5029C52.5287 41.3727 52.2813 41.2229 52.0697 41.0536C51.8581 40.8811 51.6937 40.6842 51.5765 40.4628C51.4593 40.2382 51.4008 39.9794 51.4008 39.6865C51.4008 39.3967 51.461 39.1331 51.5814 38.8954C51.7051 38.6578 51.8793 38.4527 52.1039 38.2802C52.3317 38.1044 52.6003 37.9693 52.9095 37.8749C53.2188 37.7773 53.5606 37.7285 53.9349 37.7285C54.4623 37.7285 54.9164 37.8261 55.2972 38.0214C55.6814 38.2167 55.9759 38.4788 56.181 38.8076C56.3894 39.1363 56.4935 39.4993 56.4935 39.8964H55.2777C55.2777 39.662 55.2273 39.4553 55.1263 39.2763C55.0287 39.094 54.8789 38.9508 54.6771 38.8466C54.4786 38.7425 54.2263 38.6904 53.9203 38.6904C53.6306 38.6904 53.3897 38.7343 53.1976 38.8222C53.0056 38.9101 52.8623 39.0289 52.7679 39.1786C52.6735 39.3284 52.6263 39.4977 52.6263 39.6865C52.6263 39.8199 52.6573 39.942 52.7191 40.0527C52.781 40.1601 52.8754 40.261 53.0023 40.3554C53.1293 40.4466 53.2888 40.5328 53.4808 40.6142C53.6729 40.6956 53.8991 40.7737 54.1595 40.8486C54.5534 40.9658 54.8968 41.096 55.1898 41.2392C55.4828 41.3792 55.7269 41.5387 55.9222 41.7177C56.1175 41.8967 56.264 42.1002 56.3617 42.3281C56.4593 42.5527 56.5082 42.8082 56.5082 43.0947C56.5082 43.3941 56.448 43.6643 56.3275 43.9052C56.2071 44.1428 56.0345 44.3463 55.8099 44.5156C55.5886 44.6816 55.3217 44.8102 55.0092 44.9013C54.6999 44.9892 54.3549 45.0331 53.974 45.0331C53.6322 45.0331 53.2953 44.9876 52.9633 44.8964C52.6345 44.8053 52.335 44.6669 52.0648 44.4814C51.7946 44.2926 51.5798 44.0582 51.4203 43.7783C51.2608 43.4951 51.181 43.1647 51.181 42.787H52.4066C52.4066 43.0182 52.4457 43.2151 52.5238 43.3779C52.6052 43.5406 52.7175 43.6741 52.8607 43.7783C53.0039 43.8792 53.17 43.954 53.3588 44.0029C53.5508 44.0517 53.7559 44.0761 53.974 44.0761C54.2605 44.0761 54.4997 44.0354 54.6918 43.954C54.8871 43.8727 55.0336 43.7587 55.1312 43.6122C55.2289 43.4658 55.2777 43.2965 55.2777 43.1044ZM61.5814 37.8261H62.8021V42.5771C62.8021 43.1175 62.6849 43.5699 62.4506 43.9345C62.2162 44.2991 61.8972 44.5742 61.4935 44.7597C61.0931 44.942 60.6455 45.0331 60.1508 45.0331C59.6397 45.0331 59.184 44.942 58.7836 44.7597C58.3832 44.5742 58.0674 44.2991 57.8363 43.9345C57.6084 43.5699 57.4945 43.1175 57.4945 42.5771V37.8261H58.7152V42.5771C58.7152 42.9189 58.7738 43.2005 58.891 43.4218C59.0082 43.6399 59.1742 43.801 59.389 43.9052C59.6039 44.0094 59.8578 44.0615 60.1508 44.0615C60.4437 44.0615 60.696 44.0094 60.9076 43.9052C61.1224 43.801 61.2884 43.6399 61.4056 43.4218C61.5228 43.2005 61.5814 42.9189 61.5814 42.5771V37.8261ZM66.5717 43.6367L68.4418 37.8261H69.7943L67.2455 44.9355H66.3324L66.5717 43.6367ZM64.8431 37.8261L66.6986 43.6367L66.9525 44.9355H66.0345L63.4955 37.8261H64.8431ZM77.6605 43.998V44.9355H72.8949V44.1298L75.2093 41.6054C75.4633 41.3189 75.6634 41.0716 75.8099 40.8632C75.9564 40.6549 76.059 40.4677 76.1175 40.3017C76.1794 40.1324 76.2103 39.968 76.2103 39.8085C76.2103 39.5839 76.168 39.387 76.0834 39.2177C76.002 39.0452 75.8815 38.9101 75.722 38.8124C75.5625 38.7115 75.3689 38.6611 75.141 38.6611C74.8773 38.6611 74.656 38.718 74.4769 38.832C74.2979 38.9459 74.1628 39.1038 74.0717 39.3056C73.9805 39.5042 73.9349 39.732 73.9349 39.9892H72.7582C72.7582 39.5758 72.8526 39.1982 73.0414 38.8564C73.2302 38.5113 73.5036 38.2379 73.8617 38.0361C74.2198 37.831 74.6511 37.7285 75.1556 37.7285C75.6309 37.7285 76.0345 37.8082 76.3666 37.9677C76.6986 38.1272 76.9509 38.3535 77.1234 38.6464C77.2992 38.9394 77.3871 39.2861 77.3871 39.6865C77.3871 39.9078 77.3513 40.1275 77.2797 40.3456C77.208 40.5637 77.1055 40.7818 76.972 40.9999C76.8418 41.2148 76.6872 41.4313 76.5082 41.6494C76.3291 41.8642 76.1322 42.0823 75.9174 42.3036L74.3793 43.998H77.6605ZM83.2123 40.7851V41.9472C83.2123 42.5038 83.1569 42.9791 83.0463 43.373C82.9388 43.7636 82.7826 44.081 82.5775 44.3251C82.3724 44.5693 82.1267 44.7483 81.8402 44.8622C81.557 44.9762 81.2396 45.0331 80.8881 45.0331C80.6081 45.0331 80.3477 44.9973 80.1068 44.9257C79.8692 44.8541 79.6543 44.7418 79.4623 44.5888C79.2702 44.4358 79.1058 44.2389 78.9691 43.998C78.8356 43.7538 78.7315 43.4625 78.6566 43.124C78.585 42.7854 78.5492 42.3932 78.5492 41.9472V40.7851C78.5492 40.2252 78.6045 39.7532 78.7152 39.3691C78.8259 38.9817 78.9838 38.6676 79.1888 38.4267C79.3939 38.1826 79.6381 38.0051 79.9213 37.8945C80.2077 37.7838 80.5267 37.7285 80.8783 37.7285C81.1615 37.7285 81.4219 37.7643 81.6595 37.8359C81.9004 37.9042 82.1153 38.0133 82.3041 38.163C82.4961 38.3128 82.6589 38.5081 82.7924 38.749C82.9291 38.9866 83.0332 39.2747 83.1049 39.6132C83.1765 39.9485 83.2123 40.3391 83.2123 40.7851ZM82.0355 42.1132V40.6093C82.0355 40.3261 82.0192 40.0771 81.9867 39.8622C81.9541 39.6441 81.9053 39.4602 81.8402 39.3105C81.7784 39.1575 81.7002 39.0338 81.6058 38.9394C81.5114 38.8417 81.404 38.7717 81.2836 38.7294C81.1631 38.6839 81.028 38.6611 80.8783 38.6611C80.696 38.6611 80.5332 38.6969 80.39 38.7685C80.2468 38.8369 80.1263 38.9475 80.0287 39.1005C79.931 39.2535 79.8562 39.4553 79.8041 39.706C79.7552 39.9534 79.7308 40.2545 79.7308 40.6093V42.1132C79.7308 42.3997 79.7471 42.652 79.7797 42.8701C79.8122 43.0882 79.861 43.2753 79.9261 43.4316C79.9912 43.5846 80.0694 43.7115 80.1605 43.8124C80.2549 43.9101 80.3623 43.9817 80.4828 44.0273C80.6065 44.0729 80.7416 44.0956 80.8881 44.0956C81.0736 44.0956 81.238 44.0598 81.3812 43.9882C81.5245 43.9166 81.6449 43.8027 81.7425 43.6464C81.8402 43.4869 81.9134 43.2802 81.9623 43.0263C82.0111 42.7724 82.0355 42.468 82.0355 42.1132ZM89.0277 43.998V44.9355H84.2621V44.1298L86.5765 41.6054C86.8304 41.3189 87.0306 41.0716 87.1771 40.8632C87.3236 40.6549 87.4261 40.4677 87.4847 40.3017C87.5466 40.1324 87.5775 39.968 87.5775 39.8085C87.5775 39.5839 87.5352 39.387 87.4506 39.2177C87.3692 39.0452 87.2487 38.9101 87.0892 38.8124C86.9297 38.7115 86.736 38.6611 86.5082 38.6611C86.2445 38.6611 86.0231 38.718 85.8441 38.832C85.6651 38.9459 85.53 39.1038 85.4388 39.3056C85.3477 39.5042 85.3021 39.732 85.3021 39.9892H84.1254C84.1254 39.5758 84.2198 39.1982 84.4086 38.8564C84.5974 38.5113 84.8708 38.2379 85.2289 38.0361C85.587 37.831 86.0183 37.7285 86.5228 37.7285C86.9981 37.7285 87.4017 37.8082 87.7338 37.9677C88.0658 38.1272 88.3181 38.3535 88.4906 38.6464C88.6664 38.9394 88.7543 39.2861 88.7543 39.6865C88.7543 39.9078 88.7185 40.1275 88.6468 40.3456C88.5752 40.5637 88.4727 40.7818 88.3392 40.9999C88.209 41.2148 88.0544 41.4313 87.8754 41.6494C87.6963 41.8642 87.4994 42.0823 87.2845 42.3036L85.7465 43.998H89.0277ZM91.181 41.6298L90.2435 41.4003L90.6293 37.8261H94.4623V38.8222H91.6058L91.4105 40.5654C91.5212 40.5003 91.6742 40.4368 91.8695 40.3749C92.0648 40.3098 92.2878 40.2773 92.5384 40.2773C92.8737 40.2773 93.1732 40.3326 93.4369 40.4433C93.7038 40.5507 93.93 40.7086 94.1156 40.9169C94.3011 41.122 94.4427 41.3727 94.5404 41.6689C94.6381 41.9619 94.6869 42.2923 94.6869 42.6601C94.6869 42.9889 94.6381 43.2965 94.5404 43.5829C94.446 43.8694 94.3028 44.1217 94.1107 44.3398C93.9187 44.5579 93.6761 44.7288 93.3832 44.8525C93.0935 44.9729 92.75 45.0331 92.3529 45.0331C92.0567 45.0331 91.7718 44.9908 91.4984 44.9062C91.2282 44.8183 90.9857 44.6897 90.7709 44.5204C90.556 44.3479 90.3835 44.1363 90.2533 43.8857C90.1231 43.6318 90.0482 43.3404 90.0287 43.0117H91.181C91.2103 43.2428 91.2738 43.4397 91.3715 43.6025C91.4724 43.762 91.6058 43.8841 91.7718 43.9687C91.9379 44.0533 92.1299 44.0956 92.348 44.0956C92.5466 44.0956 92.7175 44.0615 92.8607 43.9931C93.0039 43.9215 93.1228 43.8206 93.2172 43.6904C93.3148 43.5569 93.3864 43.4007 93.432 43.2216C93.4808 43.0426 93.5052 42.844 93.5052 42.6259C93.5052 42.4176 93.4776 42.2272 93.4222 42.0546C93.3702 41.8821 93.2904 41.7324 93.183 41.6054C93.0788 41.4785 92.947 41.3808 92.7875 41.3124C92.628 41.2408 92.444 41.205 92.2357 41.205C91.9558 41.205 91.7409 41.2457 91.5912 41.3271C91.4447 41.4085 91.308 41.5094 91.181 41.6298Z" fill="#1C3769"/>
</g>
<path d="M20.8574 2.4306H184.74C188.254 2.43086 191.102 5.27929 191.102 8.79291V115.078C191.102 118.592 188.254 121.44 184.74 121.44H20.8574C17.3436 121.44 14.4951 118.592 14.4951 115.078V8.79291C14.4951 5.27914 17.3437 2.4306 20.8574 2.4306Z" stroke="#DDE5ED" stroke-width="0.98979"/>
</g>
<g filter="url(#filter1_d_329_1738)">
<rect x="3" y="64.9355" width="200" height="30" rx="3.43182" fill="white"/>
<g clip-path="url(#clip1_329_1738)">
<path d="M31.5515 80.9962C30.1767 79.6206 27.9383 79.6201 26.5625 80.9962C25.8961 81.6625 25.5293 82.5486 25.5293 83.4913C25.5293 84.4338 25.8961 85.3199 26.5625 85.9862C27.2287 86.6528 28.1146 87.0196 29.0569 87.0196C29.8133 87.0196 30.531 86.7798 31.1302 86.3419L32.1221 87.3341C32.2295 87.4414 32.3701 87.4951 32.5106 87.4951C32.6512 87.4951 32.7918 87.4414 32.8991 87.3341C33.1138 87.1194 33.1138 86.7956 32.8991 86.5809L31.9066 85.5642C32.9103 84.1852 32.7946 82.2395 31.5515 80.9962ZM30.7786 85.2041C30.7769 85.2057 30.7747 85.2061 30.7732 85.2077C30.7716 85.2093 30.7711 85.2115 30.7696 85.2131C30.3113 85.6691 29.7037 85.9204 29.0569 85.9204C28.4081 85.9204 27.7983 85.6679 27.3395 85.209C26.8807 84.7501 26.6282 84.1402 26.6282 83.4913C26.6282 82.8422 26.8807 82.2322 27.3395 81.7733C27.7983 81.3144 28.4081 81.0619 29.0569 81.0619C29.7059 81.0619 30.3157 81.3144 30.7745 81.7733C31.2333 82.2322 31.4857 82.8422 31.4857 83.4913C31.4857 84.138 31.2345 84.7457 30.7786 85.2041Z" fill="url(#paint0_radial_329_1738)"/>
<path d="M31.0524 76.0266C31.0524 74.3168 30.0106 72.9355 28.7209 72.9355H20.3305C19.0459 72.9355 17.999 74.3168 17.999 76.0266V76.9519H31.0524V76.0266ZM20.5632 75.5639H19.8754C19.6174 75.5639 19.405 75.2823 19.405 74.9403C19.405 74.6051 19.6174 74.3234 19.8754 74.3234H20.5632C20.8211 74.3234 21.0285 74.6051 21.0285 74.9403C21.0285 75.2823 20.8211 75.5639 20.5632 75.5639ZM22.6519 75.5639H21.9641C21.7062 75.5639 21.4937 75.2823 21.4937 74.9403C21.4937 74.6051 21.7062 74.3234 21.9641 74.3234H22.6519C22.9099 74.3234 23.1172 74.6051 23.1172 74.9403C23.1172 75.2823 22.9099 75.5639 22.6519 75.5639Z" fill="url(#paint1_radial_329_1738)"/>
<path d="M20.3305 85.9889H25.3627C24.0933 84.2434 24.2586 81.8122 25.7809 80.2153C27.3208 78.782 29.4087 78.4341 31.0524 79.5429V76.4499H17.999V83.5431C17.999 84.896 19.0459 85.9889 20.3305 85.9889Z" fill="url(#paint2_radial_329_1738)"/>
</g>
<path d="M41.4688 81.4472C41.4688 81.3456 41.4531 81.2545 41.4219 81.1738C41.3932 81.0904 41.3385 81.0149 41.2578 80.9472C41.1771 80.8769 41.0638 80.8079 40.918 80.7402C40.7721 80.6725 40.5833 80.6022 40.3516 80.5292C40.0938 80.4459 39.849 80.3522 39.6172 80.248C39.388 80.1438 39.1849 80.0227 39.0078 79.8847C38.8333 79.7441 38.6953 79.5813 38.5938 79.3964C38.4948 79.2115 38.4453 78.9967 38.4453 78.7519C38.4453 78.5149 38.4974 78.3001 38.6016 78.1074C38.7057 77.912 38.8516 77.7454 39.0391 77.6074C39.2266 77.4667 39.4479 77.3587 39.7031 77.2831C39.9609 77.2076 40.2435 77.1699 40.5508 77.1699C40.9701 77.1699 41.3359 77.2454 41.6484 77.3964C41.9609 77.5475 42.2031 77.7545 42.375 78.0175C42.5495 78.2805 42.6367 78.5813 42.6367 78.9199H41.4727C41.4727 78.7532 41.4375 78.6074 41.3672 78.4824C41.2995 78.3548 41.1953 78.2545 41.0547 78.1816C40.9167 78.1087 40.7422 78.0722 40.5312 78.0722C40.3281 78.0722 40.1589 78.1035 40.0234 78.166C39.888 78.2259 39.7865 78.3079 39.7188 78.412C39.651 78.5136 39.6172 78.6282 39.6172 78.7558C39.6172 78.8522 39.6406 78.9394 39.6875 79.0175C39.737 79.0956 39.8099 79.1686 39.9062 79.2363C40.0026 79.304 40.1211 79.3678 40.2617 79.4277C40.4023 79.4876 40.5651 79.5462 40.75 79.6035C41.0599 79.6972 41.332 79.8027 41.5664 79.9199C41.8034 80.037 42.0013 80.1686 42.1602 80.3144C42.319 80.4602 42.4388 80.6256 42.5195 80.8105C42.6003 80.9954 42.6406 81.205 42.6406 81.4394C42.6406 81.6868 42.5924 81.9081 42.4961 82.1035C42.3997 82.2988 42.2604 82.4641 42.0781 82.5995C41.8958 82.735 41.6784 82.8378 41.4258 82.9081C41.1732 82.9785 40.8906 83.0136 40.5781 83.0136C40.2969 83.0136 40.0195 82.9772 39.7461 82.9042C39.4727 82.8287 39.224 82.7154 39 82.5644C38.7786 82.4134 38.6016 82.2206 38.4688 81.9863C38.3359 81.7519 38.2695 81.4745 38.2695 81.1542H39.4453C39.4453 81.3313 39.4727 81.4811 39.5273 81.6035C39.582 81.7259 39.6589 81.8248 39.7578 81.9003C39.8594 81.9759 39.9792 82.0305 40.1172 82.0644C40.2578 82.0982 40.4115 82.1152 40.5781 82.1152C40.7812 82.1152 40.9479 82.0865 41.0781 82.0292C41.2109 81.9719 41.3086 81.8925 41.3711 81.791C41.4362 81.6894 41.4688 81.5748 41.4688 81.4472ZM45.3125 83.0136C44.9844 83.0136 44.6901 82.9615 44.4297 82.8574C44.1693 82.7506 43.9479 82.6035 43.7656 82.416C43.5859 82.2285 43.4479 82.011 43.3516 81.7636C43.2552 81.5136 43.207 81.248 43.207 80.9667V80.8105C43.207 80.4902 43.2526 80.1972 43.3438 79.9316C43.4349 79.666 43.5651 79.4355 43.7344 79.2402C43.9062 79.0449 44.1146 78.8951 44.3594 78.791C44.6042 78.6842 44.8802 78.6308 45.1875 78.6308C45.487 78.6308 45.7526 78.6803 45.9844 78.7792C46.2161 78.8782 46.4102 79.0188 46.5664 79.2011C46.7253 79.3834 46.8451 79.6022 46.9258 79.8574C47.0065 80.11 47.0469 80.3912 47.0469 80.7011V81.1699H43.6875V80.4199H45.9414V80.3339C45.9414 80.1777 45.9128 80.0384 45.8555 79.916C45.8008 79.791 45.7174 79.692 45.6055 79.6191C45.4935 79.5462 45.3503 79.5097 45.1758 79.5097C45.0273 79.5097 44.8997 79.5423 44.793 79.6074C44.6862 79.6725 44.599 79.7636 44.5312 79.8808C44.4661 79.998 44.4167 80.136 44.3828 80.2949C44.3516 80.4511 44.3359 80.623 44.3359 80.8105V80.9667C44.3359 81.136 44.3594 81.2923 44.4062 81.4355C44.4557 81.5787 44.5247 81.7024 44.6133 81.8066C44.7044 81.9107 44.8138 81.9915 44.9414 82.0488C45.0716 82.1061 45.2188 82.1347 45.3828 82.1347C45.5859 82.1347 45.7747 82.0956 45.9492 82.0175C46.1263 81.9368 46.2786 81.8157 46.4062 81.6542L46.9531 82.248C46.8646 82.3756 46.7435 82.498 46.5898 82.6152C46.4388 82.7324 46.2565 82.8287 46.043 82.9042C45.8294 82.9772 45.5859 83.0136 45.3125 83.0136ZM49.9688 81.9824V80.0995C49.9688 79.9641 49.9466 79.8482 49.9023 79.7519C49.8581 79.6529 49.7891 79.5761 49.6953 79.5214C49.6042 79.4667 49.4857 79.4394 49.3398 79.4394C49.2148 79.4394 49.1068 79.4615 49.0156 79.5058C48.9245 79.5475 48.8542 79.6087 48.8047 79.6894C48.7552 79.7675 48.7305 79.86 48.7305 79.9667H47.6055C47.6055 79.787 47.6471 79.6165 47.7305 79.455C47.8138 79.2936 47.9349 79.1516 48.0938 79.0292C48.2526 78.9042 48.4414 78.8066 48.6602 78.7363C48.8815 78.666 49.1289 78.6308 49.4023 78.6308C49.7305 78.6308 50.0221 78.6855 50.2773 78.7949C50.5326 78.9042 50.7331 79.0683 50.8789 79.287C51.0273 79.5058 51.1016 79.7792 51.1016 80.1074V81.916C51.1016 82.1477 51.1159 82.3378 51.1445 82.4863C51.1732 82.6321 51.2148 82.7597 51.2695 82.8691V82.9355H50.1328C50.0781 82.8209 50.0365 82.6777 50.0078 82.5058C49.9818 82.3313 49.9688 82.1568 49.9688 81.9824ZM50.1172 80.3613L50.125 80.998H49.4961C49.3477 80.998 49.2188 81.0149 49.1094 81.0488C49 81.0826 48.9102 81.1308 48.8398 81.1933C48.7695 81.2532 48.7174 81.3235 48.6836 81.4042C48.6523 81.485 48.6367 81.5735 48.6367 81.6699C48.6367 81.7662 48.6589 81.8535 48.7031 81.9316C48.7474 82.0071 48.8112 82.067 48.8945 82.1113C48.9779 82.1529 49.0755 82.1738 49.1875 82.1738C49.3568 82.1738 49.5039 82.1399 49.6289 82.0722C49.7539 82.0045 49.8503 81.9212 49.918 81.8222C49.9883 81.7232 50.0247 81.6295 50.0273 81.541L50.3242 82.0175C50.2826 82.1243 50.2253 82.235 50.1523 82.3495C50.082 82.4641 49.9922 82.5722 49.8828 82.6738C49.7734 82.7727 49.6419 82.8548 49.4883 82.9199C49.3346 82.9824 49.1523 83.0136 48.9414 83.0136C48.6732 83.0136 48.4297 82.9602 48.2109 82.8535C47.9948 82.7441 47.8229 82.5943 47.6953 82.4042C47.5703 82.2115 47.5078 81.9928 47.5078 81.748C47.5078 81.5266 47.5495 81.33 47.6328 81.1581C47.7161 80.9863 47.8385 80.8417 48 80.7245C48.1641 80.6048 48.3685 80.5149 48.6133 80.455C48.8581 80.3925 49.1419 80.3613 49.4648 80.3613H50.1172ZM53.0938 79.6308V82.9355H51.9688V78.7089H53.0273L53.0938 79.6308ZM54.3672 78.6816L54.3477 79.7245C54.293 79.7167 54.2266 79.7102 54.1484 79.705C54.0729 79.6972 54.0039 79.6933 53.9414 79.6933C53.7826 79.6933 53.6445 79.7141 53.5273 79.7558C53.4128 79.7949 53.3164 79.8535 53.2383 79.9316C53.1628 80.0097 53.1055 80.1048 53.0664 80.2167C53.0299 80.3287 53.0091 80.4563 53.0039 80.5995L52.7773 80.5292C52.7773 80.2558 52.8047 80.0045 52.8594 79.7753C52.9141 79.5436 52.9935 79.3417 53.0977 79.1699C53.2044 78.998 53.3346 78.8652 53.4883 78.7714C53.6419 78.6777 53.8177 78.6308 54.0156 78.6308C54.0781 78.6308 54.1419 78.636 54.207 78.6464C54.2721 78.6542 54.3255 78.666 54.3672 78.6816ZM56.5664 82.1347C56.7044 82.1347 56.8268 82.1087 56.9336 82.0566C57.0404 82.0019 57.1237 81.9264 57.1836 81.83C57.2461 81.7311 57.2786 81.6152 57.2812 81.4824H58.3398C58.3372 81.7792 58.2578 82.0436 58.1016 82.2753C57.9453 82.5045 57.7357 82.6855 57.4727 82.8183C57.2096 82.9485 56.9154 83.0136 56.5898 83.0136C56.2617 83.0136 55.9753 82.9589 55.7305 82.8495C55.4883 82.7402 55.2865 82.5891 55.125 82.3964C54.9635 82.2011 54.8424 81.9745 54.7617 81.7167C54.681 81.4563 54.6406 81.1777 54.6406 80.8808V80.7675C54.6406 80.468 54.681 80.1894 54.7617 79.9316C54.8424 79.6712 54.9635 79.4446 55.125 79.2519C55.2865 79.0566 55.4883 78.9042 55.7305 78.7949C55.9727 78.6855 56.2565 78.6308 56.582 78.6308C56.9284 78.6308 57.2318 78.6972 57.4922 78.83C57.7552 78.9628 57.9609 79.1529 58.1094 79.4003C58.2604 79.6451 58.3372 79.9355 58.3398 80.2714H57.2812C57.2786 80.1308 57.2487 80.0032 57.1914 79.8886C57.1367 79.774 57.056 79.6829 56.9492 79.6152C56.8451 79.5449 56.7161 79.5097 56.5625 79.5097C56.3984 79.5097 56.2643 79.5449 56.1602 79.6152C56.056 79.6829 55.9753 79.7766 55.918 79.8964C55.8607 80.0136 55.8203 80.1477 55.7969 80.2988C55.776 80.4472 55.7656 80.6035 55.7656 80.7675V80.8808C55.7656 81.0449 55.776 81.2024 55.7969 81.3535C55.8177 81.5045 55.8568 81.6386 55.9141 81.7558C55.974 81.873 56.056 81.9654 56.1602 82.0331C56.2643 82.1009 56.3997 82.1347 56.5664 82.1347ZM60.0898 76.9355V82.9355H58.9648V76.9355H60.0898ZM59.9297 80.6738H59.6211C59.6237 80.3795 59.6628 80.1087 59.7383 79.8613C59.8138 79.6113 59.9219 79.3951 60.0625 79.2128C60.2031 79.0279 60.3711 78.8847 60.5664 78.7831C60.7643 78.6816 60.9831 78.6308 61.2227 78.6308C61.431 78.6308 61.6198 78.6607 61.7891 78.7206C61.9609 78.7779 62.1081 78.8717 62.2305 79.0019C62.3555 79.1295 62.4518 79.2975 62.5195 79.5058C62.5872 79.7141 62.6211 79.9667 62.6211 80.2636V82.9355H61.4883V80.2558C61.4883 80.0683 61.4609 79.9212 61.4062 79.8144C61.3542 79.705 61.2773 79.6282 61.1758 79.5839C61.0768 79.537 60.9544 79.5136 60.8086 79.5136C60.6471 79.5136 60.5091 79.5436 60.3945 79.6035C60.2826 79.6634 60.1927 79.7467 60.125 79.8535C60.0573 79.9576 60.0078 80.08 59.9766 80.2206C59.9453 80.3613 59.9297 80.5123 59.9297 80.6738ZM66.9023 82.9355H65.7695V78.3339C65.7695 78.0136 65.832 77.7441 65.957 77.5253C66.0846 77.304 66.263 77.1373 66.4922 77.0253C66.724 76.9107 66.9987 76.8535 67.3164 76.8535C67.4206 76.8535 67.5208 76.8613 67.6172 76.8769C67.7135 76.8899 67.8073 76.9068 67.8984 76.9277L67.8867 77.7753C67.8372 77.7623 67.7852 77.7532 67.7305 77.748C67.6758 77.7428 67.612 77.7402 67.5391 77.7402C67.4036 77.7402 67.2878 77.7636 67.1914 77.8105C67.0977 77.8548 67.026 77.9212 66.9766 78.0097C66.9271 78.0982 66.9023 78.2063 66.9023 78.3339V82.9355ZM67.7461 78.7089V79.5058H65.1406V78.7089H67.7461ZM68.1562 80.8652V80.7831C68.1562 80.4732 68.2005 80.1881 68.2891 79.9277C68.3776 79.6647 68.5065 79.4368 68.6758 79.2441C68.8451 79.0514 69.0534 78.9016 69.3008 78.7949C69.5482 78.6855 69.832 78.6308 70.1523 78.6308C70.4727 78.6308 70.7578 78.6855 71.0078 78.7949C71.2578 78.9016 71.4674 79.0514 71.6367 79.2441C71.8086 79.4368 71.9388 79.6647 72.0273 79.9277C72.1159 80.1881 72.1602 80.4732 72.1602 80.7831V80.8652C72.1602 81.1725 72.1159 81.4576 72.0273 81.7206C71.9388 81.9811 71.8086 82.2089 71.6367 82.4042C71.4674 82.5969 71.2591 82.7467 71.0117 82.8535C70.7643 82.9602 70.4805 83.0136 70.1602 83.0136C69.8398 83.0136 69.5547 82.9602 69.3047 82.8535C69.0573 82.7467 68.8477 82.5969 68.6758 82.4042C68.5065 82.2089 68.3776 81.9811 68.2891 81.7206C68.2005 81.4576 68.1562 81.1725 68.1562 80.8652ZM69.2812 80.7831V80.8652C69.2812 81.0423 69.2969 81.2076 69.3281 81.3613C69.3594 81.5149 69.4089 81.6503 69.4766 81.7675C69.5469 81.8821 69.638 81.9719 69.75 82.037C69.862 82.1022 69.9987 82.1347 70.1602 82.1347C70.3164 82.1347 70.4505 82.1022 70.5625 82.037C70.6745 81.9719 70.7643 81.8821 70.832 81.7675C70.8997 81.6503 70.9492 81.5149 70.9805 81.3613C71.0143 81.2076 71.0312 81.0423 71.0312 80.8652V80.7831C71.0312 80.6113 71.0143 80.4498 70.9805 80.2988C70.9492 80.1451 70.8984 80.0097 70.8281 79.8925C70.7604 79.7727 70.6706 79.679 70.5586 79.6113C70.4466 79.5436 70.3112 79.5097 70.1523 79.5097C69.9935 79.5097 69.8581 79.5436 69.7461 79.6113C69.6367 79.679 69.5469 79.7727 69.4766 79.8925C69.4089 80.0097 69.3594 80.1451 69.3281 80.2988C69.2969 80.4498 69.2812 80.6113 69.2812 80.7831ZM73.9766 79.6308V82.9355H72.8516V78.7089H73.9102L73.9766 79.6308ZM75.25 78.6816L75.2305 79.7245C75.1758 79.7167 75.1094 79.7102 75.0312 79.705C74.9557 79.6972 74.8867 79.6933 74.8242 79.6933C74.6654 79.6933 74.5273 79.7141 74.4102 79.7558C74.2956 79.7949 74.1992 79.8535 74.1211 79.9316C74.0456 80.0097 73.9883 80.1048 73.9492 80.2167C73.9128 80.3287 73.8919 80.4563 73.8867 80.5995L73.6602 80.5292C73.6602 80.2558 73.6875 80.0045 73.7422 79.7753C73.7969 79.5436 73.8763 79.3417 73.9805 79.1699C74.0872 78.998 74.2174 78.8652 74.3711 78.7714C74.5247 78.6777 74.7005 78.6308 74.8984 78.6308C74.9609 78.6308 75.0247 78.636 75.0898 78.6464C75.1549 78.6542 75.2083 78.666 75.25 78.6816Z" fill="#1C3769"/>
<path d="M81.0273 81.498C81.0273 81.3652 81.0065 81.248 80.9648 81.1464C80.9258 81.0423 80.8555 80.9485 80.7539 80.8652C80.6549 80.7818 80.5169 80.7024 80.3398 80.6269C80.1654 80.5514 79.944 80.4745 79.6758 80.3964C79.3945 80.3131 79.1406 80.2206 78.9141 80.1191C78.6875 80.0149 78.4935 79.8964 78.332 79.7636C78.1706 79.6308 78.0469 79.4785 77.9609 79.3066C77.875 79.1347 77.832 78.9381 77.832 78.7167C77.832 78.4954 77.8776 78.291 77.9688 78.1035C78.0599 77.916 78.1901 77.7532 78.3594 77.6152C78.5312 77.4745 78.7357 77.3652 78.9727 77.287C79.2096 77.2089 79.474 77.1699 79.7656 77.1699C80.1927 77.1699 80.5547 77.2519 80.8516 77.416C81.151 77.5774 81.3789 77.7897 81.5352 78.0527C81.6914 78.3131 81.7695 78.5917 81.7695 78.8886H81.0195C81.0195 78.6751 80.974 78.4863 80.8828 78.3222C80.7917 78.1555 80.6536 78.0253 80.4688 77.9316C80.2839 77.8352 80.0495 77.787 79.7656 77.787C79.4974 77.787 79.276 77.8274 79.1016 77.9081C78.9271 77.9889 78.7969 78.0982 78.7109 78.2363C78.6276 78.3743 78.5859 78.5318 78.5859 78.7089C78.5859 78.8287 78.6107 78.9381 78.6602 79.037C78.7122 79.1334 78.7917 79.2232 78.8984 79.3066C79.0078 79.3899 79.1458 79.4667 79.3125 79.537C79.4818 79.6074 79.6836 79.6751 79.918 79.7402C80.2409 79.8313 80.5195 79.9329 80.7539 80.0449C80.9883 80.1568 81.181 80.2831 81.332 80.4238C81.4857 80.5618 81.599 80.7193 81.6719 80.8964C81.7474 81.0709 81.7852 81.2688 81.7852 81.4902C81.7852 81.7219 81.7383 81.9316 81.6445 82.1191C81.5508 82.3066 81.4167 82.4667 81.2422 82.5995C81.0677 82.7324 80.8581 82.8352 80.6133 82.9081C80.3711 82.9785 80.1003 83.0136 79.8008 83.0136C79.5378 83.0136 79.2786 82.9772 79.0234 82.9042C78.7708 82.8313 78.5404 82.7219 78.332 82.5761C78.1263 82.4303 77.9609 82.2506 77.8359 82.037C77.7135 81.8209 77.6523 81.5709 77.6523 81.287H78.4023C78.4023 81.4824 78.4401 81.6503 78.5156 81.791C78.5911 81.929 78.694 82.0436 78.8242 82.1347C78.957 82.2259 79.1068 82.2936 79.2734 82.3378C79.4427 82.3795 79.6185 82.4003 79.8008 82.4003C80.0638 82.4003 80.2865 82.3639 80.4688 82.291C80.651 82.218 80.7891 82.1139 80.8828 81.9785C80.9792 81.843 81.0273 81.6829 81.0273 81.498ZM86 77.248H86.75V81.0956C86.75 81.5227 86.6549 81.8782 86.4648 82.162C86.2747 82.4459 86.0221 82.6594 85.707 82.8027C85.3945 82.9433 85.0547 83.0136 84.6875 83.0136C84.3021 83.0136 83.9531 82.9433 83.6406 82.8027C83.3307 82.6594 83.0846 82.4459 82.9023 82.162C82.7227 81.8782 82.6328 81.5227 82.6328 81.0956V77.248H83.3789V81.0956C83.3789 81.3925 83.4336 81.6373 83.543 81.83C83.6523 82.0227 83.8047 82.166 84 82.2597C84.1979 82.3535 84.4271 82.4003 84.6875 82.4003C84.9505 82.4003 85.1797 82.3535 85.375 82.2597C85.5729 82.166 85.7266 82.0227 85.8359 81.83C85.9453 81.6373 86 81.3925 86 81.0956V77.248ZM89.7695 82.0722L91.4453 77.248H92.2617L90.1562 82.9355H89.5742L89.7695 82.0722ZM88.2031 77.248L89.8633 82.0722L90.0703 82.9355H89.4883L87.3867 77.248H88.2031ZM98.5508 82.3417V82.9355H94.8281V82.416L96.6914 80.3417C96.9206 80.0865 97.0977 79.8704 97.2227 79.6933C97.3503 79.5136 97.4388 79.3535 97.4883 79.2128C97.5404 79.0696 97.5664 78.9238 97.5664 78.7753C97.5664 78.5878 97.5273 78.4186 97.4492 78.2675C97.3737 78.1139 97.2617 77.9915 97.1133 77.9003C96.9648 77.8092 96.7852 77.7636 96.5742 77.7636C96.3216 77.7636 96.1107 77.8131 95.9414 77.912C95.7747 78.0084 95.6497 78.1438 95.5664 78.3183C95.4831 78.4928 95.4414 78.6933 95.4414 78.9199H94.7188C94.7188 78.5995 94.7891 78.3066 94.9297 78.041C95.0703 77.7753 95.2786 77.5644 95.5547 77.4081C95.8307 77.2493 96.1706 77.1699 96.5742 77.1699C96.9336 77.1699 97.2409 77.2337 97.4961 77.3613C97.7513 77.4863 97.9466 77.6634 98.082 77.8925C98.2201 78.1191 98.2891 78.3847 98.2891 78.6894C98.2891 78.8561 98.2604 79.0253 98.2031 79.1972C98.1484 79.3665 98.0716 79.5357 97.9727 79.705C97.8763 79.8743 97.763 80.041 97.6328 80.205C97.5052 80.3691 97.3685 80.5305 97.2227 80.6894L95.6992 82.3417H98.5508ZM102.895 79.6386V80.5058C102.895 80.9719 102.853 81.3652 102.77 81.6855C102.686 82.0058 102.566 82.2636 102.41 82.4589C102.254 82.6542 102.065 82.7962 101.844 82.8847C101.625 82.9706 101.378 83.0136 101.102 83.0136C100.883 83.0136 100.681 82.9863 100.496 82.9316C100.311 82.8769 100.145 82.7897 99.9961 82.6699C99.8503 82.5475 99.7253 82.3886 99.6211 82.1933C99.5169 81.998 99.4375 81.761 99.3828 81.4824C99.3281 81.2037 99.3008 80.8782 99.3008 80.5058V79.6386C99.3008 79.1725 99.3424 78.7818 99.4258 78.4667C99.5117 78.1516 99.6328 77.899 99.7891 77.7089C99.9453 77.5162 100.133 77.3782 100.352 77.2949C100.573 77.2115 100.82 77.1699 101.094 77.1699C101.315 77.1699 101.518 77.1972 101.703 77.2519C101.891 77.304 102.057 77.3886 102.203 77.5058C102.349 77.6204 102.473 77.774 102.574 77.9667C102.678 78.1568 102.758 78.3899 102.812 78.666C102.867 78.942 102.895 79.2662 102.895 79.6386ZM102.168 80.623V79.5175C102.168 79.2623 102.152 79.0384 102.121 78.8456C102.092 78.6503 102.049 78.4837 101.992 78.3456C101.935 78.2076 101.862 78.0956 101.773 78.0097C101.688 77.9238 101.587 77.8613 101.473 77.8222C101.361 77.7805 101.234 77.7597 101.094 77.7597C100.922 77.7597 100.77 77.7923 100.637 77.8574C100.504 77.9199 100.392 78.0201 100.301 78.1581C100.212 78.2962 100.145 78.4772 100.098 78.7011C100.051 78.9251 100.027 79.1972 100.027 79.5175V80.623C100.027 80.8782 100.042 81.1035 100.07 81.2988C100.102 81.4941 100.147 81.6634 100.207 81.8066C100.267 81.9472 100.34 82.0631 100.426 82.1542C100.512 82.2454 100.611 82.3131 100.723 82.3574C100.837 82.399 100.964 82.4199 101.102 82.4199C101.279 82.4199 101.434 82.386 101.566 82.3183C101.699 82.2506 101.81 82.1451 101.898 82.0019C101.99 81.8561 102.057 81.6699 102.102 81.4433C102.146 81.2141 102.168 80.9407 102.168 80.623ZM107.551 82.3417V82.9355H103.828V82.416L105.691 80.3417C105.921 80.0865 106.098 79.8704 106.223 79.6933C106.35 79.5136 106.439 79.3535 106.488 79.2128C106.54 79.0696 106.566 78.9238 106.566 78.7753C106.566 78.5878 106.527 78.4186 106.449 78.2675C106.374 78.1139 106.262 77.9915 106.113 77.9003C105.965 77.8092 105.785 77.7636 105.574 77.7636C105.322 77.7636 105.111 77.8131 104.941 77.912C104.775 78.0084 104.65 78.1438 104.566 78.3183C104.483 78.4928 104.441 78.6933 104.441 78.9199H103.719C103.719 78.5995 103.789 78.3066 103.93 78.041C104.07 77.7753 104.279 77.5644 104.555 77.4081C104.831 77.2493 105.171 77.1699 105.574 77.1699C105.934 77.1699 106.241 77.2337 106.496 77.3613C106.751 77.4863 106.947 77.6634 107.082 77.8925C107.22 78.1191 107.289 78.3847 107.289 78.6894C107.289 78.8561 107.26 79.0253 107.203 79.1972C107.148 79.3665 107.072 79.5357 106.973 79.705C106.876 79.8743 106.763 80.041 106.633 80.205C106.505 80.3691 106.368 80.5305 106.223 80.6894L104.699 82.3417H107.551ZM109.238 80.2285L108.66 80.08L108.945 77.248H111.863V77.916H109.559L109.387 79.4628C109.491 79.4029 109.622 79.3469 109.781 79.2949C109.943 79.2428 110.128 79.2167 110.336 79.2167C110.599 79.2167 110.835 79.2623 111.043 79.3535C111.251 79.442 111.428 79.5696 111.574 79.7363C111.723 79.9029 111.836 80.1035 111.914 80.3378C111.992 80.5722 112.031 80.8339 112.031 81.123C112.031 81.3964 111.993 81.6477 111.918 81.8769C111.845 82.1061 111.734 82.3066 111.586 82.4785C111.438 82.6477 111.25 82.7792 111.023 82.873C110.799 82.9667 110.535 83.0136 110.23 83.0136C110.001 83.0136 109.784 82.9824 109.578 82.9199C109.375 82.8548 109.193 82.7571 109.031 82.6269C108.872 82.4941 108.742 82.33 108.641 82.1347C108.542 81.9368 108.479 81.705 108.453 81.4394H109.141C109.172 81.6529 109.234 81.8326 109.328 81.9785C109.422 82.1243 109.544 82.235 109.695 82.3105C109.849 82.3834 110.027 82.4199 110.23 82.4199C110.402 82.4199 110.555 82.3899 110.688 82.33C110.82 82.2701 110.932 82.1842 111.023 82.0722C111.115 81.9602 111.184 81.8248 111.23 81.666C111.28 81.5071 111.305 81.3287 111.305 81.1308C111.305 80.9511 111.28 80.7844 111.23 80.6308C111.181 80.4772 111.107 80.343 111.008 80.2285C110.911 80.1139 110.793 80.0253 110.652 79.9628C110.512 79.8977 110.35 79.8652 110.168 79.8652C109.926 79.8652 109.742 79.8977 109.617 79.9628C109.495 80.0279 109.368 80.1165 109.238 80.2285ZM114.695 80.8691V80.7792C114.695 80.4745 114.74 80.192 114.828 79.9316C114.917 79.6686 115.044 79.4407 115.211 79.248C115.378 79.0527 115.579 78.9016 115.816 78.7949C116.053 78.6855 116.319 78.6308 116.613 78.6308C116.91 78.6308 117.177 78.6855 117.414 78.7949C117.654 78.9016 117.857 79.0527 118.023 79.248C118.193 79.4407 118.322 79.6686 118.41 79.9316C118.499 80.192 118.543 80.4745 118.543 80.7792V80.8691C118.543 81.1738 118.499 81.4563 118.41 81.7167C118.322 81.9772 118.193 82.205 118.023 82.4003C117.857 82.593 117.655 82.7441 117.418 82.8535C117.184 82.9602 116.918 83.0136 116.621 83.0136C116.324 83.0136 116.057 82.9602 115.82 82.8535C115.583 82.7441 115.38 82.593 115.211 82.4003C115.044 82.205 114.917 81.9772 114.828 81.7167C114.74 81.4563 114.695 81.1738 114.695 80.8691ZM115.418 80.7792V80.8691C115.418 81.08 115.443 81.2792 115.492 81.4667C115.542 81.6516 115.616 81.8157 115.715 81.9589C115.816 82.1022 115.943 82.2154 116.094 82.2988C116.245 82.3795 116.421 82.4199 116.621 82.4199C116.819 82.4199 116.992 82.3795 117.141 82.2988C117.292 82.2154 117.417 82.1022 117.516 81.9589C117.615 81.8157 117.689 81.6516 117.738 81.4667C117.79 81.2792 117.816 81.08 117.816 80.8691V80.7792C117.816 80.5709 117.79 80.3743 117.738 80.1894C117.689 80.0019 117.613 79.8365 117.512 79.6933C117.413 79.5475 117.288 79.4329 117.137 79.3495C116.988 79.2662 116.814 79.2245 116.613 79.2245C116.415 79.2245 116.241 79.2662 116.09 79.3495C115.941 79.4329 115.816 79.5475 115.715 79.6933C115.616 79.8365 115.542 80.0019 115.492 80.1894C115.443 80.3743 115.418 80.5709 115.418 80.7792ZM120.172 79.6113V82.9355H119.449V78.7089H120.133L120.172 79.6113ZM120 80.662L119.699 80.6503C119.702 80.3613 119.745 80.0943 119.828 79.8495C119.911 79.6022 120.029 79.3873 120.18 79.205C120.331 79.0227 120.51 78.8821 120.719 78.7831C120.93 78.6816 121.163 78.6308 121.418 78.6308C121.626 78.6308 121.814 78.6594 121.98 78.7167C122.147 78.7714 122.289 78.86 122.406 78.9824C122.526 79.1048 122.617 79.2636 122.68 79.4589C122.742 79.6516 122.773 79.8873 122.773 80.166V82.9355H122.047V80.1581C122.047 79.9368 122.014 79.7597 121.949 79.6269C121.884 79.4915 121.789 79.3938 121.664 79.3339C121.539 79.2714 121.385 79.2402 121.203 79.2402C121.023 79.2402 120.859 79.2779 120.711 79.3535C120.565 79.429 120.439 79.5331 120.332 79.666C120.228 79.7988 120.146 79.9511 120.086 80.123C120.029 80.2923 120 80.4719 120 80.662ZM127.547 82.4199C127.719 82.4199 127.878 82.3847 128.023 82.3144C128.169 82.2441 128.289 82.1477 128.383 82.0253C128.477 81.9003 128.53 81.7584 128.543 81.5995H129.23C129.217 81.8495 129.133 82.0826 128.977 82.2988C128.823 82.5123 128.621 82.6855 128.371 82.8183C128.121 82.9485 127.846 83.0136 127.547 83.0136C127.229 83.0136 126.952 82.9576 126.715 82.8456C126.48 82.7337 126.285 82.58 126.129 82.3847C125.975 82.1894 125.859 81.9654 125.781 81.7128C125.706 81.4576 125.668 81.1881 125.668 80.9042V80.7402C125.668 80.4563 125.706 80.1881 125.781 79.9355C125.859 79.6803 125.975 79.455 126.129 79.2597C126.285 79.0644 126.48 78.9107 126.715 78.7988C126.952 78.6868 127.229 78.6308 127.547 78.6308C127.878 78.6308 128.167 78.6985 128.414 78.8339C128.661 78.9667 128.855 79.149 128.996 79.3808C129.139 79.61 129.217 79.8704 129.23 80.162H128.543C128.53 79.9876 128.48 79.83 128.395 79.6894C128.311 79.5488 128.197 79.4368 128.051 79.3535C127.908 79.2675 127.74 79.2245 127.547 79.2245C127.326 79.2245 127.139 79.2688 126.988 79.3574C126.84 79.4433 126.721 79.5605 126.633 79.7089C126.547 79.8548 126.484 80.0175 126.445 80.1972C126.409 80.3743 126.391 80.5553 126.391 80.7402V80.9042C126.391 81.0891 126.409 81.2714 126.445 81.4511C126.482 81.6308 126.543 81.7936 126.629 81.9394C126.717 82.0852 126.836 82.2024 126.984 82.291C127.135 82.3769 127.323 82.4199 127.547 82.4199ZM132.535 82.2128V80.037C132.535 79.8704 132.501 79.7259 132.434 79.6035C132.368 79.4785 132.27 79.3821 132.137 79.3144C132.004 79.2467 131.84 79.2128 131.645 79.2128C131.462 79.2128 131.302 79.2441 131.164 79.3066C131.029 79.3691 130.922 79.4511 130.844 79.5527C130.768 79.6542 130.73 79.7636 130.73 79.8808H130.008C130.008 79.7298 130.047 79.58 130.125 79.4316C130.203 79.2831 130.315 79.149 130.461 79.0292C130.609 78.9068 130.786 78.8105 130.992 78.7402C131.201 78.6673 131.432 78.6308 131.688 78.6308C131.995 78.6308 132.266 78.6829 132.5 78.787C132.737 78.8912 132.922 79.0488 133.055 79.2597C133.19 79.468 133.258 79.7298 133.258 80.0449V82.0136C133.258 82.1542 133.27 82.304 133.293 82.4628C133.319 82.6217 133.357 82.7584 133.406 82.873V82.9355H132.652C132.616 82.8522 132.587 82.7415 132.566 82.6035C132.546 82.4628 132.535 82.3326 132.535 82.2128ZM132.66 80.373L132.668 80.8808H131.938C131.732 80.8808 131.548 80.8977 131.387 80.9316C131.225 80.9628 131.09 81.011 130.98 81.0761C130.871 81.1412 130.788 81.2232 130.73 81.3222C130.673 81.4186 130.645 81.5318 130.645 81.662C130.645 81.7949 130.674 81.916 130.734 82.0253C130.794 82.1347 130.884 82.2219 131.004 82.287C131.126 82.3495 131.276 82.3808 131.453 82.3808C131.674 82.3808 131.87 82.3339 132.039 82.2402C132.208 82.1464 132.342 82.0318 132.441 81.8964C132.543 81.761 132.598 81.6295 132.605 81.5019L132.914 81.8495C132.896 81.9589 132.846 82.08 132.766 82.2128C132.685 82.3456 132.577 82.4732 132.441 82.5956C132.309 82.7154 132.15 82.8157 131.965 82.8964C131.783 82.9745 131.577 83.0136 131.348 83.0136C131.061 83.0136 130.81 82.9576 130.594 82.8456C130.38 82.7337 130.214 82.5839 130.094 82.3964C129.977 82.2063 129.918 81.9941 129.918 81.7597C129.918 81.5331 129.962 81.3339 130.051 81.162C130.139 80.9876 130.267 80.843 130.434 80.7285C130.6 80.6113 130.801 80.5227 131.035 80.4628C131.27 80.4029 131.531 80.373 131.82 80.373H132.66ZM135.117 79.373V82.9355H134.395V78.7089H135.098L135.117 79.373ZM136.438 78.6855L136.434 79.3574C136.374 79.3443 136.316 79.3365 136.262 79.3339C136.21 79.3287 136.15 79.3261 136.082 79.3261C135.915 79.3261 135.768 79.3522 135.641 79.4042C135.513 79.4563 135.405 79.5292 135.316 79.623C135.228 79.7167 135.158 79.8287 135.105 79.9589C135.056 80.0865 135.023 80.2272 135.008 80.3808L134.805 80.498C134.805 80.2428 134.829 80.0032 134.879 79.7792C134.931 79.5553 135.01 79.3574 135.117 79.1855C135.224 79.011 135.359 78.8756 135.523 78.7792C135.69 78.6803 135.888 78.6308 136.117 78.6308C136.169 78.6308 136.229 78.6373 136.297 78.6503C136.365 78.6607 136.411 78.6725 136.438 78.6855ZM139.566 81.8144C139.566 81.7102 139.543 81.6139 139.496 81.5253C139.452 81.4342 139.359 81.3522 139.219 81.2792C139.081 81.2037 138.872 81.1386 138.594 81.0839C138.359 81.0344 138.147 80.9759 137.957 80.9081C137.77 80.8404 137.609 80.7584 137.477 80.662C137.346 80.5657 137.246 80.4524 137.176 80.3222C137.105 80.192 137.07 80.0397 137.07 79.8652C137.07 79.6985 137.107 79.541 137.18 79.3925C137.255 79.2441 137.361 79.1126 137.496 78.998C137.634 78.8834 137.799 78.7936 137.992 78.7285C138.185 78.6634 138.4 78.6308 138.637 78.6308C138.975 78.6308 139.264 78.6907 139.504 78.8105C139.743 78.9303 139.927 79.0904 140.055 79.291C140.182 79.4889 140.246 79.7089 140.246 79.9511H139.523C139.523 79.8339 139.488 79.7206 139.418 79.6113C139.35 79.4993 139.25 79.4068 139.117 79.3339C138.987 79.261 138.827 79.2245 138.637 79.2245C138.436 79.2245 138.273 79.2558 138.148 79.3183C138.026 79.3782 137.936 79.455 137.879 79.5488C137.824 79.6425 137.797 79.7415 137.797 79.8456C137.797 79.9238 137.81 79.9941 137.836 80.0566C137.865 80.1165 137.914 80.1725 137.984 80.2245C138.055 80.274 138.154 80.3209 138.281 80.3652C138.409 80.4094 138.572 80.4537 138.77 80.498C139.116 80.5761 139.401 80.6699 139.625 80.7792C139.849 80.8886 140.016 81.0227 140.125 81.1816C140.234 81.3404 140.289 81.5331 140.289 81.7597C140.289 81.9446 140.25 82.1139 140.172 82.2675C140.096 82.4212 139.986 82.554 139.84 82.666C139.697 82.7753 139.525 82.8613 139.324 82.9238C139.126 82.9837 138.904 83.0136 138.656 83.0136C138.284 83.0136 137.969 82.9472 137.711 82.8144C137.453 82.6816 137.258 82.5097 137.125 82.2988C136.992 82.0878 136.926 81.8652 136.926 81.6308H137.652C137.663 81.8287 137.72 81.9863 137.824 82.1035C137.928 82.218 138.056 82.3001 138.207 82.3495C138.358 82.3964 138.508 82.4199 138.656 82.4199C138.854 82.4199 139.02 82.3938 139.152 82.3417C139.288 82.2897 139.391 82.218 139.461 82.1269C139.531 82.0357 139.566 81.9316 139.566 81.8144ZM142.309 82.1855L143.395 78.7089H143.871L143.777 79.4003L142.672 82.9355H142.207L142.309 82.1855ZM141.578 78.7089L142.504 82.2245L142.57 82.9355H142.082L140.855 78.7089H141.578ZM144.91 82.1972L145.793 78.7089H146.512L145.285 82.9355H144.801L144.91 82.1972ZM143.977 78.7089L145.039 82.1269L145.16 82.9355H144.699L143.562 79.3925L143.469 78.7089H143.977ZM149.008 83.0136C148.714 83.0136 148.447 82.9641 148.207 82.8652C147.97 82.7636 147.766 82.6217 147.594 82.4394C147.424 82.2571 147.294 82.041 147.203 81.791C147.112 81.541 147.066 81.2675 147.066 80.9706V80.8066C147.066 80.4628 147.117 80.1568 147.219 79.8886C147.32 79.6178 147.458 79.3886 147.633 79.2011C147.807 79.0136 148.005 78.8717 148.227 78.7753C148.448 78.679 148.677 78.6308 148.914 78.6308C149.216 78.6308 149.477 78.6829 149.695 78.787C149.917 78.8912 150.098 79.037 150.238 79.2245C150.379 79.4094 150.483 79.6282 150.551 79.8808C150.618 80.1308 150.652 80.4042 150.652 80.7011V81.0253H147.496V80.4355H149.93V80.3808C149.919 80.1933 149.88 80.011 149.812 79.8339C149.747 79.6568 149.643 79.511 149.5 79.3964C149.357 79.2818 149.161 79.2245 148.914 79.2245C148.75 79.2245 148.599 79.2597 148.461 79.33C148.323 79.3977 148.204 79.4993 148.105 79.6347C148.007 79.7701 147.93 79.9355 147.875 80.1308C147.82 80.3261 147.793 80.5514 147.793 80.8066V80.9706C147.793 81.1712 147.82 81.36 147.875 81.537C147.932 81.7115 148.014 81.8652 148.121 81.998C148.23 82.1308 148.362 82.235 148.516 82.3105C148.672 82.386 148.849 82.4238 149.047 82.4238C149.302 82.4238 149.518 82.3717 149.695 82.2675C149.872 82.1634 150.027 82.024 150.16 81.8495L150.598 82.1972C150.507 82.3352 150.391 82.4667 150.25 82.5917C150.109 82.7167 149.936 82.8183 149.73 82.8964C149.527 82.9745 149.286 83.0136 149.008 83.0136ZM151.492 76.9355H152.219V82.1152L152.156 82.9355H151.492V76.9355ZM155.074 80.787V80.8691C155.074 81.1764 155.038 81.4615 154.965 81.7245C154.892 81.985 154.785 82.2115 154.645 82.4042C154.504 82.5969 154.332 82.7467 154.129 82.8535C153.926 82.9602 153.693 83.0136 153.43 83.0136C153.161 83.0136 152.926 82.968 152.723 82.8769C152.522 82.7831 152.353 82.649 152.215 82.4745C152.077 82.3001 151.966 82.0891 151.883 81.8417C151.802 81.5943 151.746 81.3157 151.715 81.0058V80.6464C151.746 80.3339 151.802 80.054 151.883 79.8066C151.966 79.5592 152.077 79.3482 152.215 79.1738C152.353 78.9967 152.522 78.8626 152.723 78.7714C152.923 78.6777 153.156 78.6308 153.422 78.6308C153.688 78.6308 153.923 78.6829 154.129 78.787C154.335 78.8886 154.507 79.0344 154.645 79.2245C154.785 79.4147 154.892 79.6425 154.965 79.9081C155.038 80.1712 155.074 80.4641 155.074 80.787ZM154.348 80.8691V80.787C154.348 80.5761 154.328 80.3782 154.289 80.1933C154.25 80.0058 154.188 79.8417 154.102 79.7011C154.016 79.5579 153.902 79.4459 153.762 79.3652C153.621 79.2818 153.448 79.2402 153.242 79.2402C153.06 79.2402 152.901 79.2714 152.766 79.3339C152.633 79.3964 152.52 79.4811 152.426 79.5878C152.332 79.692 152.255 79.8118 152.195 79.9472C152.138 80.08 152.095 80.218 152.066 80.3613V81.3027C152.108 81.485 152.176 81.6607 152.27 81.83C152.366 81.9967 152.493 82.1334 152.652 82.2402C152.814 82.3469 153.013 82.4003 153.25 82.4003C153.445 82.4003 153.612 82.3613 153.75 82.2831C153.891 82.2024 154.004 82.0917 154.09 81.9511C154.178 81.8105 154.243 81.6477 154.285 81.4628C154.327 81.2779 154.348 81.08 154.348 80.8691ZM158.449 81.8144C158.449 81.7102 158.426 81.6139 158.379 81.5253C158.335 81.4342 158.242 81.3522 158.102 81.2792C157.964 81.2037 157.755 81.1386 157.477 81.0839C157.242 81.0344 157.03 80.9759 156.84 80.9081C156.652 80.8404 156.492 80.7584 156.359 80.662C156.229 80.5657 156.129 80.4524 156.059 80.3222C155.988 80.192 155.953 80.0397 155.953 79.8652C155.953 79.6985 155.99 79.541 156.062 79.3925C156.138 79.2441 156.243 79.1126 156.379 78.998C156.517 78.8834 156.682 78.7936 156.875 78.7285C157.068 78.6634 157.283 78.6308 157.52 78.6308C157.858 78.6308 158.147 78.6907 158.387 78.8105C158.626 78.9303 158.81 79.0904 158.938 79.291C159.065 79.4889 159.129 79.7089 159.129 79.9511H158.406C158.406 79.8339 158.371 79.7206 158.301 79.6113C158.233 79.4993 158.133 79.4068 158 79.3339C157.87 79.261 157.71 79.2245 157.52 79.2245C157.319 79.2245 157.156 79.2558 157.031 79.3183C156.909 79.3782 156.819 79.455 156.762 79.5488C156.707 79.6425 156.68 79.7415 156.68 79.8456C156.68 79.9238 156.693 79.9941 156.719 80.0566C156.747 80.1165 156.797 80.1725 156.867 80.2245C156.938 80.274 157.036 80.3209 157.164 80.3652C157.292 80.4094 157.454 80.4537 157.652 80.498C157.999 80.5761 158.284 80.6699 158.508 80.7792C158.732 80.8886 158.898 81.0227 159.008 81.1816C159.117 81.3404 159.172 81.5331 159.172 81.7597C159.172 81.9446 159.133 82.1139 159.055 82.2675C158.979 82.4212 158.868 82.554 158.723 82.666C158.579 82.7753 158.408 82.8613 158.207 82.9238C158.009 82.9837 157.786 83.0136 157.539 83.0136C157.167 83.0136 156.852 82.9472 156.594 82.8144C156.336 82.6816 156.141 82.5097 156.008 82.2988C155.875 82.0878 155.809 81.8652 155.809 81.6308H156.535C156.546 81.8287 156.603 81.9863 156.707 82.1035C156.811 82.218 156.939 82.3001 157.09 82.3495C157.241 82.3964 157.391 82.4199 157.539 82.4199C157.737 82.4199 157.902 82.3938 158.035 82.3417C158.171 82.2897 158.273 82.218 158.344 82.1269C158.414 82.0357 158.449 81.9316 158.449 81.8144ZM160.906 78.7089V82.9355H160.18V78.7089H160.906ZM160.125 77.5878C160.125 77.4706 160.16 77.3717 160.23 77.291C160.303 77.2102 160.41 77.1699 160.551 77.1699C160.689 77.1699 160.794 77.2102 160.867 77.291C160.943 77.3717 160.98 77.4706 160.98 77.5878C160.98 77.6998 160.943 77.7962 160.867 77.8769C160.794 77.955 160.689 77.9941 160.551 77.9941C160.41 77.9941 160.303 77.955 160.23 77.8769C160.16 77.7962 160.125 77.6998 160.125 77.5878ZM163.836 78.7089V79.2636H161.551V78.7089H163.836ZM162.324 77.6816H163.047V81.8886C163.047 82.0318 163.069 82.1399 163.113 82.2128C163.158 82.2857 163.215 82.3339 163.285 82.3574C163.355 82.3808 163.431 82.3925 163.512 82.3925C163.572 82.3925 163.634 82.3873 163.699 82.3769C163.767 82.3639 163.818 82.3535 163.852 82.3456L163.855 82.9355C163.798 82.9537 163.723 82.9706 163.629 82.9863C163.538 83.0045 163.427 83.0136 163.297 83.0136C163.12 83.0136 162.957 82.9785 162.809 82.9081C162.66 82.8378 162.542 82.7206 162.453 82.5566C162.367 82.3899 162.324 82.166 162.324 81.8847V77.6816ZM166.438 83.0136C166.143 83.0136 165.876 82.9641 165.637 82.8652C165.4 82.7636 165.195 82.6217 165.023 82.4394C164.854 82.2571 164.724 82.041 164.633 81.791C164.542 81.541 164.496 81.2675 164.496 80.9706V80.8066C164.496 80.4628 164.547 80.1568 164.648 79.8886C164.75 79.6178 164.888 79.3886 165.062 79.2011C165.237 79.0136 165.435 78.8717 165.656 78.7753C165.878 78.679 166.107 78.6308 166.344 78.6308C166.646 78.6308 166.906 78.6829 167.125 78.787C167.346 78.8912 167.527 79.037 167.668 79.2245C167.809 79.4094 167.913 79.6282 167.98 79.8808C168.048 80.1308 168.082 80.4042 168.082 80.7011V81.0253H164.926V80.4355H167.359V80.3808C167.349 80.1933 167.31 80.011 167.242 79.8339C167.177 79.6568 167.073 79.511 166.93 79.3964C166.786 79.2818 166.591 79.2245 166.344 79.2245C166.18 79.2245 166.029 79.2597 165.891 79.33C165.753 79.3977 165.634 79.4993 165.535 79.6347C165.436 79.7701 165.359 79.9355 165.305 80.1308C165.25 80.3261 165.223 80.5514 165.223 80.8066V80.9706C165.223 81.1712 165.25 81.36 165.305 81.537C165.362 81.7115 165.444 81.8652 165.551 81.998C165.66 82.1308 165.792 82.235 165.945 82.3105C166.102 82.386 166.279 82.4238 166.477 82.4238C166.732 82.4238 166.948 82.3717 167.125 82.2675C167.302 82.1634 167.457 82.024 167.59 81.8495L168.027 82.1972C167.936 82.3352 167.82 82.4667 167.68 82.5917C167.539 82.7167 167.366 82.8183 167.16 82.8964C166.957 82.9745 166.716 83.0136 166.438 83.0136ZM168.938 82.5527C168.938 82.4303 168.975 82.3274 169.051 82.2441C169.129 82.1581 169.241 82.1152 169.387 82.1152C169.533 82.1152 169.643 82.1581 169.719 82.2441C169.797 82.3274 169.836 82.4303 169.836 82.5527C169.836 82.6725 169.797 82.774 169.719 82.8574C169.643 82.9407 169.533 82.9824 169.387 82.9824C169.241 82.9824 169.129 82.9407 169.051 82.8574C168.975 82.774 168.938 82.6725 168.938 82.5527ZM172.727 82.4199C172.898 82.4199 173.057 82.3847 173.203 82.3144C173.349 82.2441 173.469 82.1477 173.562 82.0253C173.656 81.9003 173.71 81.7584 173.723 81.5995H174.41C174.397 81.8495 174.312 82.0826 174.156 82.2988C174.003 82.5123 173.801 82.6855 173.551 82.8183C173.301 82.9485 173.026 83.0136 172.727 83.0136C172.409 83.0136 172.132 82.9576 171.895 82.8456C171.66 82.7337 171.465 82.58 171.309 82.3847C171.155 82.1894 171.039 81.9654 170.961 81.7128C170.885 81.4576 170.848 81.1881 170.848 80.9042V80.7402C170.848 80.4563 170.885 80.1881 170.961 79.9355C171.039 79.6803 171.155 79.455 171.309 79.2597C171.465 79.0644 171.66 78.9107 171.895 78.7988C172.132 78.6868 172.409 78.6308 172.727 78.6308C173.057 78.6308 173.346 78.6985 173.594 78.8339C173.841 78.9667 174.035 79.149 174.176 79.3808C174.319 79.61 174.397 79.8704 174.41 80.162H173.723C173.71 79.9876 173.66 79.83 173.574 79.6894C173.491 79.5488 173.376 79.4368 173.23 79.3535C173.087 79.2675 172.919 79.2245 172.727 79.2245C172.505 79.2245 172.319 79.2688 172.168 79.3574C172.02 79.4433 171.901 79.5605 171.812 79.7089C171.727 79.8548 171.664 80.0175 171.625 80.1972C171.589 80.3743 171.57 80.5553 171.57 80.7402V80.9042C171.57 81.0891 171.589 81.2714 171.625 81.4511C171.661 81.6308 171.723 81.7936 171.809 81.9394C171.897 82.0852 172.016 82.2024 172.164 82.291C172.315 82.3769 172.503 82.4199 172.727 82.4199ZM175.031 80.8691V80.7792C175.031 80.4745 175.076 80.192 175.164 79.9316C175.253 79.6686 175.38 79.4407 175.547 79.248C175.714 79.0527 175.915 78.9016 176.152 78.7949C176.389 78.6855 176.655 78.6308 176.949 78.6308C177.246 78.6308 177.513 78.6855 177.75 78.7949C177.99 78.9016 178.193 79.0527 178.359 79.248C178.529 79.4407 178.658 79.6686 178.746 79.9316C178.835 80.192 178.879 80.4745 178.879 80.7792V80.8691C178.879 81.1738 178.835 81.4563 178.746 81.7167C178.658 81.9772 178.529 82.205 178.359 82.4003C178.193 82.593 177.991 82.7441 177.754 82.8535C177.52 82.9602 177.254 83.0136 176.957 83.0136C176.66 83.0136 176.393 82.9602 176.156 82.8535C175.919 82.7441 175.716 82.593 175.547 82.4003C175.38 82.205 175.253 81.9772 175.164 81.7167C175.076 81.4563 175.031 81.1738 175.031 80.8691ZM175.754 80.7792V80.8691C175.754 81.08 175.779 81.2792 175.828 81.4667C175.878 81.6516 175.952 81.8157 176.051 81.9589C176.152 82.1022 176.279 82.2154 176.43 82.2988C176.581 82.3795 176.757 82.4199 176.957 82.4199C177.155 82.4199 177.328 82.3795 177.477 82.2988C177.628 82.2154 177.753 82.1022 177.852 81.9589C177.951 81.8157 178.025 81.6516 178.074 81.4667C178.126 81.2792 178.152 81.08 178.152 80.8691V80.7792C178.152 80.5709 178.126 80.3743 178.074 80.1894C178.025 80.0019 177.949 79.8365 177.848 79.6933C177.749 79.5475 177.624 79.4329 177.473 79.3495C177.324 79.2662 177.15 79.2245 176.949 79.2245C176.751 79.2245 176.577 79.2662 176.426 79.3495C176.277 79.4329 176.152 79.5475 176.051 79.6933C175.952 79.8365 175.878 80.0019 175.828 80.1894C175.779 80.3743 175.754 80.5709 175.754 80.7792ZM180.504 79.5488V82.9355H179.777V78.7089H180.465L180.504 79.5488ZM180.355 80.662L180.02 80.6503C180.022 80.3613 180.06 80.0943 180.133 79.8495C180.206 79.6022 180.314 79.3873 180.457 79.205C180.6 79.0227 180.779 78.8821 180.992 78.7831C181.206 78.6816 181.453 78.6308 181.734 78.6308C181.932 78.6308 182.115 78.6594 182.281 78.7167C182.448 78.7714 182.592 78.8587 182.715 78.9785C182.837 79.0982 182.932 79.2519 183 79.4394C183.068 79.6269 183.102 79.8535 183.102 80.1191V82.9355H182.379V80.1542C182.379 79.9329 182.341 79.7558 182.266 79.623C182.193 79.4902 182.089 79.3938 181.953 79.3339C181.818 79.2714 181.659 79.2402 181.477 79.2402C181.263 79.2402 181.085 79.2779 180.941 79.3535C180.798 79.429 180.684 79.5331 180.598 79.666C180.512 79.7988 180.449 79.9511 180.41 80.123C180.374 80.2923 180.355 80.4719 180.355 80.662ZM183.094 80.2636L182.609 80.412C182.612 80.1803 182.65 79.9576 182.723 79.7441C182.798 79.5305 182.906 79.3404 183.047 79.1738C183.19 79.0071 183.366 78.8756 183.574 78.7792C183.783 78.6803 184.021 78.6308 184.289 78.6308C184.516 78.6308 184.716 78.6607 184.891 78.7206C185.068 78.7805 185.216 78.873 185.336 78.998C185.458 79.1204 185.551 79.2779 185.613 79.4706C185.676 79.6634 185.707 79.8925 185.707 80.1581V82.9355H184.98V80.1503C184.98 79.9134 184.943 79.7298 184.867 79.5995C184.794 79.4667 184.69 79.3743 184.555 79.3222C184.422 79.2675 184.263 79.2402 184.078 79.2402C183.919 79.2402 183.779 79.2675 183.656 79.3222C183.534 79.3769 183.431 79.4524 183.348 79.5488C183.264 79.6425 183.201 79.7506 183.156 79.873C183.115 79.9954 183.094 80.1256 183.094 80.2636Z" fill="#606367"/>
</g>
<defs>
<filter id="filter0_d_329_1738" x="12.0645" y="2.02656e-06" width="181.468" height="123.871" filterUnits="userSpaceOnUse" color-interpolation-filters="sRGB">
<feFlood flood-opacity="0" result="BackgroundImageFix"/>
<feColorMatrix in="SourceAlpha" type="matrix" values="0 0 0 0 0 0 0 0 0 0 0 0 0 0 0 0 0 0 127 0" result="hardAlpha"/>
<feOffset/>
<feGaussianBlur stdDeviation="0.967742"/>
<feComposite in2="hardAlpha" operator="out"/>
<feColorMatrix type="matrix" values="0 0 0 0 0 0 0 0 0 0 0 0 0 0 0 0 0 0 0.2 0"/>
<feBlend mode="normal" in2="BackgroundImageFix" result="effect1_dropShadow_329_1738"/>
<feBlend mode="normal" in="SourceGraphic" in2="effect1_dropShadow_329_1738" result="shape"/>
</filter>
<filter id="filter1_d_329_1738" x="-10.7273" y="54.64" width="227.455" height="57.4546" filterUnits="userSpaceOnUse" color-interpolation-filters="sRGB">
<feFlood flood-opacity="0" result="BackgroundImageFix"/>
<feColorMatrix in="SourceAlpha" type="matrix" values="0 0 0 0 0 0 0 0 0 0 0 0 0 0 0 0 0 0 127 0" result="hardAlpha"/>
<feOffset dy="3.43182"/>
<feGaussianBlur stdDeviation="6.86365"/>
<feComposite in2="hardAlpha" operator="out"/>
<feColorMatrix type="matrix" values="0 0 0 0 0 0 0 0 0 0 0 0 0 0 0 0 0 0 0.12 0"/>
<feBlend mode="normal" in2="BackgroundImageFix" result="effect1_dropShadow_329_1738"/>
<feBlend mode="normal" in="SourceGraphic" in2="effect1_dropShadow_329_1738" result="shape"/>
</filter>
<radialGradient id="paint0_radial_329_1738" cx="0" cy="0" r="1" gradientUnits="userSpaceOnUse" gradientTransform="translate(29.3146 83.7564) rotate(51.0107) scale(4.68394)">
<stop stop-color="#256CF1"/>
<stop offset="1" stop-color="#11357C"/>
</radialGradient>
<radialGradient id="paint1_radial_329_1738" cx="0" cy="0" r="1" gradientTransform="matrix(5.10816 1.94168 6.31046 -1.57174 24.5603 74.9579)" gradientUnits="userSpaceOnUse">
<stop stop-color="#256CF1"/>
<stop offset="1" stop-color="#11357C"/>
</radialGradient>
<radialGradient id="paint2_radial_329_1738" cx="0" cy="0" r="1" gradientTransform="matrix(5.10816 4.6115 6.31046 -3.73289 24.5603 81.2532)" gradientUnits="userSpaceOnUse">
<stop stop-color="#256CF1"/>
<stop offset="1" stop-color="#11357C"/>
</radialGradient>
<clipPath id="clip0_329_1738">
<path d="M14 8.79263C14 5.00553 17.07 1.93549 20.8571 1.93549H184.74C188.527 1.93549 191.597 5.00553 191.597 8.79263V115.078C191.597 118.865 188.527 121.935 184.74 121.935H20.8572C17.0701 121.935 14 118.865 14 115.078V8.79263Z" fill="white"/>
</clipPath>
<clipPath id="clip1_329_1738">
<rect width="16" height="16" fill="white" transform="translate(18 71.9355)"/>
</clipPath>
</defs>
</svg>
