<svg width="98" height="98" viewBox="0 0 98 98" fill="none" xmlns="http://www.w3.org/2000/svg">
<circle cx="49" cy="49" r="49" fill="#1C3769"/>
<g clip-path="url(#clip0_512_1188)">
<path d="M38.3013 33.6859C38.4411 33.899 38.6735 34.0146 38.9105 34.0146C39.0476 34.0146 39.1862 33.976 39.3093 33.8951C39.6455 33.6745 39.7391 33.2232 39.5185 32.8871L35.5517 26.8433C35.331 26.5072 34.8796 26.4135 34.5436 26.6342C34.2074 26.8548 34.1138 27.3061 34.3344 27.6422L38.3013 33.6859Z" fill="white" stroke="white" stroke-width="0.4"/>
<path d="M48.9292 33.8951C49.0524 33.976 49.1909 34.0146 49.328 34.0146C49.565 34.0146 49.7975 33.8989 49.9373 33.6859L53.9042 27.6422C54.1247 27.3061 54.0311 26.8548 53.6949 26.6342C53.359 26.4134 52.9075 26.5072 52.6868 26.8433L48.72 32.887C48.4995 33.2232 48.593 33.6745 48.9292 33.8951Z" fill="white" stroke="white" stroke-width="0.4"/>
<path d="M44.1192 33.1586C44.5213 33.1586 44.8472 32.8327 44.8472 32.4306V23.728C44.8472 23.3259 44.5213 23 44.1192 23C43.7171 23 43.3912 23.3259 43.3912 23.728V32.4306C43.3912 32.8327 43.7171 33.1586 44.1192 33.1586Z" fill="white" stroke="white" stroke-width="0.4"/>
<path d="M66.2716 53.8969C66.2689 53.8941 66.2659 53.8914 66.2631 53.8885L66.2244 53.851C65.6206 53.249 64.8431 52.8841 64.0053 52.8031C64.8141 51.4064 64.6223 49.5843 63.4286 48.3902L63.3868 48.3485C62.7556 47.717 61.9333 47.3463 61.0504 47.2882C61.7004 45.9301 61.4646 44.2504 60.3412 43.1267L60.2995 43.0851C59.725 42.5103 59.0229 42.1319 58.2865 41.9916L64.6275 35.6485C66.0498 34.2257 66.0499 31.9095 64.6278 30.4853C64.6251 30.4824 64.6221 30.4796 64.6193 30.4768L64.5809 30.4396C63.8918 29.7524 62.9768 29.374 62.0038 29.374C61.0289 29.374 60.1122 29.7539 59.4216 30.4446L41.1234 48.8173C40.6192 46.2184 39.5601 40.7583 39.5474 40.6928C39.3667 39.7003 38.8072 38.8422 37.972 38.2768C37.1377 37.7118 36.1345 37.5113 35.1494 37.7113L35.0877 37.7237C33.1165 38.1239 31.8062 40.0601 32.167 42.0399C33.0228 46.7331 32.788 54.211 32.6877 57.4042C32.6675 58.0471 32.653 58.5115 32.6535 58.7602C32.6554 59.759 31.942 61.0043 31.4211 61.9136C31.3604 62.0194 31.3023 62.1209 31.248 62.2172C30.7662 63.0714 30.5721 64.0539 30.7014 64.9839C30.7847 65.5833 30.986 66.0464 31.3035 66.3642L39.4329 74.374C39.8487 74.7899 40.5077 74.9999 41.3947 74.9999C41.4949 74.9999 41.598 74.9973 41.7039 74.9919C42.3195 74.9608 42.9224 74.797 43.4962 74.5052C43.8665 74.3168 44.2248 74.1181 44.5713 73.9261C45.7034 73.2986 46.7727 72.706 48.04 72.5942C48.3535 72.5666 48.6572 72.5458 48.951 72.5256C50.3713 72.4284 51.7128 72.3366 53.257 71.4923C55.5078 70.2616 57.2553 68.349 58.9453 66.4993C59.5572 65.8295 60.1353 65.1969 60.7326 64.5996L66.2716 59.06C67.693 57.6365 67.693 55.3204 66.2716 53.8969ZM65.2417 58.0308L59.703 63.5701C59.0825 64.1906 58.4662 64.865 57.8704 65.5172C56.2608 67.2789 54.5965 69.1005 52.5584 70.2149C51.2947 70.9058 50.2165 70.9797 48.8516 71.0731C48.5508 71.0936 48.2398 71.1149 47.9121 71.1439C46.337 71.2827 45.0805 71.9791 43.8655 72.6527C43.5301 72.8386 43.1833 73.0308 42.836 73.2074C42.4459 73.4059 42.0403 73.517 41.6304 73.5377C40.9452 73.5725 40.5733 73.4553 40.4587 73.3407L32.3295 65.331C32.2678 65.2693 32.1866 65.093 32.1435 64.7834C32.0579 64.1677 32.1902 63.5103 32.5162 62.9325C32.569 62.8388 32.6255 62.7403 32.6844 62.6374C33.287 61.5856 34.1123 60.1452 34.1095 58.7573C34.109 58.533 34.124 58.055 34.143 57.4499C34.2447 54.2104 34.4829 46.6242 33.5994 41.7788C33.3797 40.5733 34.1774 39.3942 35.3756 39.1509L35.4373 39.1385C36.0377 39.0166 36.6481 39.1387 37.1557 39.4824C37.6643 39.8267 38.0049 40.3492 38.1165 40.9618L39.9349 50.3362C40.0674 51.0181 40.5423 51.048 40.7398 51.0285C40.9086 51.0124 41.0664 50.9377 41.1861 50.8176L60.4523 31.4731C60.8669 31.0584 61.4178 30.83 62.0038 30.83C62.5898 30.83 63.1408 31.0584 63.5553 31.4731C63.5581 31.4758 63.5608 31.4786 63.5636 31.4812L63.6015 31.518C64.4529 32.375 64.4517 33.7649 63.5979 34.6191L49.2475 48.9743C49.0342 49.1876 48.981 49.5004 49.0878 49.7633C49.1234 49.8514 49.1768 49.934 49.2482 50.0054C49.5327 50.2899 49.9937 50.2895 50.2778 50.0053L56.3294 43.9518C56.728 43.553 57.2216 43.3586 57.7577 43.3891C58.2962 43.4201 58.8332 43.6777 59.2698 44.1145L59.3115 44.1562C60.1672 45.0122 60.1672 46.405 59.3115 47.261L53.4227 53.1518C53.1385 53.4362 53.1386 53.8972 53.4228 54.1813C53.6894 54.4479 54.1113 54.4645 54.3971 54.2312C54.4162 54.2157 54.4346 54.199 54.4524 54.1812L59.2541 49.3779C59.6684 48.9634 60.2194 48.7351 60.8056 48.7351C61.3918 48.7351 61.9428 48.9634 62.3572 49.378L62.3989 49.4197C63.2546 50.2756 63.2546 51.6685 62.3989 52.5244L61.108 53.8158C61.0943 53.8291 61.08 53.8418 61.0664 53.8554L57.5968 57.3263C57.3835 57.5396 57.3303 57.8523 57.437 58.1152C57.4725 58.2033 57.5259 58.2859 57.5974 58.3573C57.7396 58.4995 57.9258 58.5704 58.1121 58.5704C58.2985 58.5704 58.4848 58.4994 58.6269 58.3572L62.1174 54.8655C62.5295 54.4636 63.0713 54.2418 63.6475 54.2418C64.2336 54.2418 64.7845 54.4701 65.1991 54.8848C65.2018 54.8876 65.2046 54.8902 65.2073 54.893L65.2452 54.9297C66.0962 55.7862 66.0949 57.1763 65.2417 58.0308Z" fill="white" stroke="white" stroke-width="0.4"/>
</g>
<defs>
<clipPath id="clip0_512_1188">
<rect width="52" height="52" fill="white" transform="translate(23 23)"/>
</clipPath>
</defs>
</svg>
