<svg width="98" height="98" viewBox="0 0 98 98" fill="none" xmlns="http://www.w3.org/2000/svg">
<circle cx="49" cy="49" r="49" fill="#1C3769"/>
<g clip-path="url(#clip0_512_1177)">
<path d="M49 74.1875C62.9107 74.1875 74.1875 62.9107 74.1875 49C74.1875 35.0893 62.9107 23.8125 49 23.8125C35.0893 23.8125 23.8125 35.0893 23.8125 49C23.8125 62.9107 35.0893 74.1875 49 74.1875Z" stroke="white" stroke-width="1.625" stroke-linejoin="round"/>
<path d="M65.4823 35.8525L65.7586 36.1371C69.0293 40.3985 70.5537 45.7459 70.0218 51.0913C69.4899 56.4368 66.9415 61.3788 62.8952 64.9121C58.8489 68.4454 53.6085 70.3045 48.2401 70.1113C42.8718 69.918 37.7786 67.687 33.9968 63.8719L63.9613 34.0862C60.1879 30.3014 55.1202 28.0874 49.7793 27.8903C44.4384 27.6933 39.2214 29.5279 35.1794 33.0245C31.1374 36.5211 28.5708 41.4197 27.997 46.7333C27.4231 52.0469 28.8845 57.3806 32.0867 61.6596L32.4084 62.0165" stroke="white" stroke-width="1.625" stroke-miterlimit="10"/>
<path d="M46.1272 51.8728C52.1559 57.9016 59.1009 60.731 61.6393 58.1926C64.1777 55.6542 61.3483 48.7091 55.3196 42.6804" stroke="white" stroke-width="1.625" stroke-miterlimit="10"/>
<path d="M53.6259 41.0898C48.0427 36.1736 42.1109 34.057 39.8074 36.3604C37.4825 38.6854 39.6607 44.7072 44.6758 50.3358" stroke="white" stroke-width="1.625" stroke-miterlimit="10"/>
<path d="M42.6799 55.3198C48.7086 61.3486 55.6536 64.178 58.192 61.6396L61.6392 58.1925" stroke="white" stroke-width="1.625" stroke-miterlimit="10"/>
<path d="M39.8073 36.3606L36.3602 39.8077C34.0403 42.1276 36.2039 48.1282 41.1956 53.7461" stroke="white" stroke-width="1.625" stroke-miterlimit="10"/>
<path d="M45.5732 41.9213C45.8597 41.6353 46.1997 41.4086 46.5739 41.2542C46.9481 41.0998 47.349 41.0207 47.7538 41.0215C48.1586 41.0222 48.5592 41.1028 48.9328 41.2586C49.3064 41.4144 49.6456 41.6423 49.931 41.9293" stroke="white" stroke-width="1.625" stroke-miterlimit="10" stroke-linecap="round"/>
<path d="M47.1189 47.2315C46.538 47.0294 46.0101 46.6989 45.5746 46.2645C45.2889 45.9797 45.0622 45.6413 44.9074 45.2687C44.7527 44.8961 44.673 44.4966 44.6729 44.0931C44.6727 43.6897 44.7522 43.2902 44.9067 42.9175C45.0611 42.5448 45.2876 42.2062 45.5732 41.9211" stroke="white" stroke-width="1.625" stroke-miterlimit="10" stroke-linecap="round"/>
<path d="M52.1353 52.8253C52.5239 53.1487 52.986 53.3717 53.481 53.4747C53.9761 53.5776 54.4888 53.5574 54.9742 53.4158C55.4595 53.2742 55.9027 53.0155 56.2646 52.6625C56.6266 52.3095 56.8963 51.8729 57.0501 51.3913C57.2038 50.9096 57.2368 50.3975 57.1463 49.9001C57.0558 49.4027 56.8444 48.9351 56.5308 48.5385C56.2173 48.1418 55.811 47.8283 55.3479 47.6255C54.8848 47.4227 54.3789 47.3367 53.8748 47.3752H50.6248" stroke="white" stroke-width="1.625" stroke-miterlimit="10" stroke-linecap="round"/>
<path d="M56.1456 52.5767L58.4824 54.9134" stroke="white" stroke-width="1.625" stroke-miterlimit="10"/>
<path d="M43.4211 39.8523L45.4118 41.8429" stroke="white" stroke-width="1.625" stroke-miterlimit="10"/>
</g>
<defs>
<clipPath id="clip0_512_1177">
<rect width="52" height="52" fill="white" transform="translate(23 23)"/>
</clipPath>
</defs>
</svg>
