<svg width="98" height="98" viewBox="0 0 98 98" fill="none" xmlns="http://www.w3.org/2000/svg">
<circle cx="49" cy="49" r="49" fill="#1C3769"/>
<g clip-path="url(#clip0_512_1168)">
<path d="M73.7301 33.0204L67.4808 30.5192L64.9806 24.2688L61.7088 27.5396C57.8645 25.251 53.4739 24.042 49 24.04C35.2377 24.04 24.04 35.2377 24.04 49C24.04 62.7624 35.2377 73.96 49 73.96C62.7623 73.96 73.96 62.7624 73.96 49C73.96 44.5093 72.7432 40.1382 70.4604 36.2912L73.7301 33.0204ZM65.8792 32.1208L70.0288 33.7807L67.4683 36.3401L63.3208 34.6792L61.6609 30.5307L64.2204 27.9702L65.8792 32.1208ZM71.88 49C71.88 61.6163 61.6162 71.88 49 71.88C36.3837 71.88 26.12 61.6163 26.12 49C26.12 36.3838 36.3837 26.12 49 26.12C52.9395 26.12 56.7844 27.1299 60.1977 29.0508L59.219 30.0294L61.299 35.2304L59.9897 36.5398C57.0558 33.9471 53.2141 32.36 49 32.36C39.8251 32.36 32.36 39.8252 32.36 49C32.36 58.1749 39.8251 65.64 49 65.64C58.1749 65.64 65.64 58.1749 65.64 49C65.64 44.786 64.0529 40.9442 61.4613 38.0093L62.7706 36.7L67.9717 38.78L68.9503 37.8013C70.8734 41.2203 71.8824 45.0773 71.88 49ZM55.24 49C55.24 52.4414 52.4413 55.24 49 55.24C45.5586 55.24 42.76 52.4414 42.76 49C42.76 45.5587 45.5586 42.76 49 42.76C50.3457 42.76 51.5896 43.1927 52.6098 43.9196L49.5325 46.997C49.359 46.9486 49.18 46.9227 49 46.92C48.5886 46.92 48.1864 47.042 47.8444 47.2706C47.5023 47.4991 47.2357 47.824 47.0783 48.2041C46.9209 48.5841 46.8797 49.0023 46.9599 49.4058C47.0402 49.8093 47.2383 50.1799 47.5292 50.4708C47.8201 50.7617 48.1907 50.9598 48.5942 51.0401C48.9977 51.1203 49.4159 51.0791 49.796 50.9217C50.176 50.7643 50.5009 50.4977 50.7294 50.1556C50.958 49.8136 51.08 49.4114 51.08 49C51.08 48.8149 51.0477 48.6392 51.003 48.4676L54.0804 45.3902C54.8344 46.4429 55.2399 47.7052 55.24 49ZM54.0939 42.4356C52.6395 41.2982 50.8463 40.6803 49 40.68C44.4125 40.68 40.68 44.4126 40.68 49C40.68 53.5875 44.4125 57.32 49 57.32C53.5874 57.32 57.32 53.5875 57.32 49C57.3197 47.1537 56.7018 45.3606 55.5645 43.9061L59.9917 39.4788C62.2923 42.1173 63.5599 45.4995 63.56 49C63.56 57.0288 57.0288 63.56 49 63.56C40.9712 63.56 34.44 57.0288 34.44 49C34.44 40.9712 40.9712 34.44 49 34.44C52.64 34.44 55.9649 35.792 58.5201 38.0093L54.0939 42.4356Z" fill="white" stroke="white" stroke-width="0.2"/>
</g>
<defs>
<clipPath id="clip0_512_1168">
<rect width="52" height="52" fill="white" transform="translate(23 23)"/>
</clipPath>
</defs>
</svg>
