<svg width="70" height="59" viewBox="0 0 70 59" fill="none" xmlns="http://www.w3.org/2000/svg">
<g clip-path="url(#clip0_841_1735)">
<path d="M29.0005 16.3594H54.8286C57.1264 20.8813 58.198 25.9268 57.9364 30.9923C57.6748 36.0578 56.0892 40.9661 53.3378 45.2273C50.5864 49.4885 46.7655 52.9535 42.2565 55.2766C37.7475 57.5996 32.708 58.6993 27.6411 58.466" fill="#FFCC44"/>
<path d="M40.4419 36.0703L27.6411 58.466C22.5556 58.2345 17.6207 56.6684 13.3324 53.9251C9.04404 51.1818 5.5534 47.3579 3.21132 42.838C0.869247 38.318 -0.241739 33.2611 -0.00996116 28.1757C0.221816 23.0902 1.78819 18.1554 4.53171 13.8672" fill="#0F9D58"/>
<path d="M29.0005 16.3594H54.8286C52.5149 11.8003 49.0371 7.93392 44.7477 5.15208C40.4582 2.37023 35.5096 0.7718 30.4033 0.518786C25.297 0.265772 20.2146 1.36717 15.6712 3.71135C11.1277 6.05553 7.28477 9.55917 4.53174 13.8672L17.5591 36.0703" fill="#DB4437"/>
<path d="M29.0005 41.3945C35.5697 41.3945 40.895 36.0692 40.895 29.5C40.895 22.9308 35.5697 17.6055 29.0005 17.6055C22.4313 17.6055 17.106 22.9308 17.106 29.5C17.106 36.0692 22.4313 41.3945 29.0005 41.3945Z" fill="#4285F4" stroke="#F1F1F1" stroke-width="2.71875"/>
</g>
<g clip-path="url(#clip1_841_1735)">
<path d="M56.3574 27.7217C63.8929 27.7217 70.0015 21.6273 70.0015 14.1095C70.0015 6.59162 63.8929 0.497208 56.3574 0.497208C48.822 0.497208 42.7134 6.59162 42.7134 14.1095C42.7134 21.6273 48.822 27.7217 56.3574 27.7217Z" fill="#00BA00"/>
<path fill-rule="evenodd" clip-rule="evenodd" d="M52.0983 20.7497L47.1082 15.4213C46.425 14.6918 46.4642 13.5377 47.1954 12.8561C47.9266 12.1745 49.0835 12.2138 49.7666 12.9431L53.6158 17.0532L59.7084 11.3739C59.7632 11.3227 59.8205 11.2759 59.8797 11.2328L62.7448 8.56214C63.476 7.88056 64.633 7.91979 65.316 8.64928C65.9992 9.37866 65.9599 10.5329 65.2288 11.2145L56.4779 19.3717L56.4686 19.3617L53.4415 22.1834L52.0983 20.7497Z" fill="white"/>
</g>
<defs>
<clipPath id="clip0_841_1735">
<rect width="58" height="58" fill="white" transform="translate(0.000488281 0.499985)"/>
</clipPath>
<clipPath id="clip1_841_1735">
<rect width="27.2881" height="27.2245" fill="white" transform="translate(42.7114 0.499985)"/>
</clipPath>
</defs>
</svg>
