<svg width="204" height="36" viewBox="0 0 204 36" fill="none" xmlns="http://www.w3.org/2000/svg">
<path d="M31.0959 19.4958C28.0539 16.452 23.1008 16.4508 20.0565 19.4958C18.5818 20.9702 17.7702 22.9309 17.7702 25.017C17.7702 27.1024 18.5818 29.0631 20.0565 30.5375C21.5306 32.0125 23.4909 32.8242 25.5759 32.8242C27.2496 32.8242 28.8378 32.2935 30.1637 31.3247L32.3586 33.5202C32.5961 33.7577 32.9072 33.8764 33.2183 33.8764C33.5294 33.8764 33.8405 33.7577 34.0779 33.5202C34.5529 33.0451 34.5529 32.3286 34.0779 31.8536L31.8817 29.6038C34.1026 26.5524 33.8465 22.247 31.0959 19.4958ZM29.3856 28.807C29.382 28.8104 29.3771 28.8114 29.3736 28.8149C29.3701 28.8184 29.3692 28.8233 29.3657 28.8268C28.3516 29.8359 27.0072 30.392 25.5759 30.392C24.1404 30.392 22.7909 29.8333 21.7757 28.8179C20.7606 27.8025 20.2019 26.4528 20.2019 25.017C20.2019 23.5806 20.7606 22.2309 21.7757 21.2155C22.7909 20.2001 24.1404 19.6413 25.5759 19.6413C27.012 19.6413 28.3614 20.2001 29.3766 21.2155C30.3918 22.2309 30.9504 23.5806 30.9504 25.017C30.9504 26.448 30.3945 27.7927 29.3856 28.807Z" fill="url(#paint0_radial_687_82)"/>
<path d="M29.9905 8.49948C29.9905 4.71602 27.6852 1.65957 24.8315 1.65957H6.26545C3.42294 1.65957 1.10638 4.71602 1.10638 8.49948V10.547H29.9905V8.49948ZM6.78026 7.47571H5.25829C4.68754 7.47571 4.21753 6.85258 4.21753 6.09587C4.21753 5.35401 4.68754 4.73078 5.25829 4.73078H6.78026C7.35102 4.73078 7.80982 5.35401 7.80982 6.09587C7.80982 6.85258 7.35102 7.47571 6.78026 7.47571ZM11.4022 7.47571H9.88021C9.30945 7.47571 8.83938 6.85258 8.83938 6.09587C8.83938 5.35401 9.30945 4.73078 9.88021 4.73078H11.4022C11.9729 4.73078 12.4317 5.35401 12.4317 6.09587C12.4317 6.85258 11.9729 7.47571 11.4022 7.47571Z" fill="url(#paint1_radial_687_82)"/>
<path d="M6.26545 30.5438H17.4006C14.5916 26.6814 14.9573 21.3017 18.3258 17.7681C21.7332 14.5965 26.3534 13.8267 29.9905 16.2803V9.43611H1.10638V25.1318C1.10638 28.1254 3.42294 30.5438 6.26545 30.5438Z" fill="url(#paint2_radial_687_82)"/>
<path d="M52.4308 26.8586C51.3112 26.8586 50.2255 26.6465 49.1737 26.2224C48.1388 25.7983 47.2227 25.196 46.4254 24.4157L48.1558 22.4054C48.7495 22.9652 49.4281 23.4232 50.1915 23.7795C50.9549 24.1188 51.7183 24.2884 52.4817 24.2884C53.4318 24.2884 54.1527 24.0933 54.6447 23.7031C55.1367 23.313 55.3827 22.7955 55.3827 22.1509C55.3827 21.4553 55.1367 20.9549 54.6447 20.6495C54.1697 20.3442 53.559 20.0303 52.8125 19.708L50.5223 18.7156C49.9795 18.4781 49.4451 18.1727 48.9192 17.7995C48.4102 17.4263 47.9861 16.9513 47.6468 16.3745C47.3245 15.7977 47.1634 15.1021 47.1634 14.2878C47.1634 13.4057 47.4009 12.6168 47.8759 11.9213C48.3678 11.2088 49.0295 10.6489 49.8607 10.2418C50.7089 9.81767 51.6759 9.60562 52.7617 9.60562C53.7286 9.60562 54.6617 9.80071 55.5608 10.1909C56.4599 10.5641 57.2318 11.073 57.8765 11.7177L56.3751 13.6008C55.8492 13.1597 55.2894 12.8119 54.6956 12.5574C54.1188 12.303 53.4742 12.1757 52.7617 12.1757C51.9813 12.1757 51.3451 12.3539 50.8531 12.7101C50.3781 13.0494 50.1406 13.5244 50.1406 14.1351C50.1406 14.5593 50.2594 14.9155 50.4969 15.2039C50.7514 15.4753 51.0822 15.7129 51.4893 15.9164C51.8965 16.103 52.3291 16.2896 52.7871 16.4763L55.0519 17.4178C56.0358 17.8419 56.8416 18.4017 57.4693 19.0973C58.097 19.7759 58.4108 20.7174 58.4108 21.9219C58.4108 22.821 58.1733 23.6438 57.6983 24.3902C57.2233 25.1367 56.5363 25.7389 55.6371 26.1969C54.755 26.638 53.6862 26.8586 52.4308 26.8586ZM61.1826 26.5532V14.0588H64.1089V26.5532H61.1826ZM62.6585 11.8704C62.1326 11.8704 61.7085 11.7177 61.3861 11.4123C61.0638 11.107 60.9026 10.6998 60.9026 10.1909C60.9026 9.69892 61.0638 9.30026 61.3861 8.99489C61.7085 8.68953 62.1326 8.53685 62.6585 8.53685C63.1844 8.53685 63.6085 8.68953 63.9308 8.99489C64.2531 9.30026 64.4143 9.69892 64.4143 10.1909C64.4143 10.6998 64.2531 11.107 63.9308 11.4123C63.6085 11.7177 63.1844 11.8704 62.6585 11.8704ZM72.2448 26.8586C70.8028 26.8586 69.7764 26.4429 69.1657 25.6117C68.5719 24.7634 68.2751 23.6692 68.2751 22.329V16.3745H66.4938V14.186L68.4277 14.0588L68.784 10.6489H71.2269V14.0588H74.4077V16.3745H71.2269V22.329C71.2269 23.788 71.8122 24.5174 72.9827 24.5174C73.2033 24.5174 73.4323 24.492 73.6698 24.4411C73.9073 24.3732 74.1109 24.3054 74.2805 24.2375L74.7894 26.4005C74.4502 26.5193 74.06 26.6211 73.6189 26.7059C73.1948 26.8077 72.7367 26.8586 72.2448 26.8586ZM81.9833 26.8586C80.8297 26.8586 79.7864 26.6041 78.8534 26.0951C77.9203 25.5692 77.1824 24.8228 76.6395 23.8558C76.0966 22.8719 75.8252 21.6929 75.8252 20.3187C75.8252 18.9616 76.0966 17.791 76.6395 16.8071C77.1993 15.8231 77.9203 15.0682 78.8025 14.5423C79.6846 14.0164 80.6092 13.7534 81.5762 13.7534C82.7128 13.7534 83.6628 14.0079 84.4262 14.5169C85.1896 15.0088 85.7664 15.7044 86.1566 16.6035C86.5468 17.4856 86.7419 18.512 86.7419 19.6826C86.7419 20.2933 86.6995 20.7683 86.6147 21.1076H78.6753C78.811 22.2103 79.2096 23.067 79.8713 23.6777C80.5329 24.2884 81.3641 24.5938 82.365 24.5938C82.9079 24.5938 83.4084 24.5174 83.8664 24.3648C84.3414 24.1951 84.8079 23.9661 85.266 23.6777L86.2584 25.5099C85.6646 25.9001 85.003 26.2224 84.2736 26.4769C83.5441 26.7313 82.7807 26.8586 81.9833 26.8586ZM78.6498 19.1227H84.1972C84.1972 18.1557 83.9852 17.4008 83.561 16.858C83.1369 16.2981 82.5008 16.0182 81.6525 16.0182C80.9231 16.0182 80.2699 16.2896 79.6931 16.8325C79.1333 17.3584 78.7855 18.1218 78.6498 19.1227ZM94.8857 26.5532V9.91098H97.9138L103.105 19.2754L104.81 22.8125H104.912C104.844 21.9643 104.759 21.0397 104.657 20.0388C104.572 19.0379 104.53 18.0709 104.53 17.1379V9.91098H107.355V26.5532H104.326L99.1353 17.1888L97.4303 13.6517H97.3286C97.3964 14.5338 97.4728 15.4584 97.5576 16.4254C97.6594 17.3923 97.7103 18.3424 97.7103 19.2754V26.5532H94.8857ZM114.359 26.8586C113.273 26.8586 112.382 26.5193 111.687 25.8407C111.008 25.1621 110.669 24.2799 110.669 23.1942C110.669 21.854 111.254 20.8192 112.425 20.0897C113.595 19.3433 115.462 18.8343 118.023 18.5629C118.006 17.9013 117.828 17.333 117.489 16.858C117.166 16.366 116.581 16.12 115.733 16.12C115.122 16.12 114.52 16.2388 113.926 16.4763C113.349 16.7138 112.781 17.0022 112.221 17.3414L111.153 15.382C111.848 14.941 112.628 14.5593 113.494 14.2369C114.376 13.9146 115.309 13.7534 116.293 13.7534C117.854 13.7534 119.016 14.22 119.779 15.153C120.559 16.0691 120.95 17.4008 120.95 19.1482V26.5532H118.532L118.329 25.1791H118.227C117.667 25.6541 117.065 26.0527 116.42 26.3751C115.792 26.6974 115.105 26.8586 114.359 26.8586ZM115.3 24.5683C115.809 24.5683 116.267 24.4496 116.674 24.2121C117.099 23.9576 117.548 23.6183 118.023 23.1942V20.3951C116.327 20.6156 115.148 20.9464 114.486 21.3875C113.824 21.8116 113.494 22.3375 113.494 22.9652C113.494 23.525 113.663 23.9322 114.003 24.1866C114.342 24.4411 114.774 24.5683 115.3 24.5683ZM127.251 26.5532L122.899 14.0588H125.877L127.862 20.5477C128.031 21.1585 128.201 21.7777 128.37 22.4054C128.557 23.0331 128.735 23.6692 128.905 24.3139H129.007C129.193 23.6692 129.371 23.0331 129.541 22.4054C129.728 21.7777 129.906 21.1585 130.075 20.5477L132.06 14.0588H134.885L130.635 26.5532H127.251ZM137.051 26.5532V14.0588H139.977V26.5532H137.051ZM138.527 11.8704C138.001 11.8704 137.577 11.7177 137.254 11.4123C136.932 11.107 136.771 10.6998 136.771 10.1909C136.771 9.69892 136.932 9.30026 137.254 8.99489C137.577 8.68953 138.001 8.53685 138.527 8.53685C139.053 8.53685 139.477 8.68953 139.799 8.99489C140.121 9.30026 140.283 9.69892 140.283 10.1909C140.283 10.6998 140.121 11.107 139.799 11.4123C139.477 11.7177 139.053 11.8704 138.527 11.8704ZM148.062 32.0751C147.078 32.0751 146.188 31.9564 145.39 31.7189C144.61 31.4814 143.991 31.1167 143.533 30.6247C143.092 30.1497 142.871 29.5474 142.871 28.818C142.871 27.7831 143.465 26.8925 144.652 26.146V26.0443C144.33 25.8407 144.059 25.5692 143.838 25.23C143.634 24.8907 143.533 24.4666 143.533 23.9576C143.533 23.4656 143.668 23.0246 143.94 22.6344C144.228 22.2272 144.55 21.8964 144.907 21.642V21.5402C144.483 21.2178 144.101 20.7683 143.762 20.1915C143.439 19.6147 143.278 18.9616 143.278 18.2321C143.278 17.2651 143.507 16.4508 143.965 15.7892C144.423 15.1276 145.025 14.6271 145.772 14.2878C146.535 13.9316 147.35 13.7534 148.215 13.7534C148.554 13.7534 148.876 13.7874 149.182 13.8552C149.504 13.9061 149.793 13.974 150.047 14.0588H154.526V16.2218H152.235C152.439 16.4593 152.609 16.7647 152.744 17.1379C152.88 17.4941 152.948 17.8928 152.948 18.3339C152.948 19.25 152.736 20.0303 152.312 20.675C151.888 21.3027 151.319 21.7777 150.607 22.1C149.894 22.4223 149.097 22.5835 148.215 22.5835C147.943 22.5835 147.663 22.558 147.375 22.5071C147.087 22.4563 146.798 22.3714 146.51 22.2527C146.323 22.4223 146.171 22.592 146.052 22.7616C145.95 22.9313 145.899 23.1603 145.899 23.4487C145.899 23.8049 146.043 24.0849 146.332 24.2884C146.637 24.492 147.171 24.5938 147.935 24.5938H150.149C151.659 24.5938 152.795 24.8398 153.559 25.3317C154.339 25.8068 154.729 26.5871 154.729 27.6729C154.729 28.4871 154.458 29.2251 153.915 29.8867C153.372 30.5653 152.6 31.0997 151.599 31.4899C150.598 31.8801 149.419 32.0751 148.062 32.0751ZM148.215 20.7513C148.809 20.7513 149.318 20.5308 149.742 20.0897C150.166 19.6486 150.378 19.0294 150.378 18.2321C150.378 17.4517 150.166 16.8495 149.742 16.4254C149.334 15.9843 148.826 15.7637 148.215 15.7637C147.604 15.7637 147.087 15.9758 146.663 16.3999C146.238 16.824 146.026 17.4348 146.026 18.2321C146.026 19.0294 146.238 19.6486 146.663 20.0897C147.087 20.5308 147.604 20.7513 148.215 20.7513ZM148.52 30.1666C149.521 30.1666 150.335 29.9631 150.963 29.5559C151.591 29.1488 151.905 28.6822 151.905 28.1563C151.905 27.6644 151.71 27.3336 151.319 27.1639C150.946 26.9943 150.403 26.9094 149.691 26.9094H147.986C147.307 26.9094 146.739 26.8501 146.281 26.7313C145.636 27.2233 145.314 27.7746 145.314 28.3854C145.314 28.9452 145.602 29.3778 146.179 29.6831C146.756 30.0055 147.536 30.1666 148.52 30.1666ZM159.512 26.8586C158.426 26.8586 157.536 26.5193 156.84 25.8407C156.162 25.1621 155.822 24.2799 155.822 23.1942C155.822 21.854 156.407 20.8192 157.578 20.0897C158.749 19.3433 160.615 18.8343 163.176 18.5629C163.159 17.9013 162.981 17.333 162.642 16.858C162.32 16.366 161.734 16.12 160.886 16.12C160.275 16.12 159.673 16.2388 159.079 16.4763C158.503 16.7138 157.934 17.0022 157.374 17.3414L156.306 15.382C157.001 14.941 157.782 14.5593 158.647 14.2369C159.529 13.9146 160.462 13.7534 161.446 13.7534C163.007 13.7534 164.169 14.22 164.932 15.153C165.713 16.0691 166.103 17.4008 166.103 19.1482V26.5532H163.685L163.482 25.1791H163.38C162.82 25.6541 162.218 26.0527 161.573 26.3751C160.946 26.6974 160.258 26.8586 159.512 26.8586ZM160.454 24.5683C160.962 24.5683 161.421 24.4496 161.828 24.2121C162.252 23.9576 162.701 23.6183 163.176 23.1942V20.3951C161.48 20.6156 160.301 20.9464 159.639 21.3875C158.978 21.8116 158.647 22.3375 158.647 22.9652C158.647 23.525 158.816 23.9322 159.156 24.1866C159.495 24.4411 159.928 24.5683 160.454 24.5683ZM173.61 26.8586C172.168 26.8586 171.141 26.4429 170.53 25.6117C169.937 24.7634 169.64 23.6692 169.64 22.329V16.3745H167.859V14.186L169.793 14.0588L170.149 10.6489H172.592V14.0588H175.773V16.3745H172.592V22.329C172.592 23.788 173.177 24.5174 174.347 24.5174C174.568 24.5174 174.797 24.492 175.035 24.4411C175.272 24.3732 175.476 24.3054 175.645 24.2375L176.154 26.4005C175.815 26.5193 175.425 26.6211 174.984 26.7059C174.56 26.8077 174.102 26.8586 173.61 26.8586ZM183.119 26.8586C182.084 26.8586 181.117 26.6041 180.218 26.0951C179.319 25.5692 178.59 24.8228 178.03 23.8558C177.47 22.8719 177.19 21.6929 177.19 20.3187C177.19 18.9276 177.47 17.7486 178.03 16.7816C178.59 15.7977 179.319 15.0512 180.218 14.5423C181.117 14.0164 182.084 13.7534 183.119 13.7534C184.171 13.7534 185.146 14.0164 186.045 14.5423C186.945 15.0512 187.674 15.7977 188.234 16.7816C188.794 17.7486 189.074 18.9276 189.074 20.3187C189.074 21.6929 188.794 22.8719 188.234 23.8558C187.674 24.8228 186.945 25.5692 186.045 26.0951C185.146 26.6041 184.171 26.8586 183.119 26.8586ZM183.119 24.4666C184.035 24.4666 184.756 24.0849 185.282 23.3214C185.808 22.558 186.071 21.5571 186.071 20.3187C186.071 19.0633 185.808 18.054 185.282 17.2906C184.756 16.5271 184.035 16.1454 183.119 16.1454C182.203 16.1454 181.482 16.5271 180.956 17.2906C180.447 18.054 180.193 19.0633 180.193 20.3187C180.193 21.5571 180.447 22.558 180.956 23.3214C181.482 24.0849 182.203 24.4666 183.119 24.4666ZM191.97 26.5532V14.0588H194.388L194.591 16.2727H194.693C195.134 15.4584 195.668 14.8392 196.296 14.4151C196.924 13.974 197.569 13.7534 198.23 13.7534C198.824 13.7534 199.299 13.8383 199.655 14.0079L199.146 16.5526C198.926 16.4847 198.722 16.4338 198.535 16.3999C198.349 16.366 198.12 16.349 197.848 16.349C197.356 16.349 196.839 16.5441 196.296 16.9343C195.753 17.3075 195.287 17.9691 194.897 18.9191V26.5532H191.97Z" fill="#1C3769"/>
<defs>
<radialGradient id="paint0_radial_687_82" cx="0" cy="0" r="1" gradientUnits="userSpaceOnUse" gradientTransform="translate(26.1462 25.6035) rotate(51.0107) scale(10.3645 10.3645)">
<stop stop-color="#256CF1"/>
<stop offset="1" stop-color="#11357C"/>
</radialGradient>
<radialGradient id="paint1_radial_687_82" cx="0" cy="0" r="1" gradientTransform="matrix(11.3032 4.29649 13.9636 -3.4779 15.6248 6.13478)" gradientUnits="userSpaceOnUse">
<stop stop-color="#256CF1"/>
<stop offset="1" stop-color="#11357C"/>
</radialGradient>
<radialGradient id="paint2_radial_687_82" cx="0" cy="0" r="1" gradientTransform="matrix(11.3032 10.2042 13.9636 -8.26002 15.6248 20.0647)" gradientUnits="userSpaceOnUse">
<stop stop-color="#256CF1"/>
<stop offset="1" stop-color="#11357C"/>
</radialGradient>
</defs>
</svg>
