<svg width="182" height="32" viewBox="0 0 182 32" fill="none" xmlns="http://www.w3.org/2000/svg">
<path d="M27.508 17.2463C24.8169 14.5537 20.4354 14.5526 17.7423 17.2463C16.4378 18.5506 15.7198 20.2851 15.7198 22.1304C15.7198 23.9752 16.4378 25.7097 17.7423 27.014C19.0463 28.3188 20.7804 29.0368 22.6249 29.0368C24.1055 29.0368 25.5104 28.5674 26.6833 27.7104L28.625 29.6525C28.8351 29.8626 29.1103 29.9676 29.3855 29.9676C29.6606 29.9676 29.9358 29.8626 30.1459 29.6525C30.5661 29.2322 30.5661 28.5984 30.1459 28.1782L28.2031 26.188C30.1678 23.4887 29.9412 19.6801 27.508 17.2463ZM25.995 25.4831C25.9918 25.4862 25.9875 25.487 25.9844 25.4901C25.9813 25.4932 25.9805 25.4975 25.9774 25.5007C25.0803 26.3933 23.8911 26.8853 22.6249 26.8853C21.355 26.8853 20.1613 26.391 19.2632 25.4927C18.3652 24.5945 17.871 23.4005 17.871 22.1304C17.871 20.8597 18.3652 19.6658 19.2632 18.7675C20.1613 17.8693 21.355 17.375 22.6249 17.375C23.8953 17.375 25.089 17.8693 25.987 18.7675C26.8851 19.6658 27.3793 20.8597 27.3793 22.1304C27.3793 23.3963 26.8875 24.5858 25.995 25.4831Z" fill="url(#paint0_radial_742_10)"/>
<path d="M26.5301 7.51878C26.5301 4.17188 24.4907 1.46809 21.9663 1.46809H5.54252C3.02799 1.46809 0.978729 4.17188 0.978729 7.51878V9.33006H26.5301V7.51878ZM5.99793 6.61314H4.65157C4.14667 6.61314 3.7309 6.0619 3.7309 5.39251C3.7309 4.73625 4.14667 4.18493 4.65157 4.18493H5.99793C6.50283 4.18493 6.90869 4.73625 6.90869 5.39251C6.90869 6.0619 6.50283 6.61314 5.99793 6.61314ZM10.0865 6.61314H8.74019C8.23529 6.61314 7.81946 6.0619 7.81946 5.39251C7.81946 4.73625 8.23529 4.18493 8.74019 4.18493H10.0865C10.5914 4.18493 10.9973 4.73625 10.9973 5.39251C10.9973 6.0619 10.5914 6.61314 10.0865 6.61314Z" fill="url(#paint1_radial_742_10)"/>
<path d="M5.54252 27.0195H15.3928C12.908 23.6028 13.2314 18.8438 16.2113 15.7179C19.2256 12.9123 23.3127 12.2313 26.5301 14.4018V8.34734H0.978729V22.232C0.978729 24.8802 3.02799 27.0195 5.54252 27.0195Z" fill="url(#paint2_radial_742_10)"/>
<path d="M46.3811 23.7595C45.3907 23.7595 44.4302 23.5719 43.4998 23.1967C42.5843 22.8215 41.7739 22.2888 41.0686 21.5985L42.5993 19.8201C43.1246 20.3154 43.7249 20.7206 44.4002 21.0357C45.0755 21.3358 45.7508 21.4859 46.4261 21.4859C47.2665 21.4859 47.9043 21.3133 48.3396 20.9682C48.7748 20.623 48.9924 20.1653 48.9924 19.595C48.9924 18.9797 48.7748 18.537 48.3396 18.2669C47.9194 17.9968 47.3791 17.7191 46.7188 17.434L44.6928 16.5561C44.2126 16.346 43.7399 16.0759 43.2747 15.7457C42.8244 15.4155 42.4493 14.9953 42.1491 14.4851C41.864 13.9749 41.7214 13.3596 41.7214 12.6392C41.7214 11.8589 41.9315 11.161 42.3517 10.5457C42.7869 9.91545 43.3722 9.42021 44.1076 9.06004C44.8579 8.68487 45.7133 8.49728 46.6738 8.49728C47.5292 8.49728 48.3546 8.66986 49.1499 9.01502C49.9453 9.34518 50.6281 9.79539 51.1984 10.3657L49.8703 12.0314C49.4051 11.6413 48.9098 11.3336 48.3846 11.1085C47.8743 10.8834 47.3041 10.7709 46.6738 10.7709C45.9834 10.7709 45.4207 10.9284 44.9855 11.2436C44.5653 11.5437 44.3552 11.9639 44.3552 12.5042C44.3552 12.8793 44.4602 13.1945 44.6703 13.4496C44.8954 13.6897 45.1881 13.8998 45.5482 14.0799C45.9084 14.245 46.2911 14.4101 46.6963 14.5752L48.6997 15.408C49.5701 15.7832 50.283 16.2785 50.8382 16.8937C51.3935 17.494 51.6711 18.3269 51.6711 19.3924C51.6711 20.1878 51.461 20.9156 51.0408 21.576C50.6206 22.2363 50.0128 22.769 49.2175 23.1742C48.4371 23.5644 47.4917 23.7595 46.3811 23.7595ZM54.123 23.4894V12.4366H56.7118V23.4894H54.123ZM55.4286 10.5007C54.9634 10.5007 54.5882 10.3657 54.3031 10.0955C54.018 9.82541 53.8754 9.46524 53.8754 9.01502C53.8754 8.57982 54.018 8.22715 54.3031 7.95702C54.5882 7.6869 54.9634 7.55183 55.4286 7.55183C55.8939 7.55183 56.269 7.6869 56.5542 7.95702C56.8393 8.22715 56.9819 8.57982 56.9819 9.01502C56.9819 9.46524 56.8393 9.82541 56.5542 10.0955C56.269 10.3657 55.8939 10.5007 55.4286 10.5007ZM63.9088 23.7595C62.6332 23.7595 61.7253 23.3918 61.185 22.6565C60.6598 21.9061 60.3972 20.9382 60.3972 19.7526V14.4851H58.8214V12.5492L60.5322 12.4366L60.8474 9.42022H63.0084V12.4366H65.8222V14.4851H63.0084V19.7526C63.0084 21.0432 63.5261 21.6885 64.5616 21.6885C64.7567 21.6885 64.9593 21.666 65.1694 21.621C65.3795 21.561 65.5596 21.5009 65.7097 21.4409L66.1599 23.3543C65.8597 23.4594 65.5146 23.5494 65.1244 23.6244C64.7492 23.7145 64.344 23.7595 63.9088 23.7595ZM72.5237 23.7595C71.5032 23.7595 70.5803 23.5344 69.7549 23.0842C68.9295 22.619 68.2767 21.9586 67.7965 21.1032C67.3163 20.2328 67.0761 19.1898 67.0761 17.9743C67.0761 16.7737 67.3163 15.7382 67.7965 14.8678C68.2917 13.9974 68.9295 13.3296 69.7099 12.8643C70.4903 12.3991 71.3081 12.1665 72.1635 12.1665C73.169 12.1665 74.0094 12.3916 74.6847 12.8418C75.3601 13.277 75.8703 13.8923 76.2155 14.6877C76.5606 15.4681 76.7332 16.376 76.7332 17.4115C76.7332 17.9517 76.6957 18.3719 76.6207 18.6721H69.5973C69.7174 19.6475 70.0701 20.4054 70.6553 20.9457C71.2406 21.4859 71.976 21.756 72.8614 21.756C73.3416 21.756 73.7843 21.6885 74.1895 21.5534C74.6097 21.4034 75.0224 21.2008 75.4276 20.9457L76.3055 22.5664C75.7803 22.9116 75.195 23.1967 74.5497 23.4218C73.9044 23.6469 73.2291 23.7595 72.5237 23.7595ZM69.5748 16.9163H74.4821C74.4821 16.0609 74.2946 15.393 73.9194 14.9128C73.5442 14.4176 72.9814 14.17 72.2311 14.17C71.5858 14.17 71.008 14.4101 70.4978 14.8903C70.0025 15.3555 69.6949 16.0308 69.5748 16.9163ZM83.9373 23.4894V8.76741H86.6161L91.2083 17.0513L92.7165 20.1803H92.8065C92.7465 19.4299 92.6714 18.6121 92.5814 17.7266C92.5064 16.8412 92.4688 15.9858 92.4688 15.1604V8.76741H94.9675V23.4894H92.2888L87.6966 15.2054L86.1884 12.0765H86.0983C86.1584 12.8568 86.2259 13.6747 86.3009 14.5301C86.391 15.3855 86.436 16.2259 86.436 17.0513V23.4894H83.9373ZM101.164 23.7595C100.203 23.7595 99.4153 23.4594 98.8 22.8591C98.1997 22.2588 97.8995 21.4784 97.8995 20.518C97.8995 19.3324 98.4173 18.417 99.4528 17.7717C100.488 17.1114 102.139 16.6611 104.405 16.421C104.39 15.8357 104.233 15.333 103.932 14.9128C103.647 14.4776 103.13 14.26 102.379 14.26C101.839 14.26 101.306 14.3651 100.781 14.5752C100.271 14.7853 99.7679 15.0404 99.2727 15.3405L98.3272 13.6072C98.9425 13.217 99.6329 12.8793 100.398 12.5942C101.179 12.3091 102.004 12.1665 102.874 12.1665C104.255 12.1665 105.283 12.5792 105.958 13.4046C106.649 14.215 106.994 15.393 106.994 16.9388V23.4894H104.855L104.675 22.2738H104.585C104.09 22.694 103.557 23.0467 102.987 23.3318C102.432 23.6169 101.824 23.7595 101.164 23.7595ZM101.996 21.7335C102.447 21.7335 102.852 21.6285 103.212 21.4184C103.587 21.1933 103.985 20.8931 104.405 20.518V18.0418C102.904 18.2369 101.861 18.5295 101.276 18.9197C100.691 19.2949 100.398 19.7601 100.398 20.3154C100.398 20.8106 100.548 21.1708 100.848 21.3959C101.149 21.621 101.531 21.7335 101.996 21.7335ZM112.568 23.4894L108.719 12.4366H111.352L113.108 18.1769C113.258 18.7171 113.408 19.2649 113.559 19.8201C113.724 20.3754 113.881 20.9382 114.031 21.5084H114.121C114.286 20.9382 114.444 20.3754 114.594 19.8201C114.759 19.2649 114.917 18.7171 115.067 18.1769L116.823 12.4366H119.321L115.562 23.4894H112.568ZM121.237 23.4894V12.4366H123.826V23.4894H121.237ZM122.543 10.5007C122.078 10.5007 121.702 10.3657 121.417 10.0955C121.132 9.82541 120.99 9.46524 120.99 9.01502C120.99 8.57982 121.132 8.22715 121.417 7.95702C121.702 7.6869 122.078 7.55183 122.543 7.55183C123.008 7.55183 123.383 7.6869 123.668 7.95702C123.954 8.22715 124.096 8.57982 124.096 9.01502C124.096 9.46524 123.954 9.82541 123.668 10.0955C123.383 10.3657 123.008 10.5007 122.543 10.5007ZM130.978 28.3742C130.108 28.3742 129.32 28.2691 128.614 28.059C127.924 27.8489 127.376 27.5263 126.971 27.0911C126.581 26.6709 126.386 26.1381 126.386 25.4928C126.386 24.5774 126.911 23.7895 127.962 23.1292V23.0392C127.676 22.8591 127.436 22.619 127.241 22.3188C127.061 22.0187 126.971 21.6435 126.971 21.1933C126.971 20.7581 127.091 20.3679 127.331 20.0227C127.586 19.6626 127.872 19.3699 128.187 19.1448V19.0548C127.812 18.7696 127.474 18.3719 127.174 17.8617C126.889 17.3515 126.746 16.7737 126.746 16.1284C126.746 15.273 126.949 14.5526 127.354 13.9674C127.759 13.3821 128.292 12.9394 128.952 12.6392C129.627 12.3241 130.348 12.1665 131.113 12.1665C131.413 12.1665 131.698 12.1965 131.969 12.2566C132.254 12.3016 132.509 12.3616 132.734 12.4366H136.696V14.35H134.67C134.85 14.5601 135 14.8303 135.12 15.1604C135.24 15.4756 135.3 15.8282 135.3 16.2184C135.3 17.0288 135.112 17.7191 134.737 18.2894C134.362 18.8447 133.859 19.2649 133.229 19.55C132.599 19.8351 131.893 19.9777 131.113 19.9777C130.873 19.9777 130.625 19.9552 130.37 19.9102C130.115 19.8652 129.86 19.7901 129.605 19.6851C129.44 19.8351 129.305 19.9852 129.2 20.1353C129.11 20.2854 129.065 20.4879 129.065 20.7431C129.065 21.0582 129.192 21.3058 129.447 21.4859C129.717 21.666 130.19 21.756 130.865 21.756H132.824C134.16 21.756 135.165 21.9736 135.84 22.4089C136.531 22.8291 136.876 23.5194 136.876 24.4798C136.876 25.2002 136.636 25.853 136.155 26.4383C135.675 27.0385 134.992 27.5113 134.107 27.8564C133.222 28.2016 132.179 28.3742 130.978 28.3742ZM131.113 18.3569C131.638 18.3569 132.089 18.1618 132.464 17.7717C132.839 17.3815 133.027 16.8337 133.027 16.1284C133.027 15.4381 132.839 14.9053 132.464 14.5301C132.104 14.1399 131.653 13.9449 131.113 13.9449C130.573 13.9449 130.115 14.1324 129.74 14.5076C129.365 14.8828 129.177 15.4231 129.177 16.1284C129.177 16.8337 129.365 17.3815 129.74 17.7717C130.115 18.1618 130.573 18.3569 131.113 18.3569ZM131.383 26.6859C132.269 26.6859 132.989 26.5058 133.544 26.1456C134.1 25.7854 134.377 25.3728 134.377 24.9075C134.377 24.4723 134.205 24.1797 133.859 24.0296C133.529 23.8795 133.049 23.8045 132.419 23.8045H130.911C130.31 23.8045 129.807 23.752 129.402 23.6469C128.832 24.0821 128.547 24.5699 128.547 25.1101C128.547 25.6054 128.802 25.988 129.312 26.2582C129.822 26.5433 130.513 26.6859 131.383 26.6859ZM141.107 23.7595C140.146 23.7595 139.358 23.4594 138.743 22.8591C138.143 22.2588 137.843 21.4784 137.843 20.518C137.843 19.3324 138.36 18.417 139.396 17.7717C140.431 17.1114 142.082 16.6611 144.348 16.421C144.333 15.8357 144.176 15.333 143.876 14.9128C143.59 14.4776 143.073 14.26 142.322 14.26C141.782 14.26 141.249 14.3651 140.724 14.5752C140.214 14.7853 139.711 15.0404 139.216 15.3405L138.27 13.6072C138.886 13.217 139.576 12.8793 140.341 12.5942C141.122 12.3091 141.947 12.1665 142.818 12.1665C144.198 12.1665 145.226 12.5792 145.902 13.4046C146.592 14.215 146.937 15.393 146.937 16.9388V23.4894H144.799L144.618 22.2738H144.528C144.033 22.694 143.5 23.0467 142.93 23.3318C142.375 23.6169 141.767 23.7595 141.107 23.7595ZM141.94 21.7335C142.39 21.7335 142.795 21.6285 143.155 21.4184C143.53 21.1933 143.928 20.8931 144.348 20.518V18.0418C142.848 18.2369 141.805 18.5295 141.219 18.9197C140.634 19.2949 140.341 19.7601 140.341 20.3154C140.341 20.8106 140.491 21.1708 140.792 21.3959C141.092 21.621 141.474 21.7335 141.94 21.7335ZM153.578 23.7595C152.302 23.7595 151.394 23.3918 150.854 22.6565C150.329 21.9061 150.066 20.9382 150.066 19.7526V14.4851H148.49V12.5492L150.201 12.4366L150.516 9.42022H152.677V12.4366H155.491V14.4851H152.677V19.7526C152.677 21.0432 153.195 21.6885 154.23 21.6885C154.426 21.6885 154.628 21.666 154.838 21.621C155.048 21.561 155.228 21.5009 155.379 21.4409L155.829 23.3543C155.529 23.4594 155.183 23.5494 154.793 23.6244C154.418 23.7145 154.013 23.7595 153.578 23.7595ZM161.99 23.7595C161.075 23.7595 160.219 23.5344 159.424 23.0842C158.628 22.619 157.983 21.9586 157.488 21.1032C156.993 20.2328 156.745 19.1898 156.745 17.9743C156.745 16.7437 156.993 15.7007 157.488 14.8453C157.983 13.9749 158.628 13.3146 159.424 12.8643C160.219 12.3991 161.075 12.1665 161.99 12.1665C162.92 12.1665 163.783 12.3991 164.579 12.8643C165.374 13.3146 166.019 13.9749 166.515 14.8453C167.01 15.7007 167.257 16.7437 167.257 17.9743C167.257 19.1898 167.01 20.2328 166.515 21.1032C166.019 21.9586 165.374 22.619 164.579 23.0842C163.783 23.5344 162.92 23.7595 161.99 23.7595ZM161.99 21.6435C162.8 21.6435 163.438 21.3058 163.903 20.6305C164.369 19.9552 164.601 19.0698 164.601 17.9743C164.601 16.8637 164.369 15.9708 163.903 15.2955C163.438 14.6202 162.8 14.2825 161.99 14.2825C161.18 14.2825 160.542 14.6202 160.077 15.2955C159.626 15.9708 159.401 16.8637 159.401 17.9743C159.401 19.0698 159.626 19.9552 160.077 20.6305C160.542 21.3058 161.18 21.6435 161.99 21.6435ZM169.82 23.4894V12.4366H171.958L172.138 14.3951H172.228C172.619 13.6747 173.091 13.127 173.647 12.7518C174.202 12.3616 174.772 12.1665 175.357 12.1665C175.883 12.1665 176.303 12.2415 176.618 12.3916L176.168 14.6427C175.973 14.5827 175.793 14.5376 175.628 14.5076C175.462 14.4776 175.26 14.4626 175.02 14.4626C174.585 14.4626 174.127 14.6352 173.647 14.9803C173.166 15.3105 172.754 15.8958 172.409 16.7362V23.4894H169.82Z" fill="#F6FAFF"/>
<defs>
<radialGradient id="paint0_radial_742_10" cx="0" cy="0" r="1" gradientUnits="userSpaceOnUse" gradientTransform="translate(23.1294 22.6493) rotate(51.0107) scale(9.16856 9.16856)">
<stop stop-color="#D4E8FF"/>
<stop offset="1" stop-color="#9ACEFF"/>
</radialGradient>
<radialGradient id="paint1_radial_742_10" cx="0" cy="0" r="1" gradientTransform="matrix(9.99896 3.80074 12.3524 -3.07661 13.822 5.42693)" gradientUnits="userSpaceOnUse">
<stop stop-color="#D4E8FF"/>
<stop offset="1" stop-color="#9ACEFF"/>
</radialGradient>
<radialGradient id="paint2_radial_742_10" cx="0" cy="0" r="1" gradientTransform="matrix(9.99896 9.02676 12.3524 -7.30694 13.822 17.7496)" gradientUnits="userSpaceOnUse">
<stop stop-color="#D4E8FF"/>
<stop offset="1" stop-color="#9ACEFF"/>
</radialGradient>
</defs>
</svg>
