<svg width="323" height="239" viewBox="0 0 323 239" fill="none" xmlns="http://www.w3.org/2000/svg">
<g filter="url(#filter0_d_579_7811)">
<g clip-path="url(#clip0_579_7811)">
<path d="M10.2 18.3599C10.2 12.7266 14.7666 8.15991 20.4 8.15991H302C307.633 8.15991 312.2 12.7266 312.2 18.3599V215.96C312.2 221.593 307.633 226.16 302 226.16H20.4C14.7667 226.16 10.2 221.593 10.2 215.96V18.3599Z" fill="url(#paint0_linear_579_7811)" fill-opacity="0.08" shape-rendering="crispEdges"/>
<g opacity="0.9" clip-path="url(#clip1_579_7811)">
<g opacity="0.5">
<rect width="343.778" height="0.944444" transform="translate(-30.8552 56.6189)" fill="#EBEDEE"/>
</g>
<g clip-path="url(#clip2_579_7811)">
<rect width="336" height="48" transform="translate(-22.8 8.56323)" fill="#FBFBFB"/>
<g opacity="0.3">
<rect x="-50.1892" y="14.23" width="279" height="36" rx="18" fill="#D5D5D5"/>
</g>
<mask id="mask0_579_7811" style="mask-type:alpha" maskUnits="userSpaceOnUse" x="248" y="22" width="20" height="19">
<circle cx="258.02" cy="31.6048" r="9.37482" fill="#D9D9D9"/>
</mask>
<g mask="url(#mask0_579_7811)">
</g>
<g clip-path="url(#clip3_579_7811)">
<path d="M265.584 33.5559C263.865 31.8365 261.068 31.8358 259.348 33.5559C258.515 34.3888 258.056 35.4964 258.056 36.6748C258.056 37.8528 258.515 38.9604 259.348 39.7933C260.18 40.6265 261.288 41.0851 262.466 41.0851C263.411 41.0851 264.308 40.7853 265.057 40.238L266.297 41.4782C266.431 41.6124 266.607 41.6795 266.783 41.6795C266.959 41.6795 267.134 41.6124 267.268 41.4782C267.537 41.2099 267.537 40.8051 267.268 40.5367L266.028 39.2659C267.282 37.5422 267.138 35.1101 265.584 33.5559ZM264.618 38.8157C264.616 38.8177 264.613 38.8183 264.611 38.8202C264.609 38.8222 264.608 38.825 264.606 38.827C264.034 39.397 263.274 39.7111 262.466 39.7111C261.655 39.7111 260.892 39.3955 260.319 38.8219C259.746 38.2483 259.43 37.4859 259.43 36.6748C259.43 35.8634 259.746 35.1009 260.319 34.5274C260.892 33.9538 261.655 33.6381 262.466 33.6381C263.277 33.6381 264.039 33.9538 264.613 34.5274C265.186 35.1009 265.502 35.8634 265.502 36.6748C265.502 37.4832 265.188 38.2428 264.618 38.8157Z" fill="url(#paint1_radial_579_7811)"/>
<path d="M264.96 27.344C264.96 25.2068 263.658 23.4802 262.046 23.4802H251.558C249.952 23.4802 248.644 25.2068 248.644 27.344V28.5007H264.96V27.344ZM251.849 26.7657H250.989C250.667 26.7657 250.401 26.4137 250.401 25.9863C250.401 25.5672 250.667 25.2151 250.989 25.2151H251.849C252.171 25.2151 252.43 25.5672 252.43 25.9863C252.43 26.4137 252.171 26.7657 251.849 26.7657ZM254.46 26.7657H253.6C253.277 26.7657 253.012 26.4137 253.012 25.9863C253.012 25.5672 253.277 25.2151 253.6 25.2151H254.46C254.782 25.2151 255.041 25.5672 255.041 25.9863C255.041 26.4137 254.782 26.7657 254.46 26.7657Z" fill="url(#paint2_radial_579_7811)"/>
<path d="M251.558 39.7966H257.848C256.261 37.6148 256.468 34.5758 258.371 32.5797C260.296 30.7881 262.905 30.3532 264.96 31.7393V27.873H248.644V36.7394C248.644 38.4305 249.952 39.7966 251.558 39.7966Z" fill="url(#paint3_radial_579_7811)"/>
</g>
<path d="M302.542 41.0365H290.057C289.639 41.0342 289.238 40.867 288.942 40.5712C288.647 40.2754 288.479 39.8749 288.477 39.4567V36.7483C288.479 36.5694 288.551 36.3986 288.678 36.2721C288.804 36.1456 288.975 36.0735 289.154 36.0712C289.693 36.0712 290.21 35.8572 290.59 35.4762C290.971 35.0953 291.185 34.5786 291.185 34.0399C291.185 33.5012 290.971 32.9845 290.59 32.6036C290.21 32.2226 289.693 32.0086 289.154 32.0086C288.975 32.0063 288.804 31.9342 288.678 31.8077C288.551 31.6812 288.479 31.5104 288.477 31.3315V27.8377C288.477 27.4187 288.644 27.0168 288.94 26.7206C289.236 26.4243 289.638 26.2578 290.057 26.2578H293.036C293.167 25.4661 293.574 24.7466 294.186 24.2275C294.798 23.7083 295.574 23.4233 296.376 23.4233C297.179 23.4233 297.955 23.7083 298.567 24.2275C299.179 24.7466 299.586 25.4661 299.717 26.2578H302.542C302.961 26.2578 303.362 26.4243 303.659 26.7206C303.955 27.0168 304.121 27.4187 304.121 27.8377V39.4567C304.119 39.8749 303.952 40.2754 303.656 40.5712C303.36 40.867 302.96 41.0342 302.542 41.0365ZM289.831 37.3531V39.4567C289.831 39.5165 289.855 39.5739 289.897 39.6163C289.94 39.6586 289.997 39.6824 290.057 39.6824H302.542C302.601 39.6824 302.659 39.6586 302.701 39.6163C302.743 39.5739 302.767 39.5165 302.767 39.4567V27.8377C302.767 27.7778 302.743 27.7204 302.701 27.6781C302.659 27.6358 302.601 27.612 302.542 27.612H299.085C298.992 27.611 298.9 27.5913 298.815 27.554C298.729 27.5168 298.652 27.4628 298.588 27.3953C298.527 27.3289 298.479 27.2507 298.448 27.1654C298.417 27.0801 298.403 26.9894 298.408 26.8988C298.408 26.8988 298.408 26.8085 298.408 26.7814C298.408 26.2427 298.194 25.726 297.813 25.3451C297.432 24.9642 296.915 24.7502 296.376 24.7502C295.838 24.7502 295.321 24.9642 294.94 25.3451C294.559 25.726 294.345 26.2427 294.345 26.7814C294.347 26.8085 294.347 26.8356 294.345 26.8627C294.35 26.9533 294.336 27.044 294.305 27.1293C294.274 27.2146 294.226 27.2928 294.165 27.3592C294.104 27.4333 294.028 27.494 293.943 27.5375C293.857 27.581 293.764 27.6064 293.668 27.612H290.057C289.997 27.612 289.94 27.6358 289.897 27.6781C289.855 27.7204 289.831 27.7778 289.831 27.8377V30.7266C290.599 30.8774 291.291 31.2902 291.788 31.8945C292.286 32.4989 292.557 33.2572 292.557 34.0399C292.557 34.8225 292.286 35.5809 291.788 36.1852C291.291 36.7896 290.599 37.2024 289.831 37.3531Z" fill="#606367"/>
<path d="M299.609 27.9095C299.609 27.9095 298.195 27.9095 296.45 27.9095C294.704 27.9095 293.29 27.9095 293.29 27.9095C293.29 25.9151 294.704 24.2983 296.45 24.2983C298.195 24.2983 299.609 25.9151 299.609 27.9095Z" fill="#606367"/>
<path d="M303.863 30.6426C303.863 30.6426 303.863 32.0573 303.863 33.8024C303.863 35.5475 303.863 36.9622 303.863 36.9622C305.857 36.9622 307.474 35.5475 307.474 33.8024C307.474 32.0573 305.857 30.6426 303.863 30.6426Z" fill="#606367"/>
<rect x="289.38" y="27.0354" width="13.7455" height="0.902794" fill="#606367"/>
</g>
<path fill-rule="evenodd" clip-rule="evenodd" d="M173.307 23.3963C172.992 23.0811 172.481 23.0811 172.165 23.3963L169.583 25.9785C169.268 26.2937 169.268 26.8046 169.583 27.1198C169.898 27.4349 170.409 27.4349 170.724 27.1198L171.929 25.9151V34.296C171.929 34.7417 172.29 35.1029 172.736 35.1029C173.182 35.1029 173.543 34.7417 173.543 34.296V25.9151L174.748 27.1198C175.063 27.4349 175.574 27.4349 175.889 27.1198C176.204 26.8046 176.204 26.2937 175.889 25.9785L173.307 23.3963ZM167.087 31.0681C167.087 30.4442 167.593 29.9384 168.217 29.9384H169.508C169.954 29.9384 170.315 29.5771 170.315 29.1314C170.315 28.6858 169.954 28.3245 169.508 28.3245H168.217C166.702 28.3245 165.473 29.5529 165.473 31.0681V38.815C165.473 40.3303 166.702 41.5586 168.217 41.5586H177.255C178.77 41.5586 179.999 40.3303 179.999 38.815V31.0681C179.999 29.5529 178.77 28.3245 177.255 28.3245H175.964C175.518 28.3245 175.157 28.6858 175.157 29.1314C175.157 29.5771 175.518 29.9384 175.964 29.9384H177.255C177.879 29.9384 178.385 30.4442 178.385 31.0681V38.815C178.385 39.4389 177.879 39.9447 177.255 39.9447H168.217C167.593 39.9447 167.087 39.4389 167.087 38.815V31.0681Z" fill="#606367"/>
<path fill-rule="evenodd" clip-rule="evenodd" d="M204.255 24.7398C204.507 23.9666 205.6 23.9666 205.852 24.7398L207.524 29.8867H212.936C213.749 29.8867 214.087 30.9271 213.429 31.4049L209.051 34.5859L210.723 39.7329C210.974 40.5061 210.089 41.149 209.432 40.6712L205.053 37.4902L200.675 40.6712C200.018 41.149 199.133 40.5061 199.384 39.7329L201.056 34.5859L196.678 31.4049C196.02 30.9271 196.358 29.8867 197.171 29.8867H202.583L204.255 24.7398ZM205.053 27.5061L203.944 30.9208C203.832 31.2666 203.509 31.5007 203.146 31.5007H199.555L202.46 33.6111C202.754 33.8248 202.877 34.2036 202.765 34.5494L201.655 37.964L204.56 35.8537C204.854 35.6399 205.253 35.6399 205.547 35.8537L208.451 37.964L207.342 34.5494C207.23 34.2036 207.353 33.8248 207.647 33.6111L210.552 31.5007H206.961C206.598 31.5007 206.275 31.2666 206.163 30.9208L205.053 27.5061Z" fill="#606367"/>
</g>
<g filter="url(#filter1_d_579_7811)">
<rect x="54.2" y="59.1599" width="216" height="143" rx="8" fill="white"/>
<rect x="54.7" y="59.6599" width="215" height="142" rx="7.5" stroke="#E1E9F0" stroke-opacity="0.4"/>
</g>
<g clip-path="url(#clip4_579_7811)">
<path d="M141.299 80.8499C140.129 79.6792 138.224 79.6787 137.053 80.8499C136.486 81.417 136.173 82.1711 136.173 82.9734C136.173 83.7755 136.486 84.5296 137.053 85.0967C137.62 85.664 138.374 85.9762 139.176 85.9762C139.819 85.9762 140.43 85.7721 140.94 85.3995L141.784 86.2439C141.876 86.3352 141.995 86.3809 142.115 86.3809C142.235 86.3809 142.354 86.3352 142.446 86.2439C142.628 86.0612 142.628 85.7856 142.446 85.6029L141.601 84.7376C142.455 83.564 142.357 81.908 141.299 80.8499ZM140.641 84.4311C140.64 84.4324 140.638 84.4328 140.636 84.4341C140.635 84.4355 140.635 84.4374 140.633 84.4387C140.243 84.8268 139.726 85.0407 139.176 85.0407C138.624 85.0407 138.105 84.8258 137.714 84.4353C137.324 84.0447 137.109 83.5256 137.109 82.9734C137.109 82.4209 137.324 81.9018 137.714 81.5113C138.105 81.1207 138.624 80.9058 139.176 80.9058C139.728 80.9058 140.247 81.1207 140.637 81.5113C141.028 81.9018 141.243 82.4209 141.243 82.9734C141.243 83.5238 141.029 84.041 140.641 84.4311Z" fill="url(#paint4_radial_579_7811)"/>
<path d="M140.874 76.6205C140.874 75.1653 139.987 73.9897 138.889 73.9897H131.749C130.655 73.9897 129.764 75.1653 129.764 76.6205V77.408H140.874V76.6205ZM131.947 76.2267H131.361C131.142 76.2267 130.961 75.9871 130.961 75.696C130.961 75.4107 131.142 75.171 131.361 75.171H131.947C132.166 75.171 132.343 75.4107 132.343 75.696C132.343 75.9871 132.166 76.2267 131.947 76.2267ZM133.724 76.2267H133.139C132.919 76.2267 132.739 75.9871 132.739 75.696C132.739 75.4107 132.919 75.171 133.139 75.171H133.724C133.944 75.171 134.12 75.4107 134.12 75.696C134.12 75.9871 133.944 76.2267 133.724 76.2267Z" fill="url(#paint5_radial_579_7811)"/>
<path d="M131.749 85.099H136.031C134.951 83.6135 135.092 81.5444 136.387 80.1853C137.698 78.9655 139.475 78.6694 140.874 79.6131V76.9807H129.764V83.0175C129.764 84.1689 130.655 85.099 131.749 85.099Z" fill="url(#paint6_radial_579_7811)"/>
</g>
<path d="M147.772 83.2736C147.356 83.2736 146.951 83.1946 146.56 83.0368C146.175 82.8789 145.833 82.6546 145.537 82.3641L146.181 81.6157C146.402 81.8241 146.655 81.9946 146.939 82.1273C147.223 82.2536 147.507 82.3168 147.791 82.3168C148.145 82.3168 148.413 82.2441 148.597 82.0989C148.78 81.9536 148.871 81.761 148.871 81.521C148.871 81.262 148.78 81.0757 148.597 80.962C148.42 80.8483 148.192 80.7315 147.915 80.6115L147.062 80.242C146.86 80.1536 146.661 80.0399 146.465 79.901C146.276 79.762 146.118 79.5852 145.991 79.3704C145.871 79.1557 145.811 78.8968 145.811 78.5936C145.811 78.2652 145.9 77.9715 146.077 77.7125C146.26 77.4473 146.506 77.2389 146.816 77.0873C147.131 76.9294 147.491 76.8504 147.896 76.8504C148.256 76.8504 148.603 76.9231 148.938 77.0683C149.272 77.2073 149.56 77.3968 149.8 77.6368L149.241 78.3378C149.045 78.1736 148.837 78.0441 148.616 77.9494C148.401 77.8546 148.161 77.8073 147.896 77.8073C147.605 77.8073 147.368 77.8736 147.185 78.0062C147.008 78.1325 146.92 78.3094 146.92 78.5368C146.92 78.6946 146.964 78.8273 147.052 78.9346C147.147 79.0357 147.27 79.1241 147.422 79.1999C147.573 79.2694 147.735 79.3389 147.905 79.4083L148.748 79.7589C149.115 79.9168 149.415 80.1252 149.648 80.3841C149.882 80.6368 149.999 80.9873 149.999 81.4357C149.999 81.7704 149.91 82.0768 149.733 82.3546C149.557 82.6325 149.301 82.8568 148.966 83.0273C148.638 83.1915 148.24 83.2736 147.772 83.2736ZM151.031 83.1599V78.5083H152.12V83.1599H151.031ZM151.58 77.6936C151.384 77.6936 151.226 77.6368 151.106 77.5231C150.986 77.4094 150.926 77.2578 150.926 77.0683C150.926 76.8852 150.986 76.7368 151.106 76.6231C151.226 76.5094 151.384 76.4525 151.58 76.4525C151.776 76.4525 151.934 76.5094 152.054 76.6231C152.174 76.7368 152.234 76.8852 152.234 77.0683C152.234 77.2578 152.174 77.4094 152.054 77.5231C151.934 77.6368 151.776 77.6936 151.58 77.6936ZM155.149 83.2736C154.612 83.2736 154.23 83.1189 154.003 82.8094C153.782 82.4936 153.671 82.0862 153.671 81.5873V79.3704H153.008V78.5557L153.728 78.5083L153.861 77.2389H154.77V78.5083H155.954V79.3704H154.77V81.5873C154.77 82.1304 154.988 82.402 155.424 82.402C155.506 82.402 155.591 82.3925 155.68 82.3736C155.768 82.3483 155.844 82.3231 155.907 82.2978L156.096 83.1031C155.97 83.1473 155.825 83.1852 155.661 83.2168C155.503 83.2546 155.332 83.2736 155.149 83.2736ZM158.775 83.2736C158.345 83.2736 157.957 83.1789 157.609 82.9894C157.262 82.7936 156.987 82.5157 156.785 82.1557C156.583 81.7894 156.482 81.3504 156.482 80.8389C156.482 80.3336 156.583 79.8978 156.785 79.5315C156.994 79.1652 157.262 78.8841 157.59 78.6883C157.919 78.4925 158.263 78.3946 158.623 78.3946C159.046 78.3946 159.4 78.4894 159.684 78.6789C159.968 78.862 160.183 79.121 160.328 79.4557C160.474 79.7841 160.546 80.1662 160.546 80.602C160.546 80.8294 160.53 81.0062 160.499 81.1325H157.543C157.594 81.5431 157.742 81.862 157.988 82.0894C158.235 82.3168 158.544 82.4304 158.917 82.4304C159.119 82.4304 159.305 82.402 159.476 82.3452C159.653 82.282 159.826 82.1968 159.997 82.0894L160.366 82.7715C160.145 82.9168 159.899 83.0368 159.627 83.1315C159.356 83.2262 159.071 83.2736 158.775 83.2736ZM157.534 80.3936H159.599C159.599 80.0336 159.52 79.7525 159.362 79.5504C159.204 79.342 158.967 79.2378 158.651 79.2378C158.38 79.2378 158.137 79.3389 157.922 79.541C157.714 79.7368 157.584 80.021 157.534 80.3936ZM163.578 83.1599V76.9641H164.705L166.638 80.4504L167.273 81.7673H167.311C167.285 81.4515 167.254 81.1073 167.216 80.7346C167.184 80.362 167.169 80.002 167.169 79.6546V76.9641H168.22V83.1599H167.093L165.16 79.6736L164.525 78.3568H164.488C164.513 78.6852 164.541 79.0294 164.573 79.3894C164.611 79.7494 164.63 80.1031 164.63 80.4504V83.1599H163.578ZM170.828 83.2736C170.424 83.2736 170.092 83.1473 169.833 82.8946C169.58 82.642 169.454 82.3136 169.454 81.9094C169.454 81.4104 169.672 81.0252 170.108 80.7536C170.544 80.4757 171.238 80.2862 172.192 80.1852C172.186 79.9389 172.119 79.7273 171.993 79.5504C171.873 79.3673 171.655 79.2757 171.339 79.2757C171.112 79.2757 170.888 79.3199 170.667 79.4083C170.452 79.4968 170.24 79.6041 170.032 79.7304L169.634 79.001C169.893 78.8368 170.184 78.6946 170.506 78.5746C170.834 78.4546 171.181 78.3946 171.548 78.3946C172.129 78.3946 172.561 78.5683 172.846 78.9157C173.136 79.2568 173.281 79.7525 173.281 80.4031V83.1599H172.381L172.306 82.6483H172.268C172.059 82.8252 171.835 82.9736 171.595 83.0936C171.361 83.2136 171.106 83.2736 170.828 83.2736ZM171.178 82.421C171.368 82.421 171.538 82.3768 171.69 82.2883C171.848 82.1936 172.015 82.0673 172.192 81.9094V80.8673C171.56 80.9494 171.121 81.0725 170.875 81.2368C170.629 81.3946 170.506 81.5904 170.506 81.8241C170.506 82.0325 170.569 82.1841 170.695 82.2789C170.821 82.3736 170.983 82.421 171.178 82.421ZM175.627 83.1599L174.007 78.5083H175.116L175.855 80.9241C175.918 81.1515 175.981 81.382 176.044 81.6157C176.114 81.8494 176.18 82.0862 176.243 82.3262H176.281C176.351 82.0862 176.417 81.8494 176.48 81.6157C176.55 81.382 176.616 81.1515 176.679 80.9241L177.418 78.5083H178.47L176.887 83.1599H175.627ZM179.276 83.1599V78.5083H180.365V83.1599H179.276ZM179.825 77.6936C179.63 77.6936 179.472 77.6368 179.352 77.5231C179.232 77.4094 179.172 77.2578 179.172 77.0683C179.172 76.8852 179.232 76.7368 179.352 76.6231C179.472 76.5094 179.63 76.4525 179.825 76.4525C180.021 76.4525 180.179 76.5094 180.299 76.6231C180.419 76.7368 180.479 76.8852 180.479 77.0683C180.479 77.2578 180.419 77.4094 180.299 77.5231C180.179 77.6368 180.021 77.6936 179.825 77.6936ZM183.375 85.2157C183.009 85.2157 182.677 85.1715 182.381 85.0831C182.09 84.9946 181.86 84.8589 181.689 84.6757C181.525 84.4989 181.443 84.2746 181.443 84.0031C181.443 83.6178 181.664 83.2862 182.106 83.0083V82.9704C181.986 82.8946 181.885 82.7936 181.803 82.6673C181.727 82.541 181.689 82.3831 181.689 82.1936C181.689 82.0104 181.74 81.8462 181.841 81.701C181.948 81.5494 182.068 81.4262 182.201 81.3315V81.2936C182.043 81.1736 181.901 81.0062 181.774 80.7915C181.654 80.5768 181.594 80.3336 181.594 80.062C181.594 79.702 181.68 79.3989 181.85 79.1525C182.021 78.9062 182.245 78.7199 182.523 78.5936C182.807 78.461 183.11 78.3946 183.432 78.3946C183.558 78.3946 183.678 78.4073 183.792 78.4325C183.912 78.4515 184.02 78.4768 184.114 78.5083H185.782V79.3136H184.929C185.005 79.402 185.068 79.5157 185.118 79.6546C185.169 79.7873 185.194 79.9357 185.194 80.0999C185.194 80.441 185.115 80.7315 184.957 80.9715C184.8 81.2052 184.588 81.382 184.323 81.502C184.057 81.622 183.761 81.682 183.432 81.682C183.331 81.682 183.227 81.6725 183.12 81.6536C183.012 81.6346 182.905 81.6031 182.797 81.5589C182.728 81.622 182.671 81.6852 182.627 81.7483C182.589 81.8115 182.57 81.8968 182.57 82.0041C182.57 82.1368 182.624 82.241 182.731 82.3168C182.845 82.3925 183.044 82.4304 183.328 82.4304H184.152C184.714 82.4304 185.137 82.522 185.422 82.7052C185.712 82.882 185.857 83.1725 185.857 83.5768C185.857 83.8799 185.756 84.1546 185.554 84.401C185.352 84.6536 185.065 84.8525 184.692 84.9978C184.32 85.1431 183.881 85.2157 183.375 85.2157ZM183.432 80.9999C183.653 80.9999 183.843 80.9178 184.001 80.7536C184.158 80.5894 184.237 80.3589 184.237 80.062C184.237 79.7715 184.158 79.5473 184.001 79.3894C183.849 79.2252 183.66 79.1431 183.432 79.1431C183.205 79.1431 183.012 79.222 182.854 79.3799C182.696 79.5378 182.617 79.7652 182.617 80.062C182.617 80.3589 182.696 80.5894 182.854 80.7536C183.012 80.9178 183.205 80.9999 183.432 80.9999ZM183.546 84.5052C183.918 84.5052 184.222 84.4294 184.455 84.2778C184.689 84.1262 184.806 83.9525 184.806 83.7568C184.806 83.5736 184.733 83.4504 184.588 83.3873C184.449 83.3241 184.247 83.2925 183.982 83.2925H183.347C183.094 83.2925 182.883 83.2704 182.712 83.2262C182.472 83.4094 182.352 83.6146 182.352 83.842C182.352 84.0504 182.46 84.2115 182.674 84.3252C182.889 84.4452 183.18 84.5052 183.546 84.5052ZM187.638 83.2736C187.234 83.2736 186.902 83.1473 186.643 82.8946C186.391 82.642 186.264 82.3136 186.264 81.9094C186.264 81.4104 186.482 81.0252 186.918 80.7536C187.354 80.4757 188.049 80.2862 189.002 80.1852C188.996 79.9389 188.93 79.7273 188.803 79.5504C188.683 79.3673 188.465 79.2757 188.15 79.2757C187.922 79.2757 187.698 79.3199 187.477 79.4083C187.262 79.4968 187.051 79.6041 186.842 79.7304L186.444 79.001C186.703 78.8368 186.994 78.6946 187.316 78.5746C187.644 78.4546 187.992 78.3946 188.358 78.3946C188.939 78.3946 189.372 78.5683 189.656 78.9157C189.946 79.2568 190.092 79.7525 190.092 80.4031V83.1599H189.192L189.116 82.6483H189.078C188.87 82.8252 188.645 82.9736 188.405 83.0936C188.172 83.2136 187.916 83.2736 187.638 83.2736ZM187.989 82.421C188.178 82.421 188.349 82.3768 188.5 82.2883C188.658 82.1936 188.825 82.0673 189.002 81.9094V80.8673C188.371 80.9494 187.932 81.0725 187.685 81.2368C187.439 81.3946 187.316 81.5904 187.316 81.8241C187.316 82.0325 187.379 82.1841 187.505 82.2789C187.632 82.3736 187.793 82.421 187.989 82.421ZM192.886 83.2736C192.35 83.2736 191.968 83.1189 191.74 82.8094C191.519 82.4936 191.409 82.0862 191.409 81.5873V79.3704H190.745V78.5557L191.465 78.5083L191.598 77.2389H192.508V78.5083H193.692V79.3704H192.508V81.5873C192.508 82.1304 192.725 82.402 193.161 82.402C193.243 82.402 193.329 82.3925 193.417 82.3736C193.505 82.3483 193.581 82.3231 193.644 82.2978L193.834 83.1031C193.708 83.1473 193.562 83.1852 193.398 83.2168C193.24 83.2546 193.07 83.2736 192.886 83.2736ZM196.427 83.2736C196.042 83.2736 195.682 83.1789 195.347 82.9894C195.012 82.7936 194.741 82.5157 194.532 82.1557C194.324 81.7894 194.219 81.3504 194.219 80.8389C194.219 80.321 194.324 79.882 194.532 79.522C194.741 79.1557 195.012 78.8778 195.347 78.6883C195.682 78.4925 196.042 78.3946 196.427 78.3946C196.818 78.3946 197.182 78.4925 197.516 78.6883C197.851 78.8778 198.123 79.1557 198.331 79.522C198.539 79.882 198.644 80.321 198.644 80.8389C198.644 81.3504 198.539 81.7894 198.331 82.1557C198.123 82.5157 197.851 82.7936 197.516 82.9894C197.182 83.1789 196.818 83.2736 196.427 83.2736ZM196.427 82.3831C196.768 82.3831 197.036 82.241 197.232 81.9568C197.428 81.6725 197.526 81.2999 197.526 80.8389C197.526 80.3715 197.428 79.9957 197.232 79.7115C197.036 79.4273 196.768 79.2852 196.427 79.2852C196.086 79.2852 195.817 79.4273 195.622 79.7115C195.432 79.9957 195.337 80.3715 195.337 80.8389C195.337 81.2999 195.432 81.6725 195.622 81.9568C195.817 82.241 196.086 82.3831 196.427 82.3831ZM199.722 83.1599V78.5083H200.622L200.698 79.3325H200.736C200.9 79.0294 201.099 78.7989 201.333 78.641C201.566 78.4768 201.806 78.3946 202.053 78.3946C202.274 78.3946 202.45 78.4262 202.583 78.4894L202.394 79.4368C202.312 79.4115 202.236 79.3925 202.166 79.3799C202.097 79.3673 202.012 79.361 201.91 79.361C201.727 79.361 201.535 79.4336 201.333 79.5789C201.13 79.7178 200.957 79.9641 200.812 80.3178V83.1599H199.722Z" fill="#1C3769"/>
<g filter="url(#filter2_d_579_7811)">
<rect x="65.2" y="96.1599" width="194" height="34" rx="6.03261" fill="url(#paint7_radial_579_7811)" shape-rendering="crispEdges"/>
<path d="M81.0422 114.68V115.921H76.933V114.68H81.0422ZM77.4526 108.201V115.921H75.862V108.201H77.4526ZM80.5066 111.345V112.554H76.933V111.345H80.5066ZM81.0369 108.201V109.447H76.933V108.201H81.0369ZM83.3698 111.409V115.921H81.8428V110.184H83.2743L83.3698 111.409ZM83.1471 112.851H82.7335C82.7335 112.427 82.7883 112.045 82.8979 111.705C83.0075 111.363 83.1612 111.071 83.3592 110.831C83.5571 110.587 83.7922 110.401 84.0644 110.274C84.3401 110.143 84.6476 110.078 84.9869 110.078C85.2556 110.078 85.5012 110.117 85.7239 110.194C85.9466 110.272 86.1375 110.396 86.2965 110.566C86.4591 110.735 86.5829 110.96 86.6677 111.239C86.7561 111.518 86.8002 111.859 86.8002 112.262V115.921H85.2626V112.257C85.2626 112.002 85.2273 111.804 85.1566 111.663C85.0859 111.522 84.9816 111.423 84.8438 111.366C84.7094 111.306 84.5433 111.276 84.3454 111.276C84.1404 111.276 83.9618 111.317 83.8099 111.398C83.6614 111.479 83.5377 111.592 83.4387 111.737C83.3433 111.879 83.2708 112.045 83.2213 112.236C83.1718 112.427 83.1471 112.632 83.1471 112.851ZM91.0578 114.627V112.071C91.0578 111.888 91.0278 111.73 90.9677 111.599C90.9076 111.465 90.8139 111.361 90.6867 111.287C90.563 111.212 90.4021 111.175 90.2042 111.175C90.0345 111.175 89.8878 111.205 89.7641 111.265C89.6404 111.322 89.545 111.405 89.4778 111.515C89.4106 111.621 89.3771 111.746 89.3771 111.891H87.8501C87.8501 111.647 87.9066 111.416 88.0197 111.196C88.1328 110.977 88.2972 110.785 88.5128 110.619C88.7284 110.449 88.9847 110.316 89.2816 110.221C89.5821 110.125 89.9179 110.078 90.289 110.078C90.7344 110.078 91.1303 110.152 91.4767 110.3C91.8231 110.449 92.0953 110.672 92.2932 110.968C92.4947 111.265 92.5954 111.637 92.5954 112.082V114.537C92.5954 114.851 92.6149 115.109 92.6538 115.311C92.6926 115.509 92.7492 115.682 92.8234 115.831V115.921H91.2805C91.2063 115.765 91.1497 115.571 91.1108 115.337C91.0755 115.101 91.0578 114.864 91.0578 114.627ZM91.2593 112.427L91.2699 113.291H90.4163C90.2148 113.291 90.0398 113.314 89.8914 113.36C89.7429 113.406 89.621 113.471 89.5255 113.556C89.4301 113.637 89.3594 113.733 89.3134 113.842C89.271 113.952 89.2498 114.072 89.2498 114.203C89.2498 114.334 89.2799 114.452 89.3399 114.558C89.4 114.661 89.4866 114.742 89.5997 114.802C89.7129 114.858 89.8454 114.887 89.9974 114.887C90.2272 114.887 90.4269 114.841 90.5965 114.749C90.7662 114.657 90.897 114.544 90.9889 114.41C91.0843 114.275 91.1338 114.148 91.1374 114.028L91.5403 114.675C91.4838 114.82 91.406 114.97 91.307 115.125C91.2116 115.281 91.0896 115.428 90.9412 115.565C90.7927 115.7 90.6142 115.811 90.4057 115.899C90.1971 115.984 89.9497 116.027 89.6634 116.027C89.2993 116.027 88.9688 115.954 88.6719 115.809C88.3785 115.661 88.1452 115.458 87.972 115.2C87.8023 114.938 87.7175 114.641 87.7175 114.309C87.7175 114.008 87.7741 113.741 87.8872 113.508C88.0003 113.275 88.1664 113.079 88.3856 112.92C88.6083 112.757 88.8857 112.635 89.218 112.554C89.5503 112.469 89.9355 112.427 90.3739 112.427H91.2593ZM93.7725 107.777H95.2995V114.606L95.1457 115.921H93.7725V107.777ZM98.9314 112.994V113.105C98.9314 113.533 98.8855 113.925 98.7936 114.282C98.7052 114.639 98.5674 114.949 98.38 115.21C98.1927 115.468 97.9594 115.67 97.6801 115.815C97.4044 115.956 97.0792 116.027 96.7046 116.027C96.3546 116.027 96.0506 115.956 95.7926 115.815C95.5381 115.673 95.3242 115.474 95.151 115.215C94.9778 114.957 94.8382 114.655 94.7322 114.309C94.6261 113.962 94.5466 113.584 94.4936 113.174V112.93C94.5466 112.52 94.6261 112.142 94.7322 111.796C94.8382 111.449 94.9778 111.147 95.151 110.889C95.3242 110.631 95.5381 110.431 95.7926 110.29C96.0471 110.148 96.3476 110.078 96.694 110.078C97.0722 110.078 97.4009 110.15 97.6801 110.295C97.9629 110.437 98.1962 110.638 98.38 110.9C98.5674 111.158 98.7052 111.465 98.7936 111.822C98.8855 112.176 98.9314 112.566 98.9314 112.994ZM97.4044 113.105V112.994C97.4044 112.761 97.3868 112.541 97.3514 112.336C97.3196 112.128 97.2631 111.946 97.1818 111.79C97.1005 111.631 96.9891 111.506 96.8477 111.414C96.7099 111.322 96.5314 111.276 96.3122 111.276C96.1037 111.276 95.9269 111.311 95.782 111.382C95.6371 111.453 95.5169 111.552 95.4215 111.679C95.3296 111.806 95.2606 111.958 95.2147 112.135C95.1687 112.308 95.1404 112.499 95.1298 112.708V113.402C95.1404 113.681 95.1864 113.929 95.2677 114.144C95.3525 114.357 95.4798 114.524 95.6494 114.648C95.8226 114.768 96.0471 114.828 96.3228 114.828C96.5384 114.828 96.7169 114.786 96.8583 114.701C96.9997 114.616 97.1093 114.496 97.1871 114.341C97.2684 114.185 97.3249 114.003 97.3567 113.795C97.3885 113.582 97.4044 113.353 97.4044 113.105ZM101.492 107.777V115.921H99.9601V107.777H101.492ZM105.395 116.027C104.949 116.027 104.55 115.956 104.196 115.815C103.843 115.67 103.543 115.47 103.295 115.215C103.051 114.961 102.864 114.666 102.733 114.33C102.602 113.991 102.537 113.63 102.537 113.248V113.036C102.537 112.602 102.599 112.204 102.722 111.843C102.846 111.483 103.023 111.17 103.253 110.905C103.486 110.64 103.769 110.437 104.101 110.295C104.433 110.15 104.808 110.078 105.225 110.078C105.632 110.078 105.992 110.145 106.307 110.279C106.621 110.414 106.885 110.604 107.097 110.852C107.312 111.099 107.475 111.396 107.584 111.743C107.694 112.085 107.749 112.467 107.749 112.888V113.524H103.189V112.506H106.248V112.389C106.248 112.177 106.209 111.988 106.132 111.822C106.057 111.652 105.944 111.518 105.792 111.419C105.64 111.32 105.446 111.271 105.209 111.271C105.008 111.271 104.834 111.315 104.69 111.403C104.545 111.492 104.426 111.615 104.334 111.774C104.246 111.933 104.179 112.121 104.133 112.336C104.09 112.549 104.069 112.782 104.069 113.036V113.248C104.069 113.478 104.101 113.69 104.165 113.885C104.232 114.079 104.325 114.247 104.446 114.388C104.569 114.53 104.718 114.639 104.891 114.717C105.068 114.795 105.267 114.834 105.49 114.834C105.766 114.834 106.022 114.781 106.259 114.675C106.499 114.565 106.706 114.401 106.879 114.182L107.622 114.987C107.501 115.161 107.337 115.327 107.128 115.486C106.923 115.645 106.676 115.776 106.386 115.878C106.096 115.977 105.766 116.027 105.395 116.027ZM115.437 113.901C115.437 113.763 115.416 113.639 115.373 113.529C115.334 113.416 115.26 113.314 115.151 113.222C115.041 113.126 114.887 113.033 114.689 112.941C114.491 112.849 114.235 112.754 113.92 112.655C113.571 112.541 113.238 112.414 112.924 112.273C112.613 112.131 112.337 111.967 112.097 111.78C111.86 111.589 111.672 111.368 111.535 111.117C111.4 110.866 111.333 110.574 111.333 110.242C111.333 109.92 111.404 109.629 111.545 109.367C111.687 109.102 111.884 108.876 112.139 108.689C112.393 108.498 112.694 108.351 113.04 108.249C113.39 108.146 113.774 108.095 114.191 108.095C114.76 108.095 115.257 108.197 115.681 108.402C116.105 108.607 116.434 108.888 116.667 109.245C116.904 109.602 117.022 110.011 117.022 110.47H115.442C115.442 110.244 115.394 110.046 115.299 109.876C115.207 109.703 115.066 109.567 114.875 109.468C114.688 109.369 114.451 109.32 114.164 109.32C113.889 109.32 113.659 109.362 113.475 109.447C113.291 109.528 113.153 109.639 113.062 109.781C112.97 109.919 112.924 110.074 112.924 110.247C112.924 110.378 112.956 110.497 113.019 110.603C113.086 110.709 113.185 110.808 113.316 110.9C113.447 110.991 113.608 111.078 113.799 111.159C113.989 111.241 114.21 111.32 114.461 111.398C114.882 111.525 115.251 111.668 115.569 111.827C115.891 111.986 116.16 112.165 116.375 112.363C116.591 112.561 116.754 112.785 116.863 113.036C116.973 113.287 117.028 113.572 117.028 113.89C117.028 114.226 116.962 114.526 116.831 114.791C116.701 115.056 116.511 115.281 116.264 115.465C116.017 115.648 115.721 115.788 115.379 115.884C115.036 115.979 114.652 116.027 114.228 116.027C113.846 116.027 113.47 115.977 113.099 115.878C112.728 115.776 112.39 115.622 112.086 115.417C111.786 115.212 111.545 114.95 111.365 114.632C111.185 114.314 111.094 113.938 111.094 113.503H112.69C112.69 113.743 112.728 113.947 112.802 114.113C112.876 114.279 112.98 114.413 113.115 114.516C113.252 114.618 113.415 114.692 113.602 114.738C113.793 114.784 114.002 114.807 114.228 114.807C114.504 114.807 114.73 114.768 114.907 114.691C115.087 114.613 115.22 114.505 115.304 114.367C115.393 114.229 115.437 114.074 115.437 113.901ZM119.626 110.184V115.921H118.093V110.184H119.626ZM117.998 108.689C117.998 108.466 118.076 108.282 118.231 108.137C118.387 107.992 118.595 107.92 118.857 107.92C119.115 107.92 119.322 107.992 119.477 108.137C119.636 108.282 119.716 108.466 119.716 108.689C119.716 108.911 119.636 109.095 119.477 109.24C119.322 109.385 119.115 109.457 118.857 109.457C118.595 109.457 118.387 109.385 118.231 109.24C118.076 109.095 117.998 108.911 117.998 108.689ZM123.698 110.184V111.265H120.357V110.184H123.698ZM121.184 108.768H122.711V114.192C122.711 114.358 122.733 114.486 122.775 114.574C122.821 114.662 122.888 114.724 122.976 114.759C123.065 114.791 123.176 114.807 123.311 114.807C123.406 114.807 123.491 114.804 123.565 114.797C123.643 114.786 123.708 114.775 123.761 114.765L123.766 115.889C123.636 115.931 123.494 115.965 123.342 115.99C123.19 116.014 123.022 116.027 122.839 116.027C122.503 116.027 122.209 115.972 121.958 115.862C121.711 115.749 121.52 115.569 121.386 115.322C121.252 115.074 121.184 114.749 121.184 114.346V108.768ZM127.208 116.027C126.762 116.027 126.363 115.956 126.009 115.815C125.656 115.67 125.355 115.47 125.108 115.215C124.864 114.961 124.677 114.666 124.546 114.33C124.415 113.991 124.35 113.63 124.35 113.248V113.036C124.35 112.602 124.412 112.204 124.535 111.843C124.659 111.483 124.836 111.17 125.066 110.905C125.299 110.64 125.582 110.437 125.914 110.295C126.246 110.15 126.621 110.078 127.038 110.078C127.444 110.078 127.805 110.145 128.12 110.279C128.434 110.414 128.697 110.604 128.91 110.852C129.125 111.099 129.288 111.396 129.397 111.743C129.507 112.085 129.562 112.467 129.562 112.888V113.524H125.002V112.506H128.061V112.389C128.061 112.177 128.022 111.988 127.945 111.822C127.87 111.652 127.757 111.518 127.605 111.419C127.453 111.32 127.259 111.271 127.022 111.271C126.82 111.271 126.647 111.315 126.502 111.403C126.357 111.492 126.239 111.615 126.147 111.774C126.059 111.933 125.992 112.121 125.946 112.336C125.903 112.549 125.882 112.782 125.882 113.036V113.248C125.882 113.478 125.914 113.69 125.977 113.885C126.045 114.079 126.138 114.247 126.258 114.388C126.382 114.53 126.531 114.639 126.704 114.717C126.881 114.795 127.08 114.834 127.303 114.834C127.579 114.834 127.835 114.781 128.072 114.675C128.312 114.565 128.519 114.401 128.692 114.182L129.434 114.987C129.314 115.161 129.15 115.327 128.941 115.486C128.736 115.645 128.489 115.776 128.199 115.878C127.909 115.977 127.579 116.027 127.208 116.027ZM139.514 108.201V115.921H137.923L134.821 110.746V115.921H133.231V108.201H134.821L137.928 113.381V108.201H139.514ZM143.899 114.627V112.071C143.899 111.888 143.869 111.73 143.808 111.599C143.748 111.465 143.655 111.361 143.527 111.287C143.404 111.212 143.243 111.175 143.045 111.175C142.875 111.175 142.729 111.205 142.605 111.265C142.481 111.322 142.386 111.405 142.319 111.515C142.251 111.621 142.218 111.746 142.218 111.891H140.691C140.691 111.647 140.747 111.416 140.86 111.196C140.974 110.977 141.138 110.785 141.354 110.619C141.569 110.449 141.825 110.316 142.122 110.221C142.423 110.125 142.759 110.078 143.13 110.078C143.575 110.078 143.971 110.152 144.317 110.3C144.664 110.449 144.936 110.672 145.134 110.968C145.335 111.265 145.436 111.637 145.436 112.082V114.537C145.436 114.851 145.456 115.109 145.495 115.311C145.533 115.509 145.59 115.682 145.664 115.831V115.921H144.121C144.047 115.765 143.99 115.571 143.952 115.337C143.916 115.101 143.899 114.864 143.899 114.627ZM144.1 112.427L144.111 113.291H143.257C143.056 113.291 142.881 113.314 142.732 113.36C142.584 113.406 142.462 113.471 142.366 113.556C142.271 113.637 142.2 113.733 142.154 113.842C142.112 113.952 142.091 114.072 142.091 114.203C142.091 114.334 142.121 114.452 142.181 114.558C142.241 114.661 142.327 114.742 142.44 114.802C142.554 114.858 142.686 114.887 142.838 114.887C143.068 114.887 143.268 114.841 143.437 114.749C143.607 114.657 143.738 114.544 143.83 114.41C143.925 114.275 143.975 114.148 143.978 114.028L144.381 114.675C144.325 114.82 144.247 114.97 144.148 115.125C144.052 115.281 143.93 115.428 143.782 115.565C143.633 115.7 143.455 115.811 143.246 115.899C143.038 115.984 142.79 116.027 142.504 116.027C142.14 116.027 141.81 115.954 141.513 115.809C141.219 115.661 140.986 115.458 140.813 115.2C140.643 114.938 140.558 114.641 140.558 114.309C140.558 114.008 140.615 113.741 140.728 113.508C140.841 113.275 141.007 113.079 141.226 112.92C141.449 112.757 141.726 112.635 142.059 112.554C142.391 112.469 142.776 112.427 143.215 112.427H144.1ZM148.48 114.807L149.752 110.184H151.348L149.413 115.921H148.448L148.48 114.807ZM147.605 110.184L148.883 114.813L148.909 115.921H147.939L146.004 110.184H147.605ZM153.644 110.184V115.921H152.112V110.184H153.644ZM152.016 108.689C152.016 108.466 152.094 108.282 152.249 108.137C152.405 107.992 152.613 107.92 152.875 107.92C153.133 107.92 153.34 107.992 153.495 108.137C153.654 108.282 153.734 108.466 153.734 108.689C153.734 108.911 153.654 109.095 153.495 109.24C153.34 109.385 153.133 109.457 152.875 109.457C152.613 109.457 152.405 109.385 152.249 109.24C152.094 109.095 152.016 108.911 152.016 108.689ZM158.538 110.184H159.922V115.73C159.922 116.253 159.805 116.697 159.572 117.061C159.342 117.428 159.02 117.706 158.607 117.893C158.193 118.084 157.712 118.179 157.164 118.179C156.924 118.179 156.67 118.148 156.401 118.084C156.136 118.02 155.881 117.921 155.637 117.787C155.397 117.653 155.196 117.483 155.033 117.278L155.706 116.377C155.883 116.582 156.088 116.741 156.321 116.854C156.555 116.97 156.813 117.029 157.096 117.029C157.371 117.029 157.605 116.978 157.795 116.875C157.986 116.776 158.133 116.629 158.235 116.435C158.338 116.244 158.389 116.013 158.389 115.74V111.509L158.538 110.184ZM154.678 113.121V113.01C154.678 112.571 154.731 112.174 154.837 111.817C154.946 111.456 155.1 111.147 155.298 110.889C155.5 110.631 155.743 110.431 156.03 110.29C156.316 110.148 156.64 110.078 157 110.078C157.382 110.078 157.702 110.148 157.96 110.29C158.218 110.431 158.43 110.633 158.596 110.894C158.762 111.152 158.891 111.458 158.983 111.812C159.078 112.161 159.153 112.545 159.206 112.962V113.206C159.153 113.605 159.073 113.977 158.967 114.319C158.861 114.662 158.721 114.963 158.548 115.221C158.375 115.475 158.159 115.673 157.901 115.815C157.647 115.956 157.343 116.027 156.989 116.027C156.636 116.027 156.316 115.954 156.03 115.809C155.747 115.664 155.505 115.461 155.303 115.2C155.102 114.938 154.946 114.63 154.837 114.277C154.731 113.924 154.678 113.538 154.678 113.121ZM156.205 113.01V113.121C156.205 113.358 156.228 113.579 156.274 113.784C156.32 113.989 156.39 114.171 156.486 114.33C156.585 114.486 156.707 114.608 156.852 114.696C157 114.781 157.175 114.823 157.377 114.823C157.656 114.823 157.884 114.765 158.06 114.648C158.237 114.528 158.37 114.364 158.458 114.155C158.547 113.947 158.598 113.706 158.612 113.434V112.739C158.605 112.517 158.575 112.317 158.522 112.14C158.469 111.96 158.395 111.806 158.299 111.679C158.204 111.552 158.08 111.453 157.928 111.382C157.776 111.311 157.596 111.276 157.387 111.276C157.186 111.276 157.011 111.322 156.862 111.414C156.717 111.502 156.595 111.624 156.496 111.78C156.401 111.935 156.328 112.119 156.279 112.331C156.229 112.54 156.205 112.766 156.205 113.01ZM164.206 114.627V112.071C164.206 111.888 164.176 111.73 164.115 111.599C164.055 111.465 163.962 111.361 163.834 111.287C163.711 111.212 163.55 111.175 163.352 111.175C163.182 111.175 163.036 111.205 162.912 111.265C162.788 111.322 162.693 111.405 162.626 111.515C162.558 111.621 162.525 111.746 162.525 111.891H160.998C160.998 111.647 161.054 111.416 161.168 111.196C161.281 110.977 161.445 110.785 161.661 110.619C161.876 110.449 162.132 110.316 162.429 110.221C162.73 110.125 163.066 110.078 163.437 110.078C163.882 110.078 164.278 110.152 164.624 110.3C164.971 110.449 165.243 110.672 165.441 110.968C165.642 111.265 165.743 111.637 165.743 112.082V114.537C165.743 114.851 165.763 115.109 165.802 115.311C165.84 115.509 165.897 115.682 165.971 115.831V115.921H164.428C164.354 115.765 164.298 115.571 164.259 115.337C164.223 115.101 164.206 114.864 164.206 114.627ZM164.407 112.427L164.418 113.291H163.564C163.363 113.291 163.188 113.314 163.039 113.36C162.891 113.406 162.769 113.471 162.673 113.556C162.578 113.637 162.507 113.733 162.461 113.842C162.419 113.952 162.398 114.072 162.398 114.203C162.398 114.334 162.428 114.452 162.488 114.558C162.548 114.661 162.634 114.742 162.748 114.802C162.861 114.858 162.993 114.887 163.145 114.887C163.375 114.887 163.575 114.841 163.744 114.749C163.914 114.657 164.045 114.544 164.137 114.41C164.232 114.275 164.282 114.148 164.285 114.028L164.688 114.675C164.632 114.82 164.554 114.97 164.455 115.125C164.359 115.281 164.237 115.428 164.089 115.565C163.941 115.7 163.762 115.811 163.553 115.899C163.345 115.984 163.097 116.027 162.811 116.027C162.447 116.027 162.117 115.954 161.82 115.809C161.526 115.661 161.293 115.458 161.12 115.2C160.95 114.938 160.865 114.641 160.865 114.309C160.865 114.008 160.922 113.741 161.035 113.508C161.148 113.275 161.314 113.079 161.533 112.92C161.756 112.757 162.034 112.635 162.366 112.554C162.698 112.469 163.083 112.427 163.522 112.427H164.407ZM169.73 110.184V111.265H166.39V110.184H169.73ZM167.217 108.768H168.744V114.192C168.744 114.358 168.765 114.486 168.808 114.574C168.854 114.662 168.921 114.724 169.009 114.759C169.098 114.791 169.209 114.807 169.343 114.807C169.439 114.807 169.524 114.804 169.598 114.797C169.676 114.786 169.741 114.775 169.794 114.765L169.799 115.889C169.669 115.931 169.527 115.965 169.375 115.99C169.223 116.014 169.055 116.027 168.871 116.027C168.536 116.027 168.242 115.972 167.991 115.862C167.744 115.749 167.553 115.569 167.419 115.322C167.284 115.074 167.217 114.749 167.217 114.346V108.768ZM170.218 113.111V112.999C170.218 112.579 170.278 112.192 170.398 111.838C170.519 111.481 170.694 111.172 170.923 110.91C171.153 110.649 171.436 110.445 171.772 110.3C172.108 110.152 172.493 110.078 172.928 110.078C173.362 110.078 173.749 110.152 174.089 110.3C174.428 110.445 174.713 110.649 174.942 110.91C175.176 111.172 175.352 111.481 175.473 111.838C175.593 112.192 175.653 112.579 175.653 112.999V113.111C175.653 113.528 175.593 113.915 175.473 114.272C175.352 114.625 175.176 114.934 174.942 115.2C174.713 115.461 174.43 115.664 174.094 115.809C173.758 115.954 173.373 116.027 172.938 116.027C172.503 116.027 172.116 115.954 171.777 115.809C171.441 115.664 171.157 115.461 170.923 115.2C170.694 114.934 170.519 114.625 170.398 114.272C170.278 113.915 170.218 113.528 170.218 113.111ZM171.745 112.999V113.111C171.745 113.351 171.766 113.575 171.809 113.784C171.851 113.992 171.918 114.176 172.01 114.335C172.106 114.491 172.229 114.613 172.381 114.701C172.533 114.79 172.719 114.834 172.938 114.834C173.15 114.834 173.332 114.79 173.484 114.701C173.636 114.613 173.758 114.491 173.85 114.335C173.942 114.176 174.009 113.992 174.052 113.784C174.098 113.575 174.121 113.351 174.121 113.111V112.999C174.121 112.766 174.098 112.547 174.052 112.342C174.009 112.133 173.94 111.949 173.845 111.79C173.753 111.628 173.631 111.5 173.479 111.409C173.327 111.317 173.143 111.271 172.928 111.271C172.712 111.271 172.528 111.317 172.376 111.409C172.228 111.5 172.106 111.628 172.01 111.79C171.918 111.949 171.851 112.133 171.809 112.342C171.766 112.547 171.745 112.766 171.745 112.999ZM178.118 111.435V115.921H176.591V110.184H178.028L178.118 111.435ZM179.847 110.147L179.82 111.562C179.746 111.552 179.656 111.543 179.55 111.536C179.447 111.525 179.354 111.52 179.269 111.52C179.053 111.52 178.866 111.548 178.707 111.605C178.551 111.658 178.421 111.737 178.315 111.843C178.212 111.949 178.134 112.078 178.081 112.23C178.032 112.382 178.003 112.556 177.996 112.75L177.689 112.655C177.689 112.283 177.726 111.942 177.8 111.631C177.874 111.317 177.982 111.043 178.124 110.809C178.269 110.576 178.445 110.396 178.654 110.269C178.862 110.141 179.101 110.078 179.37 110.078C179.454 110.078 179.541 110.085 179.629 110.099C179.718 110.11 179.79 110.125 179.847 110.147Z" fill="#1C3769"/>
<path d="M249.227 113.16C249.227 109.109 245.944 105.826 241.893 105.826H229.67C225.619 105.826 222.336 109.109 222.336 113.16C222.336 117.21 225.619 120.494 229.67 120.494H241.893C245.944 120.494 249.227 117.21 249.227 113.16Z" fill="url(#paint8_radial_579_7811)"/>
<g filter="url(#filter3_d_579_7811)">
<path d="M248.005 113.16C248.005 109.785 245.268 107.048 241.893 107.048C238.517 107.048 235.781 109.785 235.781 113.16C235.781 116.535 238.517 119.272 241.893 119.272C245.268 119.272 248.005 116.535 248.005 113.16Z" fill="white"/>
</g>
<g clip-path="url(#clip5_579_7811)">
<g clip-path="url(#clip6_579_7811)">
<path d="M249.302 112.855H249.76C249.802 112.855 249.837 112.889 249.837 112.931V113.39C249.837 113.432 249.802 113.466 249.76 113.466H249.302C249.26 113.466 249.226 113.432 249.226 113.39V112.931C249.226 112.889 249.26 112.855 249.302 112.855ZM249.569 113.329L249.711 113.188L249.657 113.134L249.569 113.221L249.386 113.038L249.332 113.092L249.569 113.329Z" fill="#2D75FF"/>
</g>
</g>
<g clip-path="url(#clip7_579_7811)">
<g clip-path="url(#clip8_579_7811)">
<path d="M249.301 112.858H249.753C249.795 112.858 249.828 112.892 249.828 112.934V113.386C249.828 113.428 249.795 113.462 249.753 113.462H249.301C249.259 113.462 249.225 113.428 249.225 113.386V112.934C249.225 112.892 249.259 112.858 249.301 112.858ZM249.565 113.326L249.704 113.187L249.651 113.133L249.565 113.22L249.384 113.039L249.331 113.092L249.565 113.326Z" fill="#2D75FF"/>
</g>
</g>
</g>
<path d="M257.292 157.156C257.292 155.608 255.999 154.28 254.418 154.279C252.879 154.278 251.622 155.46 251.543 156.947C251.542 156.946 251.54 156.945 251.539 156.944V153.692C251.539 152.136 250.251 150.875 248.662 150.875C247.073 150.875 245.786 152.136 245.786 153.692V150.288C245.786 148.732 244.498 147.471 242.909 147.471C241.32 147.471 240.032 148.732 240.032 150.288V141.045C240.032 139.489 238.744 138.228 237.155 138.228C235.567 138.228 234.279 139.489 234.279 141.045V160.196L230.856 156.844C229.898 155.905 228.381 155.798 227.295 156.592C226.156 157.424 225.86 158.973 226.614 160.151C227.352 161.304 228.29 162.894 229.148 164.386C230.386 166.536 231.379 168.811 232.098 171.176C233.177 174.725 236.24 180.773 244.619 181.167C251.629 181.497 257.292 175.457 257.292 168.56C257.292 168.489 257.292 157.156 257.292 157.156Z" fill="#FBD7B8"/>
<path d="M237.065 134.596C236.438 134.596 235.93 134.099 235.93 133.485V130.271C235.93 129.658 236.438 129.16 237.065 129.16C237.691 129.16 238.199 129.658 238.199 130.271V133.485C238.199 134.099 237.691 134.596 237.065 134.596Z" fill="#2365E3"/>
<path d="M232.223 138.1C232.011 138.1 231.797 138.042 231.606 137.921L228.506 135.95C227.98 135.616 227.831 134.928 228.172 134.413C228.513 133.898 229.216 133.751 229.742 134.086L232.841 136.056C233.767 136.644 233.329 138.1 232.223 138.1Z" fill="#2365E3"/>
<path d="M241.907 138.1C240.8 138.1 240.362 136.644 241.288 136.056L244.388 134.085C244.914 133.751 245.616 133.898 245.957 134.413C246.298 134.928 246.149 135.616 245.623 135.95L242.523 137.921C242.332 138.042 242.118 138.1 241.907 138.1Z" fill="#2365E3"/>
<path d="M230.737 143.302H227.418C226.792 143.302 226.283 142.804 226.283 142.19C226.283 141.577 226.792 141.079 227.418 141.079H230.737C231.363 141.079 231.872 141.577 231.872 142.19C231.872 142.804 231.363 143.302 230.737 143.302Z" fill="#2365E3"/>
<path d="M246.711 143.302H243.392C242.766 143.302 242.258 142.804 242.258 142.19C242.258 141.577 242.766 141.079 243.392 141.079H246.711C247.338 141.079 247.846 141.577 247.846 142.19C247.846 142.804 247.338 143.302 246.711 143.302Z" fill="#2365E3"/>
</g>
<path d="M20.4001 8.65991H302C307.357 8.65991 311.7 13.0029 311.7 18.3601V215.96C311.7 221.317 307.357 225.66 302 225.66H20.4001C15.043 225.66 10.7 221.317 10.7 215.96V18.3601C10.7 13.0029 15.043 8.65991 20.4001 8.65991Z" stroke="url(#paint9_linear_579_7811)" stroke-opacity="0.1" shape-rendering="crispEdges"/>
</g>
<defs>
<filter id="filter0_d_579_7811" x="-4.76837e-05" y="-8.70228e-05" width="322.4" height="238.4" filterUnits="userSpaceOnUse" color-interpolation-filters="sRGB">
<feFlood flood-opacity="0" result="BackgroundImageFix"/>
<feColorMatrix in="SourceAlpha" type="matrix" values="0 0 0 0 0 0 0 0 0 0 0 0 0 0 0 0 0 0 127 0" result="hardAlpha"/>
<feOffset dy="2.04"/>
<feGaussianBlur stdDeviation="5.1"/>
<feComposite in2="hardAlpha" operator="out"/>
<feColorMatrix type="matrix" values="0 0 0 0 0 0 0 0 0 0 0 0 0 0 0 0 0 0 0.08 0"/>
<feBlend mode="normal" in2="BackgroundImageFix" result="effect1_dropShadow_579_7811"/>
<feBlend mode="normal" in="SourceGraphic" in2="effect1_dropShadow_579_7811" result="shape"/>
</filter>
<filter id="filter1_d_579_7811" x="44.2" y="49.1599" width="236" height="163" filterUnits="userSpaceOnUse" color-interpolation-filters="sRGB">
<feFlood flood-opacity="0" result="BackgroundImageFix"/>
<feColorMatrix in="SourceAlpha" type="matrix" values="0 0 0 0 0 0 0 0 0 0 0 0 0 0 0 0 0 0 127 0" result="hardAlpha"/>
<feOffset/>
<feGaussianBlur stdDeviation="5"/>
<feComposite in2="hardAlpha" operator="out"/>
<feColorMatrix type="matrix" values="0 0 0 0 0 0 0 0 0 0 0 0 0 0 0 0 0 0 0.04 0"/>
<feBlend mode="normal" in2="BackgroundImageFix" result="effect1_dropShadow_579_7811"/>
<feBlend mode="normal" in="SourceGraphic" in2="effect1_dropShadow_579_7811" result="shape"/>
</filter>
<filter id="filter2_d_579_7811" x="60.5989" y="94.3219" width="203.202" height="42.5022" filterUnits="userSpaceOnUse" color-interpolation-filters="sRGB">
<feFlood flood-opacity="0" result="BackgroundImageFix"/>
<feColorMatrix in="SourceAlpha" type="matrix" values="0 0 0 0 0 0 0 0 0 0 0 0 0 0 0 0 0 0 127 0" result="hardAlpha"/>
<feOffset dy="2.41305"/>
<feGaussianBlur stdDeviation="2.12555"/>
<feComposite in2="hardAlpha" operator="out"/>
<feColorMatrix type="matrix" values="0 0 0 0 0.117647 0 0 0 0 0.341176 0 0 0 0 0.768627 0 0 0 0.1 0"/>
<feBlend mode="normal" in2="BackgroundImageFix" result="effect1_dropShadow_579_7811"/>
<feBlend mode="normal" in="SourceGraphic" in2="effect1_dropShadow_579_7811" result="shape"/>
</filter>
<filter id="filter3_d_579_7811" x="230.892" y="104.604" width="22.0021" height="22.0021" filterUnits="userSpaceOnUse" color-interpolation-filters="sRGB">
<feFlood flood-opacity="0" result="BackgroundImageFix"/>
<feColorMatrix in="SourceAlpha" type="matrix" values="0 0 0 0 0 0 0 0 0 0 0 0 0 0 0 0 0 0 127 0" result="hardAlpha"/>
<feOffset dy="2.44467"/>
<feGaussianBlur stdDeviation="2.44467"/>
<feComposite in2="hardAlpha" operator="out"/>
<feColorMatrix type="matrix" values="0 0 0 0 0 0 0 0 0 0 0 0 0 0 0 0 0 0 0.16 0"/>
<feBlend mode="normal" in2="BackgroundImageFix" result="effect1_dropShadow_579_7811"/>
<feBlend mode="normal" in="SourceGraphic" in2="effect1_dropShadow_579_7811" result="shape"/>
</filter>
<linearGradient id="paint0_linear_579_7811" x1="10.2" y1="15.1599" x2="312.2" y2="226.16" gradientUnits="userSpaceOnUse">
<stop stop-color="white" stop-opacity="0.2"/>
<stop offset="1" stop-color="white" stop-opacity="0.1"/>
</linearGradient>
<radialGradient id="paint1_radial_579_7811" cx="0" cy="0" r="1" gradientUnits="userSpaceOnUse" gradientTransform="translate(262.788 37.0061) rotate(51.0107) scale(5.85481)">
<stop stop-color="#256CF1"/>
<stop offset="1" stop-color="#11357C"/>
</radialGradient>
<radialGradient id="paint2_radial_579_7811" cx="0" cy="0" r="1" gradientTransform="matrix(6.38509 2.42706 7.88793 -1.96464 256.845 26.0082)" gradientUnits="userSpaceOnUse">
<stop stop-color="#256CF1"/>
<stop offset="1" stop-color="#11357C"/>
</radialGradient>
<radialGradient id="paint3_radial_579_7811" cx="0" cy="0" r="1" gradientTransform="matrix(6.38509 5.76426 7.88793 -4.66603 256.845 33.8771)" gradientUnits="userSpaceOnUse">
<stop stop-color="#256CF1"/>
<stop offset="1" stop-color="#11357C"/>
</radialGradient>
<radialGradient id="paint4_radial_579_7811" cx="0" cy="0" r="1" gradientUnits="userSpaceOnUse" gradientTransform="translate(139.395 83.199) rotate(51.0107) scale(3.98633)">
<stop stop-color="#256CF1"/>
<stop offset="1" stop-color="#11357C"/>
</radialGradient>
<radialGradient id="paint5_radial_579_7811" cx="0" cy="0" r="1" gradientTransform="matrix(4.34737 1.6525 5.37061 -1.33765 135.348 75.711)" gradientUnits="userSpaceOnUse">
<stop stop-color="#256CF1"/>
<stop offset="1" stop-color="#11357C"/>
</radialGradient>
<radialGradient id="paint6_radial_579_7811" cx="0" cy="0" r="1" gradientTransform="matrix(4.34737 3.92468 5.37061 -3.17693 135.348 81.0686)" gradientUnits="userSpaceOnUse">
<stop stop-color="#256CF1"/>
<stop offset="1" stop-color="#11357C"/>
</radialGradient>
<radialGradient id="paint7_radial_579_7811" cx="0" cy="0" r="1" gradientTransform="matrix(78.8449 11.9872 -75.3337 27.3105 115.775 113.269)" gradientUnits="userSpaceOnUse">
<stop stop-color="#FFFBF3"/>
<stop offset="1" stop-color="#EAF6FF"/>
</radialGradient>
<radialGradient id="paint8_radial_579_7811" cx="0" cy="0" r="1" gradientUnits="userSpaceOnUse" gradientTransform="translate(241.282 114.993) rotate(-180) scale(20.7797 38.0961)">
<stop stop-color="#256CF1"/>
<stop offset="1" stop-color="#11357C"/>
</radialGradient>
<linearGradient id="paint9_linear_579_7811" x1="13.7" y1="7.15991" x2="312.2" y2="226.16" gradientUnits="userSpaceOnUse">
<stop stop-color="#ABAEB4"/>
<stop offset="0.282508" stop-color="#203143"/>
<stop offset="0.502029" stop-color="#071728"/>
<stop offset="0.792663" stop-color="#203143"/>
<stop offset="1" stop-color="#ABAEB4"/>
</linearGradient>
<clipPath id="clip0_579_7811">
<path d="M10.2 18.3599C10.2 12.7266 14.7666 8.15991 20.4 8.15991H302C307.633 8.15991 312.2 12.7266 312.2 18.3599V215.96C312.2 221.593 307.633 226.16 302 226.16H20.4C14.7667 226.16 10.2 221.593 10.2 215.96V18.3599Z" fill="white"/>
</clipPath>
<clipPath id="clip1_579_7811">
<rect width="345" height="52" fill="white" transform="translate(-32.8 5.56323)"/>
</clipPath>
<clipPath id="clip2_579_7811">
<rect width="336" height="48" fill="white" transform="translate(-22.8 8.56323)"/>
</clipPath>
<clipPath id="clip3_579_7811">
<rect width="19.9996" height="19.9996" fill="white" transform="translate(248.644 22.2302)"/>
</clipPath>
<clipPath id="clip4_579_7811">
<rect width="13.617" height="13.617" fill="white" transform="translate(129.339 73.3513)"/>
</clipPath>
<clipPath id="clip5_579_7811">
<rect width="0.611167" height="0.611167" fill="white" transform="matrix(-1 0 0 1 249.837 112.855)"/>
</clipPath>
<clipPath id="clip6_579_7811">
<rect width="0.611167" height="0.611167" fill="white" transform="matrix(-1 0 0 1 249.837 112.855)"/>
</clipPath>
<clipPath id="clip7_579_7811">
<rect width="0.603261" height="0.603261" fill="white" transform="matrix(-1 0 0 1 249.829 112.858)"/>
</clipPath>
<clipPath id="clip8_579_7811">
<rect width="0.603261" height="0.603261" fill="white" transform="matrix(-1 0 0 1 249.829 112.858)"/>
</clipPath>
</defs>
</svg>
