<svg width="323" height="239" viewBox="0 0 323 239" fill="none" xmlns="http://www.w3.org/2000/svg">
<g filter="url(#filter0_d_579_7864)">
<g clip-path="url(#clip0_579_7864)">
<path d="M10.2 18.3599C10.2 12.7266 14.7666 8.15991 20.4 8.15991H302C307.633 8.15991 312.2 12.7266 312.2 18.3599V215.96C312.2 221.593 307.633 226.16 302 226.16H20.4C14.7667 226.16 10.2 221.593 10.2 215.96V18.3599Z" fill="url(#paint0_linear_579_7864)" shape-rendering="crispEdges"/>
<g clip-path="url(#clip1_579_7864)">
<rect width="343.778" height="0.944444" transform="translate(-30.8552 56.6189)" fill="#F6F7F8"/>
<rect width="336" height="48" transform="translate(-22.8 8.56323)" fill="#FBFBFB"/>
<rect x="14.8113" y="14.2302" width="290" height="36" rx="18" fill="#F1F1F1"/>
<path fill-rule="evenodd" clip-rule="evenodd" d="M255.307 23.3963C254.992 23.0811 254.481 23.0811 254.165 23.3963L251.583 25.9785C251.268 26.2937 251.268 26.8046 251.583 27.1198C251.898 27.4349 252.409 27.4349 252.724 27.1198L253.929 25.9151V34.296C253.929 34.7417 254.29 35.1029 254.736 35.1029C255.182 35.1029 255.543 34.7417 255.543 34.296V25.9151L256.748 27.1198C257.063 27.4349 257.574 27.4349 257.889 27.1198C258.204 26.8046 258.204 26.2937 257.889 25.9785L255.307 23.3963ZM249.087 31.0681C249.087 30.4442 249.593 29.9384 250.217 29.9384H251.508C251.954 29.9384 252.315 29.5771 252.315 29.1314C252.315 28.6858 251.954 28.3245 251.508 28.3245H250.217C248.702 28.3245 247.473 29.5529 247.473 31.0681V38.815C247.473 40.3303 248.702 41.5586 250.217 41.5586H259.255C260.77 41.5586 261.999 40.3303 261.999 38.815V31.0681C261.999 29.5529 260.77 28.3245 259.255 28.3245H257.964C257.518 28.3245 257.157 28.6858 257.157 29.1314C257.157 29.5771 257.518 29.9384 257.964 29.9384H259.255C259.879 29.9384 260.385 30.4442 260.385 31.0681V38.815C260.385 39.4389 259.879 39.9447 259.255 39.9447H250.217C249.593 39.9447 249.087 39.4389 249.087 38.815V31.0681Z" fill="#707276"/>
<path fill-rule="evenodd" clip-rule="evenodd" d="M286.256 24.7398C286.507 23.9666 287.601 23.9666 287.852 24.7398L289.524 29.8867H294.936C295.749 29.8867 296.087 30.9271 295.43 31.4049L291.051 34.5859L292.724 39.7329C292.975 40.5061 292.09 41.149 291.432 40.6712L287.054 37.4902L282.676 40.6712C282.018 41.149 281.133 40.5061 281.384 39.7329L283.057 34.5859L278.678 31.4049C278.021 30.9271 278.359 29.8867 279.172 29.8867H284.583L286.256 24.7398ZM287.054 27.5061L285.944 30.9208C285.832 31.2666 285.51 31.5007 285.146 31.5007H281.556L284.461 33.6111C284.755 33.8248 284.878 34.2036 284.765 34.5494L283.656 37.964L286.561 35.8537C286.855 35.6399 287.253 35.6399 287.547 35.8537L290.452 37.964L289.342 34.5494C289.23 34.2036 289.353 33.8248 289.647 33.6111L292.552 31.5007H288.962C288.598 31.5007 288.276 31.2666 288.163 30.9208L287.054 27.5061Z" fill="#707276"/>
</g>
<path d="M22.2 133.16H80.5022V180.698H22.2V133.16Z" fill="#F0F4F8"/>
<path d="M97.4636 133.16H155.766V180.698H97.4636V133.16Z" fill="#F0F4F8"/>
<path d="M170.605 133.16H228.907V180.698H170.605V133.16Z" fill="#F0F4F8"/>
<path d="M243.898 133.16H302.2V180.698H243.898V133.16Z" fill="#F0F4F8"/>
<path d="M66.951 193.803H24.3671C23.7923 193.803 23.2411 193.472 22.8347 192.882C22.4283 192.292 22.2 191.492 22.2 190.658C22.2 189.824 22.4283 189.023 22.8347 188.434C23.2411 187.844 23.7923 187.512 24.3671 187.512H66.951C67.5258 187.512 68.077 187.844 68.4834 188.434C68.8898 189.023 69.1182 189.824 69.1182 190.658C69.1182 191.492 68.8898 192.292 68.4834 192.882C68.077 193.472 67.5258 193.803 66.951 193.803Z" fill="#F0F4F8"/>
<path d="M66.951 206.527H24.3671C23.7923 206.527 23.2411 206.196 22.8347 205.606C22.4283 205.016 22.2 204.216 22.2 203.381C22.2 202.547 22.4283 201.747 22.8347 201.157C23.2411 200.567 23.7923 200.236 24.3671 200.236H66.951C67.5258 200.236 68.077 200.567 68.4834 201.157C68.8898 201.747 69.1182 202.547 69.1182 203.381C69.1182 204.216 68.8898 205.016 68.4834 205.606C68.077 206.196 67.5258 206.527 66.951 206.527Z" fill="#F0F4F8"/>
<path d="M143.167 193.803H100.496C99.9216 193.803 99.3704 193.472 98.964 192.882C98.5575 192.292 98.3292 191.492 98.3292 190.658C98.3292 189.824 98.5575 189.023 98.964 188.434C99.3704 187.844 99.9216 187.512 100.496 187.512H143.167C143.742 187.512 144.293 187.844 144.699 188.434C145.106 189.023 145.334 189.824 145.334 190.658C145.334 191.492 145.106 192.292 144.699 192.882C144.293 193.472 143.742 193.803 143.167 193.803Z" fill="#F0F4F8"/>
<path d="M143.167 206.527H100.496C99.9216 206.527 99.3704 206.196 98.964 205.606C98.5575 205.016 98.3292 204.216 98.3292 203.381C98.3292 202.547 98.5575 201.747 98.964 201.157C99.3704 200.567 99.9216 200.236 100.496 200.236H143.167C143.742 200.236 144.293 200.567 144.699 201.157C145.106 201.747 145.334 202.547 145.334 203.381C145.334 204.216 145.106 205.016 144.699 205.606C144.293 206.196 143.742 206.527 143.167 206.527Z" fill="#F0F4F8"/>
<path d="M215.081 193.803H172.388C171.814 193.803 171.262 193.472 170.856 192.882C170.45 192.292 170.221 191.492 170.221 190.658C170.221 189.824 170.45 189.023 170.856 188.434C171.262 187.844 171.814 187.512 172.388 187.512H215.081C215.655 187.512 216.207 187.844 216.613 188.434C217.019 189.023 217.248 189.824 217.248 190.658C217.248 191.492 217.019 192.292 216.613 192.882C216.207 193.472 215.655 193.803 215.081 193.803Z" fill="#F0F4F8"/>
<path d="M215.081 206.527H172.388C171.814 206.527 171.262 206.196 170.856 205.606C170.45 205.016 170.221 204.216 170.221 203.381C170.221 202.547 170.45 201.747 170.856 201.157C171.262 200.567 171.814 200.236 172.388 200.236H215.081C215.655 200.236 216.207 200.567 216.613 201.157C217.019 201.747 217.248 202.547 217.248 203.381C217.248 204.216 217.019 205.016 216.613 205.606C216.207 206.196 215.655 206.527 215.081 206.527Z" fill="#F0F4F8"/>
<path d="M290.728 193.803H248.036C247.461 193.803 246.91 193.472 246.503 192.882C246.097 192.292 245.868 191.492 245.868 190.658C245.868 189.824 246.097 189.023 246.503 188.434C246.91 187.844 247.461 187.512 248.036 187.512H290.728C291.303 187.512 291.854 187.844 292.26 188.434C292.667 189.023 292.895 189.824 292.895 190.658C292.895 191.492 292.667 192.292 292.26 192.882C291.854 193.472 291.303 193.803 290.728 193.803Z" fill="#F0F4F8"/>
<path d="M290.728 206.527H248.036C247.461 206.527 246.91 206.196 246.503 205.606C246.097 205.016 245.868 204.216 245.868 203.381C245.868 202.547 246.097 201.747 246.503 201.157C246.91 200.567 247.461 200.236 248.036 200.236H290.728C291.303 200.236 291.854 200.567 292.26 201.157C292.667 201.747 292.895 202.547 292.895 203.381C292.895 204.216 292.667 205.016 292.26 205.606C291.854 206.196 291.303 206.527 290.728 206.527Z" fill="#F0F4F8"/>
<g filter="url(#filter1_d_579_7864)">
<rect x="18.2" y="62.1599" width="284" height="49.7" rx="4.87319" fill="white"/>
<g clip-path="url(#clip2_579_7864)">
<path d="M58.7436 88.516C56.7915 86.5627 53.613 86.562 51.6593 88.516C50.7129 89.4622 50.1921 90.7205 50.1921 92.0591C50.1921 93.3974 50.7129 94.6557 51.6593 95.6018C52.6053 96.5484 53.8633 97.0693 55.2013 97.0693C56.2754 97.0693 57.2946 96.7287 58.1454 96.107L59.554 97.5159C59.7064 97.6683 59.906 97.7445 60.1056 97.7445C60.3053 97.7445 60.5049 97.6683 60.6573 97.5159C60.9621 97.2111 60.9621 96.7512 60.6573 96.4464L59.2479 95.0027C60.6732 93.0445 60.5088 90.2816 58.7436 88.516ZM57.6461 94.4913C57.6438 94.4935 57.6407 94.4942 57.6384 94.4964C57.6362 94.4986 57.6356 94.5018 57.6333 94.5041C56.9826 95.1516 56.1198 95.5085 55.2013 95.5085C54.2801 95.5085 53.4141 95.1499 52.7626 94.4983C52.1111 93.8467 51.7526 92.9805 51.7526 92.0591C51.7526 91.1374 52.1111 90.2712 52.7626 89.6196C53.4141 88.968 54.2801 88.6094 55.2013 88.6094C56.1229 88.6094 56.9888 88.968 57.6403 89.6196C58.2918 90.2712 58.6503 91.1374 58.6503 92.0591C58.6503 92.9775 58.2935 93.8404 57.6461 94.4913Z" fill="url(#paint1_radial_579_7864)"/>
<path d="M58.035 81.4592C58.035 79.0312 56.5556 77.0698 54.7243 77.0698H42.8099C40.9858 77.0698 39.4991 79.0312 39.4991 81.4592V82.7732H58.035V81.4592ZM43.1402 80.8022H42.1636C41.7973 80.8022 41.4957 80.4023 41.4957 79.9167C41.4957 79.4407 41.7973 79.0407 42.1636 79.0407H43.1402C43.5065 79.0407 43.8009 79.4407 43.8009 79.9167C43.8009 80.4023 43.5065 80.8022 43.1402 80.8022ZM46.1063 80.8022H45.1296C44.7633 80.8022 44.4616 80.4023 44.4616 79.9167C44.4616 79.4407 44.7633 79.0407 45.1296 79.0407H46.1063C46.4725 79.0407 46.767 79.4407 46.767 79.9167C46.767 80.4023 46.4725 80.8022 46.1063 80.8022Z" fill="url(#paint2_radial_579_7864)"/>
<path d="M42.8099 95.6057H49.9556C48.153 93.1272 48.3877 89.6748 50.5494 87.4072C52.736 85.3719 55.701 84.8779 58.035 86.4524V82.0603H39.4991V92.1327C39.4991 94.0538 40.9858 95.6057 42.8099 95.6057Z" fill="url(#paint3_radial_579_7864)"/>
</g>
<path d="M72.8264 89.9565C72.8264 89.8122 72.8042 89.6828 72.7598 89.5682C72.7191 89.4499 72.6415 89.3426 72.5269 89.2465C72.4122 89.1466 72.2514 89.0486 72.0443 88.9525C71.8372 88.8563 71.5691 88.7565 71.24 88.6529C70.8739 88.5346 70.5263 88.4015 70.1972 88.2536C69.8717 88.1057 69.5833 87.9337 69.3319 87.7377C69.0841 87.538 68.8881 87.3069 68.7439 87.0444C68.6034 86.7818 68.5331 86.4767 68.5331 86.1291C68.5331 85.7926 68.6071 85.4875 68.755 85.2139C68.9029 84.9365 69.11 84.6999 69.3762 84.5039C69.6425 84.3042 69.9568 84.1507 70.3192 84.0435C70.6853 83.9363 71.0865 83.8826 71.5229 83.8826C72.1182 83.8826 72.6378 83.9899 73.0815 84.2044C73.5253 84.4188 73.8692 84.7128 74.1133 85.0863C74.361 85.4598 74.4849 85.8869 74.4849 86.3676H72.8319C72.8319 86.131 72.782 85.9239 72.6822 85.7464C72.586 85.5652 72.4381 85.4228 72.2384 85.3193C72.0424 85.2157 71.7947 85.164 71.4951 85.164C71.2067 85.164 70.9663 85.2083 70.774 85.2971C70.5817 85.3821 70.4375 85.4986 70.3414 85.6465C70.2452 85.7908 70.1972 85.9535 70.1972 86.1347C70.1972 86.2715 70.2304 86.3954 70.297 86.5063C70.3673 86.6172 70.4708 86.7208 70.6076 86.8169C70.7445 86.9131 70.9127 87.0037 71.1124 87.0887C71.3121 87.1738 71.5432 87.257 71.8058 87.3383C72.2458 87.4715 72.6322 87.6212 72.9651 87.7876C73.3016 87.954 73.5826 88.1408 73.8082 88.3479C74.0338 88.555 74.2039 88.7898 74.3185 89.0523C74.4331 89.3149 74.4904 89.6126 74.4904 89.9454C74.4904 90.2967 74.422 90.611 74.2852 90.8883C74.1484 91.1657 73.9505 91.4005 73.6917 91.5928C73.4328 91.7851 73.1241 91.9312 72.7654 92.031C72.4067 92.1308 72.0054 92.1808 71.5617 92.1808C71.1623 92.1808 70.7685 92.129 70.3802 92.0254C69.9919 91.9182 69.6388 91.7574 69.3208 91.5429C69.0064 91.3284 68.755 91.0547 68.5664 90.7219C68.3778 90.3891 68.2835 89.9953 68.2835 89.5404H69.9531C69.9531 89.7919 69.9919 90.0045 70.0696 90.1783C70.1472 90.3521 70.2563 90.4927 70.3969 90.5999C70.5411 90.7071 70.7112 90.7848 70.9072 90.8329C71.1069 90.8809 71.325 90.905 71.5617 90.905C71.8501 90.905 72.0868 90.8643 72.2717 90.7829C72.4603 90.7016 72.599 90.5888 72.6877 90.4446C72.7802 90.3004 72.8264 90.1377 72.8264 89.9565ZM78.2845 92.1808C77.8186 92.1808 77.4007 92.1068 77.0309 91.9589C76.6611 91.8073 76.3468 91.5983 76.0879 91.3321C75.8328 91.0658 75.6368 90.7571 75.5 90.4058C75.3632 90.0508 75.2947 89.6736 75.2947 89.2742V89.0523C75.2947 88.5975 75.3595 88.1815 75.4889 87.8043C75.6183 87.4271 75.8032 87.0998 76.0436 86.8225C76.2876 86.5451 76.5835 86.3325 76.9311 86.1846C77.2787 86.033 77.6707 85.9572 78.107 85.9572C78.5323 85.9572 78.9095 86.0274 79.2386 86.1679C79.5677 86.3085 79.8432 86.5082 80.0651 86.767C80.2906 87.0259 80.4607 87.3365 80.5754 87.6989C80.69 88.0576 80.7473 88.457 80.7473 88.897V89.5626H75.977V88.4976H79.1776V88.3756C79.1776 88.1537 79.1369 87.9559 79.0555 87.7821C78.9779 87.6046 78.8595 87.4641 78.7005 87.3605C78.5415 87.257 78.3381 87.2052 78.0904 87.2052C77.8796 87.2052 77.6984 87.2514 77.5468 87.3439C77.3952 87.4363 77.2713 87.5658 77.1751 87.7322C77.0827 87.8986 77.0124 88.0946 76.9644 88.3201C76.92 88.542 76.8978 88.7861 76.8978 89.0523V89.2742C76.8978 89.5146 76.9311 89.7364 76.9976 89.9398C77.0679 90.1432 77.1659 90.3189 77.2916 90.4668C77.421 90.6147 77.5764 90.7293 77.7576 90.8107C77.9424 90.892 78.1514 90.9327 78.3844 90.9327C78.6728 90.9327 78.9409 90.8772 79.1886 90.7663C79.4401 90.6517 79.6564 90.4797 79.8376 90.2504L80.6142 91.0936C80.4885 91.2748 80.3165 91.4486 80.0983 91.615C79.8839 91.7814 79.625 91.9182 79.3218 92.0254C79.0185 92.129 78.6728 92.1808 78.2845 92.1808ZM84.8964 90.7164V88.0428C84.8964 87.8505 84.8649 87.6859 84.8021 87.5491C84.7392 87.4086 84.6412 87.2995 84.5081 87.2219C84.3787 87.1442 84.2104 87.1054 84.0033 87.1054C83.8258 87.1054 83.6724 87.1368 83.5429 87.1997C83.4135 87.2588 83.3137 87.3457 83.2434 87.4604C83.1732 87.5713 83.138 87.7026 83.138 87.8542H81.5405C81.5405 87.599 81.5997 87.3568 81.718 87.1276C81.8364 86.8983 82.0083 86.6968 82.2339 86.5229C82.4595 86.3454 82.7276 86.2068 83.0382 86.1069C83.3525 86.0071 83.7038 85.9572 84.0921 85.9572C84.558 85.9572 84.9722 86.0348 85.3346 86.1901C85.697 86.3454 85.9817 86.5784 86.1888 86.889C86.3996 87.1997 86.505 87.5879 86.505 88.0539V90.6221C86.505 90.9512 86.5253 91.2212 86.566 91.4319C86.6067 91.639 86.6658 91.8202 86.7435 91.9755V92.0698H85.1293C85.0517 91.9071 84.9925 91.7037 84.9518 91.4597C84.9149 91.2119 84.8964 90.9641 84.8964 90.7164ZM85.1072 88.4144L85.1183 89.3186H84.2252C84.0144 89.3186 83.8314 89.3426 83.6761 89.3907C83.5208 89.4388 83.3932 89.5072 83.2933 89.5959C83.1935 89.681 83.1195 89.7808 83.0715 89.8954C83.0271 90.0101 83.0049 90.1358 83.0049 90.2726C83.0049 90.4095 83.0363 90.5333 83.0992 90.6443C83.1621 90.7515 83.2527 90.8366 83.371 90.8994C83.4893 90.9586 83.628 90.9882 83.787 90.9882C84.0274 90.9882 84.2363 90.9401 84.4138 90.844C84.5913 90.7478 84.7281 90.6295 84.8243 90.489C84.9241 90.3484 84.9759 90.2153 84.9796 90.0896L85.4011 90.7663C85.342 90.9179 85.2606 91.0751 85.1571 91.2378C85.0572 91.4005 84.9297 91.554 84.7743 91.6982C84.619 91.8387 84.4323 91.9552 84.2141 92.0476C83.9959 92.1364 83.7371 92.1808 83.4376 92.1808C83.0567 92.1808 82.7109 92.105 82.4003 91.9533C82.0934 91.798 81.8493 91.5854 81.6681 91.3154C81.4906 91.0418 81.4018 90.7312 81.4018 90.3836C81.4018 90.0693 81.461 89.7901 81.5793 89.546C81.6977 89.3019 81.8715 89.0967 82.1008 88.9303C82.3337 88.7602 82.624 88.6326 82.9716 88.5476C83.3192 88.4588 83.7223 88.4144 84.1808 88.4144H85.1072ZM89.3339 87.3772V92.0698H87.7364V86.0681H89.2396L89.3339 87.3772ZM91.1422 86.0293L91.1144 87.5103C91.0368 87.4992 90.9425 87.49 90.8315 87.4826C90.7243 87.4715 90.6263 87.4659 90.5376 87.4659C90.312 87.4659 90.116 87.4955 89.9496 87.5547C89.7869 87.6101 89.6501 87.6933 89.5391 87.8043C89.4319 87.9152 89.3505 88.0502 89.2951 88.2092C89.2433 88.3682 89.2137 88.5494 89.2063 88.7528L88.8846 88.6529C88.8846 88.2647 88.9234 87.9078 89.0011 87.5824C89.0787 87.2533 89.1915 86.9667 89.3394 86.7226C89.491 86.4786 89.6759 86.29 89.8941 86.1569C90.1123 86.0237 90.3619 85.9572 90.6429 85.9572C90.7317 85.9572 90.8223 85.9646 90.9147 85.9794C91.0072 85.9904 91.083 86.0071 91.1422 86.0293ZM94.2651 90.9327C94.461 90.9327 94.6348 90.8957 94.7865 90.8218C94.9381 90.7441 95.0564 90.6369 95.1415 90.5001C95.2302 90.3595 95.2764 90.195 95.2801 90.0064H96.7833C96.7796 90.4279 96.6668 90.8033 96.445 91.1324C96.2231 91.4578 95.9254 91.7148 95.5519 91.9034C95.1784 92.0883 94.7606 92.1808 94.2983 92.1808C93.8324 92.1808 93.4256 92.1031 93.078 91.9478C92.7341 91.7925 92.4475 91.578 92.2183 91.3044C91.989 91.027 91.817 90.7053 91.7024 90.3392C91.5878 89.9694 91.5304 89.5737 91.5304 89.1522V88.9913C91.5304 88.566 91.5878 88.1704 91.7024 87.8043C91.817 87.4345 91.989 87.1128 92.2183 86.8391C92.4475 86.5618 92.7341 86.3454 93.078 86.1901C93.4219 86.0348 93.825 85.9572 94.2872 85.9572C94.7791 85.9572 95.2099 86.0515 95.5797 86.2401C95.9532 86.4287 96.2453 86.6986 96.4561 87.0499C96.6705 87.3975 96.7796 87.8098 96.7833 88.2869H95.2801C95.2764 88.0872 95.2339 87.906 95.1526 87.7433C95.0749 87.5806 94.9603 87.4511 94.8086 87.355C94.6607 87.2551 94.4777 87.2052 94.2595 87.2052C94.0265 87.2052 93.8361 87.2551 93.6882 87.355C93.5403 87.4511 93.4256 87.5843 93.3443 87.7544C93.2629 87.9208 93.2056 88.1112 93.1723 88.3257C93.1427 88.5365 93.1279 88.7583 93.1279 88.9913V89.1522C93.1279 89.3851 93.1427 89.6089 93.1723 89.8233C93.2019 90.0378 93.2574 90.2283 93.3387 90.3947C93.4238 90.5611 93.5403 90.6924 93.6882 90.7885C93.8361 90.8846 94.0284 90.9327 94.2651 90.9327ZM99.2683 83.5498V92.0698H97.6708V83.5498H99.2683ZM99.0409 88.8582H98.6027C98.6064 88.4403 98.6619 88.0557 98.7691 87.7044C98.8764 87.3494 99.0298 87.0425 99.2295 86.7837C99.4292 86.5211 99.6677 86.3177 99.9451 86.1735C100.226 86.0293 100.537 85.9572 100.877 85.9572C101.173 85.9572 101.441 85.9997 101.681 86.0847C101.925 86.1661 102.134 86.2992 102.308 86.4841C102.486 86.6653 102.622 86.9038 102.718 87.1997C102.815 87.4955 102.863 87.8542 102.863 88.2758V92.0698H101.254V88.2647C101.254 87.9984 101.215 87.7895 101.138 87.6379C101.064 87.4826 100.955 87.3735 100.81 87.3106C100.67 87.244 100.496 87.2108 100.289 87.2108C100.06 87.2108 99.8637 87.2533 99.701 87.3383C99.542 87.4234 99.4144 87.5417 99.3183 87.6933C99.2221 87.8413 99.1518 88.0151 99.1075 88.2147C99.0631 88.4144 99.0409 88.6289 99.0409 88.8582ZM108.942 92.0698H107.333V85.5356C107.333 85.0808 107.422 84.698 107.6 84.3874C107.781 84.0731 108.034 83.8364 108.36 83.6774C108.689 83.5147 109.079 83.4333 109.53 83.4333C109.678 83.4333 109.82 83.4444 109.957 83.4666C110.094 83.4851 110.227 83.5091 110.357 83.5387L110.34 84.7424C110.27 84.7239 110.196 84.711 110.118 84.7036C110.04 84.6962 109.95 84.6925 109.846 84.6925C109.654 84.6925 109.489 84.7258 109.353 84.7923C109.219 84.8552 109.118 84.9495 109.047 85.0752C108.977 85.2009 108.942 85.3544 108.942 85.5356V92.0698ZM110.14 86.0681V87.1997H106.44V86.0681H110.14ZM110.723 89.13V89.0135C110.723 88.5734 110.785 88.1685 110.911 87.7987C111.037 87.4252 111.22 87.1017 111.46 86.828C111.701 86.5544 111.997 86.3418 112.348 86.1901C112.699 86.0348 113.102 85.9572 113.557 85.9572C114.012 85.9572 114.417 86.0348 114.772 86.1901C115.127 86.3418 115.425 86.5544 115.665 86.828C115.909 87.1017 116.094 87.4252 116.22 87.7987C116.345 88.1685 116.408 88.5734 116.408 89.0135V89.13C116.408 89.5663 116.345 89.9713 116.22 90.3447C116.094 90.7145 115.909 91.0381 115.665 91.3154C115.425 91.5891 115.129 91.8017 114.777 91.9533C114.426 92.105 114.023 92.1808 113.568 92.1808C113.113 92.1808 112.708 92.105 112.353 91.9533C112.002 91.8017 111.704 91.5891 111.46 91.3154C111.22 91.0381 111.037 90.7145 110.911 90.3447C110.785 89.9713 110.723 89.5663 110.723 89.13ZM112.32 89.0135V89.13C112.32 89.3814 112.342 89.6163 112.387 89.8344C112.431 90.0526 112.501 90.2449 112.597 90.4113C112.697 90.574 112.827 90.7016 112.986 90.794C113.145 90.8865 113.339 90.9327 113.568 90.9327C113.79 90.9327 113.98 90.8865 114.14 90.794C114.299 90.7016 114.426 90.574 114.522 90.4113C114.618 90.2449 114.689 90.0526 114.733 89.8344C114.781 89.6163 114.805 89.3814 114.805 89.13V89.0135C114.805 88.7694 114.781 88.5402 114.733 88.3257C114.689 88.1075 114.617 87.9152 114.517 87.7488C114.421 87.5787 114.293 87.4456 114.134 87.3494C113.975 87.2533 113.783 87.2052 113.557 87.2052C113.332 87.2052 113.139 87.2533 112.98 87.3494C112.825 87.4456 112.697 87.5787 112.597 87.7488C112.501 87.9152 112.431 88.1075 112.387 88.3257C112.342 88.5402 112.32 88.7694 112.32 89.0135ZM118.987 87.3772V92.0698H117.39V86.0681H118.893L118.987 87.3772ZM120.796 86.0293L120.768 87.5103C120.69 87.4992 120.596 87.49 120.485 87.4826C120.378 87.4715 120.28 87.4659 120.191 87.4659C119.966 87.4659 119.77 87.4955 119.603 87.5547C119.44 87.6101 119.304 87.6933 119.193 87.8043C119.085 87.9152 119.004 88.0502 118.949 88.2092C118.897 88.3682 118.867 88.5494 118.86 88.7528L118.538 88.6529C118.538 88.2647 118.577 87.9078 118.655 87.5824C118.732 87.2533 118.845 86.9667 118.993 86.7226C119.145 86.4786 119.33 86.29 119.548 86.1569C119.766 86.0237 120.015 85.9572 120.297 85.9572C120.385 85.9572 120.476 85.9646 120.568 85.9794C120.661 85.9904 120.737 86.0071 120.796 86.0293Z" fill="#1C3769"/>
<path d="M129 90.0286C129 89.84 128.97 89.6736 128.911 89.5294C128.855 89.3814 128.756 89.2483 128.611 89.13C128.471 89.0116 128.275 88.8989 128.023 88.7916C127.776 88.6844 127.461 88.5753 127.08 88.4644C126.681 88.346 126.32 88.2147 125.999 88.0705C125.677 87.9226 125.402 87.7544 125.172 87.5658C124.943 87.3772 124.767 87.1608 124.645 86.9168C124.523 86.6727 124.462 86.3935 124.462 86.0792C124.462 85.7649 124.527 85.4746 124.656 85.2083C124.786 84.9421 124.971 84.711 125.211 84.515C125.455 84.3153 125.745 84.16 126.082 84.049C126.418 83.9381 126.794 83.8826 127.208 83.8826C127.814 83.8826 128.328 83.9991 128.75 84.2321C129.175 84.4614 129.499 84.7627 129.721 85.1362C129.943 85.506 130.053 85.9017 130.053 86.3233H128.988C128.988 86.02 128.924 85.7519 128.794 85.519C128.665 85.2823 128.469 85.0974 128.206 84.9643C127.944 84.8275 127.611 84.759 127.208 84.759C126.827 84.759 126.513 84.8164 126.265 84.931C126.017 85.0456 125.832 85.2009 125.71 85.3969C125.592 85.5929 125.533 85.8166 125.533 86.0681C125.533 86.2382 125.568 86.3935 125.638 86.534C125.712 86.6709 125.825 86.7984 125.977 86.9168C126.132 87.0351 126.328 87.1442 126.565 87.244C126.805 87.3439 127.091 87.44 127.424 87.5325C127.883 87.6619 128.278 87.8061 128.611 87.9651C128.944 88.1241 129.218 88.3035 129.432 88.5032C129.65 88.6992 129.811 88.9229 129.915 89.1744C130.022 89.4221 130.076 89.7032 130.076 90.0175C130.076 90.3466 130.009 90.6443 129.876 90.9105C129.743 91.1768 129.552 91.4042 129.305 91.5928C129.057 91.7814 128.759 91.9275 128.412 92.031C128.068 92.1308 127.683 92.1808 127.258 92.1808C126.884 92.1808 126.516 92.129 126.154 92.0254C125.795 91.9219 125.468 91.7666 125.172 91.5595C124.88 91.3524 124.645 91.0973 124.468 90.794C124.294 90.4871 124.207 90.1321 124.207 89.729H125.272C125.272 90.0064 125.326 90.2449 125.433 90.4446C125.54 90.6406 125.686 90.8033 125.871 90.9327C126.06 91.0621 126.272 91.1583 126.509 91.2212C126.749 91.2803 126.999 91.3099 127.258 91.3099C127.631 91.3099 127.948 91.2581 128.206 91.1546C128.465 91.051 128.661 90.9031 128.794 90.7108C128.931 90.5185 129 90.2911 129 90.0286ZM136.061 83.9936H137.126V89.4572C137.126 90.0637 136.991 90.5685 136.721 90.9715C136.451 91.3746 136.092 91.6778 135.645 91.8812C135.201 92.0809 134.718 92.1808 134.197 92.1808C133.65 92.1808 133.154 92.0809 132.71 91.8812C132.27 91.6778 131.921 91.3746 131.662 90.9715C131.407 90.5685 131.279 90.0637 131.279 89.4572V83.9936H132.339V89.4572C132.339 89.8788 132.416 90.2264 132.572 90.5001C132.727 90.7737 132.943 90.9771 133.221 91.1102C133.502 91.2433 133.827 91.3099 134.197 91.3099C134.57 91.3099 134.896 91.2433 135.173 91.1102C135.454 90.9771 135.672 90.7737 135.828 90.5001C135.983 90.2264 136.061 89.8788 136.061 89.4572V83.9936ZM141.413 90.844L143.793 83.9936H144.952L141.963 92.0698H141.136L141.413 90.844ZM139.189 83.9936L141.547 90.844L141.841 92.0698H141.014L138.03 83.9936H139.189ZM153.883 91.2267V92.0698H148.597V91.3321L151.243 88.3867C151.568 88.0243 151.819 87.7174 151.997 87.4659C152.178 87.2108 152.304 86.9833 152.374 86.7837C152.448 86.5803 152.485 86.3732 152.485 86.1624C152.485 85.8962 152.43 85.6558 152.319 85.4413C152.211 85.2231 152.052 85.0493 151.842 84.9199C151.631 84.7905 151.376 84.7258 151.076 84.7258C150.717 84.7258 150.418 84.796 150.178 84.9365C149.941 85.0734 149.763 85.2657 149.645 85.5134C149.527 85.7612 149.468 86.0459 149.468 86.3676H148.441C148.441 85.9128 148.541 85.4968 148.741 85.1196C148.941 84.7424 149.236 84.4429 149.628 84.221C150.02 83.9954 150.503 83.8826 151.076 83.8826C151.586 83.8826 152.023 83.9732 152.385 84.1544C152.748 84.3319 153.025 84.5834 153.217 84.9088C153.413 85.2305 153.511 85.6077 153.511 86.0404C153.511 86.277 153.471 86.5174 153.389 86.7615C153.312 87.0018 153.202 87.2422 153.062 87.4826C152.925 87.7229 152.764 87.9596 152.579 88.1926C152.398 88.4255 152.204 88.6548 151.997 88.8804L149.834 91.2267H153.883ZM160.051 87.3883V88.6197C160.051 89.2816 159.992 89.84 159.873 90.2948C159.755 90.7497 159.585 91.1158 159.363 91.3931C159.141 91.6704 158.873 91.872 158.559 91.9977C158.248 92.1197 157.897 92.1808 157.505 92.1808C157.194 92.1808 156.908 92.1419 156.645 92.0643C156.383 91.9866 156.146 91.8627 155.935 91.6926C155.728 91.5188 155.551 91.2933 155.403 91.0159C155.255 90.7386 155.142 90.4021 155.064 90.0064C154.987 89.6107 154.948 89.1485 154.948 88.6197V87.3883C154.948 86.7263 155.007 86.1716 155.125 85.7242C155.247 85.2768 155.419 84.9181 155.641 84.6481C155.863 84.3745 156.129 84.1785 156.44 84.0601C156.754 83.9418 157.106 83.8826 157.494 83.8826C157.808 83.8826 158.097 83.9215 158.359 83.9991C158.625 84.0731 158.862 84.1933 159.069 84.3597C159.276 84.5224 159.452 84.7406 159.596 85.0142C159.744 85.2841 159.857 85.6151 159.935 86.0071C160.012 86.3991 160.051 86.8595 160.051 87.3883ZM159.019 88.7861V87.2163C159.019 86.8539 158.997 86.5359 158.953 86.2622C158.912 85.9849 158.851 85.7482 158.77 85.5522C158.688 85.3563 158.585 85.1972 158.459 85.0752C158.337 84.9532 158.195 84.8644 158.032 84.809C157.873 84.7498 157.694 84.7202 157.494 84.7202C157.25 84.7202 157.033 84.7664 156.845 84.8589C156.656 84.9476 156.497 85.09 156.368 85.286C156.242 85.482 156.146 85.739 156.079 86.057C156.013 86.375 155.98 86.7615 155.98 87.2163V88.7861C155.98 89.1485 156 89.4683 156.041 89.7457C156.085 90.023 156.15 90.2634 156.235 90.4668C156.32 90.6665 156.423 90.831 156.545 90.9604C156.667 91.0899 156.808 91.186 156.967 91.2489C157.13 91.3081 157.309 91.3376 157.505 91.3376C157.756 91.3376 157.976 91.2896 158.165 91.1934C158.354 91.0973 158.511 90.9475 158.637 90.7441C158.766 90.537 158.862 90.2726 158.925 89.9509C158.988 89.6255 159.019 89.2372 159.019 88.7861ZM166.663 91.2267V92.0698H161.377V91.3321L164.023 88.3867C164.348 88.0243 164.599 87.7174 164.777 87.4659C164.958 87.2108 165.084 86.9833 165.154 86.7837C165.228 86.5803 165.265 86.3732 165.265 86.1624C165.265 85.8962 165.21 85.6558 165.099 85.4413C164.991 85.2231 164.832 85.0493 164.622 84.9199C164.411 84.7905 164.156 84.7258 163.856 84.7258C163.497 84.7258 163.198 84.796 162.958 84.9365C162.721 85.0734 162.543 85.2657 162.425 85.5134C162.307 85.7612 162.248 86.0459 162.248 86.3676H161.221C161.221 85.9128 161.321 85.4968 161.521 85.1196C161.721 84.7424 162.016 84.4429 162.408 84.221C162.8 83.9954 163.283 83.8826 163.856 83.8826C164.366 83.8826 164.803 83.9732 165.165 84.1544C165.528 84.3319 165.805 84.5834 165.997 84.9088C166.193 85.2305 166.291 85.6077 166.291 86.0404C166.291 86.277 166.251 86.5174 166.169 86.7615C166.092 87.0018 165.982 87.2422 165.842 87.4826C165.705 87.7229 165.544 87.9596 165.359 88.1926C165.178 88.4255 164.984 88.6548 164.777 88.8804L162.614 91.2267H166.663ZM169.059 88.2258L168.238 88.0151L168.643 83.9936H172.787V84.9421H169.514L169.27 87.1387C169.418 87.0536 169.605 86.9741 169.83 86.9001C170.059 86.8262 170.322 86.7892 170.618 86.7892C170.991 86.7892 171.326 86.8539 171.622 86.9833C171.918 87.1091 172.169 87.2903 172.376 87.5269C172.587 87.7636 172.748 88.0483 172.859 88.3812C172.97 88.714 173.025 89.0856 173.025 89.4961C173.025 89.8844 172.972 90.2412 172.864 90.5666C172.761 90.892 172.604 91.1768 172.393 91.4208C172.182 91.6612 171.916 91.8479 171.594 91.9811C171.276 92.1142 170.901 92.1808 170.468 92.1808C170.143 92.1808 169.834 92.1364 169.542 92.0476C169.253 91.9552 168.994 91.8165 168.765 91.6316C168.54 91.443 168.355 91.2101 168.21 90.9327C168.07 90.6517 167.981 90.3226 167.944 89.9454H168.92C168.965 90.2486 169.054 90.5038 169.187 90.7108C169.32 90.9179 169.494 91.0751 169.708 91.1823C169.926 91.2859 170.18 91.3376 170.468 91.3376C170.712 91.3376 170.928 91.2951 171.117 91.2101C171.306 91.125 171.465 91.003 171.594 90.844C171.723 90.685 171.821 90.4927 171.888 90.2671C171.958 90.0415 171.993 89.7882 171.993 89.5072C171.993 89.252 171.958 89.0153 171.888 88.7972C171.818 88.579 171.712 88.3885 171.572 88.2258C171.435 88.0631 171.267 87.9374 171.067 87.8487C170.867 87.7562 170.638 87.71 170.379 87.71C170.035 87.71 169.775 87.7562 169.597 87.8487C169.423 87.9411 169.244 88.0668 169.059 88.2258ZM176.808 89.1355V89.0079C176.808 88.5753 176.871 88.1741 176.997 87.8043C177.122 87.4308 177.304 87.1072 177.54 86.8336C177.777 86.5562 178.064 86.3418 178.4 86.1901C178.737 86.0348 179.114 85.9572 179.532 85.9572C179.953 85.9572 180.332 86.0348 180.669 86.1901C181.009 86.3418 181.297 86.5562 181.534 86.8336C181.774 87.1072 181.957 87.4308 182.083 87.8043C182.209 88.1741 182.272 88.5753 182.272 89.0079V89.1355C182.272 89.5682 182.209 89.9694 182.083 90.3392C181.957 90.709 181.774 91.0326 181.534 91.3099C181.297 91.5835 181.011 91.798 180.674 91.9533C180.341 92.105 179.964 92.1808 179.543 92.1808C179.121 92.1808 178.742 92.105 178.406 91.9533C178.069 91.798 177.781 91.5835 177.54 91.3099C177.304 91.0326 177.122 90.709 176.997 90.3392C176.871 89.9694 176.808 89.5682 176.808 89.1355ZM177.834 89.0079V89.1355C177.834 89.4351 177.869 89.7179 177.94 89.9842C178.01 90.2468 178.115 90.4797 178.256 90.6831C178.4 90.8865 178.579 91.0474 178.794 91.1657C179.008 91.2803 179.258 91.3376 179.543 91.3376C179.824 91.3376 180.07 91.2803 180.28 91.1657C180.495 91.0474 180.672 90.8865 180.813 90.6831C180.953 90.4797 181.059 90.2468 181.129 89.9842C181.203 89.7179 181.24 89.4351 181.24 89.1355V89.0079C181.24 88.7121 181.203 88.4329 181.129 88.1704C181.059 87.9041 180.952 87.6693 180.807 87.4659C180.667 87.2588 180.489 87.0961 180.275 86.9778C180.064 86.8595 179.816 86.8003 179.532 86.8003C179.251 86.8003 179.003 86.8595 178.788 86.9778C178.578 87.0961 178.4 87.2588 178.256 87.4659C178.115 87.6693 178.01 87.9041 177.94 88.1704C177.869 88.4329 177.834 88.7121 177.834 89.0079ZM184.585 87.3494V92.0698H183.559V86.0681H184.529L184.585 87.3494ZM184.341 88.8415L183.914 88.8249C183.917 88.4144 183.978 88.0354 184.097 87.6878C184.215 87.3365 184.381 87.0314 184.596 86.7726C184.81 86.5137 185.066 86.314 185.361 86.1735C185.661 86.0293 185.992 85.9572 186.354 85.9572C186.65 85.9572 186.916 85.9978 187.153 86.0792C187.39 86.1569 187.591 86.2826 187.758 86.4564C187.928 86.6302 188.057 86.8558 188.146 87.1331C188.235 87.4068 188.279 87.7414 188.279 88.1371V92.0698H187.247V88.126C187.247 87.8117 187.201 87.5602 187.109 87.3716C187.016 87.1793 186.881 87.0407 186.704 86.9556C186.526 86.8669 186.308 86.8225 186.049 86.8225C185.794 86.8225 185.561 86.8761 185.35 86.9833C185.143 87.0906 184.964 87.2385 184.812 87.4271C184.664 87.6157 184.548 87.832 184.463 88.0761C184.381 88.3164 184.341 88.5716 184.341 88.8415ZM195.057 91.3376C195.301 91.3376 195.527 91.2877 195.734 91.1879C195.941 91.088 196.111 90.9512 196.244 90.7774C196.377 90.5999 196.453 90.3984 196.472 90.1728H197.448C197.43 90.5278 197.309 90.8588 197.087 91.1657C196.869 91.4689 196.583 91.7148 196.228 91.9034C195.873 92.0883 195.483 92.1808 195.057 92.1808C194.606 92.1808 194.212 92.1013 193.876 91.9422C193.543 91.7832 193.266 91.5651 193.044 91.2877C192.826 91.0104 192.661 90.6924 192.55 90.3337C192.443 89.9713 192.389 89.5885 192.389 89.1854V88.9525C192.389 88.5494 192.443 88.1685 192.55 87.8098C192.661 87.4474 192.826 87.1276 193.044 86.8502C193.266 86.5729 193.543 86.3547 193.876 86.1957C194.212 86.0367 194.606 85.9572 195.057 85.9572C195.527 85.9572 195.937 86.0533 196.289 86.2456C196.64 86.4342 196.916 86.6931 197.115 87.0222C197.319 87.3476 197.43 87.7174 197.448 88.1315H196.472C196.453 87.8838 196.383 87.6601 196.261 87.4604C196.143 87.2607 195.98 87.1017 195.773 86.9833C195.569 86.8613 195.331 86.8003 195.057 86.8003C194.743 86.8003 194.479 86.8632 194.264 86.9889C194.053 87.1109 193.885 87.2773 193.759 87.4881C193.637 87.6952 193.549 87.9263 193.493 88.1815C193.441 88.4329 193.415 88.6899 193.415 88.9525V89.1854C193.415 89.448 193.441 89.7069 193.493 89.962C193.545 90.2172 193.632 90.4483 193.754 90.6554C193.88 90.8625 194.048 91.0289 194.259 91.1546C194.473 91.2766 194.739 91.3376 195.057 91.3376ZM202.141 91.0437V87.954C202.141 87.7174 202.093 87.5121 201.996 87.3383C201.904 87.1608 201.763 87.024 201.575 86.9279C201.386 86.8317 201.153 86.7837 200.876 86.7837C200.617 86.7837 200.39 86.828 200.194 86.9168C200.001 87.0055 199.85 87.122 199.739 87.2662C199.632 87.4104 199.578 87.5658 199.578 87.7322H198.552C198.552 87.5177 198.607 87.3051 198.718 87.0943C198.829 86.8835 198.988 86.6931 199.195 86.5229C199.406 86.3491 199.658 86.2123 199.95 86.1125C200.245 86.0089 200.575 85.9572 200.937 85.9572C201.373 85.9572 201.758 86.0311 202.091 86.179C202.427 86.327 202.69 86.5507 202.878 86.8502C203.071 87.146 203.167 87.5177 203.167 87.9651V90.7608C203.167 90.9604 203.183 91.1731 203.217 91.3987C203.254 91.6242 203.307 91.8184 203.378 91.9811V92.0698H202.307C202.255 91.9515 202.215 91.7943 202.185 91.5983C202.155 91.3987 202.141 91.2138 202.141 91.0437ZM202.318 88.4311L202.329 89.1522H201.292C201 89.1522 200.739 89.1762 200.51 89.2243C200.281 89.2687 200.088 89.3371 199.933 89.4295C199.778 89.522 199.659 89.6384 199.578 89.779C199.497 89.9158 199.456 90.0766 199.456 90.2615C199.456 90.4501 199.499 90.6221 199.584 90.7774C199.669 90.9327 199.796 91.0566 199.966 91.149C200.14 91.2378 200.353 91.2822 200.604 91.2822C200.919 91.2822 201.196 91.2156 201.436 91.0825C201.677 90.9494 201.867 90.7866 202.008 90.5944C202.152 90.4021 202.229 90.2153 202.241 90.0341L202.679 90.5278C202.653 90.6831 202.583 90.8551 202.468 91.0437C202.353 91.2322 202.2 91.4134 202.008 91.5872C201.819 91.7574 201.593 91.8997 201.331 92.0144C201.072 92.1253 200.78 92.1808 200.454 92.1808C200.048 92.1808 199.691 92.1013 199.384 91.9422C199.081 91.7832 198.844 91.5706 198.674 91.3044C198.507 91.0344 198.424 90.733 198.424 90.4002C198.424 90.0785 198.487 89.7956 198.613 89.5515C198.739 89.3038 198.92 89.0985 199.156 88.9358C199.393 88.7694 199.678 88.6437 200.011 88.5587C200.343 88.4736 200.715 88.4311 201.126 88.4311H202.318ZM205.807 87.0111V92.0698H204.781V86.0681H205.779L205.807 87.0111ZM207.682 86.0348L207.676 86.9889C207.591 86.9704 207.51 86.9593 207.432 86.9556C207.358 86.9482 207.273 86.9445 207.177 86.9445C206.941 86.9445 206.732 86.9815 206.55 87.0554C206.369 87.1294 206.216 87.2329 206.09 87.3661C205.964 87.4992 205.864 87.6582 205.791 87.8431C205.72 88.0243 205.674 88.224 205.652 88.4422L205.363 88.6086C205.363 88.2462 205.399 87.906 205.469 87.5879C205.543 87.2699 205.656 86.9889 205.807 86.7448C205.959 86.4971 206.151 86.3048 206.384 86.1679C206.621 86.0274 206.902 85.9572 207.227 85.9572C207.301 85.9572 207.386 85.9664 207.482 85.9849C207.578 85.9997 207.645 86.0163 207.682 86.0348ZM212.125 90.4779C212.125 90.33 212.092 90.1931 212.025 90.0674C211.962 89.938 211.831 89.8215 211.631 89.7179C211.435 89.6107 211.14 89.5183 210.744 89.4406C210.411 89.3703 210.11 89.2871 209.84 89.191C209.573 89.0949 209.346 88.9784 209.157 88.8415C208.973 88.7047 208.83 88.5439 208.73 88.359C208.631 88.1741 208.581 87.9577 208.581 87.71C208.581 87.4733 208.632 87.2496 208.736 87.0388C208.843 86.828 208.993 86.6413 209.185 86.4786C209.381 86.3159 209.616 86.1883 209.89 86.0958C210.163 86.0034 210.468 85.9572 210.805 85.9572C211.286 85.9572 211.696 86.0422 212.036 86.2123C212.377 86.3824 212.637 86.6099 212.818 86.8946C213 87.1756 213.09 87.4881 213.09 87.832H212.064C212.064 87.6656 212.014 87.5047 211.914 87.3494C211.818 87.1904 211.676 87.0591 211.487 86.9556C211.302 86.8521 211.075 86.8003 210.805 86.8003C210.52 86.8003 210.289 86.8447 210.112 86.9334C209.938 87.0185 209.81 87.1276 209.729 87.2607C209.651 87.3938 209.612 87.5343 209.612 87.6822C209.612 87.7932 209.631 87.893 209.668 87.9818C209.708 88.0668 209.779 88.1463 209.879 88.2203C209.978 88.2906 210.119 88.3571 210.3 88.42C210.481 88.4828 210.712 88.5457 210.993 88.6086C211.485 88.7195 211.89 88.8526 212.208 89.0079C212.526 89.1633 212.763 89.3537 212.918 89.5793C213.074 89.8049 213.151 90.0785 213.151 90.4002C213.151 90.6628 213.096 90.9031 212.985 91.1213C212.878 91.3395 212.72 91.5281 212.513 91.6871C212.31 91.8424 212.066 91.9644 211.781 92.0532C211.5 92.1382 211.184 92.1808 210.833 92.1808C210.304 92.1808 209.856 92.0865 209.49 91.8979C209.124 91.7093 208.847 91.4652 208.658 91.1657C208.47 90.8662 208.375 90.55 208.375 90.2172H209.407C209.422 90.4982 209.503 90.7219 209.651 90.8883C209.799 91.051 209.98 91.1675 210.195 91.2378C210.409 91.3044 210.622 91.3376 210.833 91.3376C211.114 91.3376 211.348 91.3007 211.537 91.2267C211.729 91.1527 211.875 91.051 211.975 90.9216C212.075 90.7922 212.125 90.6443 212.125 90.4779ZM216.019 91.0048L217.561 86.0681H218.238L218.105 87.0499L216.535 92.0698H215.875L216.019 91.0048ZM214.982 86.0681L216.296 91.0603L216.391 92.0698H215.697L213.956 86.0681H214.982ZM219.713 91.0215L220.967 86.0681H221.987L220.246 92.0698H219.558L219.713 91.0215ZM218.387 86.0681L219.896 90.9216L220.068 92.0698H219.414L217.799 87.0388L217.666 86.0681H218.387ZM225.532 92.1808C225.114 92.1808 224.735 92.1105 224.395 91.97C224.058 91.8258 223.768 91.6242 223.524 91.3654C223.284 91.1065 223.099 90.7996 222.969 90.4446C222.84 90.0896 222.775 89.7013 222.775 89.2797V89.0468C222.775 88.5587 222.847 88.1241 222.991 87.7433C223.136 87.3587 223.332 87.0333 223.579 86.767C223.827 86.5008 224.108 86.2992 224.422 86.1624C224.737 86.0256 225.062 85.9572 225.399 85.9572C225.828 85.9572 226.197 86.0311 226.508 86.179C226.822 86.327 227.079 86.534 227.279 86.8003C227.479 87.0628 227.627 87.3735 227.723 87.7322C227.819 88.0872 227.867 88.4754 227.867 88.897V89.3574H223.385V88.5198H226.841V88.4422C226.826 88.1759 226.771 87.9171 226.674 87.6656C226.582 87.4141 226.434 87.2071 226.231 87.0444C226.027 86.8816 225.75 86.8003 225.399 86.8003C225.166 86.8003 224.951 86.8502 224.755 86.9501C224.559 87.0462 224.391 87.1904 224.251 87.3827C224.11 87.575 224.001 87.8098 223.923 88.0872C223.846 88.3645 223.807 88.6844 223.807 89.0468V89.2797C223.807 89.5645 223.846 89.8326 223.923 90.084C224.005 90.3318 224.121 90.55 224.273 90.7386C224.428 90.9272 224.615 91.0751 224.833 91.1823C225.055 91.2896 225.306 91.3432 225.587 91.3432C225.95 91.3432 226.257 91.2692 226.508 91.1213C226.76 90.9734 226.98 90.7756 227.168 90.5278L227.789 91.0215C227.66 91.2175 227.495 91.4042 227.296 91.5817C227.096 91.7592 226.85 91.9034 226.558 92.0144C226.27 92.1253 225.928 92.1808 225.532 92.1808ZM229.06 83.5498H230.091V90.905L230.003 92.0698H229.06V83.5498ZM234.146 89.019V89.1355C234.146 89.5719 234.094 89.9768 233.991 90.3503C233.887 90.7201 233.736 91.0418 233.536 91.3154C233.336 91.5891 233.092 91.8017 232.804 91.9533C232.515 92.105 232.184 92.1808 231.811 92.1808C231.43 92.1808 231.095 92.116 230.807 91.9866C230.522 91.8535 230.282 91.6631 230.086 91.4153C229.89 91.1675 229.733 90.868 229.614 90.5167C229.5 90.1654 229.42 89.7697 229.376 89.3297V88.8194C229.42 88.3756 229.5 87.9781 229.614 87.6268C229.733 87.2755 229.89 86.9759 230.086 86.7282C230.282 86.4767 230.522 86.2863 230.807 86.1569C231.092 86.0237 231.423 85.9572 231.8 85.9572C232.177 85.9572 232.512 86.0311 232.804 86.179C233.096 86.3233 233.34 86.5303 233.536 86.8003C233.736 87.0702 233.887 87.3938 233.991 87.771C234.094 88.1445 234.146 88.5605 234.146 89.019ZM233.114 89.1355V89.019C233.114 88.7195 233.087 88.4385 233.031 88.1759C232.976 87.9097 232.887 87.6767 232.765 87.477C232.643 87.2736 232.482 87.1146 232.282 87C232.083 86.8816 231.837 86.8225 231.545 86.8225C231.286 86.8225 231.06 86.8669 230.868 86.9556C230.679 87.0444 230.518 87.1645 230.385 87.3162C230.252 87.4641 230.143 87.6342 230.058 87.8265C229.977 88.0151 229.916 88.211 229.875 88.4144V89.7512C229.934 90.0101 230.03 90.2597 230.163 90.5001C230.3 90.7367 230.482 90.9309 230.707 91.0825C230.936 91.2341 231.219 91.3099 231.556 91.3099C231.833 91.3099 232.07 91.2544 232.266 91.1435C232.465 91.0289 232.626 90.8717 232.748 90.672C232.874 90.4723 232.967 90.2412 233.026 89.9787C233.085 89.7161 233.114 89.4351 233.114 89.1355ZM238.939 90.4779C238.939 90.33 238.905 90.1931 238.839 90.0674C238.776 89.938 238.645 89.8215 238.445 89.7179C238.249 89.6107 237.953 89.5183 237.557 89.4406C237.225 89.3703 236.923 89.2871 236.653 89.191C236.387 89.0949 236.16 88.9784 235.971 88.8415C235.786 88.7047 235.644 88.5439 235.544 88.359C235.444 88.1741 235.394 87.9577 235.394 87.71C235.394 87.4733 235.446 87.2496 235.55 87.0388C235.657 86.828 235.807 86.6413 235.999 86.4786C236.195 86.3159 236.43 86.1883 236.703 86.0958C236.977 86.0034 237.282 85.9572 237.618 85.9572C238.099 85.9572 238.51 86.0422 238.85 86.2123C239.19 86.3824 239.451 86.6099 239.632 86.8946C239.813 87.1756 239.904 87.4881 239.904 87.832H238.878C238.878 87.6656 238.828 87.5047 238.728 87.3494C238.632 87.1904 238.489 87.0591 238.301 86.9556C238.116 86.8521 237.888 86.8003 237.618 86.8003C237.334 86.8003 237.103 86.8447 236.925 86.9334C236.751 87.0185 236.624 87.1276 236.542 87.2607C236.465 87.3938 236.426 87.5343 236.426 87.6822C236.426 87.7932 236.444 87.893 236.481 87.9818C236.522 88.0668 236.592 88.1463 236.692 88.2203C236.792 88.2906 236.933 88.3571 237.114 88.42C237.295 88.4828 237.526 88.5457 237.807 88.6086C238.299 88.7195 238.704 88.8526 239.022 89.0079C239.34 89.1633 239.577 89.3537 239.732 89.5793C239.887 89.8049 239.965 90.0785 239.965 90.4002C239.965 90.6628 239.909 90.9031 239.798 91.1213C239.691 91.3395 239.534 91.5281 239.327 91.6871C239.124 91.8424 238.879 91.9644 238.595 92.0532C238.314 92.1382 237.998 92.1808 237.646 92.1808C237.117 92.1808 236.67 92.0865 236.304 91.8979C235.938 91.7093 235.66 91.4652 235.472 91.1657C235.283 90.8662 235.189 90.55 235.189 90.2172H236.221C236.235 90.4982 236.317 90.7219 236.465 90.8883C236.613 91.051 236.794 91.1675 237.008 91.2378C237.223 91.3044 237.435 91.3376 237.646 91.3376C237.927 91.3376 238.162 91.3007 238.351 91.2267C238.543 91.1527 238.689 91.051 238.789 90.9216C238.889 90.7922 238.939 90.6443 238.939 90.4779ZM242.428 86.0681V92.0698H241.396V86.0681H242.428ZM241.318 84.4762C241.318 84.3097 241.368 84.1692 241.468 84.0546C241.572 83.94 241.723 83.8826 241.923 83.8826C242.119 83.8826 242.269 83.94 242.372 84.0546C242.479 84.1692 242.533 84.3097 242.533 84.4762C242.533 84.6352 242.479 84.772 242.372 84.8866C242.269 84.9976 242.119 85.053 241.923 85.053C241.723 85.053 241.572 84.9976 241.468 84.8866C241.368 84.772 241.318 84.6352 241.318 84.4762ZM246.588 86.0681V86.8558H243.343V86.0681H246.588ZM244.441 84.6093H245.467V90.5833C245.467 90.7866 245.499 90.9401 245.562 91.0437C245.624 91.1472 245.706 91.2156 245.806 91.2489C245.906 91.2822 246.013 91.2988 246.127 91.2988C246.212 91.2988 246.301 91.2914 246.394 91.2766C246.49 91.2581 246.562 91.2433 246.61 91.2322L246.616 92.0698C246.534 92.0957 246.427 92.1197 246.294 92.1419C246.164 92.1678 246.007 92.1808 245.822 92.1808C245.571 92.1808 245.34 92.1308 245.129 92.031C244.918 91.9312 244.75 91.7647 244.624 91.5318C244.502 91.2951 244.441 90.9771 244.441 90.5777V84.6093ZM250.282 92.1808C249.864 92.1808 249.485 92.1105 249.145 91.97C248.808 91.8258 248.518 91.6242 248.274 91.3654C248.034 91.1065 247.849 90.7996 247.719 90.4446C247.59 90.0896 247.525 89.7013 247.525 89.2797V89.0468C247.525 88.5587 247.597 88.1241 247.742 87.7433C247.886 87.3587 248.082 87.0333 248.329 86.767C248.577 86.5008 248.858 86.2992 249.173 86.1624C249.487 86.0256 249.812 85.9572 250.149 85.9572C250.578 85.9572 250.948 86.0311 251.258 86.179C251.573 86.327 251.83 86.534 252.029 86.8003C252.229 87.0628 252.377 87.3735 252.473 87.7322C252.569 88.0872 252.617 88.4754 252.617 88.897V89.3574H248.135V88.5198H251.591V88.4422C251.576 88.1759 251.521 87.9171 251.425 87.6656C251.332 87.4141 251.184 87.2071 250.981 87.0444C250.778 86.8816 250.5 86.8003 250.149 86.8003C249.916 86.8003 249.701 86.8502 249.505 86.9501C249.309 87.0462 249.141 87.1904 249.001 87.3827C248.86 87.575 248.751 87.8098 248.673 88.0872C248.596 88.3645 248.557 88.6844 248.557 89.0468V89.2797C248.557 89.5645 248.596 89.8326 248.673 90.084C248.755 90.3318 248.871 90.55 249.023 90.7386C249.178 90.9272 249.365 91.0751 249.583 91.1823C249.805 91.2896 250.056 91.3432 250.337 91.3432C250.7 91.3432 251.007 91.2692 251.258 91.1213C251.51 90.9734 251.73 90.7756 251.918 90.5278L252.54 91.0215C252.41 91.2175 252.246 91.4042 252.046 91.5817C251.846 91.7592 251.6 91.9034 251.308 92.0144C251.02 92.1253 250.678 92.1808 250.282 92.1808ZM253.832 91.5262C253.832 91.3524 253.886 91.2064 253.993 91.088C254.104 90.966 254.263 90.905 254.47 90.905C254.677 90.905 254.834 90.966 254.941 91.088C255.052 91.2064 255.108 91.3524 255.108 91.5262C255.108 91.6963 255.052 91.8406 254.941 91.9589C254.834 92.0772 254.677 92.1364 254.47 92.1364C254.263 92.1364 254.104 92.0772 253.993 91.9589C253.886 91.8406 253.832 91.6963 253.832 91.5262ZM259.212 91.3376C259.457 91.3376 259.682 91.2877 259.889 91.1879C260.096 91.088 260.266 90.9512 260.4 90.7774C260.533 90.5999 260.608 90.3984 260.627 90.1728H261.603C261.585 90.5278 261.465 90.8588 261.243 91.1657C261.024 91.4689 260.738 91.7148 260.383 91.9034C260.028 92.0883 259.638 92.1808 259.212 92.1808C258.761 92.1808 258.367 92.1013 258.031 91.9422C257.698 91.7832 257.421 91.5651 257.199 91.2877C256.981 91.0104 256.816 90.6924 256.705 90.3337C256.598 89.9713 256.544 89.5885 256.544 89.1854V88.9525C256.544 88.5494 256.598 88.1685 256.705 87.8098C256.816 87.4474 256.981 87.1276 257.199 86.8502C257.421 86.5729 257.698 86.3547 258.031 86.1957C258.367 86.0367 258.761 85.9572 259.212 85.9572C259.682 85.9572 260.093 86.0533 260.444 86.2456C260.795 86.4342 261.071 86.6931 261.27 87.0222C261.474 87.3476 261.585 87.7174 261.603 88.1315H260.627C260.608 87.8838 260.538 87.6601 260.416 87.4604C260.298 87.2607 260.135 87.1017 259.928 86.9833C259.725 86.8613 259.486 86.8003 259.212 86.8003C258.898 86.8003 258.634 86.8632 258.419 86.9889C258.208 87.1109 258.04 87.2773 257.915 87.4881C257.792 87.6952 257.704 87.9263 257.648 88.1815C257.596 88.4329 257.571 88.6899 257.571 88.9525V89.1854C257.571 89.448 257.596 89.7069 257.648 89.962C257.7 90.2172 257.787 90.4483 257.909 90.6554C258.035 90.8625 258.203 91.0289 258.414 91.1546C258.628 91.2766 258.894 91.3376 259.212 91.3376ZM262.485 89.1355V89.0079C262.485 88.5753 262.548 88.1741 262.674 87.8043C262.799 87.4308 262.981 87.1072 263.217 86.8336C263.454 86.5562 263.741 86.3418 264.077 86.1901C264.414 86.0348 264.791 85.9572 265.209 85.9572C265.63 85.9572 266.009 86.0348 266.346 86.1901C266.686 86.3418 266.974 86.5562 267.211 86.8336C267.451 87.1072 267.634 87.4308 267.76 87.8043C267.886 88.1741 267.949 88.5753 267.949 89.0079V89.1355C267.949 89.5682 267.886 89.9694 267.76 90.3392C267.634 90.709 267.451 91.0326 267.211 91.3099C266.974 91.5835 266.688 91.798 266.351 91.9533C266.018 92.105 265.641 92.1808 265.22 92.1808C264.798 92.1808 264.419 92.105 264.083 91.9533C263.746 91.798 263.458 91.5835 263.217 91.3099C262.981 91.0326 262.799 90.709 262.674 90.3392C262.548 89.9694 262.485 89.5682 262.485 89.1355ZM263.511 89.0079V89.1355C263.511 89.4351 263.546 89.7179 263.617 89.9842C263.687 90.2468 263.792 90.4797 263.933 90.6831C264.077 90.8865 264.256 91.0474 264.471 91.1657C264.685 91.2803 264.935 91.3376 265.22 91.3376C265.501 91.3376 265.747 91.2803 265.957 91.1657C266.172 91.0474 266.349 90.8865 266.49 90.6831C266.63 90.4797 266.736 90.2468 266.806 89.9842C266.88 89.7179 266.917 89.4351 266.917 89.1355V89.0079C266.917 88.7121 266.88 88.4329 266.806 88.1704C266.736 87.9041 266.629 87.6693 266.484 87.4659C266.344 87.2588 266.166 87.0961 265.952 86.9778C265.741 86.8595 265.493 86.8003 265.209 86.8003C264.928 86.8003 264.68 86.8595 264.465 86.9778C264.255 87.0961 264.077 87.2588 263.933 87.4659C263.792 87.6693 263.687 87.9041 263.617 88.1704C263.546 88.4329 263.511 88.7121 263.511 89.0079ZM270.256 87.2607V92.0698H269.225V86.0681H270.201L270.256 87.2607ZM270.046 88.8415L269.568 88.8249C269.572 88.4144 269.626 88.0354 269.729 87.6878C269.833 87.3365 269.986 87.0314 270.19 86.7726C270.393 86.5137 270.646 86.314 270.95 86.1735C271.253 86.0293 271.604 85.9572 272.004 85.9572C272.285 85.9572 272.543 85.9978 272.78 86.0792C273.017 86.1569 273.222 86.2807 273.396 86.4508C273.57 86.6209 273.705 86.8391 273.801 87.1054C273.897 87.3716 273.945 87.6933 273.945 88.0705V92.0698H272.919V88.1204C272.919 87.8061 272.865 87.5547 272.758 87.3661C272.654 87.1775 272.506 87.0407 272.314 86.9556C272.122 86.8669 271.896 86.8225 271.637 86.8225C271.334 86.8225 271.081 86.8761 270.878 86.9833C270.674 87.0906 270.511 87.2385 270.389 87.4271C270.267 87.6157 270.179 87.832 270.123 88.0761C270.071 88.3164 270.046 88.5716 270.046 88.8415ZM273.934 88.2758L273.246 88.4865C273.25 88.1574 273.303 87.8413 273.407 87.538C273.514 87.2348 273.668 86.9649 273.867 86.7282C274.071 86.4915 274.32 86.3048 274.616 86.1679C274.912 86.0274 275.25 85.9572 275.631 85.9572C275.953 85.9572 276.238 85.9997 276.485 86.0847C276.737 86.1698 276.948 86.3011 277.118 86.4786C277.292 86.6524 277.423 86.8761 277.512 87.1497C277.6 87.4234 277.645 87.7488 277.645 88.126V92.0698H276.613V88.1149C276.613 87.7784 276.559 87.5177 276.452 87.3328C276.349 87.1442 276.201 87.0129 276.008 86.939C275.82 86.8613 275.594 86.8225 275.332 86.8225C275.106 86.8225 274.906 86.8613 274.733 86.939C274.559 87.0166 274.413 87.1239 274.294 87.2607C274.176 87.3938 274.085 87.5473 274.023 87.7211C273.963 87.8949 273.934 88.0798 273.934 88.2758Z" fill="#606367"/>
</g>
<path d="M37.0963 36.085C37.0963 35.8009 37.0517 35.5502 36.9626 35.3329C36.879 35.1101 36.7286 34.9096 36.5113 34.7313C36.2997 34.553 36.0044 34.3831 35.6256 34.2216C35.2524 34.06 34.7789 33.8957 34.2051 33.7286C33.6035 33.5503 33.0604 33.3526 32.5757 33.1353C32.0911 32.9125 31.6761 32.659 31.3307 32.3749C30.9853 32.0908 30.7207 31.765 30.5369 31.3973C30.3531 31.0296 30.2611 30.6091 30.2611 30.1356C30.2611 29.6621 30.3586 29.2248 30.5536 28.8237C30.7486 28.4226 31.0271 28.0745 31.3892 27.7792C31.7568 27.4784 32.1941 27.2444 32.7011 27.0773C33.208 26.9102 33.7734 26.8266 34.3973 26.8266C35.3109 26.8266 36.0852 27.0021 36.7202 27.3531C37.3609 27.6984 37.8483 28.1524 38.1825 28.7151C38.5167 29.2721 38.6839 29.8682 38.6839 30.5032H37.0795C37.0795 30.0464 36.9821 29.6426 36.7871 29.2916C36.5921 28.9351 36.2969 28.6566 35.9014 28.456C35.5058 28.2499 35.0045 28.1469 34.3973 28.1469C33.8235 28.1469 33.35 28.2332 32.9768 28.4059C32.6036 28.5786 32.325 28.8126 32.1412 29.1078C31.963 29.403 31.8738 29.7401 31.8738 30.1189C31.8738 30.3751 31.9268 30.6091 32.0326 30.8208C32.144 31.0269 32.3139 31.219 32.5423 31.3973C32.7763 31.5756 33.0715 31.7399 33.428 31.8903C33.7901 32.0407 34.2218 32.1855 34.7232 32.3248C35.4139 32.5198 36.01 32.737 36.5113 32.9766C37.0127 33.2161 37.4249 33.4863 37.748 33.7871C38.0767 34.0823 38.319 34.4193 38.475 34.7981C38.6365 35.1714 38.7173 35.5947 38.7173 36.0682C38.7173 36.564 38.617 37.0125 38.4165 37.4135C38.2159 37.8146 37.9291 38.1572 37.5558 38.4413C37.1826 38.7254 36.7342 38.9454 36.2105 39.1014C35.6925 39.2518 35.1131 39.327 34.4725 39.327C33.9099 39.327 33.3556 39.249 32.8097 39.0931C32.2693 38.9371 31.7763 38.7031 31.3307 38.3912C30.8906 38.0792 30.5369 37.6948 30.2695 37.2381C30.0077 36.7757 29.8768 36.2409 29.8768 35.6337H31.4811C31.4811 36.0515 31.5619 36.4108 31.7234 36.7116C31.885 37.0069 32.105 37.252 32.3835 37.447C32.6676 37.6419 32.9879 37.7868 33.3445 37.8815C33.7066 37.9706 34.0826 38.0152 34.4725 38.0152C35.0351 38.0152 35.5114 37.9372 35.9014 37.7812C36.2913 37.6252 36.5865 37.4024 36.7871 37.1127C36.9932 36.8231 37.0963 36.4805 37.0963 36.085ZM47.7333 26.9938H49.3376V35.2243C49.3376 36.1379 49.1343 36.8983 48.7276 37.5054C48.321 38.1126 47.7806 38.5694 47.1066 38.8758C46.4381 39.1766 45.7112 39.327 44.9257 39.327C44.1013 39.327 43.3548 39.1766 42.6863 38.8758C42.0234 38.5694 41.497 38.1126 41.1071 37.5054C40.7227 36.8983 40.5305 36.1379 40.5305 35.2243V26.9938H42.1265V35.2243C42.1265 35.8593 42.2435 36.383 42.4774 36.7952C42.7114 37.2074 43.0373 37.5138 43.4551 37.7143C43.8784 37.9149 44.3686 38.0152 44.9257 38.0152C45.4883 38.0152 45.9785 37.9149 46.3963 37.7143C46.8197 37.5138 47.1484 37.2074 47.3823 36.7952C47.6163 36.383 47.7333 35.8593 47.7333 35.2243V26.9938ZM55.7967 37.3133L59.3814 26.9938H61.1277L56.6239 39.1599H55.3789L55.7967 37.3133ZM52.446 26.9938L55.9972 37.3133L56.4401 39.1599H55.1951L50.6996 26.9938H52.446ZM74.5807 37.8898V39.1599H66.6175V38.0486L70.6033 33.6116C71.0935 33.0657 71.4723 32.6033 71.7397 32.2245C72.0127 31.8402 72.2021 31.4976 72.3079 31.1968C72.4193 30.8904 72.475 30.5784 72.475 30.2609C72.475 29.8598 72.3915 29.4977 72.2243 29.1746C72.0628 28.846 71.8233 28.5842 71.5057 28.3892C71.1882 28.1942 70.8038 28.0967 70.3526 28.0967C69.8123 28.0967 69.3611 28.2026 68.999 28.4143C68.6425 28.6204 68.3751 28.91 68.1968 29.2833C68.0186 29.6565 67.9294 30.0854 67.9294 30.5701H66.3836C66.3836 29.8849 66.534 29.2582 66.8348 28.69C67.1356 28.1218 67.5813 27.6706 68.1717 27.3364C68.7622 26.9965 69.4892 26.8266 70.3526 26.8266C71.1214 26.8266 71.7787 26.9631 72.3246 27.2361C72.8705 27.5035 73.2883 27.8823 73.578 28.3725C73.8732 28.8571 74.0209 29.4253 74.0209 30.0771C74.0209 30.4336 73.9596 30.7957 73.837 31.1633C73.72 31.5254 73.5557 31.8875 73.344 32.2496C73.1379 32.6117 72.8956 32.9682 72.6171 33.3192C72.3441 33.6701 72.0517 34.0155 71.7397 34.3553L68.4809 37.8898H74.5807ZM83.8724 32.1076V33.9626C83.8724 34.9597 83.7833 35.8009 83.605 36.486C83.4268 37.1712 83.1705 37.7227 82.8363 38.1405C82.5021 38.5583 82.0982 38.8619 81.6247 39.0513C81.1568 39.2351 80.6276 39.327 80.0371 39.327C79.5692 39.327 79.1374 39.2685 78.7419 39.1516C78.3464 39.0346 77.9899 38.848 77.6724 38.5917C77.3604 38.3299 77.093 37.9901 76.8702 37.5723C76.6474 37.1545 76.4775 36.6476 76.3605 36.0515C76.2435 35.4555 76.185 34.7592 76.185 33.9626V32.1076C76.185 31.1104 76.2742 30.2748 76.4524 29.6008C76.6362 28.9268 76.8953 28.3864 77.2295 27.9798C77.5637 27.5675 77.9648 27.2723 78.4328 27.094C78.9063 26.9158 79.4355 26.8266 80.0204 26.8266C80.4939 26.8266 80.9284 26.8851 81.3239 27.0021C81.725 27.1135 82.0815 27.2946 82.3934 27.5452C82.7054 27.7904 82.97 28.119 83.1872 28.5312C83.4101 28.9379 83.58 29.4365 83.697 30.0269C83.8139 30.6174 83.8724 31.311 83.8724 32.1076ZM82.3182 34.2132V31.8485C82.3182 31.3026 82.2848 30.8235 82.218 30.4113C82.1567 29.9935 82.0648 29.637 81.9422 29.3418C81.8197 29.0465 81.6637 28.807 81.4743 28.6232C81.2905 28.4393 81.076 28.3056 80.8309 28.2221C80.5914 28.1329 80.3212 28.0884 80.0204 28.0884C79.6527 28.0884 79.3268 28.158 79.0427 28.2973C78.7586 28.431 78.5191 28.6454 78.3241 28.9407C78.1347 29.2359 77.9899 29.6231 77.8896 30.1021C77.7894 30.5812 77.7392 31.1633 77.7392 31.8485V34.2132C77.7392 34.7592 77.7699 35.241 77.8311 35.6588C77.898 36.0766 77.9955 36.4387 78.1236 36.7451C78.2517 37.0459 78.4077 37.2938 78.5915 37.4887C78.7753 37.6837 78.987 37.8285 79.2266 37.9232C79.4717 38.0124 79.7418 38.0569 80.0371 38.0569C80.4159 38.0569 80.7473 37.9845 81.0314 37.8397C81.3155 37.6948 81.5523 37.4692 81.7417 37.1629C81.9366 36.8509 82.0815 36.4526 82.1762 35.968C82.2709 35.4778 82.3182 34.8928 82.3182 34.2132ZM93.8326 37.8898V39.1599H85.8695V38.0486L89.8552 33.6116C90.3454 33.0657 90.7242 32.6033 90.9916 32.2245C91.2646 31.8402 91.454 31.4976 91.5598 31.1968C91.6712 30.8904 91.7269 30.5784 91.7269 30.2609C91.7269 29.8598 91.6434 29.4977 91.4763 29.1746C91.3147 28.846 91.0752 28.5842 90.7577 28.3892C90.4401 28.1942 90.0558 28.0967 89.6046 28.0967C89.0642 28.0967 88.613 28.2026 88.2509 28.4143C87.8944 28.6204 87.627 28.91 87.4487 29.2833C87.2705 29.6565 87.1814 30.0854 87.1814 30.5701H85.6355C85.6355 29.8849 85.7859 29.2582 86.0867 28.69C86.3875 28.1218 86.8332 27.6706 87.4237 27.3364C88.0142 26.9965 88.7411 26.8266 89.6046 26.8266C90.3733 26.8266 91.0306 26.9631 91.5765 27.2361C92.1225 27.5035 92.5403 27.8823 92.8299 28.3725C93.1252 28.8571 93.2728 29.4253 93.2728 30.0771C93.2728 30.4336 93.2115 30.7957 93.089 31.1633C92.972 31.5254 92.8076 31.8875 92.596 32.2496C92.3898 32.6117 92.1475 32.9682 91.869 33.3192C91.596 33.6701 91.3036 34.0155 90.9916 34.3553L87.7328 37.8898H93.8326ZM97.4424 33.3693L96.2057 33.0518L96.8157 26.9938H103.058V28.4226H98.1275L97.7599 31.7315C97.9827 31.6034 98.264 31.4837 98.6038 31.3722C98.9492 31.2608 99.3447 31.2051 99.7904 31.2051C100.353 31.2051 100.857 31.3026 101.303 31.4976C101.748 31.687 102.127 31.9599 102.439 32.3165C102.757 32.673 102.999 33.1019 103.166 33.6033C103.333 34.1046 103.417 34.6645 103.417 35.2828C103.417 35.8677 103.336 36.4053 103.174 36.8955C103.019 37.3857 102.782 37.8146 102.464 38.1823C102.147 38.5444 101.746 38.8257 101.261 39.0262C100.782 39.2268 100.217 39.327 99.5648 39.327C99.0745 39.327 98.6094 39.2602 98.1693 39.1265C97.7348 38.9872 97.3449 38.7783 96.9995 38.4998C96.6597 38.2157 96.3812 37.8648 96.1639 37.447C95.9522 37.0236 95.8185 36.5278 95.7628 35.9596H97.2335C97.3003 36.4164 97.434 36.8008 97.6345 37.1127C97.8351 37.4247 98.0969 37.6614 98.42 37.823C98.7487 37.9789 99.1302 38.0569 99.5648 38.0569C99.9324 38.0569 100.258 37.9929 100.542 37.8648C100.826 37.7366 101.066 37.5528 101.261 37.3133C101.456 37.0737 101.604 36.7841 101.704 36.4443C101.81 36.1044 101.863 35.7229 101.863 35.2995C101.863 34.9151 101.81 34.5586 101.704 34.2299C101.598 33.9013 101.439 33.6144 101.228 33.3693C101.021 33.1242 100.768 32.9348 100.467 32.8011C100.166 32.6618 99.821 32.5922 99.4311 32.5922C98.913 32.5922 98.5203 32.6618 98.2529 32.8011C97.9911 32.9404 97.7209 33.1298 97.4424 33.3693Z" fill="#707276"/>
<path d="M232.294 123.156C232.294 121.608 231.001 120.28 229.42 120.279C227.881 120.278 226.624 121.46 226.545 122.947C226.544 122.946 226.542 122.945 226.541 122.944V119.692C226.541 118.136 225.253 116.875 223.664 116.875C222.075 116.875 220.787 118.136 220.787 119.692V116.288C220.787 114.732 219.5 113.471 217.911 113.471C216.322 113.471 215.034 114.732 215.034 116.288V107.045C215.034 105.489 213.746 104.228 212.157 104.228C210.569 104.228 209.281 105.489 209.281 107.045V126.196L205.858 122.844C204.9 121.905 203.383 121.798 202.297 122.592C201.158 123.424 200.862 124.973 201.616 126.151C202.354 127.304 203.291 128.894 204.15 130.386C205.388 132.536 206.381 134.811 207.1 137.176C208.179 140.725 211.242 146.773 219.621 147.167C226.631 147.497 232.294 141.457 232.294 134.56C232.294 134.489 232.294 123.156 232.294 123.156Z" fill="#FBD7B8"/>
<path d="M212.066 100.596C211.44 100.596 210.932 100.099 210.932 99.4849V96.2715C210.932 95.6577 211.44 95.1599 212.066 95.1599C212.693 95.1599 213.201 95.6577 213.201 96.2715V99.4849C213.201 100.099 212.693 100.596 212.066 100.596Z" fill="#2365E3"/>
<path d="M207.225 104.1C207.013 104.1 206.799 104.042 206.608 103.921L203.508 101.95C202.982 101.616 202.833 100.928 203.174 100.413C203.515 99.898 204.218 99.7513 204.744 100.086L207.843 102.056C208.769 102.644 208.331 104.1 207.225 104.1Z" fill="#2365E3"/>
<path d="M216.909 104.1C215.802 104.1 215.364 102.644 216.29 102.056L219.39 100.085C219.916 99.7514 220.618 99.8978 220.959 100.413C221.3 100.928 221.151 101.616 220.625 101.95L217.525 103.921C217.334 104.042 217.12 104.1 216.909 104.1Z" fill="#2365E3"/>
<path d="M205.739 109.302H202.42C201.794 109.302 201.285 108.804 201.285 108.19C201.285 107.577 201.794 107.079 202.42 107.079H205.739C206.365 107.079 206.874 107.577 206.874 108.19C206.874 108.804 206.365 109.302 205.739 109.302Z" fill="#2365E3"/>
<path d="M221.713 109.302H218.394C217.768 109.302 217.26 108.804 217.26 108.19C217.26 107.577 217.768 107.079 218.394 107.079H221.713C222.34 107.079 222.848 107.577 222.848 108.19C222.848 108.804 222.34 109.302 221.713 109.302Z" fill="#2365E3"/>
</g>
<path d="M20.4001 8.65991H302C307.357 8.65991 311.7 13.0029 311.7 18.3601V215.96C311.7 221.317 307.357 225.66 302 225.66H20.4001C15.043 225.66 10.7 221.317 10.7 215.96V18.3601C10.7 13.0029 15.043 8.65991 20.4001 8.65991Z" stroke="url(#paint4_linear_579_7864)" stroke-opacity="0.1" shape-rendering="crispEdges"/>
</g>
<defs>
<filter id="filter0_d_579_7864" x="-4.76837e-05" y="-8.70228e-05" width="322.4" height="238.4" filterUnits="userSpaceOnUse" color-interpolation-filters="sRGB">
<feFlood flood-opacity="0" result="BackgroundImageFix"/>
<feColorMatrix in="SourceAlpha" type="matrix" values="0 0 0 0 0 0 0 0 0 0 0 0 0 0 0 0 0 0 127 0" result="hardAlpha"/>
<feOffset dy="2.04"/>
<feGaussianBlur stdDeviation="5.1"/>
<feComposite in2="hardAlpha" operator="out"/>
<feColorMatrix type="matrix" values="0 0 0 0 0 0 0 0 0 0 0 0 0 0 0 0 0 0 0.08 0"/>
<feBlend mode="normal" in2="BackgroundImageFix" result="effect1_dropShadow_579_7864"/>
<feBlend mode="normal" in="SourceGraphic" in2="effect1_dropShadow_579_7864" result="shape"/>
</filter>
<filter id="filter1_d_579_7864" x="-1.29281" y="47.5403" width="322.986" height="88.6855" filterUnits="userSpaceOnUse" color-interpolation-filters="sRGB">
<feFlood flood-opacity="0" result="BackgroundImageFix"/>
<feColorMatrix in="SourceAlpha" type="matrix" values="0 0 0 0 0 0 0 0 0 0 0 0 0 0 0 0 0 0 127 0" result="hardAlpha"/>
<feOffset dy="4.87319"/>
<feGaussianBlur stdDeviation="9.74638"/>
<feComposite in2="hardAlpha" operator="out"/>
<feColorMatrix type="matrix" values="0 0 0 0 0 0 0 0 0 0 0 0 0 0 0 0 0 0 0.12 0"/>
<feBlend mode="normal" in2="BackgroundImageFix" result="effect1_dropShadow_579_7864"/>
<feBlend mode="normal" in="SourceGraphic" in2="effect1_dropShadow_579_7864" result="shape"/>
</filter>
<linearGradient id="paint0_linear_579_7864" x1="10.2" y1="15.1599" x2="312.2" y2="226.16" gradientUnits="userSpaceOnUse">
<stop stop-color="white" stop-opacity="0.2"/>
<stop offset="1" stop-color="white" stop-opacity="0.1"/>
</linearGradient>
<radialGradient id="paint1_radial_579_7864" cx="0" cy="0" r="1" gradientUnits="userSpaceOnUse" gradientTransform="translate(55.5673 92.4356) rotate(51.0107) scale(6.65119 6.65119)">
<stop stop-color="#256CF1"/>
<stop offset="1" stop-color="#11357C"/>
</radialGradient>
<radialGradient id="paint2_radial_579_7864" cx="0" cy="0" r="1" gradientTransform="matrix(7.25359 2.75719 8.96086 -2.23188 48.8161 79.9417)" gradientUnits="userSpaceOnUse">
<stop stop-color="#256CF1"/>
<stop offset="1" stop-color="#11357C"/>
</radialGradient>
<radialGradient id="paint3_radial_579_7864" cx="0" cy="0" r="1" gradientTransform="matrix(7.25359 6.54833 8.96086 -5.30071 48.8161 88.881)" gradientUnits="userSpaceOnUse">
<stop stop-color="#256CF1"/>
<stop offset="1" stop-color="#11357C"/>
</radialGradient>
<linearGradient id="paint4_linear_579_7864" x1="13.7" y1="7.15991" x2="312.2" y2="226.16" gradientUnits="userSpaceOnUse">
<stop stop-color="#ABAEB4"/>
<stop offset="0.282508" stop-color="#203143"/>
<stop offset="0.502029" stop-color="#071728"/>
<stop offset="0.792663" stop-color="#203143"/>
<stop offset="1" stop-color="#ABAEB4"/>
</linearGradient>
<clipPath id="clip0_579_7864">
<path d="M10.2 18.3599C10.2 12.7266 14.7666 8.15991 20.4 8.15991H302C307.633 8.15991 312.2 12.7266 312.2 18.3599V215.96C312.2 221.593 307.633 226.16 302 226.16H20.4C14.7667 226.16 10.2 221.593 10.2 215.96V18.3599Z" fill="white"/>
</clipPath>
<clipPath id="clip1_579_7864">
<rect width="345" height="52" fill="white" transform="translate(-32.8 5.56323)"/>
</clipPath>
<clipPath id="clip2_579_7864">
<rect width="22.72" height="22.72" fill="white" transform="translate(39.5 75.6499)"/>
</clipPath>
</defs>
</svg>
