<svg width="323" height="239" viewBox="0 0 323 239" fill="none" xmlns="http://www.w3.org/2000/svg">
<g filter="url(#filter0_d_619_8421)">
<g clip-path="url(#clip0_619_8421)">
<path d="M10.2 18.36C10.2 12.7267 14.7667 8.16 20.4 8.16H302C307.633 8.16 312.2 12.7267 312.2 18.36V215.96C312.2 221.593 307.633 226.16 302 226.16H20.4C14.7667 226.16 10.2 221.593 10.2 215.96V18.36Z" fill="url(#paint0_linear_619_8421)" fill-opacity="0.08" shape-rendering="crispEdges"/>
<g opacity="0.9" clip-path="url(#clip1_619_8421)">
<g opacity="0.5">
<rect width="343.778" height="0.944444" transform="translate(-30.8552 56.6189)" fill="#EBEDEE"/>
</g>
<g clip-path="url(#clip2_619_8421)">
<rect width="336" height="48" transform="translate(-22.8 8.56332)" fill="#FBFBFB"/>
<g opacity="0.3">
<rect x="-50.1891" y="14.23" width="279" height="36" rx="18" fill="#D5D5D5"/>
</g>
<mask id="mask0_619_8421" style="mask-type:alpha" maskUnits="userSpaceOnUse" x="248" y="22" width="20" height="19">
<circle cx="258.02" cy="31.6049" r="9.37482" fill="#D9D9D9"/>
</mask>
<g mask="url(#mask0_619_8421)">
</g>
<g clip-path="url(#clip3_619_8421)">
<path d="M265.584 33.5559C263.865 31.8365 261.068 31.8358 259.348 33.5559C258.515 34.3888 258.056 35.4964 258.056 36.6748C258.056 37.8528 258.515 38.9604 259.348 39.7933C260.18 40.6265 261.288 41.0851 262.466 41.0851C263.411 41.0851 264.308 40.7853 265.057 40.238L266.297 41.4782C266.431 41.6124 266.607 41.6795 266.783 41.6795C266.959 41.6795 267.134 41.6124 267.268 41.4782C267.537 41.2099 267.537 40.8051 267.268 40.5367L266.028 39.2659C267.282 37.5422 267.138 35.1101 265.584 33.5559ZM264.618 38.8157C264.616 38.8177 264.613 38.8183 264.611 38.8202C264.609 38.8222 264.608 38.825 264.606 38.827C264.034 39.397 263.274 39.7111 262.466 39.7111C261.655 39.7111 260.892 39.3955 260.319 38.8219C259.746 38.2483 259.43 37.4859 259.43 36.6748C259.43 35.8634 259.746 35.1009 260.319 34.5274C260.892 33.9538 261.655 33.6381 262.466 33.6381C263.277 33.6381 264.039 33.9538 264.613 34.5274C265.186 35.1009 265.502 35.8634 265.502 36.6748C265.502 37.4832 265.188 38.2428 264.618 38.8157Z" fill="url(#paint1_radial_619_8421)"/>
<path d="M264.96 27.3441C264.96 25.2068 263.658 23.4803 262.046 23.4803H251.558C249.952 23.4803 248.644 25.2068 248.644 27.3441V28.5007H264.96V27.3441ZM251.849 26.7658H250.989C250.667 26.7658 250.401 26.4137 250.401 25.9863C250.401 25.5672 250.667 25.2152 250.989 25.2152H251.849C252.171 25.2152 252.43 25.5672 252.43 25.9863C252.43 26.4137 252.171 26.7658 251.849 26.7658ZM254.46 26.7658H253.6C253.277 26.7658 253.012 26.4137 253.012 25.9863C253.012 25.5672 253.277 25.2152 253.6 25.2152H254.46C254.782 25.2152 255.041 25.5672 255.041 25.9863C255.041 26.4137 254.782 26.7658 254.46 26.7658Z" fill="url(#paint2_radial_619_8421)"/>
<path d="M251.558 39.7968H257.848C256.261 37.615 256.468 34.576 258.371 32.5799C260.296 30.7883 262.906 30.3534 264.96 31.7394V27.8732H248.644V36.7396C248.644 38.4307 249.952 39.7968 251.558 39.7968Z" fill="url(#paint3_radial_619_8421)"/>
</g>
<path d="M302.542 41.0366H290.057C289.639 41.0342 289.238 40.867 288.943 40.5712C288.647 40.2754 288.48 39.875 288.477 39.4567V36.7483C288.48 36.5695 288.552 36.3986 288.678 36.2721C288.805 36.1456 288.975 36.0736 289.154 36.0712C289.693 36.0712 290.21 35.8572 290.591 35.4763C290.972 35.0953 291.186 34.5787 291.186 34.0399C291.186 33.5012 290.972 32.9845 290.591 32.6036C290.21 32.2227 289.693 32.0086 289.154 32.0086C288.975 32.0063 288.805 31.9342 288.678 31.8077C288.552 31.6813 288.48 31.5104 288.477 31.3315V27.8377C288.477 27.4187 288.644 27.0169 288.94 26.7206C289.236 26.4243 289.638 26.2578 290.057 26.2578H293.036C293.167 25.4662 293.574 24.7466 294.186 24.2275C294.798 23.7083 295.574 23.4234 296.377 23.4234C297.179 23.4234 297.955 23.7083 298.567 24.2275C299.179 24.7466 299.586 25.4662 299.717 26.2578H302.542C302.961 26.2578 303.363 26.4243 303.659 26.7206C303.955 27.0169 304.122 27.4187 304.122 27.8377V39.4567C304.119 39.875 303.952 40.2754 303.656 40.5712C303.36 40.867 302.96 41.0342 302.542 41.0366ZM289.831 37.3532V39.4567C289.831 39.5165 289.855 39.574 289.898 39.6163C289.94 39.6586 289.997 39.6824 290.057 39.6824H302.542C302.602 39.6824 302.659 39.6586 302.701 39.6163C302.744 39.574 302.767 39.5165 302.767 39.4567V27.8377C302.767 27.7779 302.744 27.7205 302.701 27.6781C302.659 27.6358 302.602 27.612 302.542 27.612H299.085C298.992 27.611 298.9 27.5913 298.815 27.5541C298.73 27.5168 298.653 27.4629 298.589 27.3954C298.527 27.3289 298.479 27.2507 298.448 27.1654C298.417 27.0801 298.403 26.9895 298.408 26.8988C298.408 26.8988 298.408 26.8086 298.408 26.7815C298.408 26.2427 298.194 25.7261 297.813 25.3451C297.432 24.9642 296.915 24.7502 296.377 24.7502C295.838 24.7502 295.321 24.9642 294.94 25.3451C294.559 25.7261 294.345 26.2427 294.345 26.7815C294.348 26.8085 294.348 26.8357 294.345 26.8627C294.35 26.9534 294.337 27.044 294.306 27.1293C294.275 27.2146 294.227 27.2928 294.165 27.3593C294.104 27.4334 294.028 27.4941 293.943 27.5376C293.858 27.5811 293.764 27.6064 293.668 27.612H290.057C289.997 27.612 289.94 27.6358 289.898 27.6781C289.855 27.7205 289.831 27.7779 289.831 27.8377V30.7267C290.599 30.8774 291.291 31.2902 291.789 31.8946C292.286 32.4989 292.558 33.2573 292.558 34.0399C292.558 34.8226 292.286 35.5809 291.789 36.1853C291.291 36.7896 290.599 37.2025 289.831 37.3532Z" fill="#606367"/>
<path d="M299.61 27.9096C299.61 27.9096 298.195 27.9096 296.45 27.9096C294.705 27.9096 293.29 27.9096 293.29 27.9096C293.29 25.9152 294.705 24.2985 296.45 24.2985C298.195 24.2985 299.61 25.9152 299.61 27.9096Z" fill="#606367"/>
<path d="M303.863 30.6425C303.863 30.6425 303.863 32.0572 303.863 33.8023C303.863 35.5474 303.863 36.9621 303.863 36.9621C305.857 36.9621 307.474 35.5474 307.474 33.8023C307.474 32.0572 305.857 30.6425 303.863 30.6425Z" fill="#606367"/>
<rect x="289.38" y="27.0355" width="13.7455" height="0.902794" fill="#606367"/>
</g>
<path fill-rule="evenodd" clip-rule="evenodd" d="M173.307 23.3964C172.992 23.0812 172.481 23.0812 172.165 23.3964L169.583 25.9786C169.268 26.2938 169.268 26.8047 169.583 27.1199C169.898 27.435 170.409 27.435 170.724 27.1199L171.929 25.9151V34.2961C171.929 34.7417 172.29 35.103 172.736 35.103C173.182 35.103 173.543 34.7417 173.543 34.2961V25.9151L174.748 27.1199C175.063 27.435 175.574 27.435 175.889 27.1199C176.204 26.8047 176.204 26.2938 175.889 25.9786L173.307 23.3964ZM167.087 31.0682C167.087 30.4443 167.593 29.9385 168.217 29.9385H169.508C169.954 29.9385 170.315 29.5772 170.315 29.1315C170.315 28.6858 169.954 28.3246 169.508 28.3246H168.217C166.702 28.3246 165.473 29.5529 165.473 31.0682V38.8151C165.473 40.3304 166.702 41.5587 168.217 41.5587H177.255C178.77 41.5587 179.999 40.3304 179.999 38.8151V31.0682C179.999 29.5529 178.77 28.3246 177.255 28.3246H175.964C175.518 28.3246 175.157 28.6858 175.157 29.1315C175.157 29.5772 175.518 29.9385 175.964 29.9385H177.255C177.879 29.9385 178.385 30.4443 178.385 31.0682V38.8151C178.385 39.439 177.879 39.9448 177.255 39.9448H168.217C167.593 39.9448 167.087 39.439 167.087 38.8151V31.0682Z" fill="#606367"/>
<path fill-rule="evenodd" clip-rule="evenodd" d="M204.255 24.7398C204.507 23.9666 205.6 23.9666 205.852 24.7398L207.524 29.8867H212.936C213.749 29.8867 214.087 30.9271 213.429 31.4049L209.051 34.5859L210.723 39.7328C210.974 40.506 210.09 41.149 209.432 40.6711L205.054 37.4901L200.675 40.6711C200.018 41.149 199.133 40.506 199.384 39.7328L201.056 34.5859L196.678 31.4049C196.02 30.9271 196.358 29.8867 197.171 29.8867H202.583L204.255 24.7398ZM205.054 27.5061L203.944 30.9207C203.832 31.2665 203.509 31.5006 203.146 31.5006H199.555L202.46 33.611C202.754 33.8247 202.877 34.2035 202.765 34.5493L201.656 37.964L204.56 35.8536C204.854 35.6399 205.253 35.6399 205.547 35.8536L208.452 37.964L207.342 34.5493C207.23 34.2035 207.353 33.8247 207.647 33.611L210.552 31.5006H206.961C206.598 31.5006 206.275 31.2665 206.163 30.9207L205.054 27.5061Z" fill="#606367"/>
</g>
<g filter="url(#filter1_d_619_8421)">
<rect x="54.2" y="59.16" width="216" height="143" rx="8" fill="white"/>
<rect x="54.7" y="59.66" width="215" height="142" rx="7.5" stroke="#E1E9F0" stroke-opacity="0.4"/>
</g>
<g clip-path="url(#clip4_619_8421)">
<path d="M141.299 80.8499C140.129 79.6792 138.224 79.6787 137.053 80.8499C136.486 81.417 136.173 82.1711 136.173 82.9734C136.173 83.7755 136.486 84.5296 137.053 85.0967C137.62 85.664 138.374 85.9762 139.176 85.9762C139.819 85.9762 140.43 85.7721 140.94 85.3995L141.784 86.2439C141.876 86.3352 141.995 86.3809 142.115 86.3809C142.235 86.3809 142.354 86.3352 142.446 86.2439C142.628 86.0612 142.628 85.7856 142.446 85.6029L141.601 84.7376C142.455 83.564 142.357 81.908 141.299 80.8499ZM140.641 84.4311C140.64 84.4324 140.638 84.4328 140.636 84.4341C140.635 84.4355 140.635 84.4374 140.633 84.4387C140.243 84.8268 139.726 85.0407 139.176 85.0407C138.624 85.0407 138.105 84.8258 137.714 84.4353C137.324 84.0447 137.109 83.5256 137.109 82.9734C137.109 82.4209 137.324 81.9018 137.714 81.5113C138.105 81.1207 138.624 80.9058 139.176 80.9058C139.728 80.9058 140.247 81.1207 140.637 81.5113C141.028 81.9018 141.243 82.4209 141.243 82.9734C141.243 83.5238 141.029 84.041 140.641 84.4311Z" fill="url(#paint4_radial_619_8421)"/>
<path d="M140.874 76.6205C140.874 75.1653 139.987 73.9898 138.889 73.9898H131.749C130.655 73.9898 129.764 75.1653 129.764 76.6205V77.408H140.874V76.6205ZM131.947 76.2268H131.361C131.142 76.2268 130.961 75.9871 130.961 75.696C130.961 75.4107 131.142 75.171 131.361 75.171H131.947C132.166 75.171 132.343 75.4107 132.343 75.696C132.343 75.9871 132.166 76.2268 131.947 76.2268ZM133.724 76.2268H133.139C132.919 76.2268 132.739 75.9871 132.739 75.696C132.739 75.4107 132.919 75.171 133.139 75.171H133.724C133.944 75.171 134.12 75.4107 134.12 75.696C134.12 75.9871 133.944 76.2268 133.724 76.2268Z" fill="url(#paint5_radial_619_8421)"/>
<path d="M131.749 85.0991H136.031C134.951 83.6136 135.092 81.5445 136.387 80.1854C137.698 78.9656 139.475 78.6695 140.874 79.6131V76.9808H129.764V83.0176C129.764 84.169 130.655 85.0991 131.749 85.0991Z" fill="url(#paint6_radial_619_8421)"/>
</g>
<path d="M147.772 83.2737C147.356 83.2737 146.951 83.1947 146.56 83.0368C146.175 82.879 145.834 82.6547 145.537 82.3642L146.181 81.6158C146.402 81.8242 146.655 81.9947 146.939 82.1274C147.223 82.2537 147.507 82.3168 147.791 82.3168C148.145 82.3168 148.414 82.2442 148.597 82.099C148.78 81.9537 148.871 81.7611 148.871 81.5211C148.871 81.2621 148.78 81.0758 148.597 80.9621C148.42 80.8484 148.192 80.7316 147.915 80.6116L147.062 80.2421C146.86 80.1537 146.661 80.04 146.465 79.9011C146.276 79.7621 146.118 79.5853 145.991 79.3705C145.871 79.1558 145.811 78.8968 145.811 78.5937C145.811 78.2653 145.9 77.9716 146.077 77.7126C146.26 77.4474 146.506 77.239 146.816 77.0874C147.131 76.9295 147.491 76.8505 147.896 76.8505C148.256 76.8505 148.603 76.9232 148.938 77.0684C149.272 77.2074 149.56 77.3968 149.8 77.6368L149.241 78.3379C149.045 78.1737 148.837 78.0442 148.616 77.9495C148.401 77.8547 148.161 77.8074 147.896 77.8074C147.605 77.8074 147.368 77.8737 147.185 78.0063C147.008 78.1326 146.92 78.3095 146.92 78.5368C146.92 78.6947 146.964 78.8274 147.052 78.9347C147.147 79.0358 147.27 79.1242 147.422 79.2C147.574 79.2695 147.735 79.339 147.905 79.4084L148.748 79.759C149.115 79.9168 149.415 80.1253 149.648 80.3842C149.882 80.6368 149.999 80.9874 149.999 81.4358C149.999 81.7705 149.91 82.0768 149.734 82.3547C149.557 82.6326 149.301 82.8568 148.966 83.0274C148.638 83.1916 148.24 83.2737 147.772 83.2737ZM151.031 83.16V78.5084H152.12V83.16H151.031ZM151.58 77.6937C151.384 77.6937 151.226 77.6368 151.106 77.5232C150.986 77.4095 150.926 77.2579 150.926 77.0684C150.926 76.8853 150.986 76.7368 151.106 76.6232C151.226 76.5095 151.384 76.4526 151.58 76.4526C151.776 76.4526 151.934 76.5095 152.054 76.6232C152.174 76.7368 152.234 76.8853 152.234 77.0684C152.234 77.2579 152.174 77.4095 152.054 77.5232C151.934 77.6368 151.776 77.6937 151.58 77.6937ZM155.149 83.2737C154.612 83.2737 154.23 83.119 154.003 82.8095C153.782 82.4937 153.671 82.0863 153.671 81.5874V79.3705H153.008V78.5558L153.728 78.5084L153.861 77.239H154.77V78.5084H155.954V79.3705H154.77V81.5874C154.77 82.1305 154.988 82.4021 155.424 82.4021C155.506 82.4021 155.591 82.3926 155.68 82.3737C155.768 82.3484 155.844 82.3232 155.907 82.2979L156.096 83.1032C155.97 83.1474 155.825 83.1853 155.661 83.2168C155.503 83.2547 155.332 83.2737 155.149 83.2737ZM158.775 83.2737C158.345 83.2737 157.957 83.179 157.609 82.9895C157.262 82.7937 156.987 82.5158 156.785 82.1558C156.583 81.7895 156.482 81.3505 156.482 80.839C156.482 80.3337 156.583 79.8979 156.785 79.5316C156.994 79.1653 157.262 78.8842 157.59 78.6884C157.919 78.4926 158.263 78.3947 158.623 78.3947C159.046 78.3947 159.4 78.4895 159.684 78.679C159.968 78.8621 160.183 79.1211 160.328 79.4558C160.474 79.7842 160.546 80.1663 160.546 80.6021C160.546 80.8295 160.53 81.0063 160.499 81.1326H157.543C157.594 81.5432 157.742 81.8621 157.988 82.0895C158.235 82.3168 158.544 82.4305 158.917 82.4305C159.119 82.4305 159.305 82.4021 159.476 82.3453C159.653 82.2821 159.826 82.1968 159.997 82.0895L160.366 82.7716C160.145 82.9168 159.899 83.0368 159.627 83.1316C159.356 83.2263 159.072 83.2737 158.775 83.2737ZM157.534 80.3937H159.599C159.599 80.0337 159.52 79.7526 159.362 79.5505C159.204 79.3421 158.967 79.2379 158.652 79.2379C158.38 79.2379 158.137 79.339 157.922 79.5411C157.714 79.7368 157.584 80.0211 157.534 80.3937ZM163.578 83.16V76.9642H164.706L166.638 80.4505L167.273 81.7674H167.311C167.286 81.4516 167.254 81.1074 167.216 80.7347C167.184 80.3621 167.169 80.0021 167.169 79.6547V76.9642H168.22V83.16H167.093L165.16 79.6737L164.526 78.3568H164.488C164.513 78.6853 164.541 79.0295 164.573 79.3895C164.611 79.7495 164.63 80.1032 164.63 80.4505V83.16H163.578ZM170.828 83.2737C170.424 83.2737 170.092 83.1474 169.833 82.8947C169.581 82.6421 169.454 82.3137 169.454 81.9095C169.454 81.4105 169.672 81.0253 170.108 80.7537C170.544 80.4758 171.238 80.2863 172.192 80.1853C172.186 79.939 172.119 79.7274 171.993 79.5505C171.873 79.3674 171.655 79.2758 171.339 79.2758C171.112 79.2758 170.888 79.32 170.667 79.4084C170.452 79.4968 170.241 79.6042 170.032 79.7305L169.634 79.0011C169.893 78.8368 170.184 78.6947 170.506 78.5747C170.834 78.4547 171.182 78.3947 171.548 78.3947C172.129 78.3947 172.562 78.5684 172.846 78.9158C173.136 79.2568 173.282 79.7526 173.282 80.4032V83.16H172.382L172.306 82.6484H172.268C172.059 82.8253 171.835 82.9737 171.595 83.0937C171.362 83.2137 171.106 83.2737 170.828 83.2737ZM171.178 82.4211C171.368 82.4211 171.538 82.3768 171.69 82.2884C171.848 82.1937 172.015 82.0674 172.192 81.9095V80.8674C171.561 80.9495 171.122 81.0726 170.875 81.2368C170.629 81.3947 170.506 81.5905 170.506 81.8242C170.506 82.0326 170.569 82.1842 170.695 82.279C170.822 82.3737 170.983 82.4211 171.178 82.4211ZM175.627 83.16L174.007 78.5084H175.116L175.855 80.9242C175.918 81.1516 175.981 81.3821 176.044 81.6158C176.114 81.8495 176.18 82.0863 176.243 82.3263H176.281C176.351 82.0863 176.417 81.8495 176.48 81.6158C176.55 81.3821 176.616 81.1516 176.679 80.9242L177.418 78.5084H178.47L176.887 83.16H175.627ZM179.276 83.16V78.5084H180.365V83.16H179.276ZM179.825 77.6937C179.63 77.6937 179.472 77.6368 179.352 77.5232C179.232 77.4095 179.172 77.2579 179.172 77.0684C179.172 76.8853 179.232 76.7368 179.352 76.6232C179.472 76.5095 179.63 76.4526 179.825 76.4526C180.021 76.4526 180.179 76.5095 180.299 76.6232C180.419 76.7368 180.479 76.8853 180.479 77.0684C180.479 77.2579 180.419 77.4095 180.299 77.5232C180.179 77.6368 180.021 77.6937 179.825 77.6937ZM183.375 85.2158C183.009 85.2158 182.678 85.1716 182.381 85.0832C182.09 84.9947 181.86 84.859 181.689 84.6758C181.525 84.499 181.443 84.2747 181.443 84.0032C181.443 83.6179 181.664 83.2863 182.106 83.0084V82.9705C181.986 82.8947 181.885 82.7937 181.803 82.6674C181.727 82.5411 181.689 82.3832 181.689 82.1937C181.689 82.0105 181.74 81.8463 181.841 81.7011C181.948 81.5495 182.068 81.4263 182.201 81.3316V81.2937C182.043 81.1737 181.901 81.0063 181.774 80.7916C181.654 80.5768 181.594 80.3337 181.594 80.0621C181.594 79.7021 181.68 79.399 181.85 79.1526C182.021 78.9063 182.245 78.72 182.523 78.5937C182.807 78.4611 183.11 78.3947 183.432 78.3947C183.559 78.3947 183.679 78.4074 183.792 78.4326C183.912 78.4516 184.02 78.4768 184.114 78.5084H185.782V79.3137H184.929C185.005 79.4021 185.068 79.5158 185.119 79.6547C185.169 79.7874 185.194 79.9358 185.194 80.1C185.194 80.4411 185.115 80.7316 184.958 80.9716C184.8 81.2053 184.588 81.3821 184.323 81.5021C184.058 81.6221 183.761 81.6821 183.432 81.6821C183.331 81.6821 183.227 81.6726 183.12 81.6537C183.012 81.6347 182.905 81.6032 182.798 81.559C182.728 81.6221 182.671 81.6853 182.627 81.7484C182.589 81.8116 182.57 81.8968 182.57 82.0042C182.57 82.1368 182.624 82.2411 182.731 82.3168C182.845 82.3926 183.044 82.4305 183.328 82.4305H184.152C184.714 82.4305 185.138 82.5221 185.422 82.7053C185.712 82.8821 185.858 83.1726 185.858 83.5768C185.858 83.88 185.756 84.1547 185.554 84.4011C185.352 84.6537 185.065 84.8526 184.692 84.9979C184.32 85.1432 183.881 85.2158 183.375 85.2158ZM183.432 81C183.653 81 183.843 80.9179 184.001 80.7537C184.159 80.5895 184.238 80.359 184.238 80.0621C184.238 79.7716 184.159 79.5474 184.001 79.3895C183.849 79.2253 183.66 79.1432 183.432 79.1432C183.205 79.1432 183.012 79.2221 182.854 79.38C182.696 79.5379 182.618 79.7653 182.618 80.0621C182.618 80.359 182.696 80.5895 182.854 80.7537C183.012 80.9179 183.205 81 183.432 81ZM183.546 84.5053C183.919 84.5053 184.222 84.4295 184.455 84.2779C184.689 84.1263 184.806 83.9526 184.806 83.7568C184.806 83.5737 184.733 83.4505 184.588 83.3874C184.449 83.3242 184.247 83.2926 183.982 83.2926H183.347C183.094 83.2926 182.883 83.2705 182.712 83.2263C182.472 83.4095 182.352 83.6147 182.352 83.8421C182.352 84.0505 182.46 84.2116 182.674 84.3253C182.889 84.4453 183.18 84.5053 183.546 84.5053ZM187.638 83.2737C187.234 83.2737 186.902 83.1474 186.643 82.8947C186.391 82.6421 186.264 82.3137 186.264 81.9095C186.264 81.4105 186.482 81.0253 186.918 80.7537C187.354 80.4758 188.049 80.2863 189.002 80.1853C188.996 79.939 188.93 79.7274 188.803 79.5505C188.683 79.3674 188.465 79.2758 188.15 79.2758C187.922 79.2758 187.698 79.32 187.477 79.4084C187.262 79.4968 187.051 79.6042 186.842 79.7305L186.444 79.0011C186.703 78.8368 186.994 78.6947 187.316 78.5747C187.644 78.4547 187.992 78.3947 188.358 78.3947C188.939 78.3947 189.372 78.5684 189.656 78.9158C189.947 79.2568 190.092 79.7526 190.092 80.4032V83.16H189.192L189.116 82.6484H189.078C188.87 82.8253 188.645 82.9737 188.405 83.0937C188.172 83.2137 187.916 83.2737 187.638 83.2737ZM187.989 82.4211C188.178 82.4211 188.349 82.3768 188.5 82.2884C188.658 82.1937 188.825 82.0674 189.002 81.9095V80.8674C188.371 80.9495 187.932 81.0726 187.685 81.2368C187.439 81.3947 187.316 81.5905 187.316 81.8242C187.316 82.0326 187.379 82.1842 187.505 82.279C187.632 82.3737 187.793 82.4211 187.989 82.4211ZM192.887 83.2737C192.35 83.2737 191.968 83.119 191.74 82.8095C191.519 82.4937 191.409 82.0863 191.409 81.5874V79.3705H190.745V78.5558L191.465 78.5084L191.598 77.239H192.508V78.5084H193.692V79.3705H192.508V81.5874C192.508 82.1305 192.725 82.4021 193.161 82.4021C193.243 82.4021 193.329 82.3926 193.417 82.3737C193.505 82.3484 193.581 82.3232 193.644 82.2979L193.834 83.1032C193.708 83.1474 193.562 83.1853 193.398 83.2168C193.24 83.2547 193.07 83.2737 192.887 83.2737ZM196.427 83.2737C196.042 83.2737 195.682 83.179 195.347 82.9895C195.012 82.7937 194.741 82.5158 194.532 82.1558C194.324 81.7895 194.22 81.3505 194.22 80.839C194.22 80.3211 194.324 79.8821 194.532 79.5221C194.741 79.1558 195.012 78.8779 195.347 78.6884C195.682 78.4926 196.042 78.3947 196.427 78.3947C196.818 78.3947 197.182 78.4926 197.516 78.6884C197.851 78.8779 198.123 79.1558 198.331 79.5221C198.54 79.8821 198.644 80.3211 198.644 80.839C198.644 81.3505 198.54 81.7895 198.331 82.1558C198.123 82.5158 197.851 82.7937 197.516 82.9895C197.182 83.179 196.818 83.2737 196.427 83.2737ZM196.427 82.3832C196.768 82.3832 197.036 82.2411 197.232 81.9568C197.428 81.6726 197.526 81.3 197.526 80.839C197.526 80.3716 197.428 79.9958 197.232 79.7116C197.036 79.4274 196.768 79.2853 196.427 79.2853C196.086 79.2853 195.817 79.4274 195.622 79.7116C195.432 79.9958 195.337 80.3716 195.337 80.839C195.337 81.3 195.432 81.6726 195.622 81.9568C195.817 82.2411 196.086 82.3832 196.427 82.3832ZM199.722 83.16V78.5084H200.622L200.698 79.3326H200.736C200.9 79.0295 201.099 78.799 201.333 78.6411C201.566 78.4768 201.806 78.3947 202.053 78.3947C202.274 78.3947 202.451 78.4263 202.583 78.4895L202.394 79.4368C202.312 79.4116 202.236 79.3926 202.166 79.38C202.097 79.3674 202.012 79.3611 201.911 79.3611C201.727 79.3611 201.535 79.4337 201.333 79.579C201.131 79.7179 200.957 79.9642 200.812 80.3179V83.16H199.722Z" fill="#1C3769"/>
<g filter="url(#filter2_d_619_8421)">
<rect x="65.2" y="96.16" width="194" height="34" rx="6.03261" fill="url(#paint7_radial_619_8421)" shape-rendering="crispEdges"/>
<path d="M81.0423 114.68V115.921H76.9331V114.68H81.0423ZM77.4528 108.201V115.921H75.8621V108.201H77.4528ZM80.5068 111.345V112.554H76.9331V111.345H80.5068ZM81.037 108.201V109.447H76.9331V108.201H81.037ZM83.3699 111.409V115.921H81.8429V110.184H83.2745L83.3699 111.409ZM83.1472 112.851H82.7336C82.7336 112.427 82.7884 112.045 82.898 111.706C83.0076 111.363 83.1614 111.071 83.3593 110.831C83.5572 110.587 83.7923 110.401 84.0645 110.274C84.3402 110.143 84.6477 110.078 84.987 110.078C85.2557 110.078 85.5013 110.117 85.724 110.195C85.9467 110.272 86.1376 110.396 86.2967 110.566C86.4593 110.735 86.583 110.96 86.6678 111.239C86.7562 111.518 86.8004 111.859 86.8004 112.262V115.921H85.2628V112.257C85.2628 112.003 85.2274 111.805 85.1567 111.663C85.086 111.522 84.9817 111.423 84.8439 111.366C84.7096 111.306 84.5434 111.276 84.3455 111.276C84.1405 111.276 83.962 111.317 83.81 111.398C83.6615 111.479 83.5378 111.593 83.4388 111.738C83.3434 111.879 83.2709 112.045 83.2214 112.236C83.172 112.427 83.1472 112.632 83.1472 112.851ZM91.0579 114.627V112.072C91.0579 111.888 91.0279 111.73 90.9678 111.6C90.9077 111.465 90.8141 111.361 90.6868 111.287C90.5631 111.213 90.4023 111.175 90.2043 111.175C90.0346 111.175 89.888 111.206 89.7642 111.266C89.6405 111.322 89.5451 111.405 89.4779 111.515C89.4108 111.621 89.3772 111.746 89.3772 111.891H87.8502C87.8502 111.647 87.9067 111.416 88.0198 111.197C88.133 110.978 88.2973 110.785 88.5129 110.619C88.7286 110.449 88.9848 110.317 89.2817 110.221C89.5822 110.126 89.918 110.078 90.2891 110.078C90.7345 110.078 91.1304 110.152 91.4768 110.301C91.8232 110.449 92.0954 110.672 92.2933 110.969C92.4948 111.266 92.5956 111.637 92.5956 112.082V114.537C92.5956 114.852 92.615 115.11 92.6539 115.311C92.6928 115.509 92.7493 115.682 92.8235 115.831V115.921H91.2806C91.2064 115.765 91.1499 115.571 91.111 115.338C91.0756 115.101 91.0579 114.864 91.0579 114.627ZM91.2594 112.427L91.27 113.291H90.4164C90.2149 113.291 90.0399 113.314 89.8915 113.36C89.743 113.406 89.6211 113.471 89.5256 113.556C89.4302 113.637 89.3595 113.733 89.3136 113.842C89.2711 113.952 89.2499 114.072 89.2499 114.203C89.2499 114.334 89.28 114.452 89.3401 114.558C89.4002 114.661 89.4868 114.742 89.5999 114.802C89.713 114.859 89.8455 114.887 89.9975 114.887C90.2273 114.887 90.427 114.841 90.5967 114.749C90.7663 114.657 90.8971 114.544 90.989 114.41C91.0845 114.275 91.1339 114.148 91.1375 114.028L91.5404 114.675C91.4839 114.82 91.4061 114.97 91.3071 115.126C91.2117 115.281 91.0898 115.428 90.9413 115.566C90.7928 115.7 90.6143 115.811 90.4058 115.9C90.1972 115.984 89.9498 116.027 89.6635 116.027C89.2994 116.027 88.9689 115.954 88.672 115.81C88.3786 115.661 88.1453 115.458 87.9721 115.2C87.8025 114.938 87.7176 114.641 87.7176 114.309C87.7176 114.009 87.7742 113.742 87.8873 113.508C88.0004 113.275 88.1665 113.079 88.3857 112.92C88.6084 112.757 88.8859 112.635 89.2181 112.554C89.5504 112.469 89.9357 112.427 90.374 112.427H91.2594ZM93.7726 107.777H95.2996V114.606L95.1459 115.921H93.7726V107.777ZM98.9316 112.994V113.105C98.9316 113.533 98.8856 113.926 98.7937 114.283C98.7053 114.64 98.5675 114.949 98.3801 115.21C98.1928 115.468 97.9595 115.67 97.6803 115.815C97.4046 115.956 97.0794 116.027 96.7047 116.027C96.3547 116.027 96.0508 115.956 95.7927 115.815C95.5382 115.673 95.3244 115.474 95.1512 115.216C94.978 114.958 94.8383 114.655 94.7323 114.309C94.6263 113.963 94.5467 113.584 94.4937 113.174V112.93C94.5467 112.52 94.6263 112.142 94.7323 111.796C94.8383 111.449 94.978 111.147 95.1512 110.889C95.3244 110.631 95.5382 110.431 95.7927 110.29C96.0472 110.149 96.3477 110.078 96.6941 110.078C97.0723 110.078 97.401 110.15 97.6803 110.295C97.9631 110.437 98.1963 110.638 98.3801 110.9C98.5675 111.158 98.7053 111.465 98.7937 111.822C98.8856 112.176 98.9316 112.566 98.9316 112.994ZM97.4046 113.105V112.994C97.4046 112.761 97.3869 112.542 97.3515 112.337C97.3197 112.128 97.2632 111.946 97.1819 111.791C97.1006 111.631 96.9892 111.506 96.8478 111.414C96.71 111.322 96.5315 111.276 96.3123 111.276C96.1038 111.276 95.927 111.312 95.7821 111.382C95.6372 111.453 95.517 111.552 95.4216 111.679C95.3297 111.806 95.2607 111.958 95.2148 112.135C95.1688 112.308 95.1406 112.499 95.13 112.708V113.402C95.1406 113.682 95.1865 113.929 95.2678 114.145C95.3526 114.357 95.4799 114.525 95.6496 114.648C95.8228 114.769 96.0472 114.829 96.3229 114.829C96.5386 114.829 96.7171 114.786 96.8584 114.701C96.9998 114.617 97.1094 114.496 97.1872 114.341C97.2685 114.185 97.325 114.003 97.3568 113.795C97.3887 113.583 97.4046 113.353 97.4046 113.105ZM101.492 107.777V115.921H99.9602V107.777H101.492ZM105.395 116.027C104.949 116.027 104.55 115.956 104.197 115.815C103.843 115.67 103.543 115.47 103.295 115.216C103.051 114.961 102.864 114.666 102.733 114.33C102.602 113.991 102.537 113.63 102.537 113.249V113.037C102.537 112.602 102.599 112.204 102.723 111.844C102.846 111.483 103.023 111.17 103.253 110.905C103.486 110.64 103.769 110.437 104.101 110.295C104.433 110.15 104.808 110.078 105.225 110.078C105.632 110.078 105.992 110.145 106.307 110.279C106.621 110.414 106.885 110.605 107.097 110.852C107.312 111.099 107.475 111.396 107.585 111.743C107.694 112.086 107.749 112.467 107.749 112.888V113.524H103.189V112.506H106.248V112.39C106.248 112.178 106.21 111.988 106.132 111.822C106.058 111.653 105.944 111.518 105.792 111.419C105.64 111.32 105.446 111.271 105.209 111.271C105.008 111.271 104.835 111.315 104.69 111.403C104.545 111.492 104.426 111.616 104.334 111.775C104.246 111.934 104.179 112.121 104.133 112.337C104.091 112.549 104.069 112.782 104.069 113.037V113.249C104.069 113.478 104.101 113.69 104.165 113.885C104.232 114.079 104.326 114.247 104.446 114.389C104.569 114.53 104.718 114.64 104.891 114.717C105.068 114.795 105.268 114.834 105.49 114.834C105.766 114.834 106.022 114.781 106.259 114.675C106.499 114.565 106.706 114.401 106.879 114.182L107.622 114.988C107.502 115.161 107.337 115.327 107.129 115.486C106.924 115.645 106.676 115.776 106.386 115.878C106.096 115.977 105.766 116.027 105.395 116.027ZM115.437 113.901C115.437 113.763 115.416 113.639 115.373 113.53C115.335 113.417 115.26 113.314 115.151 113.222C115.041 113.127 114.887 113.033 114.689 112.941C114.491 112.849 114.235 112.754 113.921 112.655C113.571 112.542 113.238 112.414 112.924 112.273C112.613 112.132 112.337 111.967 112.097 111.78C111.86 111.589 111.673 111.368 111.535 111.117C111.4 110.866 111.333 110.575 111.333 110.242C111.333 109.921 111.404 109.629 111.545 109.367C111.687 109.102 111.885 108.876 112.139 108.689C112.394 108.498 112.694 108.351 113.04 108.249C113.39 108.146 113.774 108.095 114.191 108.095C114.76 108.095 115.257 108.197 115.681 108.402C116.105 108.608 116.434 108.889 116.667 109.246C116.904 109.603 117.022 110.011 117.022 110.47H115.442C115.442 110.244 115.395 110.046 115.299 109.876C115.207 109.703 115.066 109.567 114.875 109.468C114.688 109.369 114.451 109.32 114.165 109.32C113.889 109.32 113.659 109.362 113.475 109.447C113.291 109.528 113.154 109.64 113.062 109.781C112.97 109.919 112.924 110.074 112.924 110.248C112.924 110.378 112.956 110.497 113.019 110.603C113.086 110.709 113.185 110.808 113.316 110.9C113.447 110.992 113.608 111.078 113.799 111.16C113.99 111.241 114.21 111.32 114.461 111.398C114.882 111.525 115.251 111.669 115.57 111.828C115.891 111.987 116.16 112.165 116.375 112.363C116.591 112.561 116.754 112.786 116.863 113.037C116.973 113.287 117.028 113.572 117.028 113.89C117.028 114.226 116.962 114.526 116.831 114.792C116.701 115.057 116.512 115.281 116.264 115.465C116.017 115.649 115.722 115.788 115.379 115.884C115.036 115.979 114.652 116.027 114.228 116.027C113.846 116.027 113.47 115.977 113.099 115.878C112.728 115.776 112.39 115.622 112.086 115.417C111.786 115.212 111.545 114.951 111.365 114.632C111.185 114.314 111.095 113.938 111.095 113.503H112.691C112.691 113.743 112.728 113.947 112.802 114.113C112.876 114.279 112.98 114.413 113.115 114.516C113.253 114.618 113.415 114.693 113.602 114.738C113.793 114.784 114.002 114.807 114.228 114.807C114.504 114.807 114.73 114.769 114.907 114.691C115.087 114.613 115.22 114.505 115.304 114.367C115.393 114.229 115.437 114.074 115.437 113.901ZM119.626 110.184V115.921H118.093V110.184H119.626ZM117.998 108.689C117.998 108.466 118.076 108.282 118.231 108.137C118.387 107.992 118.595 107.92 118.857 107.92C119.115 107.92 119.322 107.992 119.477 108.137C119.636 108.282 119.716 108.466 119.716 108.689C119.716 108.911 119.636 109.095 119.477 109.24C119.322 109.385 119.115 109.458 118.857 109.458C118.595 109.458 118.387 109.385 118.231 109.24C118.076 109.095 117.998 108.911 117.998 108.689ZM123.698 110.184V111.266H120.357V110.184H123.698ZM121.184 108.768H122.711V114.192C122.711 114.359 122.733 114.486 122.775 114.574C122.821 114.663 122.888 114.724 122.977 114.76C123.065 114.792 123.176 114.807 123.311 114.807C123.406 114.807 123.491 114.804 123.565 114.797C123.643 114.786 123.708 114.776 123.761 114.765L123.767 115.889C123.636 115.931 123.494 115.965 123.342 115.99C123.19 116.015 123.023 116.027 122.839 116.027C122.503 116.027 122.21 115.972 121.959 115.863C121.711 115.749 121.52 115.569 121.386 115.322C121.252 115.074 121.184 114.749 121.184 114.346V108.768ZM127.208 116.027C126.762 116.027 126.363 115.956 126.009 115.815C125.656 115.67 125.355 115.47 125.108 115.216C124.864 114.961 124.677 114.666 124.546 114.33C124.415 113.991 124.35 113.63 124.35 113.249V113.037C124.35 112.602 124.412 112.204 124.535 111.844C124.659 111.483 124.836 111.17 125.066 110.905C125.299 110.64 125.582 110.437 125.914 110.295C126.246 110.15 126.621 110.078 127.038 110.078C127.445 110.078 127.805 110.145 128.12 110.279C128.434 110.414 128.698 110.605 128.91 110.852C129.125 111.099 129.288 111.396 129.397 111.743C129.507 112.086 129.562 112.467 129.562 112.888V113.524H125.002V112.506H128.061V112.39C128.061 112.178 128.022 111.988 127.945 111.822C127.87 111.653 127.757 111.518 127.605 111.419C127.453 111.32 127.259 111.271 127.022 111.271C126.821 111.271 126.647 111.315 126.502 111.403C126.358 111.492 126.239 111.616 126.147 111.775C126.059 111.934 125.992 112.121 125.946 112.337C125.903 112.549 125.882 112.782 125.882 113.037V113.249C125.882 113.478 125.914 113.69 125.978 113.885C126.045 114.079 126.138 114.247 126.259 114.389C126.382 114.53 126.531 114.64 126.704 114.717C126.881 114.795 127.08 114.834 127.303 114.834C127.579 114.834 127.835 114.781 128.072 114.675C128.312 114.565 128.519 114.401 128.692 114.182L129.435 114.988C129.314 115.161 129.15 115.327 128.941 115.486C128.736 115.645 128.489 115.776 128.199 115.878C127.909 115.977 127.579 116.027 127.208 116.027ZM139.514 108.201V115.921H137.923L134.821 110.746V115.921H133.231V108.201H134.821L137.929 113.381V108.201H139.514ZM143.899 114.627V112.072C143.899 111.888 143.869 111.73 143.809 111.6C143.748 111.465 143.655 111.361 143.528 111.287C143.404 111.213 143.243 111.175 143.045 111.175C142.875 111.175 142.729 111.206 142.605 111.266C142.481 111.322 142.386 111.405 142.319 111.515C142.252 111.621 142.218 111.746 142.218 111.891H140.691C140.691 111.647 140.747 111.416 140.861 111.197C140.974 110.978 141.138 110.785 141.354 110.619C141.569 110.449 141.826 110.317 142.122 110.221C142.423 110.126 142.759 110.078 143.13 110.078C143.575 110.078 143.971 110.152 144.318 110.301C144.664 110.449 144.936 110.672 145.134 110.969C145.336 111.266 145.436 111.637 145.436 112.082V114.537C145.436 114.852 145.456 115.11 145.495 115.311C145.534 115.509 145.59 115.682 145.664 115.831V115.921H144.121C144.047 115.765 143.991 115.571 143.952 115.338C143.916 115.101 143.899 114.864 143.899 114.627ZM144.1 112.427L144.111 113.291H143.257C143.056 113.291 142.881 113.314 142.732 113.36C142.584 113.406 142.462 113.471 142.366 113.556C142.271 113.637 142.2 113.733 142.154 113.842C142.112 113.952 142.091 114.072 142.091 114.203C142.091 114.334 142.121 114.452 142.181 114.558C142.241 114.661 142.328 114.742 142.441 114.802C142.554 114.859 142.686 114.887 142.838 114.887C143.068 114.887 143.268 114.841 143.437 114.749C143.607 114.657 143.738 114.544 143.83 114.41C143.925 114.275 143.975 114.148 143.978 114.028L144.381 114.675C144.325 114.82 144.247 114.97 144.148 115.126C144.052 115.281 143.931 115.428 143.782 115.566C143.634 115.7 143.455 115.811 143.247 115.9C143.038 115.984 142.791 116.027 142.504 116.027C142.14 116.027 141.81 115.954 141.513 115.81C141.219 115.661 140.986 115.458 140.813 115.2C140.643 114.938 140.558 114.641 140.558 114.309C140.558 114.009 140.615 113.742 140.728 113.508C140.841 113.275 141.007 113.079 141.226 112.92C141.449 112.757 141.727 112.635 142.059 112.554C142.391 112.469 142.776 112.427 143.215 112.427H144.1ZM148.48 114.807L149.752 110.184H151.348L149.413 115.921H148.448L148.48 114.807ZM147.605 110.184L148.883 114.813L148.909 115.921H147.939L146.004 110.184H147.605ZM153.644 110.184V115.921H152.112V110.184H153.644ZM152.016 108.689C152.016 108.466 152.094 108.282 152.249 108.137C152.405 107.992 152.614 107.92 152.875 107.92C153.133 107.92 153.34 107.992 153.495 108.137C153.655 108.282 153.734 108.466 153.734 108.689C153.734 108.911 153.655 109.095 153.495 109.24C153.34 109.385 153.133 109.458 152.875 109.458C152.614 109.458 152.405 109.385 152.249 109.24C152.094 109.095 152.016 108.911 152.016 108.689ZM158.538 110.184H159.922V115.73C159.922 116.253 159.805 116.697 159.572 117.061C159.342 117.428 159.02 117.706 158.607 117.893C158.193 118.084 157.712 118.18 157.165 118.18C156.924 118.18 156.67 118.148 156.401 118.084C156.136 118.021 155.881 117.922 155.638 117.787C155.397 117.653 155.196 117.483 155.033 117.278L155.706 116.377C155.883 116.582 156.088 116.741 156.322 116.854C156.555 116.971 156.813 117.029 157.096 117.029C157.371 117.029 157.605 116.978 157.795 116.875C157.986 116.776 158.133 116.63 158.236 116.435C158.338 116.244 158.389 116.013 158.389 115.741V111.51L158.538 110.184ZM154.678 113.121V113.01C154.678 112.572 154.731 112.174 154.837 111.817C154.947 111.456 155.1 111.147 155.298 110.889C155.5 110.631 155.744 110.431 156.03 110.29C156.316 110.149 156.64 110.078 157 110.078C157.382 110.078 157.702 110.149 157.96 110.29C158.218 110.431 158.43 110.633 158.596 110.894C158.762 111.153 158.891 111.458 158.983 111.812C159.079 112.162 159.153 112.545 159.206 112.962V113.206C159.153 113.606 159.073 113.977 158.967 114.32C158.861 114.663 158.722 114.963 158.548 115.221C158.375 115.475 158.16 115.673 157.902 115.815C157.647 115.956 157.343 116.027 156.99 116.027C156.636 116.027 156.316 115.954 156.03 115.81C155.747 115.665 155.505 115.461 155.304 115.2C155.102 114.938 154.947 114.631 154.837 114.277C154.731 113.924 154.678 113.538 154.678 113.121ZM156.205 113.01V113.121C156.205 113.358 156.228 113.579 156.274 113.784C156.32 113.989 156.39 114.171 156.486 114.33C156.585 114.486 156.707 114.608 156.852 114.696C157 114.781 157.175 114.823 157.377 114.823C157.656 114.823 157.884 114.765 158.061 114.648C158.237 114.528 158.37 114.364 158.458 114.155C158.547 113.947 158.598 113.706 158.612 113.434V112.74C158.605 112.517 158.575 112.317 158.522 112.14C158.469 111.96 158.395 111.806 158.299 111.679C158.204 111.552 158.08 111.453 157.928 111.382C157.776 111.312 157.596 111.276 157.387 111.276C157.186 111.276 157.011 111.322 156.862 111.414C156.717 111.502 156.595 111.624 156.496 111.78C156.401 111.935 156.329 112.119 156.279 112.331C156.23 112.54 156.205 112.766 156.205 113.01ZM164.206 114.627V112.072C164.206 111.888 164.176 111.73 164.116 111.6C164.056 111.465 163.962 111.361 163.835 111.287C163.711 111.213 163.55 111.175 163.352 111.175C163.182 111.175 163.036 111.206 162.912 111.266C162.788 111.322 162.693 111.405 162.626 111.515C162.559 111.621 162.525 111.746 162.525 111.891H160.998C160.998 111.647 161.055 111.416 161.168 111.197C161.281 110.978 161.445 110.785 161.661 110.619C161.876 110.449 162.133 110.317 162.43 110.221C162.73 110.126 163.066 110.078 163.437 110.078C163.882 110.078 164.278 110.152 164.625 110.301C164.971 110.449 165.243 110.672 165.441 110.969C165.643 111.266 165.743 111.637 165.743 112.082V114.537C165.743 114.852 165.763 115.11 165.802 115.311C165.841 115.509 165.897 115.682 165.971 115.831V115.921H164.428C164.354 115.765 164.298 115.571 164.259 115.338C164.223 115.101 164.206 114.864 164.206 114.627ZM164.407 112.427L164.418 113.291H163.564C163.363 113.291 163.188 113.314 163.039 113.36C162.891 113.406 162.769 113.471 162.673 113.556C162.578 113.637 162.507 113.733 162.461 113.842C162.419 113.952 162.398 114.072 162.398 114.203C162.398 114.334 162.428 114.452 162.488 114.558C162.548 114.661 162.635 114.742 162.748 114.802C162.861 114.859 162.993 114.887 163.145 114.887C163.375 114.887 163.575 114.841 163.744 114.749C163.914 114.657 164.045 114.544 164.137 114.41C164.232 114.275 164.282 114.148 164.285 114.028L164.688 114.675C164.632 114.82 164.554 114.97 164.455 115.126C164.359 115.281 164.238 115.428 164.089 115.566C163.941 115.7 163.762 115.811 163.554 115.9C163.345 115.984 163.098 116.027 162.811 116.027C162.447 116.027 162.117 115.954 161.82 115.81C161.526 115.661 161.293 115.458 161.12 115.2C160.95 114.938 160.865 114.641 160.865 114.309C160.865 114.009 160.922 113.742 161.035 113.508C161.148 113.275 161.314 113.079 161.533 112.92C161.756 112.757 162.034 112.635 162.366 112.554C162.698 112.469 163.083 112.427 163.522 112.427H164.407ZM169.731 110.184V111.266H166.39V110.184H169.731ZM167.217 108.768H168.744V114.192C168.744 114.359 168.766 114.486 168.808 114.574C168.854 114.663 168.921 114.724 169.009 114.76C169.098 114.792 169.209 114.807 169.343 114.807C169.439 114.807 169.524 114.804 169.598 114.797C169.676 114.786 169.741 114.776 169.794 114.765L169.799 115.889C169.669 115.931 169.527 115.965 169.375 115.99C169.223 116.015 169.055 116.027 168.872 116.027C168.536 116.027 168.242 115.972 167.991 115.863C167.744 115.749 167.553 115.569 167.419 115.322C167.284 115.074 167.217 114.749 167.217 114.346V108.768ZM170.218 113.111V112.999C170.218 112.579 170.278 112.192 170.399 111.838C170.519 111.481 170.694 111.172 170.924 110.91C171.153 110.649 171.436 110.446 171.772 110.301C172.108 110.152 172.493 110.078 172.928 110.078C173.362 110.078 173.75 110.152 174.089 110.301C174.428 110.446 174.713 110.649 174.942 110.91C175.176 111.172 175.353 111.481 175.473 111.838C175.593 112.192 175.653 112.579 175.653 112.999V113.111C175.653 113.528 175.593 113.915 175.473 114.272C175.353 114.625 175.176 114.935 174.942 115.2C174.713 115.461 174.43 115.665 174.094 115.81C173.758 115.954 173.373 116.027 172.938 116.027C172.504 116.027 172.116 115.954 171.777 115.81C171.441 115.665 171.157 115.461 170.924 115.2C170.694 114.935 170.519 114.625 170.399 114.272C170.278 113.915 170.218 113.528 170.218 113.111ZM171.745 112.999V113.111C171.745 113.351 171.767 113.576 171.809 113.784C171.851 113.993 171.919 114.176 172.01 114.336C172.106 114.491 172.23 114.613 172.382 114.701C172.534 114.79 172.719 114.834 172.938 114.834C173.15 114.834 173.332 114.79 173.484 114.701C173.636 114.613 173.758 114.491 173.85 114.336C173.942 114.176 174.009 113.993 174.052 113.784C174.098 113.576 174.121 113.351 174.121 113.111V112.999C174.121 112.766 174.098 112.547 174.052 112.342C174.009 112.133 173.94 111.95 173.845 111.791C173.753 111.628 173.631 111.501 173.479 111.409C173.327 111.317 173.143 111.271 172.928 111.271C172.712 111.271 172.528 111.317 172.376 111.409C172.228 111.501 172.106 111.628 172.01 111.791C171.919 111.95 171.851 112.133 171.809 112.342C171.767 112.547 171.745 112.766 171.745 112.999ZM178.118 111.435V115.921H176.591V110.184H178.028L178.118 111.435ZM179.847 110.147L179.82 111.563C179.746 111.552 179.656 111.543 179.55 111.536C179.448 111.525 179.354 111.52 179.269 111.52C179.053 111.52 178.866 111.548 178.707 111.605C178.551 111.658 178.421 111.738 178.315 111.844C178.212 111.95 178.134 112.079 178.081 112.231C178.032 112.383 178.004 112.556 177.997 112.75L177.689 112.655C177.689 112.284 177.726 111.943 177.8 111.631C177.875 111.317 177.982 111.043 178.124 110.81C178.269 110.576 178.445 110.396 178.654 110.269C178.863 110.142 179.101 110.078 179.37 110.078C179.455 110.078 179.541 110.085 179.63 110.099C179.718 110.11 179.79 110.126 179.847 110.147Z" fill="#1C3769"/>
<path d="M249.227 113.16C249.227 109.11 245.944 105.826 241.893 105.826H229.67C225.619 105.826 222.336 109.11 222.336 113.16C222.336 117.21 225.619 120.494 229.67 120.494H241.893C245.944 120.494 249.227 117.21 249.227 113.16Z" fill="url(#paint8_radial_619_8421)"/>
<g filter="url(#filter3_d_619_8421)">
<path d="M248.005 113.16C248.005 109.785 245.268 107.049 241.893 107.049C238.518 107.049 235.781 109.785 235.781 113.16C235.781 116.536 238.518 119.272 241.893 119.272C245.268 119.272 248.005 116.536 248.005 113.16Z" fill="white"/>
</g>
<g clip-path="url(#clip5_619_8421)">
<g clip-path="url(#clip6_619_8421)">
<path d="M249.302 112.855H249.761C249.803 112.855 249.837 112.89 249.837 112.932V113.39C249.837 113.432 249.803 113.466 249.761 113.466H249.302C249.26 113.466 249.226 113.432 249.226 113.39V112.932C249.226 112.89 249.26 112.855 249.302 112.855ZM249.57 113.329L249.711 113.188L249.657 113.134L249.57 113.221L249.386 113.038L249.332 113.092L249.57 113.329Z" fill="#2D75FF"/>
</g>
</g>
<g clip-path="url(#clip7_619_8421)">
<g clip-path="url(#clip8_619_8421)">
<path d="M249.301 112.859H249.753C249.795 112.859 249.829 112.893 249.829 112.934V113.386C249.829 113.428 249.795 113.462 249.753 113.462H249.301C249.259 113.462 249.225 113.428 249.225 113.386V112.934C249.225 112.893 249.259 112.859 249.301 112.859ZM249.565 113.327L249.704 113.187L249.651 113.134L249.565 113.22L249.384 113.039L249.331 113.093L249.565 113.327Z" fill="#2D75FF"/>
</g>
</g>
</g>
<path d="M257.292 157.156C257.292 155.608 255.999 154.28 254.418 154.279C252.879 154.278 251.622 155.46 251.543 156.947C251.542 156.946 251.54 156.945 251.539 156.944V153.692C251.539 152.136 250.251 150.875 248.662 150.875C247.073 150.875 245.786 152.136 245.786 153.692V150.288C245.786 148.732 244.498 147.471 242.909 147.471C241.32 147.471 240.032 148.732 240.032 150.288V141.045C240.032 139.489 238.744 138.228 237.155 138.228C235.567 138.228 234.279 139.489 234.279 141.045V160.196L230.856 156.844C229.898 155.906 228.381 155.798 227.295 156.593C226.156 157.425 225.86 158.973 226.614 160.151C227.352 161.304 228.29 162.894 229.148 164.386C230.386 166.536 231.379 168.811 232.098 171.176C233.177 174.725 236.24 180.773 244.619 181.167C251.629 181.497 257.292 175.458 257.292 168.56C257.292 168.489 257.292 157.156 257.292 157.156Z" fill="#FBD7B8"/>
<path d="M237.065 134.597C236.438 134.597 235.93 134.099 235.93 133.485V130.272C235.93 129.658 236.438 129.16 237.065 129.16C237.691 129.16 238.199 129.658 238.199 130.272V133.485C238.199 134.099 237.691 134.597 237.065 134.597Z" fill="#2365E3"/>
<path d="M232.223 138.1C232.011 138.1 231.797 138.042 231.606 137.921L228.506 135.95C227.98 135.616 227.831 134.928 228.172 134.413C228.513 133.898 229.216 133.751 229.742 134.086L232.841 136.056C233.767 136.644 233.329 138.1 232.223 138.1Z" fill="#2365E3"/>
<path d="M241.907 138.1C240.8 138.1 240.363 136.644 241.288 136.056L244.388 134.085C244.914 133.751 245.616 133.898 245.957 134.413C246.299 134.928 246.149 135.616 245.623 135.95L242.523 137.921C242.333 138.042 242.118 138.1 241.907 138.1Z" fill="#2365E3"/>
<path d="M230.737 143.302H227.418C226.792 143.302 226.284 142.804 226.284 142.19C226.284 141.577 226.792 141.079 227.418 141.079H230.737C231.363 141.079 231.872 141.577 231.872 142.19C231.872 142.804 231.363 143.302 230.737 143.302Z" fill="#2365E3"/>
<path d="M246.711 143.302H243.392C242.766 143.302 242.258 142.804 242.258 142.19C242.258 141.577 242.766 141.079 243.392 141.079H246.711C247.338 141.079 247.846 141.577 247.846 142.19C247.846 142.804 247.338 143.302 246.711 143.302Z" fill="#2365E3"/>
</g>
<path d="M20.4002 8.66H302C307.357 8.66 311.7 13.003 311.7 18.3602V215.96C311.7 221.317 307.357 225.66 302 225.66H20.4002C15.043 225.66 10.7 221.317 10.7 215.96V18.3602C10.7 13.003 15.043 8.66 20.4002 8.66Z" stroke="url(#paint9_linear_619_8421)" stroke-opacity="0.1" shape-rendering="crispEdges"/>
</g>
<defs>
<filter id="filter0_d_619_8421" x="1.33514e-05" y="4.52995e-06" width="322.4" height="238.4" filterUnits="userSpaceOnUse" color-interpolation-filters="sRGB">
<feFlood flood-opacity="0" result="BackgroundImageFix"/>
<feColorMatrix in="SourceAlpha" type="matrix" values="0 0 0 0 0 0 0 0 0 0 0 0 0 0 0 0 0 0 127 0" result="hardAlpha"/>
<feOffset dy="2.04"/>
<feGaussianBlur stdDeviation="5.1"/>
<feComposite in2="hardAlpha" operator="out"/>
<feColorMatrix type="matrix" values="0 0 0 0 0 0 0 0 0 0 0 0 0 0 0 0 0 0 0.08 0"/>
<feBlend mode="normal" in2="BackgroundImageFix" result="effect1_dropShadow_619_8421"/>
<feBlend mode="normal" in="SourceGraphic" in2="effect1_dropShadow_619_8421" result="shape"/>
</filter>
<filter id="filter1_d_619_8421" x="44.2" y="49.16" width="236" height="163" filterUnits="userSpaceOnUse" color-interpolation-filters="sRGB">
<feFlood flood-opacity="0" result="BackgroundImageFix"/>
<feColorMatrix in="SourceAlpha" type="matrix" values="0 0 0 0 0 0 0 0 0 0 0 0 0 0 0 0 0 0 127 0" result="hardAlpha"/>
<feOffset/>
<feGaussianBlur stdDeviation="5"/>
<feComposite in2="hardAlpha" operator="out"/>
<feColorMatrix type="matrix" values="0 0 0 0 0 0 0 0 0 0 0 0 0 0 0 0 0 0 0.04 0"/>
<feBlend mode="normal" in2="BackgroundImageFix" result="effect1_dropShadow_619_8421"/>
<feBlend mode="normal" in="SourceGraphic" in2="effect1_dropShadow_619_8421" result="shape"/>
</filter>
<filter id="filter2_d_619_8421" x="60.5989" y="94.322" width="203.202" height="42.5022" filterUnits="userSpaceOnUse" color-interpolation-filters="sRGB">
<feFlood flood-opacity="0" result="BackgroundImageFix"/>
<feColorMatrix in="SourceAlpha" type="matrix" values="0 0 0 0 0 0 0 0 0 0 0 0 0 0 0 0 0 0 127 0" result="hardAlpha"/>
<feOffset dy="2.41305"/>
<feGaussianBlur stdDeviation="2.12555"/>
<feComposite in2="hardAlpha" operator="out"/>
<feColorMatrix type="matrix" values="0 0 0 0 0.117647 0 0 0 0 0.341176 0 0 0 0 0.768627 0 0 0 0.1 0"/>
<feBlend mode="normal" in2="BackgroundImageFix" result="effect1_dropShadow_619_8421"/>
<feBlend mode="normal" in="SourceGraphic" in2="effect1_dropShadow_619_8421" result="shape"/>
</filter>
<filter id="filter3_d_619_8421" x="230.892" y="104.604" width="22.002" height="22.002" filterUnits="userSpaceOnUse" color-interpolation-filters="sRGB">
<feFlood flood-opacity="0" result="BackgroundImageFix"/>
<feColorMatrix in="SourceAlpha" type="matrix" values="0 0 0 0 0 0 0 0 0 0 0 0 0 0 0 0 0 0 127 0" result="hardAlpha"/>
<feOffset dy="2.44467"/>
<feGaussianBlur stdDeviation="2.44467"/>
<feComposite in2="hardAlpha" operator="out"/>
<feColorMatrix type="matrix" values="0 0 0 0 0 0 0 0 0 0 0 0 0 0 0 0 0 0 0.16 0"/>
<feBlend mode="normal" in2="BackgroundImageFix" result="effect1_dropShadow_619_8421"/>
<feBlend mode="normal" in="SourceGraphic" in2="effect1_dropShadow_619_8421" result="shape"/>
</filter>
<linearGradient id="paint0_linear_619_8421" x1="10.2" y1="15.16" x2="312.2" y2="226.16" gradientUnits="userSpaceOnUse">
<stop stop-color="white" stop-opacity="0.2"/>
<stop offset="1" stop-color="white" stop-opacity="0.1"/>
</linearGradient>
<radialGradient id="paint1_radial_619_8421" cx="0" cy="0" r="1" gradientUnits="userSpaceOnUse" gradientTransform="translate(262.788 37.0061) rotate(51.0107) scale(5.85481)">
<stop stop-color="#256CF1"/>
<stop offset="1" stop-color="#11357C"/>
</radialGradient>
<radialGradient id="paint2_radial_619_8421" cx="0" cy="0" r="1" gradientTransform="matrix(6.38509 2.42706 7.88793 -1.96464 256.845 26.0083)" gradientUnits="userSpaceOnUse">
<stop stop-color="#256CF1"/>
<stop offset="1" stop-color="#11357C"/>
</radialGradient>
<radialGradient id="paint3_radial_619_8421" cx="0" cy="0" r="1" gradientTransform="matrix(6.38509 5.76426 7.88793 -4.66603 256.845 33.8772)" gradientUnits="userSpaceOnUse">
<stop stop-color="#256CF1"/>
<stop offset="1" stop-color="#11357C"/>
</radialGradient>
<radialGradient id="paint4_radial_619_8421" cx="0" cy="0" r="1" gradientUnits="userSpaceOnUse" gradientTransform="translate(139.395 83.199) rotate(51.0107) scale(3.98633)">
<stop stop-color="#256CF1"/>
<stop offset="1" stop-color="#11357C"/>
</radialGradient>
<radialGradient id="paint5_radial_619_8421" cx="0" cy="0" r="1" gradientTransform="matrix(4.34737 1.6525 5.37061 -1.33765 135.348 75.711)" gradientUnits="userSpaceOnUse">
<stop stop-color="#256CF1"/>
<stop offset="1" stop-color="#11357C"/>
</radialGradient>
<radialGradient id="paint6_radial_619_8421" cx="0" cy="0" r="1" gradientTransform="matrix(4.34737 3.92468 5.37061 -3.17693 135.348 81.0687)" gradientUnits="userSpaceOnUse">
<stop stop-color="#256CF1"/>
<stop offset="1" stop-color="#11357C"/>
</radialGradient>
<radialGradient id="paint7_radial_619_8421" cx="0" cy="0" r="1" gradientTransform="matrix(78.8449 11.9872 -75.3337 27.3105 115.775 113.269)" gradientUnits="userSpaceOnUse">
<stop stop-color="#FFFBF3"/>
<stop offset="1" stop-color="#EAF6FF"/>
</radialGradient>
<radialGradient id="paint8_radial_619_8421" cx="0" cy="0" r="1" gradientUnits="userSpaceOnUse" gradientTransform="translate(241.282 114.993) rotate(-180) scale(20.7797 38.0961)">
<stop stop-color="#256CF1"/>
<stop offset="1" stop-color="#11357C"/>
</radialGradient>
<linearGradient id="paint9_linear_619_8421" x1="13.7" y1="7.16" x2="312.2" y2="226.16" gradientUnits="userSpaceOnUse">
<stop stop-color="#ABAEB4"/>
<stop offset="0.282508" stop-color="#203143"/>
<stop offset="0.502029" stop-color="#071728"/>
<stop offset="0.792663" stop-color="#203143"/>
<stop offset="1" stop-color="#ABAEB4"/>
</linearGradient>
<clipPath id="clip0_619_8421">
<path d="M10.2 18.36C10.2 12.7267 14.7667 8.16 20.4 8.16H302C307.633 8.16 312.2 12.7267 312.2 18.36V215.96C312.2 221.593 307.633 226.16 302 226.16H20.4C14.7667 226.16 10.2 221.593 10.2 215.96V18.36Z" fill="white"/>
</clipPath>
<clipPath id="clip1_619_8421">
<rect width="345" height="52" fill="white" transform="translate(-32.8 5.56332)"/>
</clipPath>
<clipPath id="clip2_619_8421">
<rect width="336" height="48" fill="white" transform="translate(-22.8 8.56332)"/>
</clipPath>
<clipPath id="clip3_619_8421">
<rect width="19.9996" height="19.9996" fill="white" transform="translate(248.644 22.2303)"/>
</clipPath>
<clipPath id="clip4_619_8421">
<rect width="13.617" height="13.617" fill="white" transform="translate(129.339 73.3515)"/>
</clipPath>
<clipPath id="clip5_619_8421">
<rect width="0.611167" height="0.611167" fill="white" transform="matrix(-1 0 0 1 249.837 112.855)"/>
</clipPath>
<clipPath id="clip6_619_8421">
<rect width="0.611167" height="0.611167" fill="white" transform="matrix(-1 0 0 1 249.837 112.855)"/>
</clipPath>
<clipPath id="clip7_619_8421">
<rect width="0.603261" height="0.603261" fill="white" transform="matrix(-1 0 0 1 249.829 112.858)"/>
</clipPath>
<clipPath id="clip8_619_8421">
<rect width="0.603261" height="0.603261" fill="white" transform="matrix(-1 0 0 1 249.829 112.858)"/>
</clipPath>
</defs>
</svg>
