<svg width="323" height="239" viewBox="0 0 323 239" fill="none" xmlns="http://www.w3.org/2000/svg">
<g filter="url(#filter0_d_619_8474)">
<g clip-path="url(#clip0_619_8474)">
<path d="M10.2 18.36C10.2 12.7267 14.7667 8.16 20.4 8.16H302C307.633 8.16 312.2 12.7267 312.2 18.36V215.96C312.2 221.593 307.633 226.16 302 226.16H20.4C14.7667 226.16 10.2 221.593 10.2 215.96V18.36Z" fill="url(#paint0_linear_619_8474)" shape-rendering="crispEdges"/>
<g clip-path="url(#clip1_619_8474)">
<rect width="343.778" height="0.944444" transform="translate(-30.8552 56.6189)" fill="#F6F7F8"/>
<rect width="336" height="48" transform="translate(-22.8 8.56332)" fill="#FBFBFB"/>
<rect x="14.8113" y="14.2303" width="290" height="36" rx="18" fill="#F1F1F1"/>
<path fill-rule="evenodd" clip-rule="evenodd" d="M255.307 23.3964C254.992 23.0812 254.481 23.0812 254.165 23.3964L251.583 25.9786C251.268 26.2938 251.268 26.8047 251.583 27.1199C251.898 27.435 252.409 27.435 252.724 27.1199L253.929 25.9151V34.2961C253.929 34.7417 254.29 35.103 254.736 35.103C255.182 35.103 255.543 34.7417 255.543 34.2961V25.9151L256.748 27.1199C257.063 27.435 257.574 27.435 257.889 27.1199C258.204 26.8047 258.204 26.2938 257.889 25.9786L255.307 23.3964ZM249.087 31.0682C249.087 30.4443 249.593 29.9385 250.217 29.9385H251.508C251.954 29.9385 252.315 29.5772 252.315 29.1315C252.315 28.6858 251.954 28.3246 251.508 28.3246H250.217C248.702 28.3246 247.473 29.5529 247.473 31.0682V38.8151C247.473 40.3304 248.702 41.5587 250.217 41.5587H259.255C260.77 41.5587 261.999 40.3304 261.999 38.8151V31.0682C261.999 29.5529 260.77 28.3246 259.255 28.3246H257.964C257.518 28.3246 257.157 28.6858 257.157 29.1315C257.157 29.5772 257.518 29.9385 257.964 29.9385H259.255C259.879 29.9385 260.385 30.4443 260.385 31.0682V38.8151C260.385 39.439 259.879 39.9448 259.255 39.9448H250.217C249.593 39.9448 249.087 39.439 249.087 38.8151V31.0682Z" fill="#707276"/>
<path fill-rule="evenodd" clip-rule="evenodd" d="M286.256 24.7399C286.507 23.9667 287.601 23.9667 287.852 24.7399L289.525 29.8868H294.936C295.749 29.8868 296.087 30.9272 295.43 31.405L291.051 34.586L292.724 39.7329C292.975 40.5061 292.09 41.1491 291.432 40.6712L287.054 37.4903L282.676 40.6712C282.018 41.1491 281.133 40.5061 281.384 39.7329L283.057 34.586L278.678 31.405C278.021 30.9272 278.359 29.8868 279.172 29.8868H284.584L286.256 24.7399ZM287.054 27.5062L285.945 30.9209C285.832 31.2666 285.51 31.5008 285.146 31.5008H281.556L284.461 33.6112C284.755 33.8249 284.878 34.2037 284.766 34.5495L283.656 37.9641L286.561 35.8537C286.855 35.64 287.253 35.64 287.547 35.8537L290.452 37.9641L289.343 34.5495C289.23 34.2037 289.353 33.8249 289.647 33.6112L292.552 31.5008H288.962C288.598 31.5008 288.276 31.2666 288.164 30.9209L287.054 27.5062Z" fill="#707276"/>
</g>
<path d="M22.2 133.16H80.5022V180.698H22.2V133.16Z" fill="#F0F4F8"/>
<path d="M97.4637 133.16H155.766V180.698H97.4637V133.16Z" fill="#F0F4F8"/>
<path d="M170.605 133.16H228.908V180.698H170.605V133.16Z" fill="#F0F4F8"/>
<path d="M243.898 133.16H302.2V180.698H243.898V133.16Z" fill="#F0F4F8"/>
<path d="M66.9511 193.803H24.3671C23.7924 193.803 23.2412 193.472 22.8347 192.882C22.4283 192.292 22.2 191.492 22.2 190.658C22.2 189.824 22.4283 189.024 22.8347 188.434C23.2412 187.844 23.7924 187.512 24.3671 187.512H66.9511C67.5259 187.512 68.0771 187.844 68.4835 188.434C68.8899 189.024 69.1182 189.824 69.1182 190.658C69.1182 191.492 68.8899 192.292 68.4835 192.882C68.0771 193.472 67.5259 193.803 66.9511 193.803Z" fill="#F0F4F8"/>
<path d="M66.9511 206.527H24.3671C23.7924 206.527 23.2412 206.196 22.8347 205.606C22.4283 205.016 22.2 204.216 22.2 203.382C22.2 202.547 22.4283 201.747 22.8347 201.157C23.2412 200.567 23.7924 200.236 24.3671 200.236H66.9511C67.5259 200.236 68.0771 200.567 68.4835 201.157C68.8899 201.747 69.1182 202.547 69.1182 203.382C69.1182 204.216 68.8899 205.016 68.4835 205.606C68.0771 206.196 67.5259 206.527 66.9511 206.527Z" fill="#F0F4F8"/>
<path d="M143.167 193.803H100.496C99.9217 193.803 99.3704 193.472 98.964 192.882C98.5576 192.292 98.3293 191.492 98.3293 190.658C98.3293 189.824 98.5576 189.024 98.964 188.434C99.3704 187.844 99.9217 187.512 100.496 187.512H143.167C143.742 187.512 144.293 187.844 144.699 188.434C145.106 189.024 145.334 189.824 145.334 190.658C145.334 191.492 145.106 192.292 144.699 192.882C144.293 193.472 143.742 193.803 143.167 193.803Z" fill="#F0F4F8"/>
<path d="M143.167 206.527H100.496C99.9217 206.527 99.3704 206.196 98.964 205.606C98.5576 205.016 98.3293 204.216 98.3293 203.382C98.3293 202.547 98.5576 201.747 98.964 201.157C99.3704 200.567 99.9217 200.236 100.496 200.236H143.167C143.742 200.236 144.293 200.567 144.699 201.157C145.106 201.747 145.334 202.547 145.334 203.382C145.334 204.216 145.106 205.016 144.699 205.606C144.293 206.196 143.742 206.527 143.167 206.527Z" fill="#F0F4F8"/>
<path d="M215.081 193.803H172.388C171.814 193.803 171.262 193.472 170.856 192.882C170.45 192.292 170.221 191.492 170.221 190.658C170.221 189.824 170.45 189.024 170.856 188.434C171.262 187.844 171.814 187.512 172.388 187.512H215.081C215.655 187.512 216.207 187.844 216.613 188.434C217.019 189.024 217.248 189.824 217.248 190.658C217.248 191.492 217.019 192.292 216.613 192.882C216.207 193.472 215.655 193.803 215.081 193.803Z" fill="#F0F4F8"/>
<path d="M215.081 206.527H172.388C171.814 206.527 171.262 206.196 170.856 205.606C170.45 205.016 170.221 204.216 170.221 203.382C170.221 202.547 170.45 201.747 170.856 201.157C171.262 200.567 171.814 200.236 172.388 200.236H215.081C215.655 200.236 216.207 200.567 216.613 201.157C217.019 201.747 217.248 202.547 217.248 203.382C217.248 204.216 217.019 205.016 216.613 205.606C216.207 206.196 215.655 206.527 215.081 206.527Z" fill="#F0F4F8"/>
<path d="M290.728 193.803H248.036C247.461 193.803 246.91 193.472 246.503 192.882C246.097 192.292 245.868 191.492 245.868 190.658C245.868 189.824 246.097 189.024 246.503 188.434C246.91 187.844 247.461 187.512 248.036 187.512H290.728C291.303 187.512 291.854 187.844 292.26 188.434C292.667 189.024 292.895 189.824 292.895 190.658C292.895 191.492 292.667 192.292 292.26 192.882C291.854 193.472 291.303 193.803 290.728 193.803Z" fill="#F0F4F8"/>
<path d="M290.728 206.527H248.036C247.461 206.527 246.91 206.196 246.503 205.606C246.097 205.016 245.868 204.216 245.868 203.382C245.868 202.547 246.097 201.747 246.503 201.157C246.91 200.567 247.461 200.236 248.036 200.236H290.728C291.303 200.236 291.854 200.567 292.26 201.157C292.667 201.747 292.895 202.547 292.895 203.382C292.895 204.216 292.667 205.016 292.26 205.606C291.854 206.196 291.303 206.527 290.728 206.527Z" fill="#F0F4F8"/>
<g filter="url(#filter1_d_619_8474)">
<rect x="18.2" y="62.16" width="284" height="49.7" rx="4.87319" fill="white"/>
<g clip-path="url(#clip2_619_8474)">
<path d="M58.7438 88.5162C56.7917 86.5629 53.6132 86.5621 51.6595 88.5162C50.7131 89.4623 50.1923 90.7206 50.1923 92.0593C50.1923 93.3975 50.7131 94.6558 51.6595 95.602C52.6055 96.5485 53.8635 97.0694 55.2015 97.0694C56.2755 97.0694 57.2948 96.7289 58.1456 96.1072L59.5542 97.516C59.7066 97.6685 59.9062 97.7447 60.1058 97.7447C60.3055 97.7447 60.5051 97.6685 60.6575 97.516C60.9623 97.2112 60.9623 96.7514 60.6575 96.4465L59.2481 95.0028C60.6733 93.0446 60.509 90.2817 58.7438 88.5162ZM57.6463 94.4914C57.644 94.4937 57.6408 94.4943 57.6386 94.4965C57.6364 94.4988 57.6357 94.5019 57.6335 94.5042C56.9827 95.1517 56.12 95.5086 55.2015 95.5086C54.2802 95.5086 53.4143 95.15 52.7628 94.4984C52.1113 93.8468 51.7528 92.9807 51.7528 92.0593C51.7528 91.1375 52.1113 90.2713 52.7628 89.6197C53.4143 88.9681 54.2802 88.6095 55.2015 88.6095C56.1231 88.6095 56.989 88.9681 57.6405 89.6197C58.292 90.2713 58.6505 91.1375 58.6505 92.0593C58.6505 92.9776 58.2937 93.8405 57.6463 94.4914Z" fill="url(#paint1_radial_619_8474)"/>
<path d="M58.0352 81.4594C58.0352 79.0314 56.5558 77.07 54.7244 77.07H42.8101C40.9859 77.07 39.4993 79.0314 39.4993 81.4594V82.7733H58.0352V81.4594ZM43.1404 80.8024H42.1637C41.7975 80.8024 41.4958 80.4025 41.4958 79.9169C41.4958 79.4408 41.7975 79.0409 42.1637 79.0409H43.1404C43.5067 79.0409 43.8011 79.4408 43.8011 79.9169C43.8011 80.4025 43.5067 80.8024 43.1404 80.8024ZM46.1065 80.8024H45.1298C44.7635 80.8024 44.4618 80.4025 44.4618 79.9169C44.4618 79.4408 44.7635 79.0409 45.1298 79.0409H46.1065C46.4727 79.0409 46.7672 79.4408 46.7672 79.9169C46.7672 80.4025 46.4727 80.8024 46.1065 80.8024Z" fill="url(#paint2_radial_619_8474)"/>
<path d="M42.8101 95.6059H49.9558C48.1532 93.1273 48.3879 89.675 50.5495 87.4073C52.7362 85.3721 55.7011 84.878 58.0352 86.4526V82.0605H39.4993V92.1329C39.4993 94.054 40.9859 95.6059 42.8101 95.6059Z" fill="url(#paint3_radial_619_8474)"/>
</g>
<path d="M72.8264 89.9567C72.8264 89.8125 72.8043 89.683 72.7599 89.5684C72.7192 89.4501 72.6415 89.3428 72.5269 89.2467C72.4123 89.1468 72.2514 89.0488 72.0443 88.9527C71.8373 88.8565 71.5692 88.7567 71.24 88.6532C70.8739 88.5348 70.5263 88.4017 70.1972 88.2538C69.8718 88.1059 69.5834 87.9339 69.3319 87.7379C69.0842 87.5382 68.8882 87.3071 68.7439 87.0446C68.6034 86.782 68.5332 86.4769 68.5332 86.1293C68.5332 85.7928 68.6071 85.4877 68.755 85.2141C68.903 84.9368 69.11 84.7001 69.3763 84.5041C69.6425 84.3044 69.9569 84.1509 70.3193 84.0437C70.6853 83.9365 71.0866 83.8829 71.5229 83.8829C72.1183 83.8829 72.6378 83.9901 73.0816 84.2046C73.5253 84.419 73.8693 84.713 74.1133 85.0865C74.3611 85.46 74.485 85.8871 74.485 86.3679H72.832C72.832 86.1312 72.7821 85.9241 72.6822 85.7466C72.5861 85.5654 72.4382 85.423 72.2385 85.3195C72.0425 85.2159 71.7947 85.1642 71.4952 85.1642C71.2068 85.1642 70.9664 85.2086 70.7741 85.2973C70.5818 85.3824 70.4376 85.4988 70.3414 85.6468C70.2453 85.791 70.1972 85.9537 70.1972 86.1349C70.1972 86.2717 70.2305 86.3956 70.2971 86.5065C70.3673 86.6175 70.4709 86.721 70.6077 86.8171C70.7445 86.9133 70.9128 87.0039 71.1125 87.0889C71.3121 87.174 71.5433 87.2572 71.8058 87.3386C72.2459 87.4717 72.6323 87.6214 72.9651 87.7879C73.3016 87.9543 73.5827 88.141 73.8082 88.3481C74.0338 88.5552 74.2039 88.79 74.3186 89.0525C74.4332 89.3151 74.4905 89.6128 74.4905 89.9456C74.4905 90.2969 74.4221 90.6112 74.2853 90.8886C74.1484 91.1659 73.9506 91.4007 73.6918 91.593C73.4329 91.7853 73.1241 91.9314 72.7654 92.0312C72.4067 92.1311 72.0055 92.181 71.5618 92.181C71.1624 92.181 70.7686 92.1292 70.3803 92.0257C69.992 91.9184 69.6388 91.7576 69.3208 91.5431C69.0065 91.3286 68.755 91.055 68.5664 90.7221C68.3778 90.3893 68.2836 89.9955 68.2836 89.5407H69.9532C69.9532 89.7921 69.992 90.0048 70.0696 90.1786C70.1473 90.3524 70.2564 90.4929 70.3969 90.6001C70.5411 90.7074 70.7112 90.785 70.9072 90.8331C71.1069 90.8812 71.3251 90.9052 71.5618 90.9052C71.8502 90.9052 72.0869 90.8645 72.2718 90.7832C72.4603 90.7018 72.599 90.589 72.6878 90.4448C72.7802 90.3006 72.8264 90.1379 72.8264 89.9567ZM78.2846 92.181C77.8186 92.181 77.4008 92.107 77.031 91.9591C76.6612 91.8075 76.3469 91.5986 76.088 91.3323C75.8328 91.0661 75.6369 90.7573 75.5 90.406C75.3632 90.051 75.2948 89.6738 75.2948 89.2744V89.0525C75.2948 88.5977 75.3595 88.1817 75.4889 87.8045C75.6184 87.4273 75.8033 87.1 76.0436 86.8227C76.2877 86.5454 76.5835 86.3327 76.9311 86.1848C77.2787 86.0332 77.6707 85.9574 78.1071 85.9574C78.5323 85.9574 78.9095 86.0276 79.2386 86.1682C79.5677 86.3087 79.8432 86.5084 80.0651 86.7672C80.2907 87.0261 80.4608 87.3367 80.5754 87.6991C80.6901 88.0578 80.7474 88.4572 80.7474 88.8972V89.5629H75.9771V88.4979H79.1776V88.3758C79.1776 88.1539 79.1369 87.9561 79.0556 87.7823C78.9779 87.6048 78.8596 87.4643 78.7006 87.3607C78.5416 87.2572 78.3382 87.2054 78.0904 87.2054C77.8796 87.2054 77.6984 87.2517 77.5468 87.3441C77.3952 87.4365 77.2713 87.566 77.1752 87.7324C77.0827 87.8988 77.0125 88.0948 76.9644 88.3204C76.92 88.5422 76.8978 88.7863 76.8978 89.0525V89.2744C76.8978 89.5148 76.9311 89.7367 76.9977 89.94C77.068 90.1434 77.1659 90.3191 77.2917 90.467C77.4211 90.6149 77.5764 90.7295 77.7576 90.8109C77.9425 90.8923 78.1514 90.9329 78.3844 90.9329C78.6728 90.9329 78.9409 90.8775 79.1887 90.7665C79.4402 90.6519 79.6565 90.4799 79.8377 90.2507L80.6143 91.0938C80.4885 91.275 80.3166 91.4488 80.0984 91.6152C79.8839 91.7816 79.6251 91.9184 79.3218 92.0257C79.0186 92.1292 78.6728 92.181 78.2846 92.181ZM84.8964 90.7166V88.043C84.8964 87.8507 84.865 87.6862 84.8021 87.5493C84.7393 87.4088 84.6413 87.2997 84.5082 87.2221C84.3787 87.1444 84.2105 87.1056 84.0034 87.1056C83.8259 87.1056 83.6724 87.137 83.543 87.1999C83.4136 87.259 83.3137 87.3459 83.2435 87.4606C83.1732 87.5715 83.1381 87.7028 83.1381 87.8544H81.5406C81.5406 87.5993 81.5997 87.357 81.7181 87.1278C81.8364 86.8985 82.0084 86.697 82.2339 86.5232C82.4595 86.3457 82.7276 86.207 83.0382 86.1071C83.3526 86.0073 83.7039 85.9574 84.0921 85.9574C84.5581 85.9574 84.9722 86.035 85.3346 86.1904C85.697 86.3457 85.9818 86.5786 86.1889 86.8893C86.3996 87.1999 86.505 87.5882 86.505 88.0541V90.6223C86.505 90.9514 86.5254 91.2214 86.5661 91.4321C86.6067 91.6392 86.6659 91.8204 86.7436 91.9757V92.07H85.1294C85.0518 91.9073 84.9926 91.7039 84.9519 91.4599C84.9149 91.2121 84.8964 90.9644 84.8964 90.7166ZM85.1072 88.4146L85.1183 89.3188H84.2253C84.0145 89.3188 83.8314 89.3428 83.6761 89.3909C83.5208 89.439 83.3932 89.5074 83.2934 89.5961C83.1936 89.6812 83.1196 89.781 83.0715 89.8957C83.0271 90.0103 83.005 90.136 83.005 90.2729C83.005 90.4097 83.0364 90.5336 83.0993 90.6445C83.1621 90.7517 83.2527 90.8368 83.3711 90.8996C83.4894 90.9588 83.6281 90.9884 83.7871 90.9884C84.0274 90.9884 84.2364 90.9403 84.4139 90.8442C84.5914 90.748 84.7282 90.6297 84.8243 90.4892C84.9242 90.3487 84.9759 90.2155 84.9796 90.0898L85.4012 90.7665C85.342 90.9181 85.2607 91.0753 85.1571 91.238C85.0573 91.4007 84.9297 91.5542 84.7744 91.6984C84.6191 91.8389 84.4324 91.9554 84.2142 92.0479C83.996 92.1366 83.7371 92.181 83.4376 92.181C83.0567 92.181 82.711 92.1052 82.4003 91.9536C82.0934 91.7982 81.8494 91.5856 81.6682 91.3157C81.4907 91.042 81.4019 90.7314 81.4019 90.3838C81.4019 90.0695 81.4611 89.7903 81.5794 89.5462C81.6977 89.3021 81.8715 89.0969 82.1008 88.9305C82.3338 88.7604 82.6241 88.6328 82.9717 88.5478C83.3193 88.459 83.7224 88.4146 84.1809 88.4146H85.1072ZM89.3339 87.3774V92.07H87.7364V86.0683H89.2396L89.3339 87.3774ZM91.1422 86.0295L91.1145 87.5105C91.0368 87.4994 90.9425 87.4902 90.8316 87.4828C90.7244 87.4717 90.6264 87.4661 90.5376 87.4661C90.312 87.4661 90.1161 87.4957 89.9496 87.5549C89.7869 87.6104 89.6501 87.6936 89.5392 87.8045C89.4319 87.9154 89.3506 88.0504 89.2951 88.2094C89.2433 88.3684 89.2138 88.5496 89.2064 88.753L88.8846 88.6532C88.8846 88.2649 88.9235 87.908 89.0011 87.5826C89.0788 87.2535 89.1916 86.9669 89.3395 86.7229C89.4911 86.4788 89.676 86.2902 89.8942 86.1571C90.1124 86.0239 90.362 85.9574 90.643 85.9574C90.7318 85.9574 90.8224 85.9648 90.9148 85.9796C91.0072 85.9907 91.0831 86.0073 91.1422 86.0295ZM94.2651 90.9329C94.4611 90.9329 94.6349 90.8959 94.7865 90.822C94.9381 90.7443 95.0565 90.6371 95.1415 90.5003C95.2303 90.3598 95.2765 90.1952 95.2802 90.0066H96.7834C96.7797 90.4282 96.6669 90.8035 96.445 91.1326C96.2232 91.458 95.9255 91.715 95.552 91.9036C95.1785 92.0885 94.7606 92.181 94.2984 92.181C93.8325 92.181 93.4257 92.1033 93.0781 91.948C92.7342 91.7927 92.4476 91.5782 92.2183 91.3046C91.989 91.0272 91.8171 90.7055 91.7025 90.3394C91.5878 89.9696 91.5305 89.5739 91.5305 89.1524V88.9915C91.5305 88.5663 91.5878 88.1706 91.7025 87.8045C91.8171 87.4347 91.989 87.113 92.2183 86.8393C92.4476 86.562 92.7342 86.3457 93.0781 86.1904C93.422 86.035 93.8251 85.9574 94.2873 85.9574C94.7791 85.9574 95.2099 86.0517 95.5797 86.2403C95.9532 86.4289 96.2453 86.6988 96.4561 87.0501C96.6706 87.3977 96.7797 87.81 96.7834 88.2871H95.2802C95.2765 88.0874 95.234 87.9062 95.1526 87.7435C95.075 87.5808 94.9603 87.4513 94.8087 87.3552C94.6608 87.2554 94.4777 87.2054 94.2596 87.2054C94.0266 87.2054 93.8362 87.2554 93.6882 87.3552C93.5403 87.4513 93.4257 87.5845 93.3443 87.7546C93.263 87.921 93.2057 88.1114 93.1724 88.3259C93.1428 88.5367 93.128 88.7586 93.128 88.9915V89.1524C93.128 89.3854 93.1428 89.6091 93.1724 89.8236C93.202 90.038 93.2574 90.2285 93.3388 90.3949C93.4238 90.5613 93.5403 90.6926 93.6882 90.7887C93.8362 90.8849 94.0284 90.9329 94.2651 90.9329ZM99.2684 83.55V92.07H97.6709V83.55H99.2684ZM99.041 88.8584H98.6028C98.6065 88.4405 98.6619 88.0559 98.7692 87.7046C98.8764 87.3496 99.0299 87.0427 99.2296 86.7839C99.4293 86.5213 99.6678 86.3179 99.9451 86.1737C100.226 86.0295 100.537 85.9574 100.877 85.9574C101.173 85.9574 101.441 85.9999 101.681 86.085C101.925 86.1663 102.134 86.2994 102.308 86.4843C102.486 86.6655 102.622 86.904 102.719 87.1999C102.815 87.4957 102.863 87.8544 102.863 88.276V92.07H101.254V88.2649C101.254 87.9986 101.215 87.7897 101.138 87.6381C101.064 87.4828 100.955 87.3737 100.81 87.3108C100.67 87.2443 100.496 87.211 100.289 87.211C100.06 87.211 99.8638 87.2535 99.7011 87.3386C99.542 87.4236 99.4145 87.5419 99.3183 87.6936C99.2222 87.8415 99.1519 88.0153 99.1075 88.215C99.0632 88.4146 99.041 88.6291 99.041 88.8584ZM108.942 92.07H107.334V85.5358C107.334 85.081 107.422 84.6982 107.6 84.3876C107.781 84.0733 108.034 83.8366 108.36 83.6776C108.689 83.5149 109.079 83.4336 109.53 83.4336C109.678 83.4336 109.82 83.4446 109.957 83.4668C110.094 83.4853 110.227 83.5094 110.357 83.5389L110.34 84.7426C110.27 84.7241 110.196 84.7112 110.118 84.7038C110.04 84.6964 109.95 84.6927 109.846 84.6927C109.654 84.6927 109.489 84.726 109.353 84.7925C109.219 84.8554 109.118 84.9497 109.048 85.0754C108.977 85.2012 108.942 85.3546 108.942 85.5358V92.07ZM110.14 86.0683V87.1999H106.441V86.0683H110.14ZM110.723 89.1302V89.0137C110.723 88.5737 110.786 88.1687 110.911 87.7989C111.037 87.4255 111.22 87.1019 111.46 86.8282C111.701 86.5546 111.997 86.342 112.348 86.1904C112.699 86.035 113.102 85.9574 113.557 85.9574C114.012 85.9574 114.417 86.035 114.772 86.1904C115.127 86.342 115.425 86.5546 115.665 86.8282C115.909 87.1019 116.094 87.4255 116.22 87.7989C116.345 88.1687 116.408 88.5737 116.408 89.0137V89.1302C116.408 89.5665 116.345 89.9715 116.22 90.345C116.094 90.7148 115.909 91.0383 115.665 91.3157C115.425 91.5893 115.129 91.8019 114.777 91.9536C114.426 92.1052 114.023 92.181 113.568 92.181C113.113 92.181 112.708 92.1052 112.353 91.9536C112.002 91.8019 111.704 91.5893 111.46 91.3157C111.22 91.0383 111.037 90.7148 110.911 90.345C110.786 89.9715 110.723 89.5665 110.723 89.1302ZM112.32 89.0137V89.1302C112.32 89.3817 112.342 89.6165 112.387 89.8346C112.431 90.0528 112.501 90.2451 112.598 90.4115C112.697 90.5742 112.827 90.7018 112.986 90.7943C113.145 90.8867 113.339 90.9329 113.568 90.9329C113.79 90.9329 113.981 90.8867 114.14 90.7943C114.299 90.7018 114.426 90.5742 114.522 90.4115C114.618 90.2451 114.689 90.0528 114.733 89.8346C114.781 89.6165 114.805 89.3817 114.805 89.1302V89.0137C114.805 88.7696 114.781 88.5404 114.733 88.3259C114.689 88.1077 114.617 87.9154 114.517 87.749C114.421 87.5789 114.293 87.4458 114.134 87.3496C113.975 87.2535 113.783 87.2054 113.557 87.2054C113.332 87.2054 113.139 87.2535 112.98 87.3496C112.825 87.4458 112.697 87.5789 112.598 87.749C112.501 87.9154 112.431 88.1077 112.387 88.3259C112.342 88.5404 112.32 88.7696 112.32 89.0137ZM118.988 87.3774V92.07H117.39V86.0683H118.893L118.988 87.3774ZM120.796 86.0295L120.768 87.5105C120.69 87.4994 120.596 87.4902 120.485 87.4828C120.378 87.4717 120.28 87.4661 120.191 87.4661C119.966 87.4661 119.77 87.4957 119.603 87.5549C119.441 87.6104 119.304 87.6936 119.193 87.8045C119.086 87.9154 119.004 88.0504 118.949 88.2094C118.897 88.3684 118.867 88.5496 118.86 88.753L118.538 88.6532C118.538 88.2649 118.577 87.908 118.655 87.5826C118.732 87.2535 118.845 86.9669 118.993 86.7229C119.145 86.4788 119.33 86.2902 119.548 86.1571C119.766 86.0239 120.016 85.9574 120.297 85.9574C120.385 85.9574 120.476 85.9648 120.568 85.9796C120.661 85.9907 120.737 86.0073 120.796 86.0295Z" fill="#1C3769"/>
<path d="M129 90.0288C129 89.8402 128.97 89.6738 128.911 89.5296C128.855 89.3817 128.756 89.2485 128.611 89.1302C128.471 89.0119 128.275 88.8991 128.023 88.7918C127.776 88.6846 127.461 88.5755 127.08 88.4646C126.681 88.3462 126.321 88.215 125.999 88.0707C125.677 87.9228 125.402 87.7546 125.172 87.566C124.943 87.3774 124.767 87.1611 124.645 86.917C124.523 86.6729 124.462 86.3937 124.462 86.0794C124.462 85.7651 124.527 85.4748 124.656 85.2086C124.786 84.9423 124.971 84.7112 125.211 84.5152C125.455 84.3155 125.745 84.1602 126.082 84.0493C126.418 83.9383 126.794 83.8829 127.208 83.8829C127.814 83.8829 128.328 83.9993 128.75 84.2323C129.175 84.4616 129.499 84.763 129.721 85.1364C129.943 85.5062 130.054 85.9019 130.054 86.3235H128.989C128.989 86.0202 128.924 85.7521 128.794 85.5192C128.665 85.2825 128.469 85.0976 128.206 84.9645C127.944 84.8277 127.611 84.7593 127.208 84.7593C126.827 84.7593 126.513 84.8166 126.265 84.9312C126.017 85.0458 125.832 85.2012 125.71 85.3971C125.592 85.5931 125.533 85.8169 125.533 86.0683C125.533 86.2384 125.568 86.3937 125.638 86.5343C125.712 86.6711 125.825 86.7987 125.977 86.917C126.132 87.0353 126.328 87.1444 126.565 87.2443C126.805 87.3441 127.092 87.4402 127.424 87.5327C127.883 87.6621 128.279 87.8063 128.611 87.9654C128.944 88.1244 129.218 88.3037 129.432 88.5034C129.65 88.6994 129.811 88.9231 129.915 89.1746C130.022 89.4223 130.076 89.7034 130.076 90.0177C130.076 90.3468 130.009 90.6445 129.876 90.9107C129.743 91.177 129.552 91.4044 129.305 91.593C129.057 91.7816 128.759 91.9277 128.412 92.0312C128.068 92.1311 127.683 92.181 127.258 92.181C126.884 92.181 126.516 92.1292 126.154 92.0257C125.795 91.9221 125.468 91.7668 125.172 91.5597C124.88 91.3526 124.645 91.0975 124.468 90.7943C124.294 90.4873 124.207 90.1323 124.207 89.7293H125.272C125.272 90.0066 125.326 90.2451 125.433 90.4448C125.54 90.6408 125.686 90.8035 125.871 90.9329C126.06 91.0624 126.272 91.1585 126.509 91.2214C126.749 91.2805 126.999 91.3101 127.258 91.3101C127.631 91.3101 127.948 91.2583 128.206 91.1548C128.465 91.0513 128.661 90.9033 128.794 90.7111C128.931 90.5188 129 90.2913 129 90.0288ZM136.061 83.9938H137.126V89.4575C137.126 90.0639 136.991 90.5687 136.721 90.9718C136.451 91.3748 136.092 91.6781 135.645 91.8814C135.201 92.0811 134.718 92.181 134.197 92.181C133.65 92.181 133.154 92.0811 132.711 91.8814C132.27 91.6781 131.921 91.3748 131.662 90.9718C131.407 90.5687 131.279 90.0639 131.279 89.4575V83.9938H132.339V89.4575C132.339 89.879 132.417 90.2266 132.572 90.5003C132.727 90.7739 132.943 90.9773 133.221 91.1104C133.502 91.2436 133.827 91.3101 134.197 91.3101C134.571 91.3101 134.896 91.2436 135.173 91.1104C135.454 90.9773 135.673 90.7739 135.828 90.5003C135.983 90.2266 136.061 89.879 136.061 89.4575V83.9938ZM141.414 90.8442L143.793 83.9938H144.952L141.963 92.07H141.136L141.414 90.8442ZM139.189 83.9938L141.547 90.8442L141.841 92.07H141.014L138.03 83.9938H139.189ZM153.883 91.2269V92.07H148.597V91.3323L151.243 88.3869C151.568 88.0245 151.819 87.7176 151.997 87.4661C152.178 87.211 152.304 86.9836 152.374 86.7839C152.448 86.5805 152.485 86.3734 152.485 86.1626C152.485 85.8964 152.43 85.656 152.319 85.4415C152.211 85.2233 152.052 85.0495 151.842 84.9201C151.631 84.7907 151.376 84.726 151.076 84.726C150.718 84.726 150.418 84.7962 150.178 84.9368C149.941 85.0736 149.763 85.2659 149.645 85.5136C149.527 85.7614 149.468 86.0461 149.468 86.3679H148.441C148.441 85.913 148.541 85.497 148.741 85.1198C148.941 84.7426 149.236 84.4431 149.628 84.2212C150.02 83.9956 150.503 83.8829 151.076 83.8829C151.587 83.8829 152.023 83.9734 152.385 84.1546C152.748 84.3321 153.025 84.5836 153.217 84.909C153.413 85.2307 153.511 85.6079 153.511 86.0406C153.511 86.2773 153.471 86.5176 153.389 86.7617C153.312 87.002 153.203 87.2424 153.062 87.4828C152.925 87.7231 152.764 87.9598 152.579 88.1928C152.398 88.4257 152.204 88.655 151.997 88.8806L149.834 91.2269H153.883ZM160.051 87.3885V88.6199C160.051 89.2818 159.992 89.8402 159.874 90.295C159.755 90.7499 159.585 91.116 159.363 91.3933C159.141 91.6707 158.873 91.8722 158.559 91.9979C158.248 92.12 157.897 92.181 157.505 92.181C157.194 92.181 156.908 92.1421 156.645 92.0645C156.383 91.9868 156.146 91.863 155.935 91.6929C155.728 91.519 155.551 91.2935 155.403 91.0161C155.255 90.7388 155.142 90.4023 155.064 90.0066C154.987 89.6109 154.948 89.1487 154.948 88.6199V87.3885C154.948 86.7265 155.007 86.1719 155.125 85.7244C155.247 85.277 155.419 84.9183 155.641 84.6483C155.863 84.3747 156.129 84.1787 156.44 84.0604C156.754 83.942 157.106 83.8829 157.494 83.8829C157.808 83.8829 158.097 83.9217 158.359 83.9993C158.626 84.0733 158.862 84.1935 159.069 84.3599C159.276 84.5226 159.452 84.7408 159.596 85.0144C159.744 85.2844 159.857 85.6153 159.935 86.0073C160.012 86.3993 160.051 86.8597 160.051 87.3885ZM159.019 88.7863V87.2165C159.019 86.8541 158.997 86.5361 158.953 86.2625C158.912 85.9851 158.851 85.7484 158.77 85.5525C158.688 85.3565 158.585 85.1975 158.459 85.0754C158.337 84.9534 158.195 84.8646 158.032 84.8092C157.873 84.75 157.694 84.7204 157.494 84.7204C157.25 84.7204 157.034 84.7667 156.845 84.8591C156.656 84.9479 156.497 85.0902 156.368 85.2862C156.242 85.4822 156.146 85.7392 156.079 86.0572C156.013 86.3752 155.98 86.7617 155.98 87.2165V88.7863C155.98 89.1487 156 89.4686 156.041 89.7459C156.085 90.0232 156.15 90.2636 156.235 90.467C156.32 90.6667 156.423 90.8312 156.545 90.9607C156.667 91.0901 156.808 91.1862 156.967 91.2491C157.13 91.3083 157.309 91.3379 157.505 91.3379C157.756 91.3379 157.977 91.2898 158.165 91.1936C158.354 91.0975 158.511 90.9477 158.637 90.7443C158.766 90.5373 158.862 90.2729 158.925 89.9511C158.988 89.6257 159.019 89.2374 159.019 88.7863ZM166.663 91.2269V92.07H161.377V91.3323L164.023 88.3869C164.348 88.0245 164.599 87.7176 164.777 87.4661C164.958 87.211 165.084 86.9836 165.154 86.7839C165.228 86.5805 165.265 86.3734 165.265 86.1626C165.265 85.8964 165.21 85.656 165.099 85.4415C164.991 85.2233 164.832 85.0495 164.622 84.9201C164.411 84.7907 164.156 84.726 163.856 84.726C163.498 84.726 163.198 84.7962 162.958 84.9368C162.721 85.0736 162.543 85.2659 162.425 85.5136C162.307 85.7614 162.248 86.0461 162.248 86.3679H161.221C161.221 85.913 161.321 85.497 161.521 85.1198C161.721 84.7426 162.016 84.4431 162.408 84.2212C162.8 83.9956 163.283 83.8829 163.856 83.8829C164.367 83.8829 164.803 83.9734 165.165 84.1546C165.528 84.3321 165.805 84.5836 165.997 84.909C166.193 85.2307 166.291 85.6079 166.291 86.0406C166.291 86.2773 166.251 86.5176 166.169 86.7617C166.092 87.002 165.983 87.2424 165.842 87.4828C165.705 87.7231 165.544 87.9598 165.359 88.1928C165.178 88.4257 164.984 88.655 164.777 88.8806L162.614 91.2269H166.663ZM169.059 88.2261L168.238 88.0153L168.643 83.9938H172.787V84.9423H169.514L169.27 87.1389C169.418 87.0538 169.605 86.9743 169.83 86.9004C170.059 86.8264 170.322 86.7894 170.618 86.7894C170.991 86.7894 171.326 86.8541 171.622 86.9836C171.918 87.1093 172.169 87.2905 172.376 87.5271C172.587 87.7638 172.748 88.0486 172.859 88.3814C172.97 88.7142 173.025 89.0858 173.025 89.4963C173.025 89.8846 172.972 90.2414 172.864 90.5668C172.761 90.8923 172.604 91.177 172.393 91.4211C172.182 91.6614 171.916 91.8482 171.594 91.9813C171.276 92.1144 170.901 92.181 170.468 92.181C170.143 92.181 169.834 92.1366 169.542 92.0479C169.253 91.9554 168.994 91.8167 168.765 91.6318C168.54 91.4432 168.355 91.2103 168.211 90.9329C168.07 90.6519 167.981 90.3228 167.944 89.9456H168.921C168.965 90.2488 169.054 90.504 169.187 90.7111C169.32 90.9181 169.494 91.0753 169.708 91.1825C169.926 91.2861 170.18 91.3379 170.468 91.3379C170.712 91.3379 170.928 91.2953 171.117 91.2103C171.306 91.1252 171.465 91.0032 171.594 90.8442C171.724 90.6852 171.822 90.4929 171.888 90.2673C171.958 90.0417 171.993 89.7884 171.993 89.5074C171.993 89.2522 171.958 89.0156 171.888 88.7974C171.818 88.5792 171.712 88.3888 171.572 88.2261C171.435 88.0633 171.267 87.9376 171.067 87.8489C170.867 87.7564 170.638 87.7102 170.379 87.7102C170.035 87.7102 169.775 87.7564 169.597 87.8489C169.423 87.9413 169.244 88.067 169.059 88.2261ZM176.808 89.1357V89.0082C176.808 88.5755 176.871 88.1743 176.997 87.8045C177.122 87.431 177.304 87.1074 177.54 86.8338C177.777 86.5564 178.064 86.342 178.4 86.1904C178.737 86.035 179.114 85.9574 179.532 85.9574C179.953 85.9574 180.332 86.035 180.669 86.1904C181.009 86.342 181.297 86.5564 181.534 86.8338C181.774 87.1074 181.958 87.431 182.083 87.8045C182.209 88.1743 182.272 88.5755 182.272 89.0082V89.1357C182.272 89.5684 182.209 89.9696 182.083 90.3394C181.958 90.7092 181.774 91.0328 181.534 91.3101C181.297 91.5838 181.011 91.7982 180.674 91.9536C180.342 92.1052 179.964 92.181 179.543 92.181C179.121 92.181 178.742 92.1052 178.406 91.9536C178.069 91.7982 177.781 91.5838 177.54 91.3101C177.304 91.0328 177.122 90.7092 176.997 90.3394C176.871 89.9696 176.808 89.5684 176.808 89.1357ZM177.834 89.0082V89.1357C177.834 89.4353 177.869 89.7182 177.94 89.9844C178.01 90.247 178.115 90.4799 178.256 90.6833C178.4 90.8867 178.579 91.0476 178.794 91.1659C179.008 91.2805 179.258 91.3379 179.543 91.3379C179.824 91.3379 180.07 91.2805 180.281 91.1659C180.495 91.0476 180.672 90.8867 180.813 90.6833C180.954 90.4799 181.059 90.247 181.129 89.9844C181.203 89.7182 181.24 89.4353 181.24 89.1357V89.0082C181.24 88.7123 181.203 88.4331 181.129 88.1706C181.059 87.9043 180.952 87.6695 180.807 87.4661C180.667 87.259 180.489 87.0963 180.275 86.978C180.064 86.8597 179.816 86.8005 179.532 86.8005C179.251 86.8005 179.003 86.8597 178.788 86.978C178.578 87.0963 178.4 87.259 178.256 87.4661C178.115 87.6695 178.01 87.9043 177.94 88.1706C177.869 88.4331 177.834 88.7123 177.834 89.0082ZM184.585 87.3496V92.07H183.559V86.0683H184.529L184.585 87.3496ZM184.341 88.8418L183.914 88.8251C183.917 88.4146 183.978 88.0356 184.097 87.688C184.215 87.3367 184.381 87.0316 184.596 86.7728C184.81 86.5139 185.066 86.3142 185.361 86.1737C185.661 86.0295 185.992 85.9574 186.354 85.9574C186.65 85.9574 186.916 85.9981 187.153 86.0794C187.39 86.1571 187.591 86.2828 187.758 86.4566C187.928 86.6304 188.057 86.856 188.146 87.1333C188.235 87.407 188.279 87.7416 188.279 88.1373V92.07H187.247V88.1262C187.247 87.8119 187.201 87.5604 187.109 87.3718C187.016 87.1795 186.881 87.0409 186.704 86.9558C186.526 86.8671 186.308 86.8227 186.049 86.8227C185.794 86.8227 185.561 86.8763 185.35 86.9836C185.143 87.0908 184.964 87.2387 184.812 87.4273C184.664 87.6159 184.548 87.8322 184.463 88.0763C184.381 88.3167 184.341 88.5718 184.341 88.8418ZM195.057 91.3379C195.301 91.3379 195.527 91.2879 195.734 91.1881C195.941 91.0882 196.111 90.9514 196.244 90.7776C196.378 90.6001 196.453 90.3986 196.472 90.173H197.448C197.43 90.528 197.309 90.859 197.088 91.1659C196.869 91.4691 196.583 91.715 196.228 91.9036C195.873 92.0885 195.483 92.181 195.057 92.181C194.606 92.181 194.212 92.1015 193.876 91.9425C193.543 91.7834 193.266 91.5653 193.044 91.2879C192.826 91.0106 192.661 90.6926 192.55 90.3339C192.443 89.9715 192.389 89.5887 192.389 89.1857V88.9527C192.389 88.5496 192.443 88.1687 192.55 87.81C192.661 87.4476 192.826 87.1278 193.044 86.8504C193.266 86.5731 193.543 86.3549 193.876 86.1959C194.212 86.0369 194.606 85.9574 195.057 85.9574C195.527 85.9574 195.937 86.0535 196.289 86.2458C196.64 86.4344 196.916 86.6933 197.115 87.0224C197.319 87.3478 197.43 87.7176 197.448 88.1318H196.472C196.453 87.884 196.383 87.6603 196.261 87.4606C196.143 87.2609 195.98 87.1019 195.773 86.9836C195.57 86.8615 195.331 86.8005 195.057 86.8005C194.743 86.8005 194.479 86.8634 194.264 86.9891C194.053 87.1111 193.885 87.2775 193.759 87.4883C193.637 87.6954 193.549 87.9265 193.493 88.1817C193.441 88.4331 193.415 88.6901 193.415 88.9527V89.1857C193.415 89.4482 193.441 89.7071 193.493 89.9622C193.545 90.2174 193.632 90.4485 193.754 90.6556C193.88 90.8627 194.048 91.0291 194.259 91.1548C194.473 91.2768 194.739 91.3379 195.057 91.3379ZM202.141 91.0439V87.9543C202.141 87.7176 202.093 87.5124 201.997 87.3386C201.904 87.1611 201.764 87.0242 201.575 86.9281C201.386 86.8319 201.153 86.7839 200.876 86.7839C200.617 86.7839 200.39 86.8282 200.194 86.917C200.001 87.0057 199.85 87.1222 199.739 87.2664C199.632 87.4107 199.578 87.566 199.578 87.7324H198.552C198.552 87.5179 198.607 87.3053 198.718 87.0945C198.829 86.8837 198.988 86.6933 199.195 86.5232C199.406 86.3494 199.658 86.2125 199.95 86.1127C200.246 86.0092 200.575 85.9574 200.937 85.9574C201.373 85.9574 201.758 86.0313 202.091 86.1793C202.427 86.3272 202.69 86.5509 202.878 86.8504C203.071 87.1463 203.167 87.5179 203.167 87.9654V90.761C203.167 90.9607 203.184 91.1733 203.217 91.3989C203.254 91.6244 203.307 91.8186 203.378 91.9813V92.07H202.307C202.255 91.9517 202.215 91.7945 202.185 91.5986C202.156 91.3989 202.141 91.214 202.141 91.0439ZM202.318 88.4313L202.329 89.1524H201.292C201 89.1524 200.739 89.1764 200.51 89.2245C200.281 89.2689 200.088 89.3373 199.933 89.4297C199.778 89.5222 199.659 89.6387 199.578 89.7792C199.497 89.916 199.456 90.0769 199.456 90.2618C199.456 90.4504 199.499 90.6223 199.584 90.7776C199.669 90.9329 199.796 91.0568 199.966 91.1493C200.14 91.238 200.353 91.2824 200.604 91.2824C200.919 91.2824 201.196 91.2158 201.436 91.0827C201.677 90.9496 201.867 90.7869 202.008 90.5946C202.152 90.4023 202.229 90.2155 202.241 90.0343L202.679 90.528C202.653 90.6833 202.583 90.8553 202.468 91.0439C202.353 91.2325 202.2 91.4137 202.008 91.5875C201.819 91.7576 201.593 91.8999 201.331 92.0146C201.072 92.1255 200.78 92.181 200.454 92.181C200.048 92.181 199.691 92.1015 199.384 91.9425C199.081 91.7834 198.844 91.5708 198.674 91.3046C198.508 91.0346 198.424 90.7332 198.424 90.4004C198.424 90.0787 198.487 89.7958 198.613 89.5518C198.739 89.304 198.92 89.0988 199.157 88.9361C199.393 88.7696 199.678 88.6439 200.011 88.5589C200.344 88.4738 200.715 88.4313 201.126 88.4313H202.318ZM205.807 87.0113V92.07H204.781V86.0683H205.779L205.807 87.0113ZM207.682 86.035L207.677 86.9891C207.591 86.9706 207.51 86.9595 207.432 86.9558C207.358 86.9484 207.273 86.9447 207.177 86.9447C206.941 86.9447 206.732 86.9817 206.55 87.0557C206.369 87.1296 206.216 87.2332 206.09 87.3663C205.964 87.4994 205.865 87.6584 205.791 87.8433C205.72 88.0245 205.674 88.2242 205.652 88.4424L205.363 88.6088C205.363 88.2464 205.399 87.9062 205.469 87.5882C205.543 87.2701 205.656 86.9891 205.807 86.745C205.959 86.4973 206.151 86.305 206.384 86.1682C206.621 86.0276 206.902 85.9574 207.227 85.9574C207.301 85.9574 207.386 85.9666 207.482 85.9851C207.579 85.9999 207.645 86.0165 207.682 86.035ZM212.125 90.4781C212.125 90.3302 212.092 90.1933 212.025 90.0676C211.962 89.9382 211.831 89.8217 211.631 89.7182C211.435 89.6109 211.14 89.5185 210.744 89.4408C210.411 89.3706 210.11 89.2874 209.84 89.1912C209.574 89.0951 209.346 88.9786 209.158 88.8418C208.973 88.7049 208.83 88.5441 208.73 88.3592C208.631 88.1743 208.581 87.958 208.581 87.7102C208.581 87.4735 208.632 87.2498 208.736 87.039C208.843 86.8282 208.993 86.6415 209.185 86.4788C209.381 86.3161 209.616 86.1885 209.89 86.0961C210.163 86.0036 210.468 85.9574 210.805 85.9574C211.286 85.9574 211.696 86.0424 212.036 86.2125C212.377 86.3826 212.637 86.6101 212.818 86.8948C213 87.1758 213.09 87.4883 213.09 87.8322H212.064C212.064 87.6658 212.014 87.505 211.914 87.3496C211.818 87.1906 211.676 87.0594 211.487 86.9558C211.302 86.8523 211.075 86.8005 210.805 86.8005C210.52 86.8005 210.289 86.8449 210.112 86.9336C209.938 87.0187 209.81 87.1278 209.729 87.2609C209.651 87.394 209.612 87.5345 209.612 87.6825C209.612 87.7934 209.631 87.8932 209.668 87.982C209.709 88.067 209.779 88.1465 209.879 88.2205C209.978 88.2908 210.119 88.3573 210.3 88.4202C210.481 88.4831 210.713 88.5459 210.994 88.6088C211.485 88.7197 211.89 88.8529 212.208 89.0082C212.526 89.1635 212.763 89.3539 212.918 89.5795C213.074 89.8051 213.151 90.0787 213.151 90.4004C213.151 90.663 213.096 90.9033 212.985 91.1215C212.878 91.3397 212.72 91.5283 212.513 91.6873C212.31 91.8426 212.066 91.9646 211.781 92.0534C211.5 92.1384 211.184 92.181 210.833 92.181C210.304 92.181 209.856 92.0867 209.49 91.8981C209.124 91.7095 208.847 91.4654 208.658 91.1659C208.47 90.8664 208.375 90.5502 208.375 90.2174H209.407C209.422 90.4984 209.503 90.7221 209.651 90.8886C209.799 91.0513 209.98 91.1677 210.195 91.238C210.409 91.3046 210.622 91.3379 210.833 91.3379C211.114 91.3379 211.349 91.3009 211.537 91.2269C211.729 91.153 211.875 91.0513 211.975 90.9218C212.075 90.7924 212.125 90.6445 212.125 90.4781ZM216.019 91.005L217.561 86.0683H218.238L218.105 87.0501L216.535 92.07H215.875L216.019 91.005ZM214.982 86.0683L216.296 91.0605L216.391 92.07H215.697L213.956 86.0683H214.982ZM219.713 91.0217L220.967 86.0683H221.987L220.246 92.07H219.558L219.713 91.0217ZM218.388 86.0683L219.896 90.9218L220.068 92.07H219.414L217.8 87.039L217.666 86.0683H218.388ZM225.532 92.181C225.114 92.181 224.735 92.1107 224.395 91.9702C224.058 91.826 223.768 91.6244 223.524 91.3656C223.284 91.1067 223.099 90.7998 222.969 90.4448C222.84 90.0898 222.775 89.7015 222.775 89.28V89.047C222.775 88.5589 222.847 88.1244 222.991 87.7435C223.136 87.3589 223.332 87.0335 223.579 86.7672C223.827 86.501 224.108 86.2994 224.423 86.1626C224.737 86.0258 225.062 85.9574 225.399 85.9574C225.828 85.9574 226.198 86.0313 226.508 86.1793C226.822 86.3272 227.079 86.5343 227.279 86.8005C227.479 87.0631 227.627 87.3737 227.723 87.7324C227.819 88.0874 227.867 88.4757 227.867 88.8972V89.3576H223.385V88.52H226.841V88.4424C226.826 88.1761 226.771 87.9173 226.675 87.6658C226.582 87.4144 226.434 87.2073 226.231 87.0446C226.027 86.8819 225.75 86.8005 225.399 86.8005C225.166 86.8005 224.951 86.8504 224.755 86.9503C224.559 87.0464 224.391 87.1906 224.251 87.3829C224.11 87.5752 224.001 87.81 223.923 88.0874C223.846 88.3647 223.807 88.6846 223.807 89.047V89.28C223.807 89.5647 223.846 89.8328 223.923 90.0843C224.005 90.332 224.121 90.5502 224.273 90.7388C224.428 90.9274 224.615 91.0753 224.833 91.1825C225.055 91.2898 225.306 91.3434 225.587 91.3434C225.95 91.3434 226.257 91.2694 226.508 91.1215C226.76 90.9736 226.98 90.7758 227.168 90.528L227.789 91.0217C227.66 91.2177 227.495 91.4044 227.296 91.5819C227.096 91.7594 226.85 91.9036 226.558 92.0146C226.27 92.1255 225.928 92.181 225.532 92.181ZM229.06 83.55H230.091V90.9052L230.003 92.07H229.06V83.55ZM234.146 89.0193V89.1357C234.146 89.5721 234.094 89.977 233.991 90.3505C233.887 90.7203 233.736 91.042 233.536 91.3157C233.336 91.5893 233.092 91.8019 232.804 91.9536C232.515 92.1052 232.184 92.181 231.811 92.181C231.43 92.181 231.095 92.1163 230.807 91.9868C230.522 91.8537 230.282 91.6633 230.086 91.4155C229.89 91.1677 229.733 90.8682 229.614 90.5169C229.5 90.1656 229.42 89.7699 229.376 89.3299V88.8196C229.42 88.3758 229.5 87.9783 229.614 87.627C229.733 87.2757 229.89 86.9762 230.086 86.7284C230.282 86.4769 230.522 86.2865 230.807 86.1571C231.092 86.0239 231.423 85.9574 231.8 85.9574C232.177 85.9574 232.512 86.0313 232.804 86.1793C233.096 86.3235 233.34 86.5306 233.536 86.8005C233.736 87.0705 233.887 87.394 233.991 87.7712C234.094 88.1447 234.146 88.5607 234.146 89.0193ZM233.114 89.1357V89.0193C233.114 88.7197 233.087 88.4387 233.031 88.1761C232.976 87.9099 232.887 87.6769 232.765 87.4772C232.643 87.2738 232.482 87.1148 232.282 87.0002C232.083 86.8819 231.837 86.8227 231.545 86.8227C231.286 86.8227 231.06 86.8671 230.868 86.9558C230.679 87.0446 230.519 87.1648 230.385 87.3164C230.252 87.4643 230.143 87.6344 230.058 87.8267C229.977 88.0153 229.916 88.2113 229.875 88.4146V89.7514C229.934 90.0103 230.03 90.2599 230.164 90.5003C230.3 90.7369 230.482 90.9311 230.707 91.0827C230.936 91.2343 231.219 91.3101 231.556 91.3101C231.833 91.3101 232.07 91.2546 232.266 91.1437C232.466 91.0291 232.626 90.8719 232.748 90.6722C232.874 90.4725 232.967 90.2414 233.026 89.9789C233.085 89.7163 233.114 89.4353 233.114 89.1357ZM238.939 90.4781C238.939 90.3302 238.905 90.1933 238.839 90.0676C238.776 89.9382 238.645 89.8217 238.445 89.7182C238.249 89.6109 237.953 89.5185 237.558 89.4408C237.225 89.3706 236.923 89.2874 236.653 89.1912C236.387 89.0951 236.16 88.9786 235.971 88.8418C235.786 88.7049 235.644 88.5441 235.544 88.3592C235.444 88.1743 235.394 87.958 235.394 87.7102C235.394 87.4735 235.446 87.2498 235.55 87.039C235.657 86.8282 235.807 86.6415 235.999 86.4788C236.195 86.3161 236.43 86.1885 236.703 86.0961C236.977 86.0036 237.282 85.9574 237.619 85.9574C238.099 85.9574 238.51 86.0424 238.85 86.2125C239.19 86.3826 239.451 86.6101 239.632 86.8948C239.813 87.1758 239.904 87.4883 239.904 87.8322H238.878C238.878 87.6658 238.828 87.505 238.728 87.3496C238.632 87.1906 238.489 87.0594 238.301 86.9558C238.116 86.8523 237.888 86.8005 237.619 86.8005C237.334 86.8005 237.103 86.8449 236.925 86.9336C236.751 87.0187 236.624 87.1278 236.542 87.2609C236.465 87.394 236.426 87.5345 236.426 87.6825C236.426 87.7934 236.444 87.8932 236.481 87.982C236.522 88.067 236.592 88.1465 236.692 88.2205C236.792 88.2908 236.933 88.3573 237.114 88.4202C237.295 88.4831 237.526 88.5459 237.807 88.6088C238.299 88.7197 238.704 88.8529 239.022 89.0082C239.34 89.1635 239.577 89.3539 239.732 89.5795C239.887 89.8051 239.965 90.0787 239.965 90.4004C239.965 90.663 239.909 90.9033 239.798 91.1215C239.691 91.3397 239.534 91.5283 239.327 91.6873C239.124 91.8426 238.88 91.9646 238.595 92.0534C238.314 92.1384 237.998 92.181 237.646 92.181C237.117 92.181 236.67 92.0867 236.304 91.8981C235.938 91.7095 235.661 91.4654 235.472 91.1659C235.283 90.8664 235.189 90.5502 235.189 90.2174H236.221C236.236 90.4984 236.317 90.7221 236.465 90.8886C236.613 91.0513 236.794 91.1677 237.008 91.238C237.223 91.3046 237.436 91.3379 237.646 91.3379C237.927 91.3379 238.162 91.3009 238.351 91.2269C238.543 91.153 238.689 91.0513 238.789 90.9218C238.889 90.7924 238.939 90.6445 238.939 90.4781ZM242.428 86.0683V92.07H241.396V86.0683H242.428ZM241.318 84.4764C241.318 84.31 241.368 84.1694 241.468 84.0548C241.572 83.9402 241.723 83.8829 241.923 83.8829C242.119 83.8829 242.269 83.9402 242.372 84.0548C242.479 84.1694 242.533 84.31 242.533 84.4764C242.533 84.6354 242.479 84.7722 242.372 84.8868C242.269 84.9978 242.119 85.0532 241.923 85.0532C241.723 85.0532 241.572 84.9978 241.468 84.8868C241.368 84.7722 241.318 84.6354 241.318 84.4764ZM246.588 86.0683V86.856H243.343V86.0683H246.588ZM244.441 84.6095H245.467V90.5835C245.467 90.7869 245.499 90.9403 245.562 91.0439C245.625 91.1474 245.706 91.2158 245.806 91.2491C245.906 91.2824 246.013 91.299 246.127 91.299C246.213 91.299 246.301 91.2916 246.394 91.2768C246.49 91.2583 246.562 91.2436 246.61 91.2325L246.616 92.07C246.534 92.0959 246.427 92.12 246.294 92.1421C246.164 92.168 246.007 92.181 245.822 92.181C245.571 92.181 245.34 92.1311 245.129 92.0312C244.918 91.9314 244.75 91.765 244.624 91.532C244.502 91.2953 244.441 90.9773 244.441 90.5779V84.6095ZM250.282 92.181C249.864 92.181 249.485 92.1107 249.145 91.9702C248.808 91.826 248.518 91.6244 248.274 91.3656C248.034 91.1067 247.849 90.7998 247.719 90.4448C247.59 90.0898 247.525 89.7015 247.525 89.28V89.047C247.525 88.5589 247.597 88.1244 247.742 87.7435C247.886 87.3589 248.082 87.0335 248.33 86.7672C248.577 86.501 248.858 86.2994 249.173 86.1626C249.487 86.0258 249.812 85.9574 250.149 85.9574C250.578 85.9574 250.948 86.0313 251.258 86.1793C251.573 86.3272 251.83 86.5343 252.029 86.8005C252.229 87.0631 252.377 87.3737 252.473 87.7324C252.569 88.0874 252.617 88.4757 252.617 88.8972V89.3576H248.135V88.52H251.591V88.4424C251.576 88.1761 251.521 87.9173 251.425 87.6658C251.332 87.4144 251.184 87.2073 250.981 87.0446C250.778 86.8819 250.5 86.8005 250.149 86.8005C249.916 86.8005 249.701 86.8504 249.505 86.9503C249.31 87.0464 249.141 87.1906 249.001 87.3829C248.86 87.5752 248.751 87.81 248.673 88.0874C248.596 88.3647 248.557 88.6846 248.557 89.047V89.28C248.557 89.5647 248.596 89.8328 248.673 90.0843C248.755 90.332 248.871 90.5502 249.023 90.7388C249.178 90.9274 249.365 91.0753 249.583 91.1825C249.805 91.2898 250.056 91.3434 250.338 91.3434C250.7 91.3434 251.007 91.2694 251.258 91.1215C251.51 90.9736 251.73 90.7758 251.918 90.528L252.54 91.0217C252.41 91.2177 252.246 91.4044 252.046 91.5819C251.846 91.7594 251.6 91.9036 251.308 92.0146C251.02 92.1255 250.678 92.181 250.282 92.181ZM253.832 91.5264C253.832 91.3526 253.886 91.2066 253.993 91.0882C254.104 90.9662 254.263 90.9052 254.47 90.9052C254.677 90.9052 254.834 90.9662 254.941 91.0882C255.052 91.2066 255.108 91.3526 255.108 91.5264C255.108 91.6965 255.052 91.8408 254.941 91.9591C254.834 92.0774 254.677 92.1366 254.47 92.1366C254.263 92.1366 254.104 92.0774 253.993 91.9591C253.886 91.8408 253.832 91.6965 253.832 91.5264ZM259.213 91.3379C259.457 91.3379 259.682 91.2879 259.889 91.1881C260.096 91.0882 260.266 90.9514 260.4 90.7776C260.533 90.6001 260.608 90.3986 260.627 90.173H261.603C261.585 90.528 261.465 90.859 261.243 91.1659C261.025 91.4691 260.738 91.715 260.383 91.9036C260.028 92.0885 259.638 92.181 259.213 92.181C258.761 92.181 258.368 92.1015 258.031 91.9425C257.698 91.7834 257.421 91.5653 257.199 91.2879C256.981 91.0106 256.816 90.6926 256.705 90.3339C256.598 89.9715 256.544 89.5887 256.544 89.1857V88.9527C256.544 88.5496 256.598 88.1687 256.705 87.81C256.816 87.4476 256.981 87.1278 257.199 86.8504C257.421 86.5731 257.698 86.3549 258.031 86.1959C258.368 86.0369 258.761 85.9574 259.213 85.9574C259.682 85.9574 260.093 86.0535 260.444 86.2458C260.795 86.4344 261.071 86.6933 261.27 87.0224C261.474 87.3478 261.585 87.7176 261.603 88.1318H260.627C260.608 87.884 260.538 87.6603 260.416 87.4606C260.298 87.2609 260.135 87.1019 259.928 86.9836C259.725 86.8615 259.486 86.8005 259.213 86.8005C258.898 86.8005 258.634 86.8634 258.419 86.9891C258.209 87.1111 258.04 87.2775 257.915 87.4883C257.793 87.6954 257.704 87.9265 257.648 88.1817C257.597 88.4331 257.571 88.6901 257.571 88.9527V89.1857C257.571 89.4482 257.597 89.7071 257.648 89.9622C257.7 90.2174 257.787 90.4485 257.909 90.6556C258.035 90.8627 258.203 91.0291 258.414 91.1548C258.628 91.2768 258.895 91.3379 259.213 91.3379ZM262.485 89.1357V89.0082C262.485 88.5755 262.548 88.1743 262.674 87.8045C262.8 87.431 262.981 87.1074 263.217 86.8338C263.454 86.5564 263.741 86.342 264.077 86.1904C264.414 86.035 264.791 85.9574 265.209 85.9574C265.63 85.9574 266.009 86.035 266.346 86.1904C266.686 86.342 266.974 86.5564 267.211 86.8338C267.451 87.1074 267.635 87.431 267.76 87.8045C267.886 88.1743 267.949 88.5755 267.949 89.0082V89.1357C267.949 89.5684 267.886 89.9696 267.76 90.3394C267.635 90.7092 267.451 91.0328 267.211 91.3101C266.974 91.5838 266.688 91.7982 266.351 91.9536C266.019 92.1052 265.641 92.181 265.22 92.181C264.798 92.181 264.419 92.1052 264.083 91.9536C263.746 91.7982 263.458 91.5838 263.217 91.3101C262.981 91.0328 262.8 90.7092 262.674 90.3394C262.548 89.9696 262.485 89.5684 262.485 89.1357ZM263.511 89.0082V89.1357C263.511 89.4353 263.546 89.7182 263.617 89.9844C263.687 90.247 263.792 90.4799 263.933 90.6833C264.077 90.8867 264.256 91.0476 264.471 91.1659C264.685 91.2805 264.935 91.3379 265.22 91.3379C265.501 91.3379 265.747 91.2805 265.958 91.1659C266.172 91.0476 266.35 90.8867 266.49 90.6833C266.631 90.4799 266.736 90.247 266.806 89.9844C266.88 89.7182 266.917 89.4353 266.917 89.1357V89.0082C266.917 88.7123 266.88 88.4331 266.806 88.1706C266.736 87.9043 266.629 87.6695 266.484 87.4661C266.344 87.259 266.166 87.0963 265.952 86.978C265.741 86.8597 265.493 86.8005 265.209 86.8005C264.928 86.8005 264.68 86.8597 264.465 86.978C264.255 87.0963 264.077 87.259 263.933 87.4661C263.792 87.6695 263.687 87.9043 263.617 88.1706C263.546 88.4331 263.511 88.7123 263.511 89.0082ZM270.256 87.2609V92.07H269.225V86.0683H270.201L270.256 87.2609ZM270.046 88.8418L269.569 88.8251C269.572 88.4146 269.626 88.0356 269.729 87.688C269.833 87.3367 269.986 87.0316 270.19 86.7728C270.393 86.5139 270.646 86.3142 270.95 86.1737C271.253 86.0295 271.604 85.9574 272.004 85.9574C272.285 85.9574 272.544 85.9981 272.78 86.0794C273.017 86.1571 273.222 86.2809 273.396 86.4511C273.57 86.6212 273.705 86.8393 273.801 87.1056C273.897 87.3718 273.945 87.6936 273.945 88.0707V92.07H272.919V88.1207C272.919 87.8063 272.865 87.5549 272.758 87.3663C272.654 87.1777 272.507 87.0409 272.314 86.9558C272.122 86.8671 271.896 86.8227 271.638 86.8227C271.334 86.8227 271.081 86.8763 270.878 86.9836C270.674 87.0908 270.512 87.2387 270.389 87.4273C270.267 87.6159 270.179 87.8322 270.123 88.0763C270.071 88.3167 270.046 88.5718 270.046 88.8418ZM273.934 88.276L273.246 88.4868C273.25 88.1576 273.303 87.8415 273.407 87.5382C273.514 87.235 273.668 86.9651 273.867 86.7284C274.071 86.4917 274.32 86.305 274.616 86.1682C274.912 86.0276 275.25 85.9574 275.631 85.9574C275.953 85.9574 276.238 85.9999 276.486 86.085C276.737 86.17 276.948 86.3013 277.118 86.4788C277.292 86.6526 277.423 86.8763 277.512 87.15C277.6 87.4236 277.645 87.749 277.645 88.1262V92.07H276.613V88.1151C276.613 87.7786 276.559 87.5179 276.452 87.333C276.349 87.1444 276.201 87.0131 276.008 86.9392C275.82 86.8615 275.594 86.8227 275.332 86.8227C275.106 86.8227 274.906 86.8615 274.733 86.9392C274.559 87.0168 274.413 87.1241 274.294 87.2609C274.176 87.394 274.086 87.5475 274.023 87.7213C273.964 87.8951 273.934 88.08 273.934 88.276Z" fill="#606367"/>
</g>
<path d="M37.0963 36.085C37.0963 35.8009 37.0517 35.5503 36.9626 35.333C36.8791 35.1102 36.7287 34.9096 36.5114 34.7314C36.2997 34.5531 36.0045 34.3832 35.6257 34.2217C35.2524 34.0601 34.7789 33.8958 34.2052 33.7287C33.6036 33.5504 33.0604 33.3527 32.5758 33.1354C32.0911 32.9126 31.6761 32.6591 31.3308 32.375C30.9854 32.0909 30.7208 31.7651 30.537 31.3974C30.3531 31.0297 30.2612 30.6092 30.2612 30.1357C30.2612 29.6622 30.3587 29.2249 30.5537 28.8238C30.7486 28.4227 31.0272 28.0745 31.3893 27.7793C31.7569 27.4785 32.1942 27.2445 32.7011 27.0774C33.208 26.9103 33.7735 26.8267 34.3974 26.8267C35.3109 26.8267 36.0853 27.0022 36.7203 27.3532C37.3609 27.6985 37.8483 28.1525 38.1826 28.7152C38.5168 29.2722 38.6839 29.8683 38.6839 30.5033H37.0796C37.0796 30.0465 36.9821 29.6427 36.7871 29.2917C36.5922 28.9352 36.2969 28.6567 35.9014 28.4561C35.5059 28.25 35.0046 28.147 34.3974 28.147C33.8236 28.147 33.3501 28.2333 32.9769 28.406C32.6036 28.5787 32.3251 28.8126 32.1413 29.1079C31.963 29.4031 31.8739 29.7401 31.8739 30.1189C31.8739 30.3752 31.9268 30.6092 32.0327 30.8208C32.1441 31.027 32.314 31.2191 32.5424 31.3974C32.7763 31.5757 33.0716 31.74 33.4281 31.8904C33.7902 32.0408 34.2219 32.1856 34.7232 32.3249C35.414 32.5199 36.01 32.7371 36.5114 32.9767C37.0128 33.2162 37.425 33.4864 37.7481 33.7872C38.0767 34.0824 38.3191 34.4194 38.475 34.7982C38.6366 35.1715 38.7174 35.5948 38.7174 36.0683C38.7174 36.5641 38.6171 37.0125 38.4165 37.4136C38.216 37.8147 37.9291 38.1573 37.5559 38.4414C37.1827 38.7255 36.7342 38.9455 36.2106 39.1015C35.6925 39.2519 35.1132 39.3271 34.4726 39.3271C33.9099 39.3271 33.3557 39.2491 32.8097 39.0932C32.2694 38.9372 31.7764 38.7032 31.3308 38.3913C30.8907 38.0793 30.537 37.6949 30.2696 37.2382C30.0077 36.7758 29.8768 36.241 29.8768 35.6338H31.4812C31.4812 36.0516 31.5619 36.4109 31.7235 36.7117C31.885 37.007 32.1051 37.2521 32.3836 37.447C32.6677 37.642 32.988 37.7869 33.3445 37.8816C33.7066 37.9707 34.0826 38.0152 34.4726 38.0152C35.0352 38.0152 35.5115 37.9373 35.9014 37.7813C36.2914 37.6253 36.5866 37.4025 36.7871 37.1128C36.9933 36.8231 37.0963 36.4806 37.0963 36.085ZM47.7333 26.9939H49.3377V35.2244C49.3377 36.138 49.1343 36.8983 48.7277 37.5055C48.321 38.1127 47.7807 38.5695 47.1066 38.8759C46.4382 39.1767 45.7112 39.3271 44.9258 39.3271C44.1013 39.3271 43.3549 39.1767 42.6864 38.8759C42.0235 38.5695 41.4971 38.1127 41.1071 37.5055C40.7228 36.8983 40.5306 36.138 40.5306 35.2244V26.9939H42.1265V35.2244C42.1265 35.8594 42.2435 36.3831 42.4775 36.7953C42.7115 37.2075 43.0373 37.5139 43.4551 37.7144C43.8785 37.915 44.3687 38.0152 44.9258 38.0152C45.4884 38.0152 45.9786 37.915 46.3964 37.7144C46.8198 37.5139 47.1484 37.2075 47.3824 36.7953C47.6164 36.3831 47.7333 35.8594 47.7333 35.2244V26.9939ZM55.7968 37.3134L59.3814 26.9939H61.1278L56.624 39.16H55.379L55.7968 37.3134ZM52.446 26.9939L55.9973 37.3134L56.4402 39.16H55.1951L50.6997 26.9939H52.446ZM74.5808 37.8899V39.16H66.6176V38.0487L70.6034 33.6117C71.0936 33.0658 71.4724 32.6034 71.7398 32.2246C72.0127 31.8403 72.2021 31.4977 72.308 31.1969C72.4194 30.8905 72.4751 30.5785 72.4751 30.261C72.4751 29.8599 72.3915 29.4978 72.2244 29.1747C72.0629 28.8461 71.8233 28.5843 71.5058 28.3893C71.1883 28.1943 70.8039 28.0968 70.3527 28.0968C69.8123 28.0968 69.3611 28.2027 68.999 28.4144C68.6425 28.6205 68.3751 28.9101 68.1969 29.2834C68.0186 29.6566 67.9295 30.0855 67.9295 30.5702H66.3836C66.3836 29.885 66.5341 29.2583 66.8349 28.6901C67.1357 28.1219 67.5813 27.6707 68.1718 27.3364C68.7623 26.9966 69.4892 26.8267 70.3527 26.8267C71.1214 26.8267 71.7788 26.9632 72.3247 27.2362C72.8706 27.5036 73.2884 27.8824 73.5781 28.3726C73.8733 28.8572 74.0209 29.4254 74.0209 30.0772C74.0209 30.4337 73.9596 30.7958 73.8371 31.1634C73.7201 31.5255 73.5558 31.8876 73.3441 32.2497C73.138 32.6118 72.8957 32.9683 72.6171 33.3192C72.3442 33.6702 72.0517 34.0156 71.7398 34.3554L68.481 37.8899H74.5808ZM83.8725 32.1076V33.9627C83.8725 34.9598 83.7834 35.8009 83.6051 36.4861C83.4268 37.1713 83.1706 37.7228 82.8364 38.1406C82.5021 38.5584 82.0983 38.862 81.6248 39.0514C81.1568 39.2352 80.6276 39.3271 80.0371 39.3271C79.5692 39.3271 79.1375 39.2686 78.742 39.1516C78.3465 39.0347 77.99 38.8481 77.6724 38.5918C77.3605 38.33 77.0931 37.9902 76.8703 37.5724C76.6474 37.1546 76.4775 36.6477 76.3606 36.0516C76.2436 35.4556 76.1851 34.7592 76.1851 33.9627V32.1076C76.1851 31.1105 76.2742 30.2749 76.4525 29.6009C76.6363 28.9268 76.8953 28.3865 77.2296 27.9798C77.5638 27.5676 77.9649 27.2724 78.4328 27.0941C78.9063 26.9159 79.4355 26.8267 80.0204 26.8267C80.4939 26.8267 80.9284 26.8852 81.3239 27.0022C81.725 27.1136 82.0815 27.2947 82.3935 27.5453C82.7055 27.7904 82.9701 28.1191 83.1873 28.5313C83.4101 28.938 83.58 29.4366 83.697 30.027C83.814 30.6175 83.8725 31.3111 83.8725 32.1076ZM82.3183 34.2133V31.8486C82.3183 31.3027 82.2849 30.8236 82.218 30.4114C82.1567 29.9936 82.0648 29.6371 81.9423 29.3419C81.8197 29.0466 81.6638 28.8071 81.4744 28.6232C81.2905 28.4394 81.0761 28.3057 80.8309 28.2222C80.5914 28.133 80.3212 28.0885 80.0204 28.0885C79.6528 28.0885 79.3269 28.1581 79.0428 28.2974C78.7587 28.4311 78.5192 28.6455 78.3242 28.9408C78.1348 29.236 77.99 29.6232 77.8897 30.1022C77.7894 30.5813 77.7393 31.1634 77.7393 31.8486V34.2133C77.7393 34.7592 77.7699 35.2411 77.8312 35.6589C77.898 36.0767 77.9955 36.4388 78.1236 36.7452C78.2518 37.046 78.4077 37.2939 78.5916 37.4888C78.7754 37.6838 78.9871 37.8286 79.2266 37.9233C79.4717 38.0125 79.7419 38.057 80.0371 38.057C80.4159 38.057 80.7474 37.9846 81.0315 37.8398C81.3156 37.6949 81.5523 37.4693 81.7417 37.163C81.9367 36.851 82.0815 36.4527 82.1762 35.9681C82.2709 35.4778 82.3183 34.8929 82.3183 34.2133ZM93.8327 37.8899V39.16H85.8695V38.0487L89.8553 33.6117C90.3455 33.0658 90.7243 32.6034 90.9917 32.2246C91.2646 31.8403 91.454 31.4977 91.5599 31.1969C91.6713 30.8905 91.727 30.5785 91.727 30.261C91.727 29.8599 91.6434 29.4978 91.4763 29.1747C91.3148 28.8461 91.0752 28.5843 90.7577 28.3893C90.4402 28.1943 90.0558 28.0968 89.6046 28.0968C89.0643 28.0968 88.6131 28.2027 88.251 28.4144C87.8944 28.6205 87.6271 28.9101 87.4488 29.2834C87.2705 29.6566 87.1814 30.0855 87.1814 30.5702H85.6356C85.6356 29.885 85.786 29.2583 86.0868 28.6901C86.3876 28.1219 86.8333 27.6707 87.4237 27.3364C88.0142 26.9966 88.7412 26.8267 89.6046 26.8267C90.3734 26.8267 91.0307 26.9632 91.5766 27.2362C92.1225 27.5036 92.5403 27.8824 92.83 28.3726C93.1252 28.8572 93.2728 29.4254 93.2728 30.0772C93.2728 30.4337 93.2116 30.7958 93.089 31.1634C92.972 31.5255 92.8077 31.8876 92.596 32.2497C92.3899 32.6118 92.1476 32.9683 91.8691 33.3192C91.5961 33.6702 91.3036 34.0156 90.9917 34.3554L87.7329 37.8899H93.8327ZM97.4424 33.3694L96.2058 33.0519L96.8157 26.9939H103.058V28.4227H98.1276L97.7599 31.7316C97.9828 31.6035 98.2641 31.4837 98.6039 31.3723C98.9493 31.2609 99.3448 31.2052 99.7904 31.2052C100.353 31.2052 100.857 31.3027 101.303 31.4977C101.748 31.6871 102.127 31.96 102.439 32.3165C102.757 32.6731 102.999 33.102 103.166 33.6033C103.333 34.1047 103.417 34.6645 103.417 35.2829C103.417 35.8678 103.336 36.4054 103.175 36.8956C103.019 37.3858 102.782 37.8147 102.464 38.1824C102.147 38.5445 101.746 38.8258 101.261 39.0263C100.782 39.2269 100.217 39.3271 99.5648 39.3271C99.0746 39.3271 98.6095 39.2603 98.1694 39.1266C97.7349 38.9873 97.3449 38.7784 96.9996 38.4999C96.6598 38.2158 96.3812 37.8648 96.164 37.447C95.9523 37.0237 95.8186 36.5279 95.7629 35.9597H97.2335C97.3004 36.4165 97.4341 36.8009 97.6346 37.1128C97.8352 37.4248 98.097 37.6615 98.4201 37.8231C98.7487 37.979 99.1303 38.057 99.5648 38.057C99.9325 38.057 100.258 37.993 100.542 37.8648C100.827 37.7367 101.066 37.5529 101.261 37.3134C101.456 37.0738 101.604 36.7842 101.704 36.4443C101.81 36.1045 101.863 35.723 101.863 35.2996C101.863 34.9152 101.81 34.5587 101.704 34.23C101.598 33.9014 101.439 33.6145 101.228 33.3694C101.022 33.1243 100.768 32.9349 100.467 32.8012C100.166 32.6619 99.8211 32.5923 99.4311 32.5923C98.9131 32.5923 98.5203 32.6619 98.2529 32.8012C97.9911 32.9404 97.721 33.1298 97.4424 33.3694Z" fill="#707276"/>
<path d="M232.294 123.156C232.294 121.608 231.001 120.28 229.42 120.279C227.881 120.278 226.624 121.46 226.545 122.947C226.544 122.946 226.542 122.945 226.541 122.944V119.692C226.541 118.136 225.253 116.875 223.664 116.875C222.075 116.875 220.788 118.136 220.788 119.692V116.288C220.788 114.732 219.5 113.471 217.911 113.471C216.322 113.471 215.034 114.732 215.034 116.288V107.045C215.034 105.489 213.746 104.228 212.157 104.228C210.569 104.228 209.281 105.489 209.281 107.045V126.196L205.858 122.844C204.9 121.906 203.383 121.798 202.297 122.593C201.158 123.425 200.862 124.973 201.616 126.151C202.354 127.304 203.292 128.894 204.15 130.386C205.388 132.536 206.381 134.811 207.1 137.176C208.179 140.725 211.242 146.773 219.621 147.167C226.631 147.497 232.294 141.458 232.294 134.56C232.294 134.489 232.294 123.156 232.294 123.156Z" fill="#FBD7B8"/>
<path d="M212.067 100.597C211.44 100.597 210.932 100.099 210.932 99.485V96.2715C210.932 95.6578 211.44 95.16 212.067 95.16C212.693 95.16 213.201 95.6578 213.201 96.2715V99.485C213.201 100.099 212.693 100.597 212.067 100.597Z" fill="#2365E3"/>
<path d="M207.225 104.1C207.013 104.1 206.799 104.042 206.608 103.921L203.508 101.95C202.982 101.616 202.833 100.928 203.174 100.413C203.515 99.898 204.218 99.7513 204.744 100.086L207.843 102.056C208.769 102.644 208.331 104.1 207.225 104.1Z" fill="#2365E3"/>
<path d="M216.909 104.1C215.802 104.1 215.365 102.644 216.29 102.056L219.39 100.085C219.916 99.7514 220.618 99.8978 220.959 100.413C221.3 100.928 221.151 101.616 220.625 101.95L217.525 103.921C217.334 104.042 217.12 104.1 216.909 104.1Z" fill="#2365E3"/>
<path d="M205.739 109.302H202.42C201.794 109.302 201.285 108.804 201.285 108.19C201.285 107.577 201.794 107.079 202.42 107.079H205.739C206.365 107.079 206.874 107.577 206.874 108.19C206.874 108.804 206.365 109.302 205.739 109.302Z" fill="#2365E3"/>
<path d="M221.713 109.302H218.394C217.768 109.302 217.26 108.804 217.26 108.19C217.26 107.577 217.768 107.079 218.394 107.079H221.713C222.34 107.079 222.848 107.577 222.848 108.19C222.848 108.804 222.34 109.302 221.713 109.302Z" fill="#2365E3"/>
</g>
<path d="M20.4002 8.66H302C307.357 8.66 311.7 13.003 311.7 18.3602V215.96C311.7 221.317 307.357 225.66 302 225.66H20.4002C15.043 225.66 10.7 221.317 10.7 215.96V18.3602C10.7 13.003 15.043 8.66 20.4002 8.66Z" stroke="url(#paint4_linear_619_8474)" stroke-opacity="0.1" shape-rendering="crispEdges"/>
</g>
<defs>
<filter id="filter0_d_619_8474" x="1.33514e-05" y="4.52995e-06" width="322.4" height="238.4" filterUnits="userSpaceOnUse" color-interpolation-filters="sRGB">
<feFlood flood-opacity="0" result="BackgroundImageFix"/>
<feColorMatrix in="SourceAlpha" type="matrix" values="0 0 0 0 0 0 0 0 0 0 0 0 0 0 0 0 0 0 127 0" result="hardAlpha"/>
<feOffset dy="2.04"/>
<feGaussianBlur stdDeviation="5.1"/>
<feComposite in2="hardAlpha" operator="out"/>
<feColorMatrix type="matrix" values="0 0 0 0 0 0 0 0 0 0 0 0 0 0 0 0 0 0 0.08 0"/>
<feBlend mode="normal" in2="BackgroundImageFix" result="effect1_dropShadow_619_8474"/>
<feBlend mode="normal" in="SourceGraphic" in2="effect1_dropShadow_619_8474" result="shape"/>
</filter>
<filter id="filter1_d_619_8474" x="-1.29275" y="47.5404" width="322.986" height="88.6855" filterUnits="userSpaceOnUse" color-interpolation-filters="sRGB">
<feFlood flood-opacity="0" result="BackgroundImageFix"/>
<feColorMatrix in="SourceAlpha" type="matrix" values="0 0 0 0 0 0 0 0 0 0 0 0 0 0 0 0 0 0 127 0" result="hardAlpha"/>
<feOffset dy="4.87319"/>
<feGaussianBlur stdDeviation="9.74638"/>
<feComposite in2="hardAlpha" operator="out"/>
<feColorMatrix type="matrix" values="0 0 0 0 0 0 0 0 0 0 0 0 0 0 0 0 0 0 0.12 0"/>
<feBlend mode="normal" in2="BackgroundImageFix" result="effect1_dropShadow_619_8474"/>
<feBlend mode="normal" in="SourceGraphic" in2="effect1_dropShadow_619_8474" result="shape"/>
</filter>
<linearGradient id="paint0_linear_619_8474" x1="10.2" y1="15.16" x2="312.2" y2="226.16" gradientUnits="userSpaceOnUse">
<stop stop-color="white" stop-opacity="0.2"/>
<stop offset="1" stop-color="white" stop-opacity="0.1"/>
</linearGradient>
<radialGradient id="paint1_radial_619_8474" cx="0" cy="0" r="1" gradientUnits="userSpaceOnUse" gradientTransform="translate(55.5675 92.4357) rotate(51.0107) scale(6.65119 6.65119)">
<stop stop-color="#256CF1"/>
<stop offset="1" stop-color="#11357C"/>
</radialGradient>
<radialGradient id="paint2_radial_619_8474" cx="0" cy="0" r="1" gradientTransform="matrix(7.25359 2.75719 8.96086 -2.23188 48.8163 79.9419)" gradientUnits="userSpaceOnUse">
<stop stop-color="#256CF1"/>
<stop offset="1" stop-color="#11357C"/>
</radialGradient>
<radialGradient id="paint3_radial_619_8474" cx="0" cy="0" r="1" gradientTransform="matrix(7.25359 6.54833 8.96086 -5.30071 48.8163 88.8812)" gradientUnits="userSpaceOnUse">
<stop stop-color="#256CF1"/>
<stop offset="1" stop-color="#11357C"/>
</radialGradient>
<linearGradient id="paint4_linear_619_8474" x1="13.7" y1="7.16" x2="312.2" y2="226.16" gradientUnits="userSpaceOnUse">
<stop stop-color="#ABAEB4"/>
<stop offset="0.282508" stop-color="#203143"/>
<stop offset="0.502029" stop-color="#071728"/>
<stop offset="0.792663" stop-color="#203143"/>
<stop offset="1" stop-color="#ABAEB4"/>
</linearGradient>
<clipPath id="clip0_619_8474">
<path d="M10.2 18.36C10.2 12.7267 14.7667 8.16 20.4 8.16H302C307.633 8.16 312.2 12.7267 312.2 18.36V215.96C312.2 221.593 307.633 226.16 302 226.16H20.4C14.7667 226.16 10.2 221.593 10.2 215.96V18.36Z" fill="white"/>
</clipPath>
<clipPath id="clip1_619_8474">
<rect width="345" height="52" fill="white" transform="translate(-32.8 5.56332)"/>
</clipPath>
<clipPath id="clip2_619_8474">
<rect width="22.72" height="22.72" fill="white" transform="translate(39.5 75.65)"/>
</clipPath>
</defs>
</svg>
