<svg width="36" height="36" viewBox="0 0 36 36" fill="none" xmlns="http://www.w3.org/2000/svg">
<path d="M31.0959 19.4958C28.0539 16.452 23.1008 16.4508 20.0565 19.4958C18.5818 20.9702 17.7702 22.9309 17.7702 25.017C17.7702 27.1024 18.5818 29.0631 20.0565 30.5375C21.5306 32.0125 23.4909 32.8242 25.5759 32.8242C27.2496 32.8242 28.8378 32.2935 30.1637 31.3247L32.3586 33.5202C32.5961 33.7577 32.9072 33.8764 33.2183 33.8764C33.5294 33.8764 33.8405 33.7577 34.0779 33.5202C34.5529 33.0451 34.5529 32.3286 34.0779 31.8536L31.8817 29.6038C34.1026 26.5524 33.8465 22.247 31.0959 19.4958ZM29.3856 28.807C29.382 28.8104 29.3771 28.8114 29.3736 28.8149C29.3701 28.8184 29.3692 28.8233 29.3657 28.8268C28.3516 29.8359 27.0072 30.392 25.5759 30.392C24.1404 30.392 22.7909 29.8333 21.7757 28.8179C20.7606 27.8025 20.2019 26.4528 20.2019 25.017C20.2019 23.5806 20.7606 22.2309 21.7757 21.2155C22.7909 20.2001 24.1404 19.6413 25.5759 19.6413C27.012 19.6413 28.3614 20.2001 29.3766 21.2155C30.3918 22.2309 30.9504 23.5806 30.9504 25.017C30.9504 26.448 30.3945 27.7927 29.3856 28.807Z" fill="url(#paint0_radial_698_83)"/>
<path d="M29.9905 8.49948C29.9905 4.71602 27.6852 1.65957 24.8315 1.65957H6.26545C3.42294 1.65957 1.10638 4.71602 1.10638 8.49948V10.547H29.9905V8.49948ZM6.78026 7.47571H5.25829C4.68754 7.47571 4.21753 6.85258 4.21753 6.09587C4.21753 5.35401 4.68754 4.73078 5.25829 4.73078H6.78026C7.35102 4.73078 7.80982 5.35401 7.80982 6.09587C7.80982 6.85258 7.35102 7.47571 6.78026 7.47571ZM11.4022 7.47571H9.88021C9.30945 7.47571 8.83938 6.85258 8.83938 6.09587C8.83938 5.35401 9.30945 4.73078 9.88021 4.73078H11.4022C11.9729 4.73078 12.4317 5.35401 12.4317 6.09587C12.4317 6.85258 11.9729 7.47571 11.4022 7.47571Z" fill="url(#paint1_radial_698_83)"/>
<path d="M6.26545 30.5438H17.4006C14.5916 26.6814 14.9573 21.3017 18.3258 17.7681C21.7332 14.5965 26.3534 13.8267 29.9905 16.2803V9.43611H1.10638V25.1318C1.10638 28.1254 3.42294 30.5438 6.26545 30.5438Z" fill="url(#paint2_radial_698_83)"/>
<defs>
<radialGradient id="paint0_radial_698_83" cx="0" cy="0" r="1" gradientUnits="userSpaceOnUse" gradientTransform="translate(26.1462 25.6035) rotate(51.0107) scale(10.3645 10.3645)">
<stop stop-color="#256CF1"/>
<stop offset="1" stop-color="#11357C"/>
</radialGradient>
<radialGradient id="paint1_radial_698_83" cx="0" cy="0" r="1" gradientTransform="matrix(11.3032 4.29649 13.9636 -3.4779 15.6248 6.13478)" gradientUnits="userSpaceOnUse">
<stop stop-color="#256CF1"/>
<stop offset="1" stop-color="#11357C"/>
</radialGradient>
<radialGradient id="paint2_radial_698_83" cx="0" cy="0" r="1" gradientTransform="matrix(11.3032 10.2042 13.9636 -8.26002 15.6248 20.0647)" gradientUnits="userSpaceOnUse">
<stop stop-color="#256CF1"/>
<stop offset="1" stop-color="#11357C"/>
</radialGradient>
</defs>
</svg>
