<svg width="121" height="136" viewBox="0 0 121 136" fill="none" xmlns="http://www.w3.org/2000/svg">
<g clip-path="url(#clip0_4_885)">
<path d="M7.84064 -0.000141273C7.84064 -0.000141273 -4.71091 -0.613207 1.9476 37.6464C1.9476 37.6464 6.42769 50.6335 0.772757 59.0044H84.0178V-0.000141273H7.84064Z" fill="#AFCDFB"/>
<path d="M100.03 22.6469H13.1196V136H100.03V22.6469Z" fill="#9ABCEF"/>
<path d="M101.411 22.6469H15.9611V136H101.411V22.6469Z" fill="white"/>
<path d="M101.412 22.6447H101.411L15.9611 22.6458C16.4342 16.183 15.722 11.4905 14.5806 8.11605C12.3886 1.62822 8.61234 0 8.61234 0H89.1996C96.0775 0 101.411 4.14419 102.862 9.64506C102.917 9.85185 102.967 10.0576 103.011 10.2644C104.389 16.558 101.468 22.5309 101.412 22.6458V22.6447Z" fill="white"/>
<path d="M101.412 22.6448H101.411L15.9612 22.6458C16.4342 16.1831 15.722 11.4906 14.5806 8.11609C23.3131 9.71507 44.9418 13.123 68.0921 12.5485C83.0685 12.1767 94.9037 11.1751 103.012 10.2623C104.39 16.5559 101.469 22.5288 101.413 22.6437L101.412 22.6448Z" fill="white"/>
<path d="M79.6484 46.6587H32.714C32.6938 46.6587 32.6774 46.6751 32.6774 46.6952V48.7475C32.6774 48.7677 32.6938 48.7841 32.714 48.7841H79.6484C79.6686 48.7841 79.6849 48.7677 79.6849 48.7475V46.6952C79.6849 46.6751 79.6686 46.6587 79.6484 46.6587Z" fill="#BBD5FC"/>
<path d="M61.9306 50.2347H32.714C32.6938 50.2347 32.6774 50.2511 32.6774 50.2713V52.3235C32.6774 52.3437 32.6938 52.3601 32.714 52.3601H61.9306C61.9508 52.3601 61.9672 52.3437 61.9672 52.3235V50.2713C61.9672 50.2511 61.9508 50.2347 61.9306 50.2347Z" fill="#BBD5FC"/>
<path d="M28.3133 52.0164V47.6738H27.7399C27.3922 47.6738 27.2188 47.5297 27.2188 47.2393C27.2188 47.0304 27.3546 46.8832 27.6272 46.7965C27.766 46.7505 27.9874 46.715 28.2913 46.6921C28.5952 46.6691 28.8396 46.6576 29.0255 46.6576C29.2114 46.6576 29.3179 46.6941 29.3638 46.7662C29.4098 46.8383 29.4338 47.0221 29.4338 47.3177V52.0154H30.0238C30.4061 52.0154 30.5972 52.1804 30.5972 52.5104C30.5972 52.8582 30.4061 53.0316 30.0238 53.0316H27.6439C27.4757 53.0316 27.3358 52.9867 27.223 52.8969C27.1102 52.807 27.0538 52.6807 27.0538 52.5188C27.0538 52.1835 27.2481 52.0154 27.6355 52.0154H28.3133V52.0164Z" fill="#BBD5FC"/>
<path d="M79.6484 69.0454H32.714C32.6938 69.0454 32.6774 69.0618 32.6774 69.082V71.1342C32.6774 71.1544 32.6938 71.1708 32.714 71.1708H79.6484C79.6686 71.1708 79.6849 71.1544 79.6849 71.1342V69.082C79.6849 69.0618 79.6686 69.0454 79.6484 69.0454Z" fill="#D2E4FD"/>
<path d="M61.9306 72.6226H32.714C32.6938 72.6226 32.6774 72.6389 32.6774 72.6591V74.7114C32.6774 74.7316 32.6938 74.7479 32.714 74.7479H61.9306C61.9508 74.7479 61.9672 74.7316 61.9672 74.7114V72.6591C61.9672 72.6389 61.9508 72.6226 61.9306 72.6226Z" fill="#D2E4FD"/>
<path d="M30.6859 74.3145C30.6859 74.6038 30.4833 74.7479 30.0792 74.7479H27.5624C27.199 74.7479 27.0173 74.6017 27.0173 74.3103C27.0173 74.2184 27.0664 74.1108 27.1635 73.9876C27.3065 73.8236 27.5165 73.5782 27.7922 73.2513C28.212 72.7239 28.5618 72.2685 28.8438 71.8852C28.9409 71.7578 29.0787 71.5625 29.2584 71.3014C29.4067 71.0403 29.4808 70.821 29.4808 70.6413C29.4808 70.4418 29.4171 70.2768 29.2887 70.1463C29.1612 70.0157 28.9973 69.951 28.7978 69.951C28.5984 69.951 28.4344 70.0126 28.2913 70.1348C28.1942 70.2163 28.1169 70.3698 28.0616 70.5954C27.9895 70.8868 27.9436 71.0559 27.9237 71.1019C27.8475 71.2659 27.7222 71.3473 27.5478 71.3473C27.3943 71.3473 27.2742 71.2909 27.1875 71.1781C27.106 71.081 27.0643 70.9526 27.0643 70.7948C27.0643 70.6163 27.0925 70.4335 27.1489 70.2497C27.2721 69.8559 27.4893 69.5541 27.8016 69.3442C28.0981 69.1447 28.4584 69.0444 28.8835 69.0444C29.3492 69.0444 29.7377 69.1854 30.05 69.4674C30.3726 69.7651 30.5335 70.1442 30.5335 70.6048C30.5335 70.9484 30.4186 71.3014 30.1878 71.6659C30.0604 71.8654 29.7962 72.2194 29.3973 72.727C29.1926 72.9881 28.8699 73.3672 28.4302 73.8643H30.0875C30.4865 73.8643 30.6859 74.0137 30.6859 74.3134V74.3145Z" fill="#D2E4FD"/>
<path d="M79.6484 87.7205H32.714C32.6938 87.7205 32.6774 87.7368 32.6774 87.757V89.8093C32.6774 89.8295 32.6938 89.8458 32.714 89.8458H79.6484C79.6686 89.8458 79.6849 89.8295 79.6849 89.8093V87.757C79.6849 87.7368 79.6686 87.7205 79.6484 87.7205Z" fill="#D2E4FD"/>
<path d="M61.9306 91.2975H32.714C32.6938 91.2975 32.6774 91.3139 32.6774 91.334V93.3863C32.6774 93.4065 32.6938 93.4228 32.714 93.4228H61.9306C61.9508 93.4228 61.9672 93.4065 61.9672 93.3863V91.334C61.9672 91.3139 61.9508 91.2975 61.9306 91.2975Z" fill="#D2E4FD"/>
<path d="M30.6859 91.6421C30.6859 92.1862 30.4948 92.6228 30.1137 92.9518C29.7534 93.2651 29.2949 93.4228 28.7404 93.4228C28.3112 93.4228 27.9457 93.3204 27.6418 93.1168C27.1604 92.793 26.9202 92.4024 26.9202 91.9481C26.9202 91.8175 26.9619 91.7047 27.0455 91.6108C27.129 91.5168 27.2366 91.4698 27.3671 91.4698C27.4977 91.4698 27.6313 91.5617 27.7514 91.7444C27.9446 92.0484 28.0574 92.2155 28.0887 92.2468C28.2611 92.4296 28.4835 92.5215 28.755 92.5215C29.1205 92.5215 29.3826 92.3857 29.5393 92.1131C29.6124 91.9773 29.6489 91.805 29.6489 91.5951C29.6489 91.0823 29.3482 90.7982 28.7467 90.7397C28.4073 90.7084 28.237 90.5643 28.237 90.3084C28.237 90.1204 28.3363 89.9867 28.5326 89.9084C28.9012 89.7726 29.0882 89.7016 29.0934 89.6964C29.2907 89.5658 29.39 89.3381 29.39 89.0133C29.39 88.8201 29.3325 88.6666 29.2176 88.5548C29.1028 88.442 28.9493 88.3867 28.7561 88.3867C28.5159 88.3867 28.3289 88.4441 28.1932 88.559C28.0783 88.6582 27.9822 88.8285 27.9039 89.0687C27.8412 89.2514 27.7212 89.3434 27.5447 89.3434C27.4193 89.3434 27.317 89.288 27.2355 89.1783C27.1551 89.0687 27.1144 88.9486 27.1144 88.817C27.1144 88.6551 27.1593 88.4922 27.2481 88.3303C27.3943 88.0587 27.6188 87.8467 27.9227 87.6953C28.1994 87.5543 28.5033 87.4833 28.8323 87.4833C29.2761 87.4833 29.6469 87.618 29.9424 87.8875C30.2379 88.1569 30.3862 88.511 30.3862 88.9507C30.3862 89.4791 30.1669 89.8969 29.7273 90.206C30.3653 90.4619 30.6839 90.9413 30.6839 91.6421H30.6859Z" fill="#D2E4FD"/>
<path d="M74.3955 27.7059H44.4948C44.4712 27.7059 44.452 27.7251 44.452 27.7488V30.1331C44.452 30.1568 44.4712 30.1759 44.4948 30.1759H74.3955C74.4192 30.1759 74.4383 30.1568 74.4383 30.1331V27.7488C74.4383 27.7251 74.4192 27.7059 74.3955 27.7059Z" fill="#BBD5FC"/>
<path d="M36.934 31.5138H81.9563C81.9793 31.5138 81.9981 31.5326 81.9981 31.5556V33.941C81.9981 33.964 81.9793 33.9838 81.9553 33.9838H36.933C36.91 33.9838 36.8902 33.965 36.8902 33.941V31.5556C36.8902 31.5326 36.909 31.5138 36.9319 31.5138H36.934Z" fill="#BBD5FC"/>
<path d="M112.662 82.0712C112.662 82.0712 112.355 85.0519 112.019 85.6148C111.683 86.1788 110.251 87.9804 109.641 88.3334C109.031 88.6864 110.014 85.9595 109.89 85.4289C109.765 84.8984 109.387 86.3971 109.119 86.4326C108.85 86.4681 108.919 85.1188 108.91 84.6279C108.901 84.137 110.218 82.9245 110.682 81.879C111.147 80.8336 112.662 82.0701 112.662 82.0701V82.0712Z" fill="#FC9490"/>
<path d="M76.0497 54.5836L75.3646 53.2917C75.3646 53.2917 75.704 50.9888 72.8197 49.5319C72.8197 49.5319 71.7649 49.1026 71.1697 49.9622C70.6214 50.7549 72.215 50.6107 72.1294 51.9664C72.0437 53.322 72.687 54.1168 73.582 54.5586L74.3224 55.416L76.0497 54.5836Z" fill="#FC9490"/>
<path d="M103.318 51.4943C103.318 51.4943 100.84 63.6564 87.205 67.6303C82.9484 68.8711 73.2791 54.8563 73.2791 54.8563C73.2791 54.8563 73.6196 53.5643 75.7489 53.8609C75.7489 53.8609 85.1644 60.095 86.3497 60.7717C87.4013 61.3723 94.3188 53.0473 97.4716 51.7042C100.624 50.3611 103.319 51.4933 103.319 51.4933L103.318 51.4943Z" fill="#F2564B"/>
<path d="M67.0336 49.1006L66.647 51.6184L79.3091 53.5629L79.6957 51.0452L67.0336 49.1006Z" fill="#FB7369"/>
<path d="M63.8971 49.9088L66.6478 51.6195L67.0342 49.1025L63.8971 49.9088Z" fill="#FC9490"/>
<path d="M81.0405 52.1084L80.9183 52.9042C80.8431 53.394 80.3857 53.7293 79.8959 53.6541L79.31 53.5643L79.6964 51.0472L80.3335 51.1454C80.795 51.2164 81.1115 51.6478 81.0405 52.1084Z" fill="#FC9490"/>
<path d="M119.596 127.951C119.596 127.951 121.288 129.494 120.958 130.592C120.628 131.689 119.101 132.42 118.896 133.761C118.69 135.102 117.864 135.833 117.121 135.833H113.581C113.581 135.833 113.035 134.89 114.355 134.605C115.675 134.321 116.173 132.745 116.091 131.282C116.008 129.82 116.214 127.869 116.214 127.869L119.02 127.22L119.597 127.951H119.596Z" fill="#0D5EC8"/>
<path d="M98.8438 131.943C98.8438 131.943 99.1477 135.457 98.4052 135.822L88.901 135.803C88.901 135.803 88.901 134.706 90.4278 134.462C91.9545 134.218 94.6363 133.324 95.0896 131.334C95.5438 129.343 98.8438 131.942 98.8438 131.942V131.943Z" fill="#0D5EC8"/>
<path d="M90.8204 82.3135C90.8204 82.3135 91.3217 88.4723 91.9107 95.875C92.7117 105.932 93.6745 118.285 93.7695 120.624C93.9345 124.688 94.5956 131.187 94.5956 131.187C94.5956 131.187 96.1621 132.732 99.2992 132.081C99.2992 132.081 102.094 122.802 102.893 112.984C102.905 112.824 102.918 112.662 102.93 112.5C103.673 102.505 104.828 81.4602 104.828 81.4602L90.8215 82.3135H90.8204Z" fill="#136ADC"/>
<path d="M90.8204 82.3135C90.8204 82.3135 91.3217 88.4723 91.9107 95.875L102.892 112.984C102.904 112.824 102.917 112.662 102.929 112.5C103.672 102.505 104.827 81.4602 104.827 81.4602L90.8204 82.3135Z" fill="#0D5EC8"/>
<path d="M93.1095 83.0446C93.1095 83.0446 102.145 105.349 108.086 115.831C114.027 126.312 115.884 129.238 115.884 129.238C115.884 129.238 119.287 127.897 119.596 126.983C119.596 126.983 117.325 106.747 113.346 101.814C111.098 99.0261 108.457 90.6615 108.333 87.7361C108.21 84.8107 107.529 79.0216 107.529 79.0216L93.1095 83.0436V83.0446Z" fill="#136ADC"/>
<path d="M104.997 48.6712C104.997 48.6712 98.8835 51.6216 95.359 50.5271C95.359 50.5271 96.2268 49.4326 97.7452 48.6179C97.623 47.9109 97.528 47.2968 97.4737 46.7756C97.3244 45.5745 97.3244 44.8936 97.3244 44.8936L99.6824 43.0377L101.919 41.2622C101.743 46.2545 104.996 48.6702 104.996 48.6702L104.997 48.6712Z" fill="#FC9490"/>
<path d="M108.219 80.1652C108.232 80.5391 107.432 80.9662 107.08 81.126C104.464 82.2738 102.024 83.0749 99.2595 83.3422C95.9929 83.6764 92.1289 82.9422 90.8006 82.9683C90.6648 82.9683 90.5426 82.9151 90.4351 82.8221C90.34 82.7553 90.2721 78.8179 90.34 73.8653C90.34 73.6648 90.34 73.4643 90.3536 73.2648V73.198C90.3808 71.2627 90.4486 69.2334 90.5437 67.2041C90.7337 62.7456 91.0857 58.4479 91.682 56.0718C92.4004 53.2687 94.0275 51.4138 95.5041 50.0655L96.7239 48.9971C97.9436 49.2373 99.2313 49.1704 100.519 48.5438C101.929 47.8628 103.447 47.1286 103.69 47.3156C105.534 48.6639 106.781 51.6937 107.445 55.5653C107.824 57.7941 108.014 60.2902 108 62.9064C108 63.8673 107.973 64.8553 107.919 65.8297C107.594 71.1154 107.919 75.7077 108.109 78.3636C108.163 79.1385 108.204 79.739 108.218 80.1662L108.219 80.1652Z" fill="#FB7369"/>
<path d="M108.11 79.9218C86.7027 79.879 104.161 56.6901 104.161 56.6901L107.63 55.5632C107.904 57.9445 108.041 60.6119 108.032 63.4067C108.032 64.4333 108.012 65.4892 107.973 66.5295C107.738 72.1765 107.973 77.0831 108.11 79.9208V79.9218Z" fill="#F2564B"/>
<path d="M101.961 43.1714C101.961 43.1714 100.416 45.9882 97.4747 46.7756C97.3254 45.5746 97.3254 44.8936 97.3254 44.8936L99.6834 43.0377L101.961 43.1714Z" fill="#F48484"/>
<path d="M96.2487 44.8121C96.2487 44.8121 102.081 45.7667 102.628 42.1803C103.176 38.5948 104.297 36.3024 100.597 35.542C96.8972 34.7817 95.9626 36.0423 95.4843 37.1953C95.006 38.3483 94.746 44.4717 96.2487 44.8121Z" fill="#FC9490"/>
<path d="M104.748 35.1139C104.802 35.0533 104.924 35.0042 105.195 34.9896C105.195 34.9896 104.978 34.8538 104.688 34.8465C104.63 34.4685 104.43 33.8 103.779 33.6371C103.779 33.6371 104.129 33.8241 104.174 34.2251C103.421 33.4512 101.807 32.8883 97.3369 33.2413C91.4459 33.706 93.3884 37.4774 94.1507 37.9275C94.9131 38.3766 96.8325 37.1442 98.2538 37.257C99.6751 37.3698 99.9445 39.4231 100.427 39.7051C100.909 39.9871 100.719 39.4889 101.372 39.1933C102.025 38.8988 102.086 39.9787 101.898 40.6816C101.71 41.3845 102.606 42.3109 102.606 42.3109L103.512 41.3354C104.417 40.3599 105.271 36.2293 104.859 35.3489C104.823 35.2706 104.787 35.1922 104.749 35.1129L104.748 35.1139Z" fill="#2C3A64"/>
<path d="M103.688 47.2843C103.688 47.2843 107.378 49.0316 109.147 51.7188C111.891 55.886 115.072 71.0727 115.131 72.4795C115.189 73.8863 112.809 83.8144 112.809 83.8144C112.809 83.8144 110.395 83.6556 109.773 82.4368C109.773 82.4368 110.255 72.2351 109.949 71.5792C109.643 70.9233 99.884 57.8944 100.98 55.1152C102.078 52.335 103.687 47.2853 103.687 47.2853L103.688 47.2843Z" fill="#FB7369"/>
<path d="M75.3532 53.23C75.3532 53.23 75.5537 52.4373 75.0043 52.0812C74.454 51.7251 73.9486 50.7558 73.7167 50.8874C73.2363 51.159 73.9799 52.0049 73.8431 53.0598C73.795 53.4295 74.6556 54.3966 75.3532 53.2311V53.23Z" fill="#FC9490"/>
<path d="M82.0357 111.349H29.4912C29.1393 111.349 28.8521 111.061 28.8521 110.71C28.8521 110.358 29.1393 110.071 29.4912 110.071H82.0357C82.3876 110.071 82.6748 110.358 82.6748 110.71C82.6748 111.062 82.3876 111.349 82.0357 111.349Z" fill="#D2E4FD"/>
<path d="M82.0357 113.909H29.4912C29.1393 113.909 28.8521 113.62 28.8521 113.27C28.8521 112.918 29.1393 112.63 29.4912 112.63H82.0357C82.3876 112.63 82.6748 112.919 82.6748 113.27C82.6748 113.622 82.3876 113.909 82.0357 113.909Z" fill="#D2E4FD"/>
<path d="M82.0357 116.745H29.4912C29.1393 116.745 28.8521 116.458 28.8521 116.106C28.8521 115.754 29.1393 115.467 29.4912 115.467H82.0357C82.3876 115.467 82.6748 115.754 82.6748 116.106C82.6748 116.458 82.3876 116.745 82.0357 116.745Z" fill="#D2E4FD"/>
<path d="M75.7134 118.303H28.874C28.8619 118.303 28.8521 118.312 28.8521 118.325V119.56C28.8521 119.572 28.8619 119.582 28.874 119.582H75.7134C75.7255 119.582 75.7353 119.572 75.7353 119.56V118.325C75.7353 118.312 75.7255 118.303 75.7134 118.303Z" fill="#D2E4FD"/>
</g>
<defs>
<clipPath id="clip0_4_885">
<rect width="121" height="136" fill="white"/>
</clipPath>
</defs>
</svg>
