<svg width="25" height="25" viewBox="0 0 25 25" fill="none" xmlns="http://www.w3.org/2000/svg">
<path d="M12.5 0C5.59896 0 0 5.59896 0 12.5C0 19.401 5.59896 25 12.5 25C19.401 25 25 19.401 25 12.5C25 5.59896 19.401 0 12.5 0ZM18.9323 9.47917L11.5885 16.849C11.3542 17.0833 11.0156 17.2396 10.6771 17.2396C10.3385 17.2396 10 17.1094 9.76562 16.849L6.06771 13.151C5.54687 12.6302 5.54687 11.8229 6.06771 11.3021C6.58854 10.7812 7.39583 10.7812 7.91667 11.3021L10.6771 14.0625L17.1094 7.63021C17.6302 7.10937 18.4375 7.10937 18.9583 7.63021C19.4531 8.15104 19.4531 8.95833 18.9323 9.47917Z" fill="#61DE5E"/>
</svg>
